<svg width="254" height="76" viewBox="0 0 254 76" fill="none" xmlns="http://www.w3.org/2000/svg">
<g clip-path="url(#clip0_221_1746)">
<g clip-path="url(#clip1_221_1746)">
<g clip-path="url(#clip2_221_1746)">
<path d="M242.95 0H10.7905C4.96808 0 0.248047 4.72003 0.248047 10.5425V64.493C0.248047 70.3154 4.96808 75.0355 10.7905 75.0355H242.95C248.773 75.0355 253.493 70.3154 253.493 64.493V10.5425C253.493 4.72003 248.773 0 242.95 0Z" fill="black"/>
<path fill-rule="evenodd" clip-rule="evenodd" d="M60.7796 38.5968C60.8 37.031 61.2162 35.4959 61.9892 34.1342C62.7622 32.7724 63.8671 31.6282 65.201 30.8081C63.4827 28.3545 60.7083 26.8537 57.7144 26.7599C54.5647 26.4298 51.5108 28.6452 49.905 28.6452C48.2693 28.6452 45.7969 26.7937 43.135 26.8481C39.6327 26.9607 36.4474 28.9041 34.7441 31.9655C31.1162 38.246 33.8231 47.4772 37.2972 52.5553C39.0362 55.0408 41.0677 57.819 43.7277 57.7196C46.3296 57.6108 47.3013 56.0613 50.4415 56.0613C53.5536 56.0613 54.4653 57.7196 57.1779 57.6577C59.9692 57.6127 61.7288 55.1609 63.4077 52.6509C64.6568 50.8791 65.6179 48.9209 66.2553 46.8488C64.633 46.1631 63.2486 45.0149 62.2748 43.5473C61.301 42.0798 60.781 40.358 60.7796 38.5968ZM55.6565 23.4227C57.1798 21.5954 57.9302 19.246 57.7481 16.874C55.4221 17.1188 53.2735 18.2305 51.7303 19.988C50.2071 21.7213 49.4342 23.9911 49.5843 26.2928C50.7476 26.3048 51.8984 26.0528 52.9502 25.5556C54.002 25.0585 54.9273 24.3292 55.6565 23.4227Z" fill="white"/>
<path d="M93.6691 51.426H84.7905L82.6576 57.7215H78.8965L87.3061 34.4268H91.2136L99.6232 57.7215H95.7982L93.6672 51.426H93.6691ZM85.7097 48.5203H92.748L89.2776 38.3023H89.1801L85.7078 48.5203H85.7097ZM117.787 49.2313C117.787 54.5081 114.962 57.8997 110.7 57.8997C109.62 57.9562 108.546 57.7074 107.601 57.1819C106.656 56.6564 105.878 55.8754 105.356 54.9283H105.275V63.3398H101.79V40.7372H105.165V43.5623H105.228C105.774 42.6193 106.565 41.842 107.517 41.3131C108.47 40.7842 109.548 40.5236 110.636 40.559C114.947 40.559 117.789 43.9656 117.789 49.2294L117.787 49.2313ZM114.204 49.2313C114.204 45.7928 112.428 43.5323 109.715 43.5323C107.052 43.5323 105.26 45.8397 105.26 49.2313C105.26 52.6529 107.052 54.9452 109.715 54.9452C112.426 54.9452 114.204 52.7016 114.204 49.2313ZM136.481 49.2313C136.481 54.5081 133.655 57.8997 129.393 57.8997C128.314 57.9562 127.239 57.7074 126.294 57.1819C125.349 56.6564 124.571 55.8754 124.049 54.9283H123.968V63.3398H120.483V40.7372H123.858V43.5623H123.922C124.467 42.6193 125.258 41.842 126.21 41.3131C127.163 40.7842 128.241 40.5236 129.33 40.559C133.64 40.559 136.482 43.9656 136.482 49.2294L136.481 49.2313ZM132.898 49.2313C132.898 45.7928 131.121 43.5323 128.409 43.5323C125.745 43.5323 123.953 45.8397 123.953 49.2313C123.953 52.6529 125.745 54.9452 128.409 54.9452C131.119 54.9452 132.898 52.7016 132.898 49.2313Z" fill="white"/>
<path fill-rule="evenodd" clip-rule="evenodd" d="M148.836 51.2312C149.094 53.5405 151.338 55.058 154.405 55.058C157.343 55.058 159.457 53.5405 159.457 51.4582C159.457 49.6499 158.181 48.5675 155.163 47.8246L152.145 47.0968C147.868 46.0632 145.881 44.0635 145.881 40.8163C145.881 36.7963 149.383 34.0369 154.358 34.0369C159.28 34.0369 162.655 36.7982 162.768 40.8163H159.249C159.038 38.4921 157.116 37.0889 154.307 37.0889C151.499 37.0889 149.578 38.509 149.578 40.5743C149.578 42.2214 150.805 43.1912 153.808 43.9322L156.375 44.5625C161.154 45.6936 163.139 47.6127 163.139 51.0193C163.139 55.3769 159.667 58.1064 154.146 58.1064C148.98 58.1064 145.493 55.4407 145.268 51.2275H148.836V51.2312ZM170.663 36.7194V40.7394H173.894V43.5007H170.663V52.8633C170.663 54.3171 171.311 54.9961 172.731 54.9961C173.114 54.9894 173.496 54.9625 173.877 54.9155V57.6599C173.239 57.7792 172.59 57.8333 171.941 57.8212C168.502 57.8212 167.161 56.5306 167.161 53.2366V43.5026H164.692V40.7413H167.161V36.7213L170.663 36.7194Z" fill="white"/>
<path d="M175.764 49.2315C175.764 43.8871 178.911 40.5293 183.819 40.5293C188.743 40.5293 191.876 43.8871 191.876 49.2315C191.876 54.5891 188.76 57.9338 183.819 57.9338C178.878 57.9338 175.764 54.5909 175.764 49.2315ZM188.323 49.2315C188.323 45.5661 186.642 43.4032 183.819 43.4032C180.996 43.4032 179.317 45.5829 179.317 49.2315C179.317 52.912 180.996 55.058 183.819 55.058C186.642 55.058 188.323 52.9101 188.323 49.2315Z" fill="white"/>
<path fill-rule="evenodd" clip-rule="evenodd" d="M194.748 40.7378H198.072V43.6285H198.153C198.378 42.7256 198.907 41.9277 199.651 41.3688C200.395 40.8099 201.309 40.5242 202.238 40.5596C202.64 40.5577 203.041 40.6027 203.433 40.689V43.9493C202.926 43.7946 202.397 43.7236 201.867 43.7392C200.843 43.6979 199.85 44.1069 199.153 44.8572C198.455 45.6076 198.119 46.6281 198.235 47.6467V57.7202H194.75V40.7359L194.748 40.7378Z" fill="white"/>
<path d="M219.51 52.7337C219.041 55.8177 216.038 57.9318 212.198 57.9318C207.257 57.9318 204.189 54.6209 204.189 49.3102C204.189 43.9827 207.273 40.5273 212.049 40.5273C216.749 40.5273 219.703 43.7557 219.703 48.9051V50.1H207.707V50.3101C207.652 50.935 207.731 51.5644 207.938 52.1566C208.145 52.7487 208.475 53.2902 208.907 53.7449C209.34 54.1997 209.863 54.5575 210.444 54.7945C211.025 55.0315 211.649 55.1424 212.276 55.1199C213.1 55.1967 213.927 55.0058 214.633 54.5756C215.34 54.1454 215.889 53.4989 216.199 52.7319L219.51 52.7337ZM207.725 47.6651H216.216C216.28 46.5283 215.865 45.4178 215.075 44.5999C214.285 43.782 213.188 43.3299 212.051 43.3543C211.483 43.3503 210.92 43.459 210.395 43.6741C209.869 43.8891 209.391 44.2062 208.989 44.6071C208.587 45.008 208.268 45.4847 208.051 46.0096C207.834 46.5345 207.723 47.0972 207.725 47.6651Z" fill="white"/>
<path d="M85.275 16.8916C86.0059 16.8392 86.7393 16.9496 87.4224 17.2149C88.1055 17.4802 88.7212 17.8938 89.2251 18.4259C89.729 18.958 90.1085 19.5952 90.3363 20.2917C90.5641 20.9882 90.6345 21.7266 90.5424 22.4536C90.5424 26.029 88.6103 28.085 85.275 28.085H81.2324V16.8916H85.275ZM82.9695 26.5018H85.0799C86.1379 26.5656 87.1677 26.1491 87.8843 25.3669C88.6009 24.5846 88.9273 23.5247 88.7716 22.4761C88.8428 21.9604 88.7989 21.4354 88.6431 20.9387C88.4873 20.442 88.2235 19.9859 87.8706 19.6032C87.5177 19.2205 87.0844 18.9207 86.6019 18.7253C86.1194 18.5299 85.5996 18.4437 85.0799 18.473H82.9695V26.5018ZM92.5065 23.8568C92.3621 22.3429 93.088 20.8779 94.3805 20.075C95.0139 19.681 95.7449 19.4722 96.4909 19.4722C97.2368 19.4722 97.9679 19.681 98.6013 20.075C99.8937 20.8779 100.62 22.3429 100.475 23.8568C100.548 24.5999 100.412 25.3487 100.081 26.0182C99.7498 26.6876 99.2379 27.2509 98.6031 27.6442C97.3088 28.4471 95.673 28.4471 94.3786 27.6442C93.0843 26.8413 92.3602 25.3725 92.5065 23.8568ZM98.7588 23.8568C98.7588 22.0259 97.9372 20.9548 96.4928 20.9548C95.0483 20.9548 94.2286 22.0259 94.2286 23.8568C94.2286 25.7026 95.0446 26.7644 96.4928 26.7644C97.9409 26.7644 98.7588 25.6951 98.7588 23.8568Z" fill="white"/>
<path fill-rule="evenodd" clip-rule="evenodd" d="M111.061 28.0858H109.331L107.585 21.8653H107.453L105.714 28.0858H104.002L101.674 19.6387H103.364L104.878 26.0842H105.002L106.739 19.6387H108.339L110.076 26.0842H110.207L111.714 19.6387H113.381L111.061 28.0858Z" fill="white"/>
<path d="M115.336 19.6391H116.94V20.9804H117.064C117.275 20.4988 117.632 20.0951 118.084 19.8255C118.536 19.5559 119.06 19.4337 119.585 19.4759C120.418 19.414 121.234 19.7329 121.802 20.3445C122.37 20.956 122.631 21.7927 122.509 22.618V28.0863H120.842V23.0364C120.842 21.6782 120.253 21.0048 119.018 21.0048C118.454 20.9785 117.906 21.1999 117.518 21.6107C117.129 22.0215 116.942 22.5824 117.002 23.1452V28.0863H115.334V19.6391H115.336Z" fill="white"/>
<path fill-rule="evenodd" clip-rule="evenodd" d="M125.17 16.3408H126.838V28.0857H125.17V16.3408Z" fill="white"/>
<path d="M129.153 23.8573C129.009 22.3434 129.735 20.8783 131.027 20.0755C131.661 19.6815 132.392 19.4727 133.138 19.4727C133.884 19.4727 134.615 19.6815 135.248 20.0755C136.541 20.8783 137.267 22.3434 137.122 23.8573C137.195 24.6004 137.058 25.3492 136.728 26.0186C136.397 26.6881 135.885 27.2514 135.25 27.6447C133.956 28.4475 132.318 28.4475 131.025 27.6447C129.733 26.8418 129.007 25.373 129.153 23.8573ZM135.406 23.8573C135.406 22.0264 134.584 20.9553 133.14 20.9553C131.695 20.9553 130.875 22.0264 130.875 23.8573C130.875 25.7031 131.691 26.7649 133.14 26.7649C134.588 26.7649 135.406 25.6956 135.406 23.8573ZM138.876 25.6956C138.876 24.1743 140.009 23.2982 142.018 23.1744L144.307 23.0431V22.3134C144.307 21.4205 143.718 20.9177 142.577 20.9177C141.647 20.9177 141.001 21.2592 140.818 21.8557H139.204C139.375 20.4056 140.739 19.4733 142.656 19.4733C144.774 19.4733 145.969 20.5276 145.969 22.3115V28.0836H144.365V26.8962H144.234C143.688 27.7628 142.72 28.2693 141.696 28.2224C141.341 28.2594 140.982 28.2216 140.643 28.1115C140.304 28.0014 139.992 27.8214 139.726 27.5831C139.461 27.3448 139.249 27.0536 139.103 26.7282C138.957 26.4027 138.881 26.0503 138.88 25.6937L138.876 25.6956ZM144.307 24.9734V24.2681L142.243 24.3994C141.08 24.4763 140.553 24.8721 140.553 25.6168C140.553 26.3766 141.213 26.8193 142.119 26.8193C142.385 26.8466 142.654 26.8201 142.909 26.7413C143.164 26.6625 143.401 26.5332 143.605 26.3609C143.809 26.1886 143.977 25.9769 144.097 25.7386C144.218 25.5002 144.289 25.2399 144.307 24.9734ZM148.156 23.8573C148.156 21.1879 149.527 19.4977 151.662 19.4977C152.739 19.4489 153.75 20.0248 154.253 20.9796H154.377V16.3406H156.044V28.0855H154.446V26.7517H154.315C153.772 27.6972 152.752 28.2656 151.662 28.2262C149.512 28.2262 148.156 26.5341 148.156 23.8573ZM149.878 23.8573C149.878 25.6487 150.722 26.7274 152.135 26.7274C153.547 26.7274 154.408 25.6337 154.408 23.8648C154.408 22.0958 153.531 20.9947 152.135 20.9947C150.739 20.9947 149.878 22.0808 149.878 23.8573ZM162.942 23.8573C162.797 22.3434 163.523 20.8783 164.816 20.0755C165.449 19.6815 166.18 19.4727 166.926 19.4727C167.672 19.4727 168.403 19.6815 169.037 20.0755C170.329 20.8783 171.055 22.3434 170.911 23.8573C170.984 24.6004 170.847 25.3492 170.516 26.0186C170.185 26.6881 169.673 27.2514 169.038 27.6447C167.744 28.4475 166.108 28.4475 164.814 27.6447C163.52 26.8418 162.796 25.373 162.942 23.8573ZM169.194 23.8573C169.194 22.0264 168.373 20.9553 166.928 20.9553C165.484 20.9553 164.664 22.0264 164.664 23.8573C164.664 25.7031 165.48 26.7649 166.928 26.7649C168.376 26.7649 169.194 25.6956 169.194 23.8573Z" fill="white"/>
<path d="M173.148 19.6401H174.752V20.9814H174.876C175.088 20.4998 175.445 20.0961 175.896 19.8265C176.348 19.5569 176.873 19.4347 177.397 19.4769C178.23 19.415 179.046 19.7339 179.615 20.3455C180.183 20.957 180.444 21.7936 180.322 22.619V28.0872H178.654V23.0373C178.654 21.6792 178.065 21.0058 176.831 21.0058C176.266 20.9795 175.718 21.2009 175.33 21.6117C174.942 22.0225 174.754 22.5834 174.814 23.1461V28.0872H173.146V19.6401H173.148Z" fill="white"/>
<path fill-rule="evenodd" clip-rule="evenodd" d="M189.741 17.5358V19.678H191.572V21.0831H189.741V25.4257C189.741 26.3112 190.105 26.6976 190.936 26.6976C191.148 26.6976 191.36 26.6845 191.572 26.6582V28.0464C191.273 28.1006 190.97 28.1289 190.666 28.1308C188.813 28.1308 188.074 27.478 188.074 25.8497V21.0793H186.732V19.6743H188.074V17.5358H189.741ZM193.85 16.3408H195.502V20.9949H195.633C196.087 19.9988 197.117 19.3929 198.209 19.4811C199.036 19.436 199.841 19.7624 200.404 20.3721C200.967 20.9818 201.227 21.809 201.119 22.6307V28.0839H199.449V23.0415C199.449 21.6927 198.821 21.008 197.643 21.008C197.356 20.9838 197.067 21.0227 196.797 21.122C196.527 21.2213 196.282 21.3786 196.079 21.5828C195.876 21.7871 195.721 22.0332 195.623 22.304C195.526 22.5748 195.489 22.8637 195.515 23.1503V28.0839H193.848L193.85 16.3408Z" fill="white"/>
<path d="M210.838 25.8039C210.611 26.5755 210.12 27.243 209.451 27.6897C208.782 28.1364 207.978 28.3341 207.178 28.2482C206.053 28.2782 204.97 27.8111 204.218 26.9707C203.466 26.1303 203.122 25.0029 203.276 23.8868C203.126 22.7668 203.469 21.6376 204.216 20.7915C204.963 19.9455 206.041 19.4634 207.171 19.4728C209.521 19.4728 210.939 21.0785 210.939 23.7311V24.3126H204.974V24.4064C204.948 24.7163 204.987 25.0283 205.088 25.3224C205.19 25.6164 205.351 25.886 205.563 26.1139C205.775 26.3417 206.032 26.5228 206.318 26.6454C206.604 26.7681 206.912 26.8297 207.223 26.8263C207.622 26.8738 208.026 26.8019 208.383 26.6195C208.741 26.4372 209.037 26.1526 209.232 25.802H210.836L210.838 25.8039ZM204.974 23.082H209.24C209.283 22.508 209.08 21.9433 208.684 21.5269C208.289 21.1104 207.735 20.8797 207.159 20.8928C206.871 20.8888 206.585 20.9426 206.318 21.0511C206.05 21.1596 205.808 21.3206 205.604 21.5245C205.4 21.7284 205.239 21.9711 205.13 22.2383C205.022 22.5055 204.968 22.7918 204.972 23.0801L204.974 23.082Z" fill="white"/>
</g>
</g>
</g>
<defs>
<clipPath id="clip0_221_1746">
<rect width="253.245" height="75.0355" fill="white" transform="translate(0.244141)"/>
</clipPath>
<clipPath id="clip1_221_1746">
<rect width="253.245" height="75.0355" fill="white" transform="translate(0.244141)"/>
</clipPath>
<clipPath id="clip2_221_1746">
<rect width="253.245" height="75.0355" fill="white" transform="translate(0.244141)"/>
</clipPath>
</defs>
</svg>
