<svg width="99" height="99" viewBox="0 0 99 99" fill="none" xmlns="http://www.w3.org/2000/svg">
<g clip-path="url(#clip0_221_1468)">
<path fill-rule="evenodd" clip-rule="evenodd" d="M26.2611 12.797L53.2697 6.33549L82.8155 24.4774L93.7703 70.268C95.1005 75.8283 91.6413 81.4695 86.0764 82.8009L45.3403 92.5465C39.7799 93.8767 34.1421 90.4118 32.8119 84.8515L18.5718 25.3287C17.2416 19.7684 20.7009 14.1272 26.2611 12.797Z" fill="#E5252A"/>
<path fill-rule="evenodd" clip-rule="evenodd" d="M53.2669 6.33558L82.8128 24.4775L61.5422 29.5662C60.1248 29.9053 58.6947 29.0235 58.3556 27.6061L53.2669 6.33558ZM12.9845 51.8752L67.9085 38.7354C69.13 38.4431 70.3669 39.2025 70.6591 40.4239L75.4796 60.5732C75.7718 61.7946 75.0125 63.0315 73.791 63.3238L18.8669 76.4636C17.6454 76.7559 16.4085 75.9965 16.1163 74.7751L11.2959 54.6258C11.0037 53.4044 11.7631 52.1674 12.9845 51.8752Z" fill="#B71D21"/>
<path d="M27.45 52.7589L23.3071 53.7501C22.9656 53.8318 22.6705 54.0458 22.4869 54.345C22.3032 54.6442 22.2459 55.0042 22.3276 55.3456L25.627 69.137C25.7087 69.4785 25.9226 69.7735 26.2219 69.9572C26.5211 70.1409 26.881 70.1982 27.2225 70.1165C27.564 70.0348 27.859 69.8208 28.0427 69.5216C28.2264 69.2224 28.2837 68.8624 28.202 68.521L27.2354 64.4805L30.0906 63.7974C33.085 63.0811 34.9383 60.0622 34.2219 57.068L34.1794 56.8903C33.4632 53.8959 30.4443 52.0426 27.45 52.7589ZM31.647 57.6838C32.0237 59.2583 31.0491 60.8455 29.4747 61.2222L26.6193 61.9053L25.2106 56.0169L28.0658 55.3339C29.6403 54.9572 31.2277 55.9317 31.6043 57.506L31.6469 57.6839L31.647 57.6838ZM41.3052 49.4443L37.1624 50.4354C36.821 50.5171 36.5259 50.731 36.3422 51.0303C36.1586 51.3295 36.1013 51.6894 36.1829 52.0309L39.4824 65.8223C39.564 66.1637 39.778 66.4588 40.0773 66.6425C40.3765 66.8262 40.7364 66.8835 41.0779 66.8018L45.2207 65.8107C48.215 65.0943 50.0683 62.0754 49.352 59.0812L48.0348 53.5755C47.3185 50.5812 44.2996 48.7279 41.3052 49.4443ZM46.7769 59.6971C47.1536 61.2715 46.179 62.8588 44.6046 63.2355L41.7493 63.9186L39.066 52.7022L41.9212 52.0191C43.4957 51.6425 45.0831 52.617 45.4597 54.1913L46.7769 59.6971ZM53.1717 49.3278L54.0244 52.8919L59.9927 51.4641C60.3341 51.3824 60.6941 51.4397 60.9933 51.6234C61.2925 51.807 61.5065 52.1021 61.5882 52.4436C61.6699 52.785 61.6126 53.145 61.4289 53.4442C61.2452 53.7434 60.9502 53.9574 60.6087 54.0391L54.6404 55.4669L56.1631 61.8316C56.2448 62.1731 56.1875 62.533 56.0038 62.8323C55.8201 63.1315 55.5251 63.3455 55.1836 63.4272C54.8421 63.5089 54.4822 63.4516 54.183 63.2679C53.8837 63.0842 53.6697 62.7891 53.5881 62.4477L50.2886 48.6563C50.207 48.3148 50.2643 47.9549 50.4479 47.6557C50.6316 47.3564 50.9267 47.1424 51.2681 47.0608L59.5538 45.0785C59.8953 44.9968 60.2553 45.0541 60.5545 45.2378C60.8537 45.4215 61.0677 45.7165 61.1494 46.058C61.2311 46.3995 61.1738 46.7594 60.9901 47.0586C60.8064 47.3579 60.5114 47.5719 60.1699 47.6535L53.1717 49.3278Z" fill="white"/>
</g>
<defs>
<clipPath id="clip0_221_1468">
<rect width="82" height="82" fill="white" transform="translate(0 19.0791) rotate(-13.4544)"/>
</clipPath>
</defs>
</svg>
