<svg width="254" height="76" viewBox="0 0 254 76" fill="none" xmlns="http://www.w3.org/2000/svg">
<g clip-path="url(#clip0_221_1725)">
<g clip-path="url(#clip1_221_1725)">
<g clip-path="url(#clip2_221_1725)">
<path d="M242.702 0H10.5425C4.72003 0 0 4.72003 0 10.5425V64.493C0 70.3154 4.72003 75.0355 10.5425 75.0355H242.702C248.525 75.0355 253.245 70.3154 253.245 64.493V10.5425C253.245 4.72003 248.525 0 242.702 0Z" fill="black"/>
<path fill-rule="evenodd" clip-rule="evenodd" d="M88.951 19.2092C88.9818 19.8971 88.873 20.5842 88.6312 21.2289C88.3894 21.8737 88.0196 22.4629 87.5441 22.9609C87.0112 23.5111 86.3681 23.9426 85.6569 24.2271C84.9457 24.5115 84.1825 24.6426 83.4171 24.6117C82.6474 24.6289 81.8823 24.4879 81.1692 24.1975C80.4561 23.9071 79.8102 23.4735 79.2714 22.9234C78.7156 22.3841 78.2772 21.7358 77.9834 21.0193C77.6897 20.3027 77.547 19.5332 77.5643 18.759C77.5444 17.9816 77.6858 17.2085 77.9796 16.4885C78.2735 15.7685 78.7133 15.1172 79.2714 14.5757C80.1071 13.7591 81.1655 13.2077 82.3136 12.9908C83.4618 12.7738 84.6484 12.901 85.7245 13.3564C86.4009 13.6345 87.0043 14.0645 87.4878 14.6132L86.4936 15.6075C86.121 15.1587 85.649 14.803 85.115 14.5685C84.5809 14.3341 83.9996 14.2273 83.4171 14.2568C82.8312 14.254 82.2507 14.3694 81.7104 14.5963C81.1702 14.8233 80.6814 15.1569 80.2732 15.5773C79.865 15.9978 79.546 16.4963 79.3352 17.043C79.1243 17.5897 79.0261 18.1733 79.0463 18.759C79.034 19.6334 79.281 20.4918 79.756 21.2261C80.2311 21.9603 80.9129 22.5374 81.7156 22.8845C82.5182 23.2317 83.4057 23.3333 84.266 23.1766C85.1264 23.02 85.9211 22.612 86.5498 22.0042C87.1283 21.3778 87.4671 20.5674 87.5066 19.7157H83.4171V18.365H88.8759C88.9179 18.6446 88.943 18.9265 88.951 19.2092ZM97.5425 14.5194H92.4776V18.0836H97.0923V19.4343H92.4776V22.9985H97.5425V24.3866H91.0145V13.1313H97.5425V14.5194ZM103.695 24.3866H102.251V14.5194H99.0995V13.1313H106.922V14.5194H103.695V24.3866ZM112.437 24.3866V13.1313H113.882V24.3866H112.437ZM120.297 24.3866H118.853V14.5194H115.701V13.1313H123.43V14.5194H120.297V24.3866Z" fill="white" stroke="white" stroke-width="0.937943"/>
<path d="M138.079 22.9234C137.538 23.4656 136.894 23.8958 136.186 24.1893C135.478 24.4827 134.719 24.6338 133.952 24.6338C133.186 24.6338 132.427 24.4827 131.719 24.1893C131.011 23.8958 130.367 23.4656 129.826 22.9234C129.28 22.3792 128.852 21.7288 128.568 21.0125C128.284 20.2961 128.15 19.5291 128.175 18.7589C128.15 17.9887 128.284 17.2217 128.568 16.5053C128.852 15.789 129.28 15.1386 129.826 14.5944C130.356 14.0369 130.997 13.5969 131.708 13.3028C132.419 13.0088 133.183 12.8673 133.952 12.8874C134.72 12.8752 135.483 13.0204 136.193 13.314C136.902 13.6076 137.544 14.0433 138.079 14.5944C138.619 15.1431 139.043 15.7943 139.326 16.5096C139.61 17.2248 139.747 17.9897 139.73 18.7589C139.755 19.5291 139.621 20.2961 139.337 21.0125C139.053 21.7288 138.625 22.3792 138.079 22.9234ZM130.895 21.9854C131.294 22.3904 131.77 22.7119 132.295 22.9314C132.82 23.1509 133.384 23.2639 133.952 23.2639C134.521 23.2639 135.085 23.1509 135.61 22.9314C136.134 22.7119 136.611 22.3904 137.01 21.9854C137.426 21.5597 137.751 21.0545 137.967 20.5001C138.183 19.9458 138.285 19.3536 138.267 18.7589C138.275 18.1589 138.161 17.5635 137.932 17.0088C137.704 16.4542 137.364 15.9519 136.935 15.5324C136.536 15.1274 136.059 14.8059 135.535 14.5864C135.01 14.3669 134.446 14.2539 133.877 14.2539C133.309 14.2539 132.745 14.3669 132.22 14.5864C131.695 14.8059 131.219 15.1274 130.82 15.5324C130.418 15.9643 130.106 16.4722 129.903 17.0263C129.7 17.5804 129.61 18.1695 129.638 18.7589C129.62 19.3536 129.722 19.9458 129.938 20.5001C130.154 21.0545 130.479 21.5597 130.895 21.9854Z" fill="white" stroke="white" stroke-width="0.937943"/>
<path fill-rule="evenodd" clip-rule="evenodd" d="M141.773 24.3862V13.1309H143.518L148.996 21.8912V19.7152V13.1309H150.44V24.3862H148.939L143.218 15.2131V17.3704V24.3862H141.773Z" fill="white" stroke="white" stroke-width="0.937943"/>
<path d="M127.822 40.8007C125.702 40.8056 123.671 41.6523 122.176 43.1545C120.681 44.6567 119.844 46.6913 119.849 48.8107C119.854 50.9301 120.701 52.9607 122.203 54.4559C123.705 55.951 125.74 56.7882 127.859 56.7832C128.908 56.7807 129.947 56.5716 130.916 56.1677C131.884 55.7639 132.764 55.1732 133.504 54.4294C134.245 53.6856 134.831 52.8032 135.23 51.8327C135.63 50.8622 135.834 49.8226 135.832 48.7732C135.847 47.7188 135.65 46.6721 135.252 45.6955C134.855 44.7188 134.265 43.8322 133.517 43.0883C132.77 42.3444 131.88 41.7585 130.902 41.3655C129.923 40.9725 128.876 40.7804 127.822 40.8007ZM127.822 53.613C126.853 53.6807 125.886 53.4555 125.047 52.9665C124.208 52.4775 123.535 51.7475 123.117 50.8712C122.698 49.9949 122.553 49.013 122.7 48.053C122.847 47.0931 123.279 46.1995 123.94 45.4885C124.602 44.7775 125.462 44.2819 126.409 44.0661C127.355 43.8504 128.345 43.9245 129.249 44.2787C130.154 44.633 130.93 45.2511 131.479 46.0526C132.027 46.8541 132.321 47.8021 132.324 48.7732C132.354 49.3885 132.261 50.0036 132.049 50.5823C131.838 51.161 131.513 51.6915 131.093 52.1426C130.674 52.5937 130.168 52.9562 129.606 53.2087C129.044 53.4612 128.437 53.5987 127.822 53.613ZM110.338 40.8007C108.219 40.8056 106.188 41.6523 104.693 43.1545C103.198 44.6567 102.361 46.6913 102.366 48.8107C102.371 50.9301 103.217 52.9607 104.72 54.4559C106.222 55.951 108.256 56.7882 110.376 56.7832C111.425 56.7807 112.464 56.5716 113.433 56.1677C114.401 55.7639 115.281 55.1732 116.021 54.4294C116.761 53.6856 117.348 52.8032 117.747 51.8327C118.147 50.8622 118.351 49.8226 118.348 48.7732C118.364 47.7188 118.167 46.6721 117.769 45.6955C117.371 44.7188 116.781 43.8322 116.034 43.0883C115.287 42.3444 114.397 41.7585 113.419 41.3655C112.44 40.9725 111.393 40.7804 110.338 40.8007ZM110.338 53.613C109.37 53.6807 108.403 53.4555 107.564 52.9665C106.725 52.4775 106.052 51.7475 105.634 50.8712C105.215 49.9949 105.07 49.013 105.217 48.053C105.363 47.0931 105.796 46.1995 106.457 45.4885C107.119 44.7775 107.979 44.2819 108.925 44.0661C109.872 43.8504 110.862 43.9245 111.766 44.2787C112.67 44.633 113.447 45.2511 113.995 46.0526C114.544 46.8541 114.838 47.8021 114.84 48.7732C114.871 49.3885 114.777 50.0036 114.566 50.5823C114.355 51.161 114.03 51.6915 113.61 52.1426C113.19 52.5937 112.685 52.9562 112.123 53.2087C111.561 53.4612 110.954 53.5987 110.338 53.613ZM89.5535 43.2581V46.6347H97.6573C97.5302 48.225 96.8691 49.7257 95.7814 50.8929C94.9685 51.7211 93.9908 52.3695 92.9115 52.796C91.8322 53.2226 90.6754 53.4178 89.5159 53.3691C87.1279 53.3691 84.8376 52.4204 83.149 50.7318C81.4603 49.0432 80.5117 46.7529 80.5117 44.3648C80.5117 41.9768 81.4603 39.6865 83.149 37.9979C84.8376 36.3092 87.1279 35.3606 89.5159 35.3606C91.8054 35.3265 94.016 36.196 95.6689 37.7805L98.0512 35.3981C96.9332 34.2923 95.6057 33.4207 94.1465 32.8345C92.6873 32.2482 91.1258 31.9591 89.5535 31.984C87.324 31.8973 85.1125 32.4137 83.152 33.4788C81.1916 34.5439 79.5548 36.1183 78.4143 38.0358C77.2738 39.9534 76.6718 42.1432 76.6719 44.3744C76.6719 46.6055 77.2739 48.7953 78.4144 50.7128C79.555 52.6304 81.1917 54.2046 83.1522 55.2697C85.1126 56.3348 87.3241 56.8512 89.5535 56.7644C91.1581 56.8285 92.7582 56.5525 94.2486 55.9544C95.739 55.3563 97.0861 54.4496 98.2013 53.2941C100.171 51.1301 101.221 48.2839 101.128 45.3591C101.134 44.6551 101.078 43.9519 100.959 43.2581H89.5535ZM174.55 45.8843C174.061 44.445 173.146 43.1883 171.926 42.2804C170.707 41.3726 169.241 40.8566 167.722 40.8007C166.696 40.7986 165.68 41.0071 164.738 41.4132C163.795 41.8193 162.946 42.4143 162.243 43.1615C161.54 43.9087 160.997 44.7923 160.649 45.7575C160.301 46.7227 160.154 47.7491 160.218 48.7732C160.202 50.4856 160.74 52.1572 161.753 53.5384C162.765 54.9196 164.197 55.9362 165.835 56.4364C167.473 56.9366 169.228 56.8936 170.84 56.3137C172.451 55.7338 173.832 54.6482 174.775 53.219L172.055 51.3431C171.649 52.019 171.074 52.5771 170.387 52.9621C169.699 53.3471 168.922 53.5456 168.134 53.5379C167.321 53.5715 166.517 53.3583 165.827 52.9264C165.138 52.4946 164.595 51.8641 164.27 51.118L174.944 46.7097L174.55 45.8843ZM163.67 48.5481C163.632 47.9663 163.71 47.3829 163.901 46.832C164.092 46.2812 164.391 45.7741 164.781 45.3406C165.171 44.9071 165.644 44.5559 166.171 44.3078C166.699 44.0597 167.27 43.9196 167.853 43.8959C168.455 43.8573 169.056 43.9968 169.579 44.297C170.103 44.5972 170.527 45.0449 170.798 45.5842L163.67 48.5481ZM155.003 56.2767H158.511V32.8281H155.003V56.2767ZM149.263 42.5827H149.132C148.599 42.003 147.948 41.544 147.224 41.2366C146.499 40.9292 145.717 40.7806 144.93 40.8007C142.88 40.9001 140.946 41.7844 139.531 43.2704C138.115 44.7564 137.325 46.7301 137.325 48.7825C137.325 50.835 138.115 52.8087 139.531 54.2947C140.946 55.7807 142.88 56.665 144.93 56.7644C145.725 56.7804 146.514 56.6205 147.24 56.2963C147.967 55.972 148.613 55.4913 149.132 54.8886H149.263V56.0329C149.263 59.0905 147.631 60.7226 145.005 60.7226C144.127 60.7033 143.276 60.4237 142.557 59.9194C141.839 59.4151 141.287 58.7087 140.972 57.89L137.933 59.1468C138.494 60.558 139.471 61.7654 140.734 62.6094C141.997 63.4535 143.486 63.8945 145.005 63.8741C149.113 63.8741 152.508 61.4542 152.508 55.5639V41.2696H149.263V42.5827ZM145.23 53.613C144.001 53.5363 142.847 52.9941 142.004 52.0966C141.161 51.1991 140.691 50.014 140.691 48.7825C140.691 47.5511 141.161 46.3659 142.004 45.4685C142.847 44.571 144.001 44.0288 145.23 43.9521C145.83 43.9781 146.42 44.1246 146.963 44.3829C147.506 44.6413 147.991 45.0062 148.39 45.456C148.789 45.9058 149.094 46.4313 149.286 47.0011C149.477 47.571 149.553 48.1736 149.507 48.7732C149.558 49.3747 149.487 49.9805 149.297 50.5537C149.107 51.1269 148.804 51.6557 148.404 52.1081C148.004 52.5605 147.516 52.9271 146.971 53.1858C146.425 53.4444 145.833 53.5898 145.23 53.613ZM190.983 32.8281H182.579V56.2767H186.087V47.385H190.983C192.319 47.481 193.657 47.207 194.848 46.5932C196.039 45.9793 197.038 45.0493 197.736 43.9051C198.434 42.7608 198.803 41.4466 198.803 40.1065C198.803 38.7664 198.433 37.4521 197.736 36.3079C197.038 35.1637 196.039 34.2337 194.848 33.6199C193.657 33.0061 192.319 32.7321 190.983 32.8281ZM190.983 44.0835H186.087V36.0922H191.058C192.122 36.0922 193.143 36.5151 193.896 37.268C194.649 38.0208 195.072 39.0419 195.072 40.1066C195.072 41.1713 194.649 42.1923 193.896 42.9452C193.143 43.698 192.122 44.121 191.058 44.121L190.983 44.0835ZM212.63 40.7256C211.353 40.6468 210.08 40.9443 208.97 41.5811C207.86 42.2179 206.961 43.1661 206.384 44.3086L209.479 45.6029C209.792 45.039 210.261 44.5778 210.83 44.2748C211.399 43.9719 212.044 43.8403 212.687 43.8959C213.132 43.8439 213.583 43.8811 214.014 44.0053C214.445 44.1295 214.846 44.3383 215.196 44.6194C215.545 44.9005 215.835 45.2484 216.048 45.6427C216.261 46.037 216.394 46.4699 216.438 46.916V47.1411C215.31 46.5482 214.055 46.2392 212.78 46.2407C209.441 46.2407 206.027 48.1166 206.027 51.5307C206.06 52.2564 206.239 52.968 206.552 53.6234C206.866 54.2787 207.308 54.8644 207.852 55.3456C208.396 55.8267 209.031 56.1937 209.72 56.4245C210.409 56.6554 211.137 56.7455 211.861 56.6894C212.742 56.7381 213.619 56.5518 214.403 56.1497C215.188 55.7475 215.851 55.1439 216.326 54.4008H216.438V56.2767H219.815V47.2537C219.815 43.1455 216.701 40.7631 212.705 40.7631L212.63 40.7256ZM212.199 53.5754C211.055 53.5754 209.46 52.9939 209.46 51.587C209.46 49.7111 211.449 49.0733 213.212 49.0733C214.326 49.0458 215.428 49.3179 216.401 49.8612C216.283 50.8799 215.8 51.8214 215.041 52.5113C214.282 53.2011 213.299 53.5925 212.274 53.613L212.199 53.5754ZM232.121 41.2696L228.106 51.4369H227.994L223.829 41.2696H220.078L226.324 55.4888L222.76 63.3863H226.512L236.023 41.2696H232.121ZM200.606 56.2767H204.095V32.8281H200.606V56.2767Z" fill="white"/>
<path fill-rule="evenodd" clip-rule="evenodd" d="M19.5849 14.143C18.9869 14.8822 18.6919 15.8209 18.7595 16.7693V58.2639C18.6957 59.2213 19.0125 60.1652 19.6412 60.8901L19.7725 61.0402L42.9584 37.798V37.2352L19.7162 14.0117L19.5849 14.143Z" fill="url(#paint0_linear_221_1725)"/>
<path fill-rule="evenodd" clip-rule="evenodd" d="M50.6482 45.5459L42.957 37.7985V37.2357L50.6482 29.4883L50.817 29.6008L60.0276 34.8158C62.6538 36.2977 62.6538 38.7364 60.0276 40.2371L50.8545 45.4521L50.6482 45.5459Z" fill="url(#paint1_linear_221_1725)"/>
<path fill-rule="evenodd" clip-rule="evenodd" d="M50.8757 45.4526L42.9595 37.5176L19.5859 60.8911C20.116 61.363 20.7945 61.6344 21.5038 61.6584C22.213 61.6824 22.9083 61.4574 23.469 61.0224L50.8757 45.4526Z" fill="url(#paint2_linear_221_1725)"/>
<path fill-rule="evenodd" clip-rule="evenodd" d="M50.8757 29.6019L23.469 14.032C22.9119 13.591 22.2172 13.3606 21.507 13.3812C20.7968 13.4017 20.1166 13.6721 19.5859 14.1446L42.9595 37.5181L50.8757 29.6019Z" fill="url(#paint3_linear_221_1725)"/>
<path opacity="0.2" fill-rule="evenodd" clip-rule="evenodd" d="M50.6506 45.2646L23.469 60.7407C22.9287 61.1485 22.2701 61.3692 21.5931 61.3692C20.9162 61.3692 20.2576 61.1485 19.7173 60.7407L19.5859 60.872L19.7173 61.0221C20.2576 61.4299 20.9162 61.6505 21.5931 61.6505C22.2701 61.6505 22.9287 61.4299 23.469 61.0221L50.8757 45.4522L50.6506 45.2646Z" fill="black"/>
<path opacity="0.12" fill-rule="evenodd" clip-rule="evenodd" d="M19.5862 60.6285C18.9836 59.8844 18.6883 58.9382 18.7608 57.9835V58.2649C18.6969 59.2223 19.0138 60.1662 19.6424 60.8911L19.7737 60.7598L19.5862 60.6285ZM60.0303 39.9562L50.6508 45.265L50.8197 45.4526L60.0303 40.2189C60.574 39.989 61.0456 39.6167 61.3955 39.1413C61.7455 38.666 61.9607 38.105 62.0187 37.5176C61.9014 38.0514 61.6604 38.5502 61.315 38.9738C60.9696 39.3974 60.5295 39.7339 60.0303 39.9562Z" fill="black"/>
<path opacity="0.25" fill-rule="evenodd" clip-rule="evenodd" d="M23.4663 14.2936L60.0273 35.0784C60.5266 35.3008 60.9667 35.6373 61.312 36.0609C61.6574 36.4845 61.8985 36.9833 62.0158 37.5171C61.9578 36.9297 61.7425 36.3687 61.3926 35.8933C61.0426 35.4179 60.571 35.0457 60.0273 34.8158L23.4663 14.031C20.8588 12.5303 18.7578 13.7684 18.7578 16.7698V17.0512C18.7578 14.0498 20.8588 12.8117 23.4663 14.2936Z" fill="white"/>
</g>
</g>
</g>
<defs>
<linearGradient id="paint0_linear_221_1725" x1="1495.23" y1="246.622" x2="-495.681" y2="2237.53" gradientUnits="userSpaceOnUse">
<stop stop-color="#00A0FF"/>
<stop offset="0.01" stop-color="#00A1FF"/>
<stop offset="0.26" stop-color="#00BEFF"/>
<stop offset="0.51" stop-color="#00D2FF"/>
<stop offset="0.76" stop-color="#00DFFF"/>
<stop offset="1" stop-color="#00E3FF"/>
</linearGradient>
<linearGradient id="paint1_linear_221_1725" x1="2093.3" y1="832.368" x2="-2444.47" y2="832.368" gradientUnits="userSpaceOnUse">
<stop stop-color="#FFE000"/>
<stop offset="0.41" stop-color="#FFBD00"/>
<stop offset="0.78" stop-color="#FFA500"/>
<stop offset="1" stop-color="#FF9C00"/>
</linearGradient>
<linearGradient id="paint2_linear_221_1725" x1="2718.99" y1="782.86" x2="-687.047" y2="4187.4" gradientUnits="userSpaceOnUse">
<stop stop-color="#FF3A44"/>
<stop offset="1" stop-color="#C31162"/>
</linearGradient>
<linearGradient id="paint3_linear_221_1725" x1="-569.442" y1="-274.116" x2="950.63" y2="1245.96" gradientUnits="userSpaceOnUse">
<stop stop-color="#32A071"/>
<stop offset="0.07" stop-color="#2DA771"/>
<stop offset="0.48" stop-color="#15CF74"/>
<stop offset="0.8" stop-color="#06E775"/>
<stop offset="1" stop-color="#00F076"/>
</linearGradient>
<clipPath id="clip0_221_1725">
<rect width="253.245" height="75.0355" fill="white"/>
</clipPath>
<clipPath id="clip1_221_1725">
<rect width="253.245" height="75.0355" fill="white"/>
</clipPath>
<clipPath id="clip2_221_1725">
<rect width="253.245" height="75.0355" fill="white"/>
</clipPath>
</defs>
</svg>
