<svg width="88" height="88" viewBox="0 0 88 88" fill="none" xmlns="http://www.w3.org/2000/svg">
<circle cx="44" cy="44" r="44" fill="#FFECCD"/>
<path d="M35.4106 45.5055C35.4106 42.2037 32.7342 39.5346 29.4397 39.5346C26.1378 39.5346 23.4688 42.2109 23.4688 45.5055C23.4688 48.8073 26.1451 51.4764 29.4397 51.4764C32.7342 51.4837 35.4106 48.8073 35.4106 45.5055ZM28.7124 48.4146V46.2328H26.5306C26.1306 46.2328 25.8033 45.9055 25.8033 45.5055C25.8033 45.1055 26.1306 44.7782 26.5306 44.7782H28.7124V42.5964C28.7124 42.1964 29.0397 41.8691 29.4397 41.8691C29.8397 41.8691 30.1669 42.1964 30.1669 42.5964V44.7782H32.3488C32.7488 44.7782 33.076 45.1055 33.076 45.5055C33.076 45.9055 32.7488 46.2328 32.3488 46.2328H30.1669V48.4146C30.1669 48.8146 29.8397 49.1418 29.4397 49.1418C29.0397 49.1418 28.7124 48.8218 28.7124 48.4146ZM62.0724 25.3746V58.5309C62.0724 61.5928 59.5778 64.0873 56.516 64.0873H33.3524V66.5455H64.5306V25.3746H62.0724Z" fill="#F47B23"/>
<path d="M36.8649 45.5054C36.8649 49.6 33.534 52.9309 29.4395 52.9309V55.8691H52.4067V58.7273C52.4067 58.88 52.414 59.0327 52.4285 59.1782C52.6467 61.1782 54.4722 62.6182 56.4867 62.6182H56.5085C58.7704 62.6182 60.6104 60.7782 60.6104 58.5164V21.4545H29.4395V38.08C33.534 38.08 36.8649 41.4109 36.8649 45.5054ZM57.7085 51.6727H36.4504C36.0504 51.6727 35.7231 51.3454 35.7231 50.9454C35.7231 50.5454 36.0504 50.2182 36.4504 50.2182H57.7085C58.1085 50.2182 58.4358 50.5454 58.4358 50.9454C58.4358 51.3454 58.1085 51.6727 57.7085 51.6727ZM57.7085 47.6727H38.3195C37.9195 47.6727 37.5922 47.3454 37.5922 46.9454C37.5922 46.5454 37.9195 46.2182 38.3195 46.2182H57.7085C58.1085 46.2182 58.4358 46.5454 58.4358 46.9454C58.4358 47.3454 58.1085 47.6727 57.7085 47.6727ZM57.7085 43.6654H37.9413C37.5413 43.6654 37.214 43.3382 37.214 42.9382C37.214 42.5382 37.5413 42.2109 37.9413 42.2109H57.7085C58.1085 42.2109 58.4358 42.5382 58.4358 42.9382C58.4358 43.3382 58.1085 43.6654 57.7085 43.6654ZM31.6213 24.3636C31.6213 23.9636 31.9485 23.6363 32.3485 23.6363H57.7158C58.1158 23.6363 58.4431 23.9636 58.4431 24.3636V31.4545C58.4431 31.8545 58.1158 32.1818 57.7158 32.1818H32.3485C31.9485 32.1818 31.6213 31.8545 31.6213 31.4545V24.3636ZM31.6213 34.9236C31.6213 34.5236 31.9485 34.1964 32.3485 34.1964H57.7158C58.1158 34.1964 58.4431 34.5236 58.4431 34.9236C58.4431 35.3236 58.1158 35.6509 57.7158 35.6509H32.3485C31.9413 35.6509 31.6213 35.3236 31.6213 34.9236ZM35.4104 38.2036H57.7085C58.1085 38.2036 58.4358 38.5309 58.4358 38.9309C58.4358 39.3309 58.1085 39.6582 57.7085 39.6582H35.4104C35.0104 39.6582 34.6831 39.3309 34.6831 38.9309C34.6831 38.5309 35.0104 38.2036 35.4104 38.2036Z" fill="#4366F7"/>
<path d="M56.9889 25.0909H33.0762V30.7272H56.9889V25.0909Z" fill="#F47B23"/>
<path d="M50.99 59.3455C50.9682 59.1491 50.9536 58.9455 50.9536 58.7346V57.3309H27.9863H25.6445V59.9782C25.6445 61.44 26.83 62.6255 28.2918 62.6255H52.6845C51.7609 61.7891 51.1354 60.6473 50.99 59.3455Z" fill="#4366F7"/>
</svg>
