<svg width="88" height="88" viewBox="0 0 88 88" fill="none" xmlns="http://www.w3.org/2000/svg">
<circle cx="44" cy="44" r="44" fill="#FFECCD"/>
<path d="M54.2676 59.8667H69.2009V61.7334C69.2009 62.476 68.9059 63.1882 68.3808 63.7133C67.8557 64.2384 67.1435 64.5334 66.4009 64.5334H57.0676C56.325 64.5334 55.6128 64.2384 55.0877 63.7133C54.5626 63.1882 54.2676 62.476 54.2676 61.7334V59.8667Z" fill="#EB5463"/>
<path d="M64.5336 49.6H58.9336V56.1333H64.5336V49.6Z" fill="#CAD0D7"/>
<path d="M53.7669 21.6015V66.3985C53.7669 66.3989 53.7669 66.3993 53.7669 66.3996C53.7655 66.7617 53.6211 67.1087 53.365 67.3647C53.1089 67.6208 52.762 67.7653 52.3999 67.7667C52.3995 67.7667 52.3991 67.7667 52.3988 67.7667H18.8018C18.8014 67.7667 18.801 67.7667 18.8006 67.7667C18.4385 67.7653 18.0916 67.6208 17.8355 67.3647C17.5793 67.1086 17.4349 66.7615 17.4336 66.3992V29.2738L26.474 20.2333H52.3995C52.7617 20.2346 53.1088 20.3791 53.365 20.6353C53.6211 20.8913 53.7655 21.2383 53.7669 21.6004C53.7669 21.6007 53.7669 21.6011 53.7669 21.6015Z" fill="white" stroke="#D1D1D1"/>
<path d="M26.2669 19.7333V27.2C26.2654 27.6946 26.0683 28.1686 25.7186 28.5183C25.3688 28.8681 24.8949 29.0652 24.4003 29.0667H16.9336L26.2669 19.7333Z" fill="#5E8FAA"/>
<path d="M44.0007 54.2667H27.2007C26.1697 54.2667 25.334 55.1024 25.334 56.1333V59.8667C25.334 60.8976 26.1697 61.7333 27.2007 61.7333H44.0007C45.0316 61.7333 45.8673 60.8976 45.8673 59.8667V56.1333C45.8673 55.1024 45.0316 54.2667 44.0007 54.2667Z" fill="#EB5463"/>
<path d="M70.134 37.4667C70.1343 38.9373 69.7482 40.3821 69.0144 41.6565C68.2805 42.9309 67.2247 43.9901 65.9527 44.728C65.8082 44.8096 65.6875 44.9273 65.6024 45.0697C65.5173 45.2121 65.4707 45.3742 65.4673 45.54V49.6C65.4673 49.8476 65.369 50.085 65.194 50.26C65.0189 50.435 64.7815 50.5334 64.534 50.5334H58.934C58.6865 50.5334 58.4491 50.435 58.274 50.26C58.099 50.085 58.0007 49.8476 58.0007 49.6V45.54C57.9973 45.3742 57.9507 45.2121 57.8656 45.0697C57.7805 44.9273 57.6598 44.8096 57.5153 44.728C56.1269 43.921 54.9995 42.732 54.2673 41.3027C53.654 40.117 53.334 38.8016 53.334 37.4667C53.334 36.1318 53.654 34.8164 54.2673 33.6307C54.9893 32.2209 56.0955 31.0441 57.4581 30.2365C58.8207 29.4288 60.384 29.0233 61.9673 29.0667C64.1468 29.1505 66.2104 30.0694 67.7308 31.6332C69.2511 33.197 70.1116 35.2858 70.134 37.4667Z" fill="#A38671"/>
<path d="M70.1337 55.2H53.3337C52.8183 55.2 52.4004 55.6179 52.4004 56.1333V59.8667C52.4004 60.3821 52.8183 60.8 53.3337 60.8H70.1337C70.6492 60.8 71.0671 60.3821 71.0671 59.8667V56.1333C71.0671 55.6179 70.6492 55.2 70.1337 55.2Z" fill="#A38671"/>
<path d="M48.6663 36.5334H22.5329C22.2854 36.5334 22.048 36.435 21.873 36.26C21.6979 36.085 21.5996 35.8476 21.5996 35.6C21.5996 35.3525 21.6979 35.1151 21.873 34.9401C22.048 34.765 22.2854 34.6667 22.5329 34.6667H48.6663C48.9138 34.6667 49.1512 34.765 49.3262 34.9401C49.5013 35.1151 49.5996 35.3525 49.5996 35.6C49.5996 35.8476 49.5013 36.085 49.3262 36.26C49.1512 36.435 48.9138 36.5334 48.6663 36.5334ZM48.6663 41.2H43.9996C43.7521 41.2 43.5147 41.1017 43.3396 40.9267C43.1646 40.7516 43.0663 40.5142 43.0663 40.2667C43.0663 40.0192 43.1646 39.7818 43.3396 39.6067C43.5147 39.4317 43.7521 39.3334 43.9996 39.3334H48.6663C48.9138 39.3334 49.1512 39.4317 49.3262 39.6067C49.5013 39.7818 49.5996 40.0192 49.5996 40.2667C49.5996 40.5142 49.5013 40.7516 49.3262 40.9267C49.1512 41.1017 48.9138 41.2 48.6663 41.2ZM39.3329 41.2H22.5329C22.2854 41.2 22.048 41.1017 21.873 40.9267C21.6979 40.7516 21.5996 40.5142 21.5996 40.2667C21.5996 40.0192 21.6979 39.7818 21.873 39.6067C22.048 39.4317 22.2854 39.3334 22.5329 39.3334H39.3329C39.5805 39.3334 39.8179 39.4317 39.9929 39.6067C40.1679 39.7818 40.2663 40.0192 40.2663 40.2667C40.2663 40.5142 40.1679 40.7516 39.9929 40.9267C39.8179 41.1017 39.5805 41.2 39.3329 41.2ZM27.1996 45.8667H22.5329C22.2854 45.8667 22.048 45.7684 21.873 45.5933C21.6979 45.4183 21.5996 45.1809 21.5996 44.9334C21.5996 44.6858 21.6979 44.4484 21.873 44.2734C22.048 44.0984 22.2854 44 22.5329 44H27.1996C27.4471 44 27.6845 44.0984 27.8596 44.2734C28.0346 44.4484 28.1329 44.6858 28.1329 44.9334C28.1329 45.1809 28.0346 45.4183 27.8596 45.5933C27.6845 45.7684 27.4471 45.8667 27.1996 45.8667ZM48.6663 45.8667H31.8663C31.6187 45.8667 31.3813 45.7684 31.2063 45.5933C31.0313 45.4183 30.9329 45.1809 30.9329 44.9334C30.9329 44.6858 31.0313 44.4484 31.2063 44.2734C31.3813 44.0984 31.6187 44 31.8663 44H48.6663C48.9138 44 49.1512 44.0984 49.3262 44.2734C49.5013 44.4484 49.5996 44.6858 49.5996 44.9334C49.5996 45.1809 49.5013 45.4183 49.3262 45.5933C49.1512 45.7684 48.9138 45.8667 48.6663 45.8667Z" fill="#365972"/>
<path d="M29.9995 58.9333H29.0661C28.8186 58.9333 28.5812 58.835 28.4062 58.66C28.2311 58.4849 28.1328 58.2475 28.1328 58C28.1328 57.7524 28.2311 57.5151 28.4062 57.34C28.5812 57.165 28.8186 57.0667 29.0661 57.0667H29.9995C30.247 57.0667 30.4844 57.165 30.6594 57.34C30.8345 57.5151 30.9328 57.7524 30.9328 58C30.9328 58.2475 30.8345 58.4849 30.6594 58.66C30.4844 58.835 30.247 58.9333 29.9995 58.9333ZM42.1328 58.9333H33.7328C33.4853 58.9333 33.2479 58.835 33.0728 58.66C32.8978 58.4849 32.7995 58.2475 32.7995 58C32.7995 57.7524 32.8978 57.5151 33.0728 57.34C33.2479 57.165 33.4853 57.0667 33.7328 57.0667H42.1328C42.3803 57.0667 42.6177 57.165 42.7928 57.34C42.9678 57.5151 43.0661 57.7524 43.0661 58C43.0661 58.2475 42.9678 58.4849 42.7928 58.66C42.6177 58.835 42.3803 58.9333 42.1328 58.9333Z" fill="#F4F6F8"/>
<path d="M26.2669 19.7333V22.5333L19.7336 29.0667H16.9336L26.2669 19.7333Z" fill="#457393"/>
<path d="M21.6003 68.2666H18.8003C18.3056 68.2652 17.8317 68.068 17.482 67.7183C17.1322 67.3685 16.9351 66.8946 16.9336 66.4V29.0667H19.7336V66.4C19.7351 66.8946 19.9322 67.3685 20.282 67.7183C20.6317 68.068 21.1056 68.2652 21.6003 68.2666Z" fill="#D8D8D8"/>
<path d="M29.0676 19.7333L26.2676 22.5333V19.7333H29.0676Z" fill="#CAD0D7"/>
<path d="M61.7336 50.5333H58.9336V55.2H61.7336V50.5333Z" fill="#A9B0BB"/>
<path d="M61.7337 50.5334H58.9337C58.6862 50.5334 58.4488 50.435 58.2738 50.26C58.0987 50.085 58.0004 49.8476 58.0004 49.6V45.54C57.997 45.3742 57.9505 45.2121 57.8654 45.0697C57.7803 44.9273 57.6595 44.8096 57.5151 44.728C56.1266 43.921 54.9992 42.732 54.2671 41.3027C53.6538 40.117 53.3337 38.8016 53.3337 37.4667C53.3337 36.1318 53.6538 34.8164 54.2671 33.6307C54.989 32.2209 56.0952 31.0441 57.4578 30.2365C58.8204 29.4288 60.3837 29.0233 61.9671 29.0667C62.3618 29.0738 62.7552 29.1144 63.1431 29.188C61.4413 29.4759 59.8695 30.281 58.6415 31.4939C57.4136 32.7067 56.589 34.2683 56.28 35.9664C55.971 37.6644 56.1925 39.4165 56.9145 40.9841C57.6365 42.5518 58.8238 43.8591 60.3151 44.728C60.4595 44.8096 60.5803 44.9273 60.6654 45.0697C60.7505 45.2121 60.797 45.3742 60.8004 45.54V49.6C60.8004 49.8476 60.8987 50.085 61.0738 50.26C61.2488 50.435 61.4862 50.5334 61.7337 50.5334ZM56.1337 60.8H53.3337C53.0862 60.8 52.8488 60.7017 52.6738 60.5267C52.4987 60.3516 52.4004 60.1142 52.4004 59.8667V56.1334C52.4004 55.8858 52.4987 55.6484 52.6738 55.4734C52.8488 55.2984 53.0862 55.2 53.3337 55.2H56.1337C55.8862 55.2 55.6488 55.2984 55.4738 55.4734C55.2987 55.6484 55.2004 55.8858 55.2004 56.1334V59.8667C55.2004 60.1142 55.2987 60.3516 55.4738 60.5267C55.6488 60.7017 55.8862 60.8 56.1337 60.8Z" fill="#937661"/>
<path d="M59.8676 64.5333H57.0676C56.325 64.5333 55.6128 64.2383 55.0877 63.7132C54.5626 63.1881 54.2676 62.4759 54.2676 61.7333V60.8H57.0676V61.7333C57.0676 62.4759 57.3626 63.1881 57.8877 63.7132C58.4128 64.2383 59.125 64.5333 59.8676 64.5333Z" fill="#D94452"/>
</svg>
