<svg width="26" height="32" viewBox="0 0 26 32" fill="none" xmlns="http://www.w3.org/2000/svg">
<path d="M25.1855 10.9065C23.0554 12.2228 21.7398 14.4793 21.7398 16.9865C21.7398 19.8071 23.4313 22.3771 26 23.4426C25.4988 25.0723 24.747 26.5767 23.8072 27.9556C22.4289 29.8987 20.988 31.9045 18.8578 31.9045C16.7277 31.9045 16.1012 30.6509 13.5952 30.6509C11.1518 30.6509 10.2747 31.9672 8.26988 31.9672C6.26506 31.9672 4.88675 30.1495 3.32048 27.893C1.25301 24.7589 0.0626506 21.1234 0 17.2999C0 11.0945 4.00964 7.77242 8.01928 7.77242C10.1494 7.77242 11.9036 9.1514 13.2193 9.1514C14.4723 9.1514 16.4771 7.70974 18.8578 7.70974C21.3639 7.64706 23.7446 8.83799 25.1855 10.9065ZM17.7301 5.07715C18.7952 3.82353 19.359 2.25651 19.4217 0.626808C19.4217 0.438766 19.4217 0.188042 19.359 0C17.5422 0.188042 15.8506 1.06557 14.6602 2.44455C13.5952 3.63549 12.9687 5.13983 12.906 6.76953C12.906 6.95757 12.906 7.14561 12.9687 7.33365C13.094 7.33365 13.2819 7.39634 13.4072 7.39634C15.0988 7.27097 16.6651 6.39344 17.7301 5.07715Z" fill="black"/>
</svg>
