<svg width="88" height="88" viewBox="0 0 88 88" fill="none" xmlns="http://www.w3.org/2000/svg">
<circle cx="44" cy="44" r="44" fill="#C6FFF1"/>
<path d="M47.419 67.0683C47.2138 67.0683 47.0771 66.9999 46.9403 66.8632L43.5215 63.4444C43.248 63.1709 43.248 62.7606 43.5215 62.4871C43.795 62.2136 44.2053 62.2136 44.4788 62.4871L47.8976 65.9059C48.1711 66.1794 48.1711 66.5897 47.8976 66.8632C47.7609 66.9999 47.6241 67.0683 47.419 67.0683Z" fill="#EF4444"/>
<path d="M40.5822 67.0683C40.3771 67.0683 40.2403 66.9999 40.1036 66.8632C39.8301 66.5897 39.8301 66.1794 40.1036 65.9059L43.5224 62.4871C43.7959 62.2136 44.2061 62.2136 44.4796 62.4871C44.7531 62.7606 44.7531 63.1709 44.4796 63.4444L41.0608 66.8632C40.9241 66.9999 40.7873 67.0683 40.5822 67.0683Z" fill="#EF4444"/>
<path d="M44.0002 74.5897C43.5899 74.5897 43.3164 74.3162 43.3164 73.9059V62.9657C43.3164 62.5555 43.5899 62.282 44.0002 62.282C44.4104 62.282 44.6839 62.5555 44.6839 62.9657V73.9059C44.6839 74.3162 44.4104 74.5897 44.0002 74.5897Z" fill="#EF4444"/>
<path d="M47.419 20.5727C47.2138 20.5727 47.0771 20.6411 46.9403 20.7778L43.5215 24.1966C43.248 24.4701 43.248 24.8804 43.5215 25.1539C43.795 25.4274 44.2053 25.4274 44.4788 25.1539L47.8976 21.7351C48.1711 21.4616 48.1711 21.0513 47.8976 20.7778C47.7609 20.6411 47.6241 20.5727 47.419 20.5727Z" fill="#EF4444"/>
<path d="M40.5822 20.5727C40.3771 20.5727 40.2403 20.6411 40.1036 20.7778C39.8301 21.0513 39.8301 21.4616 40.1036 21.7351L43.5224 25.1539C43.7959 25.4274 44.2061 25.4274 44.4796 25.1539C44.7531 24.8804 44.7531 24.4701 44.4796 24.1966L41.0608 20.7778C40.9241 20.6411 40.7873 20.5727 40.5822 20.5727Z" fill="#EF4444"/>
<path d="M44.0002 13.0513C43.5899 13.0513 43.3164 13.3248 43.3164 13.7351V24.6752C43.3164 25.0855 43.5899 25.359 44.0002 25.359C44.4104 25.359 44.6839 25.0855 44.6839 24.6752V13.7351C44.6839 13.3248 44.4104 13.0513 44.0002 13.0513Z" fill="#EF4444"/>
<path d="M66.4269 40.4017C66.4269 40.6068 66.3586 40.7436 66.2218 40.8803L62.803 44.2991C62.5295 44.5726 62.1193 44.5726 61.8458 44.2991C61.5722 44.0256 61.5722 43.6154 61.8458 43.3419L65.2646 39.9231C65.5381 39.6496 65.9483 39.6496 66.2218 39.9231C66.3586 40.0598 66.4269 40.1966 66.4269 40.4017Z" fill="#EF4444"/>
<path d="M66.4269 47.2393C66.4269 47.4445 66.3586 47.5812 66.2218 47.718C65.9483 47.9915 65.5381 47.9915 65.2646 47.718L61.8458 44.2992C61.5722 44.0257 61.5722 43.6154 61.8458 43.3419C62.1193 43.0684 62.5295 43.0684 62.803 43.3419L66.2218 46.7607C66.3586 46.8975 66.4269 47.0342 66.4269 47.2393Z" fill="#EF4444"/>
<path d="M73.9483 43.8205C73.9483 44.2308 73.6748 44.5043 73.2646 44.5043H62.3244C61.9141 44.5043 61.6406 44.2308 61.6406 43.8205C61.6406 43.4103 61.9141 43.1368 62.3244 43.1368H73.2646C73.6748 43.1368 73.9483 43.4103 73.9483 43.8205Z" fill="#EF4444"/>
<path d="M21.573 40.4017C21.573 40.6068 21.6414 40.7436 21.7782 40.8803L25.197 44.2991C25.4705 44.5726 25.8807 44.5726 26.1542 44.2991C26.4278 44.0256 26.4278 43.6154 26.1542 43.3419L22.7354 39.9231C22.4619 39.6496 22.0517 39.6496 21.7782 39.9231C21.6414 40.0598 21.573 40.1966 21.573 40.4017Z" fill="#EF4444"/>
<path d="M21.573 47.2393C21.573 47.4445 21.6414 47.5812 21.7782 47.718C22.0517 47.9915 22.4619 47.9915 22.7354 47.718L26.1542 44.2992C26.4278 44.0257 26.4278 43.6154 26.1542 43.3419C25.8807 43.0684 25.4705 43.0684 25.197 43.3419L21.7782 46.7607C21.6414 46.8975 21.573 47.0342 21.573 47.2393Z" fill="#EF4444"/>
<path d="M14.0517 43.8205C14.0517 44.2308 14.3252 44.5043 14.7354 44.5043H25.6756C26.0859 44.5043 26.3594 44.2308 26.3594 43.8205C26.3594 43.4103 26.0859 43.1368 25.6756 43.1368H14.7354C14.3252 43.1368 14.0517 43.4103 14.0517 43.8205Z" fill="#EF4444"/>
<g clip-path="url(#clip0_1869_29949)">
<path d="M56.0034 56.6132H55.987V57.1132C55.987 57.3888 55.877 57.656 55.6739 57.8591C55.4708 58.0622 55.2036 58.1722 54.928 58.1722H33.0531C32.7691 58.1722 32.4942 58.0568 32.3171 57.8694L32.3122 57.8642L32.3072 57.8591C32.1041 57.656 31.9941 57.3888 31.9941 57.1132L31.9941 28.9696C31.9941 28.6856 32.1095 28.4107 32.2969 28.2336L32.3073 28.2238L32.3171 28.2134C32.4942 28.026 32.7691 27.9106 33.0531 27.9106H46.4767C46.7578 27.9106 47.0399 28.0245 47.239 28.2237L55.6903 36.675C55.8914 36.8761 56.0034 37.1425 56.0034 37.4373V56.6132Z" fill="white" stroke="#FF6D6D"/>
<path d="M56.487 57.1132V58.6721C56.487 59.0824 56.3229 59.4926 56.0275 59.7716C55.7321 60.067 55.3382 60.2311 54.928 60.2311H33.0531C32.1834 60.2311 31.4941 59.5255 31.4941 58.6721V57.1132C31.4941 57.5234 31.6582 57.9173 31.9536 58.2126C32.249 58.508 32.6429 58.6721 33.0531 58.6721H54.928C55.7977 58.6721 56.487 57.9665 56.487 57.1132Z" fill="#D0D7E3"/>
<path d="M28.3594 44.6086H59.6209V52.4199C59.6209 53.2897 58.9153 53.9789 58.0619 53.9789H29.9348C29.5245 53.9789 29.1142 53.8148 28.8353 53.5194C28.5399 53.224 28.3758 52.8302 28.3758 52.4035V44.6086H28.3594Z" fill="#EF4444"/>
<path d="M31.4937 44.6086V41.4742L28.3594 44.6086H31.4937ZM56.4866 44.6086L56.5194 41.4742L59.6373 44.6086H56.4866Z" fill="#D50B0B"/>
<path d="M56.4868 37.4374V37.6508H48.0355C47.1658 37.6508 46.4766 36.9451 46.4766 36.0918V27.4108C46.8868 27.4108 47.2971 27.5749 47.5925 27.8703L56.0602 36.3215C56.3391 36.6169 56.5032 37.0108 56.4868 37.4374Z" fill="#FF6D6D"/>
<path d="M36.1222 53.0001V46.5201H38.8582C38.9212 46.5201 39.0052 46.5231 39.1102 46.5291C39.2182 46.5321 39.3142 46.5411 39.3982 46.5561C39.7852 46.6161 40.1017 46.7436 40.3477 46.9386C40.5967 47.1336 40.7797 47.3796 40.8967 47.6766C41.0137 47.9706 41.0722 48.2991 41.0722 48.6621C41.0722 49.0251 41.0122 49.3551 40.8922 49.6521C40.7752 49.9461 40.5922 50.1906 40.3432 50.3856C40.0972 50.5806 39.7822 50.7081 39.3982 50.7681C39.3142 50.7801 39.2182 50.7891 39.1102 50.7951C39.0022 50.8011 38.9182 50.8041 38.8582 50.8041H37.3462V53.0001H36.1222ZM37.3462 49.6611H38.8042C38.8672 49.6611 38.9362 49.6581 39.0112 49.6521C39.0862 49.6461 39.1552 49.6341 39.2182 49.6161C39.3832 49.5711 39.5107 49.4961 39.6007 49.3911C39.6907 49.2831 39.7522 49.1646 39.7852 49.0356C39.8212 48.9036 39.8392 48.7791 39.8392 48.6621C39.8392 48.5451 39.8212 48.4221 39.7852 48.2931C39.7522 48.1611 39.6907 48.0426 39.6007 47.9376C39.5107 47.8296 39.3832 47.7531 39.2182 47.7081C39.1552 47.6901 39.0862 47.6781 39.0112 47.6721C38.9362 47.6661 38.8672 47.6631 38.8042 47.6631H37.3462V49.6611ZM41.9757 53.0001V46.5201H44.0727C44.1237 46.5201 44.2287 46.5216 44.3877 46.5246C44.5467 46.5276 44.6997 46.5381 44.8467 46.5561C45.3687 46.6191 45.8112 46.8006 46.1742 47.1006C46.5372 47.4006 46.8132 47.7816 47.0022 48.2436C47.1912 48.7056 47.2857 49.2111 47.2857 49.7601C47.2857 50.3091 47.1912 50.8146 47.0022 51.2766C46.8132 51.7386 46.5372 52.1196 46.1742 52.4196C45.8112 52.7196 45.3687 52.9011 44.8467 52.9641C44.6997 52.9821 44.5467 52.9926 44.3877 52.9956C44.2287 52.9986 44.1237 53.0001 44.0727 53.0001H41.9757ZM43.2177 51.8481H44.0727C44.1537 51.8481 44.2632 51.8466 44.4012 51.8436C44.5392 51.8376 44.6637 51.8241 44.7747 51.8031C45.0567 51.7461 45.2862 51.6141 45.4632 51.4071C45.6432 51.2001 45.7752 50.9511 45.8592 50.6601C45.9462 50.3691 45.9897 50.0691 45.9897 49.7601C45.9897 49.4361 45.9447 49.1286 45.8547 48.8376C45.7677 48.5466 45.6342 48.3006 45.4542 48.0996C45.2742 47.8986 45.0477 47.7711 44.7747 47.7171C44.6637 47.6931 44.5392 47.6796 44.4012 47.6766C44.2632 47.6736 44.1537 47.6721 44.0727 47.6721H43.2177V51.8481ZM48.3654 53.0001V46.5201H52.3254V47.7441H49.5894V49.1481H51.7854V50.3721H49.5894V53.0001H48.3654Z" fill="white"/>
<path d="M34.2422 38.4982H53.7571" stroke="#D3D3D3" stroke-linecap="round"/>
<path d="M34.2402 40.4943H53.7551" stroke="#D3D3D3" stroke-linecap="round"/>
<path d="M34.2402 42.7125H53.7551" stroke="#D3D3D3" stroke-linecap="round"/>
</g>
<defs>
<clipPath id="clip0_1869_29949">
<rect width="32.8205" height="32.8205" fill="white" transform="translate(27.5898 27.4103)"/>
</clipPath>
</defs>
</svg>
