<svg width="88" height="88" viewBox="0 0 88 88" fill="none" xmlns="http://www.w3.org/2000/svg">
<circle cx="44" cy="44" r="44" fill="#FFECCD"/>
<g clip-path="url(#clip0_1869_30042)">
<path d="M29.9985 30.0002H21.25" stroke="#DF760D" stroke-width="2.37897" stroke-linecap="round" stroke-linejoin="round"/>
<path d="M30 21.25V58.0012H66.751" stroke="#DF760D" stroke-width="2.37897" stroke-linecap="round" stroke-linejoin="round"/>
<path d="M58.0023 49.251V30.0002H38.75" stroke="#DF760D" stroke-width="2.37897" stroke-linecap="round" stroke-linejoin="round"/>
<path d="M58.002 66.7515V58.0012" stroke="#DF760D" stroke-width="2.37897" stroke-linecap="round" stroke-linejoin="round"/>
<g clip-path="url(#clip1_1869_30042)">
<path d="M53.9954 53.9103H53.9828V54.3634C53.9828 54.5427 53.9093 54.7201 53.7672 54.8579C53.6248 54.996 53.4352 55.0726 53.2374 55.0726H36.4193C36.2138 55.0726 36.0196 54.9912 35.8986 54.867L35.8987 54.8669L35.8894 54.8579C35.7474 54.7201 35.6738 54.5427 35.6738 54.3634V33.3815C35.6738 33.1947 35.7524 33.0128 35.88 32.896L35.8895 32.8872L35.8986 32.878C36.0196 32.7537 36.2138 32.6724 36.4193 32.6724H46.7398C46.9425 32.6724 47.1433 32.7523 47.2822 32.8871L53.7799 39.1878C53.92 39.3237 53.9954 39.5004 53.9954 39.6944V53.9103Z" fill="white" stroke="#FF6D6D" stroke-width="0.90625"/>
<path d="M54.4359 54.3633V55.5255C54.4359 55.8314 54.3098 56.1373 54.0827 56.3453C53.8556 56.5655 53.5528 56.6878 53.2373 56.6878H36.4193C35.7506 56.6878 35.2207 56.1617 35.2207 55.5255V54.3633C35.2207 54.6691 35.3469 54.9628 35.574 55.183C35.8011 55.4032 36.1039 55.5255 36.4193 55.5255H53.2373C53.906 55.5255 54.4359 54.9995 54.4359 54.3633Z" fill="#D0D7E3"/>
<path d="M32.8125 45.0413H56.8473V50.8648C56.8473 51.5132 56.3048 52.0271 55.6487 52.0271H34.0237C33.7083 52.0271 33.3929 51.9047 33.1784 51.6845C32.9513 51.4643 32.8251 51.1707 32.8251 50.8526V45.0413H32.8125Z" fill="#EF4444"/>
<path d="M35.2223 45.0406V42.7039L32.8125 45.0406H35.2223ZM54.4375 45.0406L54.4628 42.7039L56.8599 45.0406H54.4375Z" fill="#D50B0B"/>
<path d="M54.4384 39.6944V39.8535H47.9408C47.2721 39.8535 46.7422 39.3274 46.7422 38.6912V32.2192C47.0576 32.2192 47.373 32.3416 47.6001 32.5618L54.1103 38.8625C54.3248 39.0827 54.451 39.3763 54.4384 39.6944Z" fill="#FF6D6D"/>
<path d="M38.1071 51.7917V46.5717H40.3111C40.3619 46.5717 40.4295 46.5742 40.5141 46.579C40.6011 46.5814 40.6784 46.5887 40.7461 46.6007C41.0579 46.6491 41.3128 46.7518 41.511 46.9089C41.7116 47.066 41.859 47.2641 41.9532 47.5034C42.0475 47.7402 42.0946 48.0048 42.0946 48.2972C42.0946 48.5897 42.0463 48.8555 41.9496 49.0947C41.8554 49.3316 41.7079 49.5285 41.5074 49.6856C41.3092 49.8427 41.0554 49.9454 40.7461 49.9937C40.6784 50.0034 40.6011 50.0107 40.5141 50.0155C40.4271 50.0203 40.3594 50.0227 40.3111 50.0227H39.0931V51.7917H38.1071ZM39.0931 49.102H40.2676C40.3184 49.102 40.3739 49.0996 40.4344 49.0947C40.4948 49.0899 40.5504 49.0802 40.6011 49.0657C40.734 49.0295 40.8367 48.9691 40.9092 48.8845C40.9817 48.7975 41.0313 48.702 41.0579 48.5981C41.0869 48.4918 41.1014 48.3915 41.1014 48.2972C41.1014 48.203 41.0869 48.1039 41.0579 48C41.0313 47.8937 40.9817 47.7982 40.9092 47.7136C40.8367 47.6266 40.734 47.565 40.6011 47.5287C40.5504 47.5142 40.4948 47.5046 40.4344 47.4997C40.3739 47.4949 40.3184 47.4925 40.2676 47.4925H39.0931V49.102ZM42.8224 51.7917V46.5717H44.5117C44.5528 46.5717 44.6374 46.573 44.7654 46.5754C44.8935 46.5778 45.0168 46.5862 45.1352 46.6007C45.5557 46.6515 45.9121 46.7977 46.2046 47.0394C46.497 47.281 46.7193 47.588 46.8716 47.9601C47.0238 48.3323 47.0999 48.7395 47.0999 49.1817C47.0999 49.624 47.0238 50.0312 46.8716 50.4034C46.7193 50.7755 46.497 51.0825 46.2046 51.3241C45.9121 51.5658 45.5557 51.712 45.1352 51.7627C45.0168 51.7772 44.8935 51.7857 44.7654 51.7881C44.6374 51.7905 44.5528 51.7917 44.5117 51.7917H42.8224ZM43.8229 50.8637H44.5117C44.5769 50.8637 44.6651 50.8625 44.7763 50.8601C44.8875 50.8553 44.9878 50.8444 45.0772 50.8275C45.3044 50.7816 45.4892 50.6752 45.6318 50.5085C45.7768 50.3417 45.8831 50.1412 45.9508 49.9067C46.0209 49.6723 46.0559 49.4307 46.0559 49.1817C46.0559 48.9207 46.0197 48.673 45.9472 48.4386C45.8771 48.2042 45.7696 48.006 45.6246 47.8441C45.4796 47.6822 45.2971 47.5795 45.0772 47.536C44.9878 47.5167 44.8875 47.5058 44.7763 47.5034C44.6651 47.501 44.5769 47.4997 44.5117 47.4997H43.8229V50.8637ZM47.9697 51.7917V46.5717H51.1597V47.5577H48.9557V48.6887H50.7247V49.6747H48.9557V51.7917H47.9697Z" fill="white"/>
<path d="M37.334 40.4852H52.3376" stroke="#D3D3D3" stroke-width="0.453125" stroke-linecap="round"/>
<path d="M37.334 41.9735H52.3376" stroke="#D3D3D3" stroke-width="0.453125" stroke-linecap="round"/>
<path d="M37.334 43.627H52.3376" stroke="#D3D3D3" stroke-width="0.453125" stroke-linecap="round"/>
</g>
</g>
<defs>
<clipPath id="clip0_1869_30042">
<rect width="56" height="56" fill="white" transform="translate(16 16)"/>
</clipPath>
<clipPath id="clip1_1869_30042">
<rect width="24.4688" height="24.4688" fill="white" transform="translate(32.2188 32.2188)"/>
</clipPath>
</defs>
</svg>
