<svg width="271" height="145" viewBox="0 0 271 145" fill="none" xmlns="http://www.w3.org/2000/svg">
<g clip-path="url(#clip0_436_2171)">
<path d="M127.719 100.328L127.666 100.348L127.839 100.817C128.279 102.011 128.226 103.337 127.68 104.52C127.135 105.703 126.162 106.604 124.967 107.045L54.5424 133.021C53.3401 133.464 51.9683 133.422 50.8523 132.868L50.8459 132.865L50.8395 132.862C49.6563 132.316 48.7549 131.343 48.3143 130.149L14.8946 39.5425C14.4511 38.3402 14.4933 36.9683 15.047 35.8524L15.0534 35.8396L15.059 35.8265C15.5481 34.6808 16.5639 33.7579 17.7663 33.3144L60.9826 17.3743C62.1823 16.9318 63.5603 16.9702 64.7384 17.5134L101.982 34.6861C103.163 35.2305 104.066 36.2021 104.527 37.452L127.719 100.328Z" fill="white" stroke="#94ABD3"/>
<path d="M128.307 100.644L130.158 105.663C130.645 106.984 130.604 108.499 129.984 109.748C129.384 111.05 128.311 112.046 126.99 112.533L56.5652 138.509C53.7652 139.542 50.7083 138.089 49.695 135.341L47.8438 130.322C48.3309 131.643 49.3269 132.716 50.6287 133.316C51.9304 133.917 53.3932 133.977 54.714 133.49L125.139 107.514C127.939 106.481 129.32 103.391 128.307 100.644Z" fill="#D0D7E3"/>
<path d="M22.9023 93.7861L123.547 56.6639L132.823 81.8118C133.855 84.6119 132.402 87.6688 129.655 88.6821L39.1011 122.082C37.7803 122.57 36.2647 122.528 35.0158 121.909C33.714 121.308 32.718 120.235 32.2114 118.862L22.9552 93.7666L22.9023 93.7861Z" fill="#003771"/>
<path d="M32.9964 90.0645L29.2745 79.9736L22.9056 93.7864L32.9964 90.0645ZM113.459 60.3862L109.843 50.2563L123.603 56.6447L113.459 60.3862Z" fill="#00213F"/>
<path d="M104.942 37.2986L105.196 37.9854L77.9873 48.0211C75.1873 49.0538 72.1304 47.6005 71.1171 44.8533L60.8086 16.9053C62.1294 16.4181 63.645 16.4593 64.9468 17.0595L102.244 34.2127C103.493 34.8324 104.489 35.9055 104.942 37.2986Z" fill="#94ABD3"/>
<path d="M49.3638 111.336L40.9636 114.434L33.7729 94.9393L42.3845 91.763C49.1136 89.341 53.6446 91.2109 56.0302 97.3532C58.4522 104.082 56.2848 108.783 49.3638 111.336ZM41.8414 97.1249L45.6803 107.533L47.054 107.026C50.1182 105.896 50.9544 103.607 49.6488 100.067C48.4961 96.2909 46.3404 95.1654 43.1289 96.7101L41.8609 97.1778L41.8414 97.1249ZM64.0953 83.0948C70.6383 80.9816 75.339 83.149 78.1585 89.4914C80.2912 96.0872 78.1043 100.735 71.6172 103.488C64.9881 105.693 60.2874 103.525 57.6208 96.9466C55.6522 90.4704 57.7863 85.842 64.0953 83.0948ZM65.8686 87.9025C63.4579 88.8517 62.8525 91.1157 64.0524 94.6944C65.575 98.3342 67.525 99.7156 69.9219 98.8915C72.4383 97.9033 73.0576 95.5142 71.7658 91.8493C70.3351 88.2957 68.3517 86.9866 65.8686 87.9025ZM98.5256 79.4583L92.5028 81.6798C91.4786 79.7168 89.9266 79.0889 87.8467 79.796C85.5415 80.7063 85.0279 83.0564 86.3587 86.827C87.6643 90.3667 89.5753 91.6425 92.1112 90.7071C94.0132 90.0056 94.7134 88.4869 94.1786 86.2233L100.307 83.9629C101.472 89.2352 99.3288 93.0265 93.8594 95.284C87.1246 97.528 82.4434 95.4134 79.8352 88.993C77.8277 82.4111 79.7838 77.7884 85.8092 75.0858C91.7653 73.0089 95.9624 74.4618 98.5256 79.4583ZM112.512 81.7419L111.369 88.4056L104.184 91.0558L107.291 78.326L97.6271 71.327L104.865 68.6573L109.444 72.6102L110.465 66.5917L117.703 63.9221L114.39 75.7676L124.808 83.5088L117.57 86.1785L112.512 81.7419Z" fill="white"/>
<path d="M34.8477 67.8455L97.6746 44.672" stroke="#D3D3D3" stroke-linecap="round"/>
<path d="M37.2188 74.271L100.046 51.0976" stroke="#D3D3D3" stroke-linecap="round"/>
<path d="M39.8516 81.4104L102.679 58.237" stroke="#D3D3D3" stroke-linecap="round"/>
</g>
<g clip-path="url(#clip1_436_2171)">
<path d="M222.831 129.332L222.778 129.312L222.605 129.781C222.164 130.976 221.263 131.949 220.079 132.494C218.896 133.039 217.571 133.092 216.376 132.652L145.957 106.66C144.755 106.216 143.739 105.293 143.251 104.147L143.248 104.141L143.245 104.134C142.699 102.951 142.646 101.626 143.087 100.431L176.527 9.83236C176.971 8.63014 177.894 7.61448 179.04 7.12565L179.053 7.12004L179.066 7.11369C180.182 6.56023 181.553 6.51831 182.756 6.96205L225.968 22.9118C227.168 23.3546 228.191 24.2788 228.734 25.4571L245.898 62.7049C246.442 63.8857 246.498 65.211 246.036 66.4607L222.831 129.332Z" fill="white" stroke="#FF6D6D"/>
<path d="M223.073 129.955L221.221 134.973C220.734 136.294 219.718 137.42 218.435 137.967C217.134 138.567 215.671 138.627 214.35 138.139L143.931 112.148C141.131 111.114 139.751 108.024 140.765 105.277L142.617 100.258C142.13 101.579 142.19 103.042 142.79 104.344C143.39 105.646 144.463 106.642 145.783 107.129L216.202 133.121C219.002 134.154 222.059 132.702 223.073 129.955Z" fill="#D0D7E3"/>
<path d="M147.383 56.2795L248.019 93.4242L238.738 118.57C237.704 121.37 234.614 122.75 231.867 121.736L141.321 88.3158C140 87.8284 138.874 86.8127 138.327 85.5303C137.727 84.2284 137.667 82.7656 138.174 81.3921L147.436 56.299L147.383 56.2795Z" fill="#EF4444"/>
<path d="M157.475 60.0037L161.199 49.9137L147.385 56.2795L157.475 60.0037ZM237.931 89.6999L241.761 79.6489L248.074 93.4436L237.931 89.6999Z" fill="#D50B0B"/>
<path d="M246.452 66.6145L246.198 67.3013L218.992 57.2595C216.192 56.2261 214.812 53.1356 215.826 50.3886L226.141 22.4429C227.461 22.9303 228.587 23.9461 229.187 25.2479L246.404 62.5153C246.951 63.7976 247.012 65.2605 246.452 66.6145Z" fill="#FF6D6D"/>
<path d="M159.409 90.5066L167.886 67.541L177.582 71.12C177.805 71.2024 178.099 71.323 178.464 71.4816C178.842 71.6335 179.171 71.791 179.449 71.954C180.742 72.6729 181.697 73.5388 182.314 74.5517C182.941 75.5685 183.268 76.6797 183.294 77.8853C183.324 79.0803 183.102 80.3211 182.627 81.6076C182.152 82.8941 181.508 83.9851 180.694 84.8808C179.895 85.7697 178.926 86.3968 177.789 86.7622C176.662 87.1315 175.379 87.1713 173.939 86.8816C173.626 86.8143 173.274 86.7206 172.883 86.6006C172.493 86.4806 172.191 86.3813 171.978 86.3028L166.62 84.325L163.747 92.1078L159.409 90.5066ZM168.115 80.2741L173.282 82.1813C173.505 82.2637 173.754 82.3434 174.027 82.4202C174.301 82.4971 174.561 82.5448 174.808 82.5634C175.452 82.6198 176.002 82.5207 176.458 82.2663C176.918 82.0013 177.291 81.6618 177.577 81.2478C177.877 80.827 178.104 80.4093 178.257 79.9947C178.41 79.58 178.507 79.1206 178.548 78.6163C178.604 78.1053 178.541 77.6049 178.359 77.115C178.182 76.6145 177.83 76.1766 177.304 75.8013C177.104 75.6551 176.875 75.5223 176.618 75.4029C176.36 75.2836 176.119 75.1827 175.896 75.1003L170.728 73.193L168.115 80.2741ZM180.154 98.1637L188.631 75.1981L196.063 77.9412C196.244 78.0079 196.614 78.1506 197.173 78.3692C197.733 78.5878 198.261 78.8252 198.759 79.0813C200.526 79.9874 201.857 81.2095 202.751 82.7475C203.645 84.2856 204.125 85.9969 204.191 87.8815C204.256 89.7661 203.93 91.6812 203.212 93.6269C202.494 95.5726 201.497 97.2406 200.223 98.6307C198.949 100.021 197.472 101.01 195.794 101.598C194.115 102.187 192.309 102.251 190.376 101.792C189.832 101.663 189.276 101.5 188.709 101.303C188.141 101.106 187.767 100.973 187.586 100.907L180.154 98.1637ZM186.063 95.7056L189.093 96.824C189.38 96.93 189.77 97.0679 190.263 97.2378C190.76 97.397 191.219 97.512 191.64 97.5828C192.714 97.7497 193.7 97.5821 194.598 97.08C195.507 96.5818 196.3 95.872 196.979 94.9506C197.668 94.0331 198.214 93.0268 198.619 91.9316C199.042 90.7834 199.285 89.6347 199.347 88.4856C199.419 87.3405 199.268 86.294 198.893 85.3462C198.518 84.3984 197.882 83.6502 196.985 83.1017C196.623 82.8715 196.199 82.6608 195.714 82.4696C195.229 82.2785 194.843 82.1299 194.556 82.024L191.526 80.9055L186.063 95.7056ZM202.8 106.522L211.276 83.5564L225.311 88.7366L223.71 93.0745L214.013 89.4955L212.177 94.4714L219.959 97.344L218.358 101.682L210.575 98.8093L207.138 108.123L202.8 106.522Z" fill="white"/>
<path d="M173.578 43.5989L236.4 66.7863" stroke="#D3D3D3" stroke-linecap="round"/>
<path d="M171.207 50.0239L234.029 73.2113" stroke="#D3D3D3" stroke-linecap="round"/>
<path d="M168.57 57.1628L231.392 80.3502" stroke="#D3D3D3" stroke-linecap="round"/>
</g>
<path d="M147.26 26.1446L143.184 32.2454L158.876 29.1246L155.751 13.4328L151.705 19.486C145.48 14.0522 130.692 14.8265 123.285 17.9005C115.496 21.1333 110.007 26.9078 111.74 35.27C111.915 31.9571 114.704 29.3497 118.076 27.156C122.999 23.953 128.689 21.7077 134.555 21.9999C139.242 22.2333 144.03 23.4932 147.26 26.1446Z" fill="#0F67B1"/>
<defs>
<clipPath id="clip0_436_2171">
<rect width="112.622" height="112.622" fill="white" transform="translate(0 39.3345) rotate(-20.2462)"/>
</clipPath>
<clipPath id="clip1_436_2171">
<rect width="112.622" height="112.622" fill="white" transform="translate(165.336) rotate(20.259)"/>
</clipPath>
</defs>
</svg>
