<svg width="88" height="88" viewBox="0 0 88 88" fill="none" xmlns="http://www.w3.org/2000/svg">
<circle cx="44" cy="44" r="44" fill="#FFECCD"/>
<path d="M39.7617 51.7644V51.7737L40.5551 52.4271L39.7617 51.7644Z" fill="#3B4652"/>
<path d="M39.1381 54.2654L38.0367 58.6241L37.8594 59.3428C37.7754 59.6881 37.8874 60.0521 38.1581 60.2761C38.2887 60.3881 38.4381 60.4628 38.606 60.4907C38.6528 60.5001 38.7088 60.5094 38.7648 60.5094C38.8861 60.5094 39.0074 60.4814 39.1288 60.4347L46.4648 57.3921C46.4367 57.3734 46.4088 57.3547 46.3901 57.3361L39.7634 51.7734L39.6047 52.3988L39.1381 54.2654Z" fill="#3B4652"/>
<path d="M55.2188 33.1538L49.3575 39.9578L47.7428 41.8244L44.0002 46.1738L42.3855 48.0404L40.7988 49.8791L48.1255 56.0484L55.2188 47.8164L57.0855 45.6511L62.5362 39.3231L55.4895 32.8364L55.2188 33.1538Z" fill="#3B4652"/>
<path d="M27.4525 33.7333H52.2604L54.0711 31.624L55.3311 30.1493L55.3405 30.1586L57.0858 28.1333V25.3333C57.0858 23.2706 55.4151 21.6 53.3525 21.6H25.3525C23.2898 21.6 21.6191 23.2706 21.6191 25.3333V62.6666C21.6191 64.7293 23.2898 66.4 25.3525 66.4H53.3525C55.4151 66.4 57.0858 64.7293 57.0858 62.6666V48.5079L49.5632 57.2346L49.1058 57.7666C48.6298 58.3266 48.0231 58.7653 47.3512 59.0453L47.1831 59.12L39.8471 62.1626C39.4551 62.312 39.1098 62.3773 38.7645 62.3773C38.5871 62.3773 38.4005 62.3493 38.2418 62.3213C37.8031 62.2466 37.3364 62.032 36.9445 61.6959C36.5618 61.3786 36.2818 60.9586 36.1231 60.492H27.4525C26.9391 60.492 26.5191 60.0719 26.5191 59.5586C26.5191 59.036 26.9391 58.6253 27.4525 58.6253H36.1138L36.2258 58.1773L37.2058 54.2666H27.4525C26.9391 54.2666 26.5191 53.8466 26.5191 53.3333C26.5191 52.82 26.9391 52.4 27.4525 52.4H37.6724L38.7645 48.0413H27.4525C26.9391 48.0413 26.5191 47.6307 26.5191 47.1079C26.5191 46.5946 26.9391 46.1746 27.4525 46.1746H41.5271L42.5911 44.9519L45.2791 41.8253H27.4525C26.9391 41.8253 26.5191 41.4053 26.5191 40.892C26.5191 40.3693 26.9391 39.9586 27.4525 39.9586H46.8938L47.9484 38.736L50.6458 35.6H27.4525C26.9391 35.6 26.5191 35.18 26.5191 34.6666C26.5191 34.1533 26.9391 33.7333 27.4525 33.7333ZM27.4525 27.5079H51.2525C51.7658 27.5079 52.1858 27.9279 52.1858 28.4413C52.1858 28.9546 51.7658 29.3746 51.2525 29.3746H27.4525C26.9391 29.3746 26.5191 28.9546 26.5191 28.4413C26.5191 27.9279 26.9391 27.5079 27.4525 27.5079Z" fill="#2B79C2"/>
<path d="M65.4679 31.8934L62.2106 29.0841C61.7159 28.6548 61.0999 28.4401 60.4932 28.4401C59.7559 28.4401 59.0186 28.7481 58.4959 29.3548L57.1426 30.9228L64.1799 37.4188L65.7479 35.5988C66.6906 34.5067 66.5692 32.8361 65.4679 31.8934Z" fill="#3B4652"/>
</svg>
