<svg width="88" height="88" viewBox="0 0 88 88" fill="none" xmlns="http://www.w3.org/2000/svg">
<circle cx="44" cy="44" r="44" fill="#DCE8F3"/>
<g clip-path="url(#clip0_1869_30165)">
<path d="M71.9962 43.5319C72.1467 52.7466 67.8444 60.9632 61.1008 66.1715C50.0188 69.9487 37.9927 69.9153 26.9318 66.0768L26.6531 65.98C20.1639 60.8525 16 52.9119 16 44C16 28.5455 28.5221 16.0146 43.9732 16C59.222 15.9858 71.7471 28.285 71.9962 43.5319Z" fill="#807BEF"/>
<path d="M72 44C72 53.0234 67.73 61.0516 61.1008 66.1714C50.0188 69.9485 37.9927 69.9152 26.9318 66.0767L26.6531 65.98C20.1639 60.8514 16 52.9119 16 44C16 38.9447 17.3398 34.2033 19.6838 30.1094C24.5094 38.5389 33.5919 44.2187 44 44.2187C54.4081 44.2187 63.4917 38.5389 68.3162 30.1094C70.6602 34.2033 72 38.9447 72 44Z" fill="#6666E2"/>
<path d="M61.1 30.0467V66.1714C61.0999 66.1717 61.0998 66.172 61.0996 66.1722C59.1071 67.7125 56.9156 68.9764 54.5845 69.9295C51.3197 71.2639 47.7453 72 43.9992 72C43.9577 72 43.9172 72 43.8756 71.9989C37.3722 71.9716 31.3927 69.7261 26.6523 65.98V30.0467C26.6523 29.2815 27.2726 28.6613 28.0378 28.6613H59.7145C60.4797 28.6613 61.1 29.2815 61.1 30.0467Z" fill="white"/>
<path d="M61.1013 30.0467V66.1714C61.1012 66.1717 61.1011 66.172 61.1009 66.1722C59.1084 67.7125 56.9169 68.9764 54.5859 69.9295C51.2854 71.2785 47.6685 72.016 43.8778 71.9998L43.877 71.9989V28.6613H59.7159C60.4811 28.6613 61.1013 29.2815 61.1013 30.0467Z" fill="#D1F6FF"/>
<path d="M61.0992 66.1736C59.1072 67.7133 56.9163 68.9767 54.5859 69.9295V66.1736H61.0992Z" fill="#66E1D2"/>
<path d="M49.4922 65.256C49.4303 65.256 49.3668 65.2541 49.301 65.25C47.5265 65.141 46.9428 63.678 46.4736 62.5024C45.9856 61.2795 45.7136 60.792 44.9747 60.9003C44.4701 60.9739 44.2271 61.5495 43.8871 62.4884C43.4578 63.6736 42.8745 65.2953 40.8633 65.2474C38.9841 65.2009 38.3997 63.1157 37.8839 61.276C37.4473 59.7183 37.0348 58.247 36.0511 58.105C35.7511 58.0617 35.4733 58.1417 35.2017 58.3496C33.9337 59.3203 33.2828 62.612 33.1391 63.7983C33.1063 64.0682 32.8606 64.2615 32.5914 64.2278C32.4618 64.2122 32.3437 64.1457 32.2632 64.043C32.1826 63.9404 32.1461 63.8099 32.1617 63.6803C32.1848 63.4894 32.7472 58.9898 34.6027 57.5683C35.0887 57.196 35.6235 57.0489 36.1916 57.1306C37.8095 57.3642 38.3292 59.2177 38.8316 61.0104C39.3776 62.9582 39.8158 64.2368 40.8876 64.2633C40.9091 64.2638 40.9307 64.2642 40.9518 64.2642C42.1118 64.2642 42.4873 63.4622 42.9614 62.1532C43.3116 61.1863 43.7087 60.0904 44.8324 59.9263C46.4135 59.6973 46.9537 61.0497 47.3877 62.1378C47.8989 63.419 48.2869 64.2017 49.3611 64.2678C50.1108 64.3152 50.3699 63.9925 50.8443 63.32C51.4252 62.497 52.2207 61.3697 54.5846 61.3697C54.7151 61.3697 54.8403 61.4215 54.9326 61.5138C55.0249 61.6061 55.0768 61.7313 55.0768 61.8618C55.0768 61.9924 55.0249 62.1176 54.9326 62.2099C54.8403 62.3022 54.7151 62.354 54.5846 62.354C52.7308 62.354 52.205 63.0989 51.6484 63.8876C51.1946 64.5308 50.6828 65.256 49.4922 65.256Z" fill="#323B5A"/>
<path d="M32.1016 35.8024H55.8972V39.2849H32.1016V35.8024Z" fill="#374C81"/>
<path d="M43.877 35.8024H55.8984V39.2849H43.877V35.8024Z" fill="#323B5A"/>
<path d="M32.1016 42.7684H55.8972V46.252H32.1016V42.7684Z" fill="#374C81"/>
<path d="M43.877 42.7684H55.8984V46.252H43.877V42.7684Z" fill="#323B5A"/>
<path d="M32.1016 49.7346H55.8972V53.2182H32.1016V49.7346Z" fill="#374C81"/>
<path d="M43.877 49.7346H55.8984V53.2182H43.877V49.7346Z" fill="#323B5A"/>
<path d="M51.0895 58.6591L50.1409 61.3543C49.7037 62.5963 48.9286 63.623 47.9548 64.3662C47.6612 63.1768 47.7 61.891 48.1372 60.649L49.0858 57.9537L51.0895 58.6591Z" fill="#4E689B"/>
<path d="M51.0898 58.6591L50.1412 61.3543C49.704 62.5963 48.9288 63.623 47.9551 64.3662C47.9787 63.2885 48.2007 62.0671 48.6379 60.8252L49.5865 58.1299L51.0898 58.6591Z" fill="#374C81"/>
<path d="M51.0898 58.6591L50.1412 61.3543C49.704 62.5963 48.9288 63.623 47.9551 64.3662L50.0879 58.3065L51.0898 58.6591Z" fill="#323B5A"/>
<path d="M57.335 45.9406C55.5127 51.1181 53.327 56.0275 50.834 60.6322L48.0488 59.6519C48.9903 54.501 50.3607 49.3047 52.183 44.1272C52.8315 42.2845 54.343 38.1552 55.6993 34.6272C56.5244 32.4806 57.2916 30.5558 57.7724 29.5038C58.3598 28.2194 59.6235 27.9176 60.6543 28.2804L60.6559 28.2809C60.7654 28.3194 60.8713 28.3653 60.9742 28.4196L60.9751 28.42C60.9962 28.4302 61.0162 28.4411 61.0371 28.4523C61.872 28.9112 62.4403 29.8453 62.1371 31.04C61.853 32.1615 61.2454 34.1423 60.5442 36.3326C59.3916 39.9323 57.9835 44.0981 57.335 45.9406Z" fill="#FFE400"/>
<path d="M57.3352 45.9407C55.5129 51.1181 53.3273 56.0276 50.8342 60.6322L48.7422 59.8959C50.0688 54.8806 51.6428 49.7559 53.4651 44.5785C54.1137 42.7359 55.5989 38.5973 56.9051 35.0516C57.6988 32.894 58.4269 30.9554 58.8586 29.8861C59.3856 28.5813 60.136 28.0989 60.6547 28.2804L60.6563 28.281C60.7232 28.3046 60.7858 28.3392 60.8415 28.3834C60.8656 28.4014 60.9109 28.4135 60.9745 28.4197L60.9753 28.42C60.9965 28.4303 61.0165 28.4411 61.0374 28.4524C61.8722 28.9112 62.4405 29.8454 62.1373 31.0401C61.8533 32.1615 61.2456 34.1424 60.5444 36.3326C59.3918 39.9324 57.9837 44.0981 57.3352 45.9407Z" fill="#FED110"/>
<path d="M57.3346 45.9406C55.5123 51.1181 53.3266 56.0275 50.8335 60.6322L49.4414 60.1422L60.6555 28.2809C61.6871 28.6441 62.4844 29.6702 62.1367 31.0399C61.8526 32.1614 61.2449 34.1422 60.5437 36.3325C59.3911 39.9323 57.983 44.0981 57.3346 45.9406Z" fill="#FCBF12"/>
<path d="M60.5441 36.3326L55.6992 34.6273C56.5243 32.4807 57.2915 30.556 57.7723 29.5039C58.3598 28.2195 59.6235 27.9177 60.6542 28.2805L60.6559 28.2811C60.7657 28.3197 60.8727 28.366 60.9761 28.4195C61.8448 28.8664 62.4475 29.8165 62.137 31.0402C61.853 32.1615 61.2453 34.1425 60.5441 36.3326Z" fill="#FFE400"/>
<path d="M60.5438 36.3326L56.9043 35.0516C57.698 32.894 58.4261 30.9554 58.8578 29.8861C59.3848 28.5813 60.1352 28.0989 60.6539 28.2804L60.6555 28.281C60.7225 28.3046 60.7851 28.3392 60.8407 28.3834C60.8645 28.4023 60.911 28.4139 60.9758 28.4194C61.8444 28.8664 62.4472 29.8164 62.1367 31.0401C61.8526 32.1615 61.245 34.1425 60.5438 36.3326Z" fill="#FED110"/>
<path d="M60.545 36.3326L58.123 35.4801L60.6568 28.2811C61.6885 28.6442 62.4857 29.6703 62.138 31.0401C61.8539 32.1615 61.2463 34.1425 60.545 36.3326Z" fill="#FCBF12"/>
<path d="M62.9745 36.7333L59.2373 47.3512C59.0478 47.8898 58.5719 48.2449 58.041 48.3069C57.7178 48.3447 57.4709 48.0223 57.579 47.7153L61.1164 37.6649L55.2984 35.6172C55.1391 35.5611 55.0086 35.4441 54.9356 35.2918C54.8626 35.1395 54.8531 34.9645 54.9091 34.8052L55.1943 33.9951C55.2503 33.8358 55.3674 33.7053 55.5197 33.6323C55.6719 33.5593 55.847 33.5497 56.0063 33.6058L62.5852 35.9214C62.6641 35.9491 62.7367 35.9921 62.799 36.0479C62.8612 36.1038 62.9119 36.1713 62.948 36.2467C62.9842 36.3221 63.0051 36.4039 63.0096 36.4873C63.0142 36.5708 63.0022 36.6544 62.9745 36.7333Z" fill="#4E689B"/>
<path d="M62.9759 36.7332L59.2388 47.3511C59.0492 47.8898 58.5734 48.2449 58.0424 48.3069C57.7192 48.3447 57.4724 48.0223 57.5804 47.7153L61.1179 37.6649L57.7694 36.4864L58.4774 34.475L62.5868 35.9214C62.746 35.9774 62.8765 36.0944 62.9495 36.2467C63.0225 36.399 63.032 36.574 62.9759 36.7332Z" fill="#374C81"/>
<path d="M60.6211 39.0701L61.1114 37.6776L62.4725 38.1567L61.9823 39.5494L60.6211 39.0701Z" fill="#323B5A"/>
</g>
<defs>
<clipPath id="clip0_1869_30165">
<rect width="56" height="56" fill="white" transform="translate(16 16)"/>
</clipPath>
</defs>
</svg>
