<svg width="88" height="88" viewBox="0 0 88 88" fill="none" xmlns="http://www.w3.org/2000/svg">
<circle cx="44" cy="44" r="44" fill="#FFE8E8"/>
<g clip-path="url(#clip0_1869_29595)">
<path d="M41.4529 46.2705H41.4359V46.7705C41.4359 47.0608 41.3201 47.3422 41.1064 47.5559C40.8927 47.7696 40.6112 47.8855 40.3209 47.8855H17.6599C17.3612 47.8855 17.0715 47.7642 16.8844 47.5662L16.8795 47.561L16.8745 47.5559C16.6608 47.3422 16.5449 47.0608 16.5449 46.7705L16.5449 17.6155C16.5449 17.3168 16.6662 17.0271 16.8642 16.84L16.8746 16.8302L16.8844 16.8198C17.0715 16.6217 17.3612 16.5005 17.6599 16.5005H31.5659C31.8618 16.5005 32.1586 16.6202 32.3684 16.83L41.1234 25.585C41.3351 25.7968 41.4529 26.0774 41.4529 26.3875V46.2705Z" fill="white" stroke="#17DC85"/>
<path d="M41.9359 46.7714V48.3864C41.9359 48.8114 41.7659 49.2364 41.4599 49.5254C41.1539 49.8314 40.7459 50.0014 40.3209 50.0014H17.6599C16.7589 50.0014 16.0449 49.2704 16.0449 48.3864V46.7714C16.0449 47.1964 16.2149 47.6044 16.5209 47.9104C16.8269 48.2164 17.2349 48.3864 17.6599 48.3864H40.3209C41.2219 48.3864 41.9359 47.6554 41.9359 46.7714Z" fill="#D0D7E3"/>
<path d="M12.7969 33.8173H45.1819V41.9093C45.1819 42.8103 44.4509 43.5243 43.5669 43.5243H14.4289C14.0039 43.5243 13.5789 43.3543 13.2899 43.0483C12.9839 42.7423 12.8139 42.3343 12.8139 41.8923V33.8173H12.7969Z" fill="#17DC85"/>
<path d="M16.0458 33.8166V30.5696L12.7988 33.8166H16.0458ZM41.9368 33.8166L41.9708 30.5696L45.2008 33.8166H41.9368Z" fill="#10B76D"/>
<path d="M41.9345 26.3883V26.6093H33.1795C32.2785 26.6093 31.5645 25.8783 31.5645 24.9943V16.0013C31.9895 16.0013 32.4145 16.1713 32.7205 16.4773L41.4925 25.2323C41.7815 25.5383 41.9515 25.9463 41.9345 26.3883Z" fill="#17DC85"/>
<path d="M19.9701 42.1331L22.3901 38.4931L20.0401 34.9331H21.7101L23.2401 37.3331L24.7501 34.9331H26.4301L24.0801 38.4931L26.4901 42.1331H24.8201L23.2401 39.6531L21.6501 42.1331H19.9701ZM27.3889 42.1331V34.9331H28.7489V40.8631H31.8489V42.1331H27.3889ZM35.419 42.2831C34.8857 42.2831 34.404 42.1897 33.974 42.0031C33.5474 41.8131 33.1957 41.5431 32.919 41.1931C32.6457 40.8397 32.4724 40.4197 32.399 39.9331L33.819 39.7231C33.919 40.1364 34.1257 40.4547 34.439 40.6781C34.7524 40.9014 35.109 41.0131 35.509 41.0131C35.7324 41.0131 35.949 40.9781 36.159 40.9081C36.369 40.8381 36.5407 40.7347 36.674 40.5981C36.8107 40.4614 36.879 40.2931 36.879 40.0931C36.879 40.0197 36.8674 39.9497 36.844 39.8831C36.824 39.8131 36.789 39.7481 36.739 39.6881C36.689 39.6281 36.6174 39.5714 36.524 39.5181C36.434 39.4647 36.319 39.4164 36.179 39.3731L34.309 38.8231C34.169 38.7831 34.0057 38.7264 33.819 38.6531C33.6357 38.5797 33.4574 38.4747 33.284 38.3381C33.1107 38.2014 32.9657 38.0214 32.849 37.7981C32.7357 37.5714 32.679 37.2864 32.679 36.9431C32.679 36.4597 32.8007 36.0581 33.044 35.7381C33.2874 35.4181 33.6124 35.1797 34.019 35.0231C34.4257 34.8664 34.8757 34.7897 35.369 34.7931C35.8657 34.7997 36.309 34.8847 36.699 35.0481C37.089 35.2114 37.4157 35.4497 37.679 35.7631C37.9424 36.0731 38.1324 36.4531 38.249 36.9031L36.779 37.1531C36.7257 36.9197 36.6274 36.7231 36.484 36.5631C36.3407 36.4031 36.169 36.2814 35.969 36.1981C35.7724 36.1147 35.5657 36.0697 35.349 36.0631C35.1357 36.0564 34.934 36.0864 34.744 36.1531C34.5574 36.2164 34.404 36.3097 34.284 36.4331C34.1674 36.5564 34.109 36.7031 34.109 36.8731C34.109 37.0297 34.1574 37.1581 34.254 37.2581C34.3507 37.3547 34.4724 37.4331 34.619 37.4931C34.7657 37.5531 34.9157 37.6031 35.069 37.6431L36.319 37.9831C36.5057 38.0331 36.7124 38.0997 36.939 38.1831C37.1657 38.2631 37.3824 38.3764 37.589 38.5231C37.799 38.6664 37.9707 38.8564 38.104 39.0931C38.2407 39.3297 38.309 39.6297 38.309 39.9931C38.309 40.3797 38.2274 40.7181 38.064 41.0081C37.904 41.2947 37.6874 41.5331 37.414 41.7231C37.1407 41.9097 36.8307 42.0497 36.484 42.1431C36.1407 42.2364 35.7857 42.2831 35.419 42.2831Z" fill="white"/>
<path d="M18.8926 27.4868H39.1088" stroke="#D3D3D3" stroke-width="0.5" stroke-linecap="round"/>
<path d="M18.8906 29.5544H39.1068" stroke="#D3D3D3" stroke-width="0.5" stroke-linecap="round"/>
<path d="M18.8887 31.853H39.1049" stroke="#D3D3D3" stroke-width="0.5" stroke-linecap="round"/>
</g>
<g clip-path="url(#clip1_1869_29595)">
<path d="M71.2771 68.0061H71.2601V68.5061C71.2601 68.7964 71.1443 69.0778 70.9306 69.2915C70.7169 69.5052 70.4355 69.6211 70.1451 69.6211H47.4841C47.1854 69.6211 46.8957 69.4998 46.7086 69.3018L46.7037 69.2966L46.6987 69.2915C46.485 69.0778 46.3691 68.7964 46.3691 68.5061V39.3511C46.3691 39.0524 46.4904 38.7627 46.6885 38.5756L46.6988 38.5658L46.7086 38.5554C46.8957 38.3573 47.1854 38.2361 47.4841 38.2361H61.3901C61.686 38.2361 61.9828 38.3558 62.1926 38.5656L70.9476 47.3206C71.1593 47.5324 71.2771 47.813 71.2771 48.1231V68.0061Z" fill="white" stroke="#FF6D6D"/>
<path d="M71.7601 68.5061V70.1211C71.7601 70.5461 71.5901 70.9711 71.2841 71.2601C70.9781 71.5661 70.5701 71.7361 70.1451 71.7361H47.4841C46.5831 71.7361 45.8691 71.0051 45.8691 70.1211V68.5061C45.8691 68.9311 46.0391 69.3391 46.3451 69.6451C46.6511 69.9511 47.0591 70.1211 47.4841 70.1211H70.1451C71.0461 70.1211 71.7601 69.3901 71.7601 68.5061Z" fill="#D0D7E3"/>
<path d="M42.6211 55.5521H75.0061V63.6441C75.0061 64.5451 74.2751 65.2591 73.3911 65.2591H44.2531C43.8281 65.2591 43.4031 65.0891 43.1141 64.7831C42.8081 64.4771 42.6381 64.0691 42.6381 63.6271V55.5521H42.6211Z" fill="#EF4444"/>
<path d="M45.8681 55.5521V52.3051L42.6211 55.5521H45.8681ZM71.7591 55.5521L71.7931 52.3051L75.0231 55.5521H71.7591Z" fill="#D50B0B"/>
<path d="M71.7606 48.1232V48.3442H63.0056C62.1046 48.3442 61.3906 47.6132 61.3906 46.7292V37.7362C61.8156 37.7362 62.2406 37.9062 62.5466 38.2122L71.3186 46.9672C71.6076 47.2732 71.7776 47.6812 71.7606 48.1232Z" fill="#FF6D6D"/>
<path d="M49.8161 63.6725V56.2605H52.9456C53.0176 56.2605 53.1137 56.264 53.2338 56.2708C53.3573 56.2743 53.4671 56.2846 53.5632 56.3017C54.0059 56.3703 54.3679 56.5162 54.6493 56.7392C54.9341 56.9623 55.1434 57.2437 55.2772 57.5834C55.4111 57.9197 55.478 58.2954 55.478 58.7106C55.478 59.1258 55.4093 59.5033 55.2721 59.843C55.1383 60.1793 54.9289 60.4589 54.6441 60.682C54.3628 60.905 54.0024 61.0509 53.5632 61.1195C53.4671 61.1332 53.3573 61.1435 53.2338 61.1504C53.1103 61.1572 53.0142 61.1607 52.9456 61.1607H51.2161V63.6725H49.8161ZM51.2161 59.8533H52.8838C52.9559 59.8533 53.0348 59.8498 53.1206 59.843C53.2064 59.8361 53.2853 59.8224 53.3573 59.8018C53.5461 59.7503 53.6919 59.6645 53.7948 59.5444C53.8978 59.4209 53.9681 59.2854 54.0059 59.1378C54.0471 58.9868 54.0676 58.8444 54.0676 58.7106C54.0676 58.5768 54.0471 58.4361 54.0059 58.2885C53.9681 58.1375 53.8978 58.002 53.7948 57.8819C53.6919 57.7584 53.5461 57.6709 53.3573 57.6194C53.2853 57.5988 53.2064 57.5851 53.1206 57.5782C53.0348 57.5714 52.9559 57.5679 52.8838 57.5679H51.2161V59.8533ZM56.5114 63.6725V56.2605H58.91C58.9684 56.2605 59.0885 56.2623 59.2703 56.2657C59.4522 56.2691 59.6272 56.2811 59.7953 56.3017C60.3924 56.3738 60.8985 56.5814 61.3138 56.9245C61.729 57.2677 62.0447 57.7035 62.2608 58.2319C62.477 58.7604 62.5851 59.3386 62.5851 59.9665C62.5851 60.5945 62.477 61.1727 62.2608 61.7011C62.0447 62.2296 61.729 62.6654 61.3138 63.0085C60.8985 63.3516 60.3924 63.5592 59.7953 63.6313C59.6272 63.6519 59.4522 63.6639 59.2703 63.6673C59.0885 63.6708 58.9684 63.6725 58.91 63.6725H56.5114ZM57.9321 62.3548H58.91C59.0027 62.3548 59.1279 62.3531 59.2858 62.3497C59.4436 62.3428 59.586 62.3274 59.713 62.3033C60.0355 62.2381 60.298 62.0872 60.5005 61.8504C60.7064 61.6136 60.8574 61.3288 60.9535 60.996C61.053 60.6631 61.1027 60.32 61.1027 59.9665C61.1027 59.5959 61.0512 59.2442 60.9483 58.9113C60.8488 58.5785 60.6961 58.2971 60.4902 58.0672C60.2843 57.8373 60.0252 57.6915 59.713 57.6297C59.586 57.6022 59.4436 57.5868 59.2858 57.5834C59.1279 57.5799 59.0027 57.5782 58.91 57.5782H57.9321V62.3548ZM63.82 63.6725V56.2605H68.3496V57.6606H65.2201V59.2665H67.7319V60.6665H65.2201V63.6725H63.82Z" fill="white"/>
<path d="M48.7148 49.222H68.9311" stroke="#D3D3D3" stroke-width="0.5" stroke-linecap="round"/>
<path d="M48.7148 51.2899H68.9311" stroke="#D3D3D3" stroke-width="0.5" stroke-linecap="round"/>
<path d="M48.7148 53.5879H68.9311" stroke="#D3D3D3" stroke-width="0.5" stroke-linecap="round"/>
</g>
<path d="M53.5356 32.0019L51.3818 32.4128L55.4011 35.0302L58.0231 31.1453L55.8858 31.5528C55.6911 29.1388 52.358 26.2256 50.1249 25.3202C47.7764 24.3681 45.3881 24.4182 44.0053 26.5025C45.1286 25.5107 47.2221 26.1386 48.9354 26.6465C49.3963 26.7831 49.8467 26.9618 50.2385 27.2403C51.7743 28.3322 53.335 30.2074 53.5356 32.0019Z" fill="#0F67B1"/>
<defs>
<clipPath id="clip0_1869_29595">
<rect width="34" height="34" fill="white" transform="translate(12 16)"/>
</clipPath>
<clipPath id="clip1_1869_29595">
<rect width="34" height="34" fill="white" transform="translate(41.8242 37.7357)"/>
</clipPath>
</defs>
</svg>
