<svg width="88" height="88" viewBox="0 0 88 88" fill="none" xmlns="http://www.w3.org/2000/svg">
<circle cx="44" cy="44" r="44" fill="#C6FFF1"/>
<path d="M43.9998 19.9646C44.8548 19.9646 45.6515 20.2107 46.3298 20.6296V19.3802H41.6699V20.6297C42.3482 20.2108 43.1447 19.9646 43.9998 19.9646Z" fill="#9BC0CC"/>
<path d="M44.0004 27.8968C45.9434 27.8968 47.5244 26.3222 47.5244 24.3867C47.5244 23.4073 47.1187 22.5214 46.467 21.884C46.4659 21.883 46.4647 21.8821 46.4636 21.881C45.8277 21.2607 44.9586 20.8766 44.0004 20.8766C43.0418 20.8766 42.1725 21.2609 41.5366 21.8815L41.5353 21.8827C40.8829 22.5202 40.4766 23.4066 40.4766 24.3867C40.4766 26.3222 42.0573 27.8968 44.0004 27.8968ZM44.0004 22.0469C45.2959 22.0469 46.3497 23.0965 46.3497 24.3867C46.3497 25.6768 45.2959 26.7265 44.0004 26.7265C42.7052 26.7265 41.6514 25.6768 41.6514 24.3867C41.6514 23.0965 42.7052 22.0469 44.0004 22.0469Z" fill="#E7EEF2"/>
<path d="M43.9979 25.8145C44.7886 25.8145 45.4317 25.1739 45.4317 24.3867C45.4317 23.5993 44.7886 22.9587 43.9979 22.9587C43.2076 22.9587 42.5645 23.5993 42.5645 24.3867C42.5645 25.1739 43.2076 25.8145 43.9979 25.8145Z" fill="white"/>
<path d="M39.6775 30.6875L38.6901 29.7041H37.3511C37.0984 29.7041 36.8933 29.5 36.8933 29.2481C36.8933 28.9963 37.0984 28.7922 37.3511 28.7922H38.6901L40.4534 27.0359C39.9734 26.4 39.659 25.6343 39.581 24.7993L35.6354 28.7291C35.3481 29.0153 35.3481 29.4808 35.6354 29.767L39.6774 33.7925V30.6875H39.6775ZM49.3103 28.7922H50.6476C50.9003 28.7922 51.1053 28.9962 51.1053 29.2481C51.1053 29.5 50.9003 29.7041 50.6476 29.7041H49.308L48.32 30.6881V32.6636H49.0624C49.1807 32.6636 49.2957 32.6791 49.4071 32.7085L52.3636 29.7665C52.5033 29.6273 52.5799 29.4425 52.5796 29.2462C52.5793 29.0511 52.503 28.8684 52.3648 28.7316L48.4179 24.8002C48.3397 25.6347 48.0256 26.3998 47.5459 27.0353L49.3103 28.7922Z" fill="#9BC0CC"/>
<path d="M42.1698 36.3371H49.4904V34.001C49.4904 33.8497 49.4126 33.7129 49.2824 33.6349C49.215 33.5955 49.1426 33.5754 49.0633 33.5754H40.5939V34.893C40.5939 35.0773 40.4824 35.2437 40.3114 35.3142C40.2277 35.3487 40.1357 35.3578 40.0469 35.3402C39.9581 35.3226 39.8765 35.2791 39.8125 35.2154L38.1658 33.5755H37.0662C36.8488 33.5755 36.6708 33.7388 36.6445 33.9485C37.7983 34.158 38.7041 35.1357 38.8335 36.3379H39.6727C39.7156 36.3379 39.7574 36.3438 39.7967 36.3548C40.166 36.4038 40.4924 36.5635 40.7539 36.793H41.7121C41.712 36.5411 41.9171 36.3371 42.1698 36.3371Z" fill="#85ECF2"/>
<path d="M36.1677 39.0452C36.1721 39.045 36.1764 39.0438 36.1809 39.0438C36.1855 39.0438 36.1897 39.045 36.1943 39.0452H39.6716C40.1023 39.0452 40.4527 38.6961 40.4527 38.2671V38.1475C40.4527 37.6868 40.0921 37.2944 39.6317 37.254C39.6204 37.2531 39.6092 37.2517 39.598 37.2499H38.3904C38.1377 37.2499 37.9327 37.0458 37.9327 36.7939V36.6348C37.9327 35.6496 37.1614 34.8342 36.2137 34.8168C35.7366 34.8138 35.291 34.9857 34.9528 35.3165C34.6145 35.6474 34.4283 36.0897 34.4283 36.5618V36.7939C34.4283 37.0458 34.2232 37.2499 33.9705 37.2499H32.8094C32.3126 37.2499 31.9082 37.6525 31.9082 38.1475V38.2672C31.9082 38.6961 32.2587 39.0452 32.6896 39.0452L36.1677 39.0452Z" fill="white"/>
<path d="M36.9762 47.7803L39.9996 50.2901H39.9999C40.1912 50.4492 40.4341 50.5368 40.6836 50.5368H44.7307L44.8366 50.427V49.3332C44.8236 49.3343 44.811 49.3371 44.7977 49.3371C44.545 49.3371 44.34 49.133 44.34 48.8812V47.6157C44.34 47.0072 44.8368 46.5122 45.4477 46.5122H47.9838C48.3466 46.5122 48.7308 46.3497 49.0397 46.0672L49.0931 46.0119C49.2963 45.8072 49.4316 45.5714 49.4912 45.3229V37.2491H42.1707C41.9179 37.2491 41.7129 37.045 41.7129 36.7932V36.7931H40.7548C41.1324 37.1245 41.3702 37.6061 41.3702 38.1475V38.2671C41.3702 39.1989 40.609 39.957 39.6736 39.957H36.6406V47.5602C36.7586 47.623 36.8723 47.6942 36.9762 47.7803ZM43.0656 49.337H40.4597C40.207 49.337 40.002 49.1329 40.002 48.881C40.002 48.6291 40.207 48.4251 40.4597 48.4251H43.0656C43.3183 48.4251 43.5234 48.6292 43.5234 48.881C43.5234 49.1329 43.3183 49.337 43.0656 49.337ZM47.5025 45.5028H43.0656C42.8129 45.5028 42.6079 45.2987 42.6079 45.0469C42.6079 44.795 42.8129 44.5909 43.0656 44.5909H47.5025C47.7552 44.5909 47.9603 44.795 47.9603 45.0469C47.9603 45.2987 47.7552 45.5028 47.5025 45.5028ZM42.1707 38.8397H47.5025C47.7553 38.8397 47.9603 39.0438 47.9603 39.2957C47.9603 39.5476 47.7553 39.7516 47.5025 39.7516H42.1707C41.9179 39.7516 41.7129 39.5476 41.7129 39.2957C41.7129 39.0438 41.9179 38.8397 42.1707 38.8397ZM47.9603 41.2127C47.9603 41.4646 47.7553 41.6686 47.5025 41.6686H44.9902C44.7375 41.6686 44.5325 41.4646 44.5325 41.2127C44.5325 40.9608 44.7375 40.7567 44.9902 40.7567H47.5025C47.7552 40.7567 47.9603 40.9608 47.9603 41.2127ZM38.6287 40.7567H43.0656C43.3183 40.7567 43.5234 40.9608 43.5234 41.2127C43.5234 41.4646 43.3183 41.6686 43.0656 41.6686H38.6287C38.376 41.6686 38.1709 41.4646 38.1709 41.2127C38.1709 40.9608 38.376 40.7567 38.6287 40.7567ZM38.6287 42.6739H47.5025C47.7552 42.6739 47.9603 42.878 47.9603 43.1299C47.9603 43.3817 47.7552 43.5858 47.5025 43.5858H38.6287C38.376 43.5858 38.1709 43.3817 38.1709 43.1299C38.1709 42.878 38.376 42.6739 38.6287 42.6739ZM38.6287 44.5909H41.141C41.3937 44.5909 41.5988 44.795 41.5988 45.0469C41.5988 45.2987 41.3937 45.5028 41.141 45.5028H38.6287C38.376 45.5028 38.1709 45.2987 38.1709 45.0469C38.1709 44.795 38.376 44.5909 38.6287 44.5909ZM38.6287 46.5081H43.0656C43.3183 46.5081 43.5234 46.7121 43.5234 46.964C43.5234 47.2159 43.3183 47.42 43.0656 47.42H38.6287C38.376 47.42 38.1709 47.2159 38.1709 46.964C38.1709 46.7122 38.376 46.5081 38.6287 46.5081Z" fill="#E7EEF2"/>
<path d="M47.7309 47.4241H45.447C45.3391 47.4241 45.2548 47.5082 45.2548 47.6157V48.8811C45.2548 49.1197 45.0702 49.3132 44.8359 49.3332V50.4269L47.7309 47.4241Z" fill="white"/>
<path d="M50.4046 45.3725C50.4046 45.403 50.4015 45.4335 50.3953 45.4634C50.3067 45.8976 50.0849 46.3034 49.7552 46.6385C49.7543 46.6395 49.7541 46.6409 49.7531 46.6419L49.686 46.7118L45.998 50.5369H51.2682V35.7641C51.2682 35.5295 51.0751 35.3386 50.8379 35.3386H50.4046V45.3725Z" fill="#85ECF2"/>
<path d="M52.1855 50.5367H53.04V37.53C53.04 37.2937 52.8483 37.1013 52.6129 37.1013H52.1855V50.5367Z" fill="#E7EEF2"/>
<path d="M29.6571 50.5368H36.5235C36.7762 50.5368 36.9812 50.7409 36.9812 50.9928H39.4158C39.4149 50.992 39.4138 50.9915 39.4128 50.9907L36.3894 48.4809C36.2957 48.4032 36.1895 48.3432 36.0766 48.3015C36.0649 48.2987 36.0539 48.2946 36.0425 48.291C35.9343 48.2551 35.8209 48.2344 35.7054 48.2344H28.8435C28.2546 48.2344 27.7754 48.7117 27.7754 49.2983V50.9928H29.1993C29.1993 50.7409 29.4044 50.5368 29.6571 50.5368Z" fill="#9BC0CC"/>
<path d="M60.2253 52.5125C60.2253 51.926 59.7461 51.4486 59.1572 51.4486H40.6826C40.2207 51.4486 39.7708 51.2865 39.4158 50.9927H36.9812C36.9812 51.2446 36.7762 51.4486 36.5235 51.4486H29.6571C29.4044 51.4486 29.1993 51.2445 29.1993 50.9927H27.7754V69.5346C27.7754 70.1212 28.2546 70.5985 28.8435 70.5985H35.4947V68.4915C35.4947 67.4021 36.3846 66.5157 37.4783 66.5157H50.5224C51.6161 66.5157 52.506 67.4021 52.506 68.4915V70.5985H59.1572C59.7461 70.5985 60.2253 70.1212 60.2253 69.5346V52.5125ZM52.869 62.9122V63.9763H35.1317V62.9122C34.879 62.9122 34.674 62.7081 34.674 62.4563C34.674 62.2044 34.879 62.0003 35.1317 62.0003H52.869C53.1217 62.0003 53.3267 62.2044 53.3267 62.4563C53.3267 62.7081 53.1217 62.9122 52.869 62.9122ZM52.869 59.8723V60.9363H35.1317V59.8723C34.879 59.8723 34.674 59.6682 34.674 59.4163C34.674 59.1645 34.879 58.9604 35.1317 58.9604H43.8852C44.1379 58.9604 44.3429 59.1644 44.3429 59.4163V59.4164H45.8691C45.8691 59.1645 46.0741 58.9604 46.3268 58.9604H52.869C53.1217 58.9604 53.3267 59.1644 53.3267 59.4163C53.3267 59.6682 53.1217 59.8723 52.869 59.8723ZM52.869 56.8323V57.8964H35.1317V56.8323C34.879 56.8323 34.674 56.6282 34.674 56.3764C34.674 56.1245 34.879 55.9204 35.1317 55.9204H52.869C53.1217 55.9204 53.3267 56.1245 53.3267 56.3764C53.3267 56.6282 53.1217 56.8323 52.869 56.8323Z" fill="white"/>
<path d="M35.1309 56.8324H52.8681V57.8965H35.1309V56.8324ZM45.8682 59.4164H44.3421C44.3421 59.6683 44.137 59.8724 43.8843 59.8724H35.1309V60.9364H52.8681V59.8724H46.326C46.0733 59.8724 45.8682 59.6683 45.8682 59.4164ZM35.1309 62.9123H52.8681V63.9764H35.1309V62.9123Z" fill="#B9E1EE"/>
<path d="M51.5885 68.4915C51.5885 67.9049 51.1092 67.4276 50.5203 67.4276H37.4763C36.8874 67.4276 36.4082 67.9049 36.4082 68.4915V70.5985H51.5884L51.5885 68.4915Z" fill="#85ECF2"/>
<path d="M42.1697 39.7517H47.5015C47.7543 39.7517 47.9593 39.5476 47.9593 39.2958C47.9593 39.0439 47.7543 38.8398 47.5015 38.8398H42.1697C41.9169 38.8398 41.7119 39.0439 41.7119 39.2958C41.7119 39.5476 41.9169 39.7517 42.1697 39.7517ZM47.5015 40.7568H44.9892C44.7365 40.7568 44.5315 40.9609 44.5315 41.2128C44.5315 41.4646 44.7365 41.6687 44.9892 41.6687H47.5015C47.7542 41.6687 47.9593 41.4646 47.9593 41.2128C47.9593 40.9609 47.7542 40.7568 47.5015 40.7568ZM38.6277 41.6687H43.0646C43.3173 41.6687 43.5224 41.4646 43.5224 41.2128C43.5224 40.9609 43.3173 40.7568 43.0646 40.7568H38.6277C38.375 40.7568 38.1699 40.9609 38.1699 41.2128C38.1699 41.4646 38.375 41.6687 38.6277 41.6687ZM38.6277 43.5859H47.5015C47.7542 43.5859 47.9593 43.3818 47.9593 43.1299C47.9593 42.878 47.7542 42.674 47.5015 42.674H38.6277C38.375 42.674 38.1699 42.8781 38.1699 43.1299C38.1699 43.3818 38.375 43.5859 38.6277 43.5859ZM47.5015 44.591H43.0646C42.8119 44.591 42.6068 44.795 42.6068 45.0469C42.6068 45.2988 42.8119 45.5029 43.0646 45.5029H47.5015C47.7542 45.5029 47.9593 45.2988 47.9593 45.0469C47.9593 44.795 47.7542 44.591 47.5015 44.591ZM38.6277 45.5029H41.14C41.3927 45.5029 41.5977 45.2988 41.5977 45.0469C41.5977 44.795 41.3927 44.591 41.14 44.591H38.6277C38.375 44.591 38.1699 44.795 38.1699 45.0469C38.1699 45.2988 38.375 45.5029 38.6277 45.5029ZM38.6277 47.42H43.0646C43.3173 47.42 43.5224 47.2159 43.5224 46.9641C43.5224 46.7122 43.3173 46.5081 43.0646 46.5081H38.6277C38.375 46.5081 38.1699 46.7122 38.1699 46.9641C38.1699 47.216 38.375 47.42 38.6277 47.42ZM43.0646 48.4251H40.4587C40.206 48.4251 40.001 48.6292 40.001 48.8811C40.001 49.1329 40.206 49.337 40.4587 49.337H43.0646C43.3173 49.337 43.5224 49.133 43.5224 48.8811C43.5224 48.6292 43.3173 48.4251 43.0646 48.4251ZM44.0001 26.7264C45.2956 26.7264 46.3494 25.6768 46.3494 24.3867C46.3494 23.0965 45.2956 22.0469 44.0001 22.0469C42.7049 22.0469 41.6511 23.0965 41.6511 24.3867C41.6511 25.6768 42.7049 26.7264 44.0001 26.7264ZM44.0001 22.9588C44.7907 22.9588 45.4339 23.5994 45.4339 24.3867C45.4339 25.1739 44.7907 25.8145 44.0001 25.8145C43.2097 25.8145 42.5666 25.1739 42.5666 24.3867C42.5666 23.5994 43.2097 22.9588 44.0001 22.9588Z" fill="#333333"/>
<path d="M59.1567 50.5368H53.9544V37.5301C53.9544 36.7909 53.3521 36.1895 52.6119 36.1895H52.1845V35.764C52.1845 35.0265 51.5807 34.4266 50.8386 34.4266H50.4053V34.0011C50.4053 33.7273 50.3176 33.4642 50.1651 33.2435L53.0112 30.4115C53.3241 30.0997 53.4964 29.6854 53.4955 29.2448C53.4949 28.8056 53.3223 28.3936 53.0112 28.0858L48.3298 23.4227C48.1551 22.6439 47.7729 21.944 47.2451 21.3792V19.3803C47.2451 19.1284 47.0401 18.9243 46.7874 18.9243C46.5346 18.9243 46.3296 19.1284 46.3296 19.3803V20.6296C45.6513 20.2107 44.8547 19.9646 43.9997 19.9646C43.1446 19.9646 42.348 20.2108 41.6698 20.6297V19.3803C41.6698 19.1284 41.4647 18.9243 41.212 18.9243C40.9593 18.9243 40.7542 19.1284 40.7542 19.3803V21.3794C40.2268 21.9438 39.845 22.6433 39.6702 23.4215L34.9885 28.0844C34.3441 28.7262 34.3444 29.7703 34.9885 30.4118L37.2496 32.6637H37.0656C36.3457 32.6637 35.7609 33.2323 35.7291 33.9419C35.1956 34.0308 34.706 34.2805 34.3119 34.6659C33.8509 35.1169 33.5752 35.7041 33.5225 36.338H32.8099C31.8083 36.338 30.9932 37.1497 30.9932 38.1475V38.2671C30.9932 39.1989 31.7544 39.9571 32.6901 39.9571H35.7237V47.3241C35.7173 47.324 35.7112 47.3224 35.7049 47.3224H28.843C27.7493 47.3224 26.8594 48.2088 26.8594 49.2982V69.5347C26.8594 70.6241 27.7493 71.5105 28.843 71.5105H59.1567C60.2504 71.5105 61.1403 70.6241 61.1403 69.5347V52.5126C61.1403 51.4232 60.2504 50.5368 59.1567 50.5368ZM59.1567 70.5986H52.5055V68.4916C52.5055 67.4022 51.6156 66.5158 50.5218 66.5158H37.4778C36.3841 66.5158 35.4942 67.4022 35.4942 68.4916V70.5986H28.843C28.2541 70.5986 27.7749 70.1212 27.7749 69.5347V49.2982C27.7749 48.7117 28.2541 48.2343 28.843 48.2343H35.7049C35.8204 48.2343 35.9338 48.255 36.0419 48.2909C36.0533 48.2945 36.0644 48.2987 36.0761 48.3015C36.189 48.3432 36.2952 48.4032 36.3888 48.4809L39.4122 50.9907C39.4132 50.9914 39.4143 50.9919 39.4152 50.9927C39.7703 51.2866 40.2202 51.4487 40.6821 51.4487H59.1567C59.7456 51.4487 60.2248 51.926 60.2248 52.5126V69.5347C60.2248 70.1212 59.7456 70.5986 59.1567 70.5986ZM36.4097 68.4916C36.4097 67.905 36.8889 67.4277 37.4778 67.4277H50.5219C51.1108 67.4277 51.59 67.905 51.59 68.4916V70.5986H36.4097L36.4097 68.4916ZM31.9087 38.2671V38.1475C31.9087 37.6525 32.3131 37.2498 32.8099 37.2498H33.971C34.2237 37.2498 34.4288 37.0458 34.4288 36.7939V36.5618C34.4288 36.0896 34.615 35.6474 34.9533 35.3165C35.2915 34.9857 35.7371 34.8138 36.2142 34.8168C37.1619 34.8341 37.9332 35.6496 37.9332 36.6348V36.7939C37.9332 37.0458 38.1382 37.2498 38.3909 37.2498H39.5985C39.6095 37.2516 39.6209 37.2531 39.6322 37.254C40.0926 37.2944 40.4532 37.6868 40.4532 38.1475V38.2671C40.4532 38.6961 40.1028 39.0451 39.6721 39.0451H36.1948C36.1902 39.045 36.186 39.0438 36.1814 39.0438C36.1769 39.0438 36.1726 39.045 36.1682 39.0451H32.6901C32.2592 39.0451 31.9087 38.6961 31.9087 38.2671ZM39.6721 39.9571C40.6076 39.9571 41.3687 39.1989 41.3687 38.2671V38.1475C41.3687 37.6061 41.1309 37.1245 40.7533 36.7931C40.4918 36.5636 40.1653 36.4039 39.7961 36.3549C39.7557 36.3436 39.714 36.338 39.6721 36.338H38.8329C38.7035 35.1358 37.7977 34.1581 36.6439 33.9487C36.6702 33.7389 36.8482 33.5756 37.0656 33.5756H38.1652L39.8119 35.2155C39.8759 35.2792 39.9575 35.3227 40.0463 35.3403C40.1351 35.3579 40.2271 35.3488 40.3108 35.3143C40.4818 35.2438 40.5933 35.0774 40.5933 34.8931V33.5755H49.0627C49.142 33.5755 49.2144 33.5956 49.2818 33.6351C49.412 33.713 49.4898 33.8498 49.4898 34.0011V36.3372H42.1692C41.9165 36.3372 41.7115 36.5412 41.7115 36.7931V36.7931C41.7115 37.045 41.9165 37.2491 42.1692 37.2491H49.4898V45.3229C49.4302 45.5713 49.2949 45.8072 49.0917 46.0119L49.0383 46.0672C48.7294 46.3497 48.3452 46.5122 47.9824 46.5122H45.4463C44.8353 46.5122 44.3385 47.0072 44.3385 47.6157V48.8811C44.3385 49.133 44.5436 49.3371 44.7963 49.3371C44.8096 49.3371 44.8222 49.3343 44.8352 49.3332C45.0694 49.3132 45.2541 49.1197 45.2541 48.8811V47.6157C45.2541 47.5082 45.3384 47.4241 45.4463 47.4241H47.7302L44.8352 50.4269L44.7293 50.5368H40.6821C40.4327 50.5368 40.1898 50.4492 39.9985 50.2901H39.9982L36.9748 47.7803C36.8709 47.6941 36.7572 47.623 36.6392 47.5602V39.957H39.6721V39.9571ZM35.6357 28.7292L39.5814 24.7994C39.6594 25.6344 39.9737 26.4001 40.4538 27.0359L38.6905 28.7922H37.3515C37.0987 28.7922 36.8937 28.9963 36.8937 29.2482C36.8937 29.5 37.0987 29.7041 37.3515 29.7041H38.6905L39.6778 30.6876V33.7925L35.6358 29.7671C35.3484 29.4809 35.3484 29.0153 35.6357 28.7292ZM52.3651 28.7317C52.5034 28.8685 52.5797 29.0512 52.58 29.2463C52.5803 29.4426 52.5037 29.6274 52.3639 29.7666L49.4075 32.7086C49.295 32.6788 49.1791 32.6636 49.0627 32.6636H48.3204V30.6882L49.3083 29.7041H50.6479C50.9006 29.7041 51.1056 29.5001 51.1056 29.2482C51.1056 28.9963 50.9006 28.7923 50.6479 28.7923H49.3107L47.5463 27.0354C48.0259 26.3999 48.34 25.6347 48.4183 24.8003L52.3651 28.7317ZM53.0389 37.5301V50.5368H52.1845V37.1014H52.6119C52.8473 37.1014 53.0389 37.2938 53.0389 37.5301ZM41.5346 21.8827L41.536 21.8815C42.1719 21.2608 43.0411 20.8765 43.9997 20.8765C44.958 20.8765 45.8271 21.2606 46.463 21.881C46.464 21.882 46.4652 21.8829 46.4663 21.884C47.118 22.5213 47.5238 23.4073 47.5238 24.3867C47.5238 26.3221 45.9428 27.8967 43.9997 27.8967C42.0566 27.8967 40.4759 26.3221 40.4759 24.3867C40.4759 23.4066 40.8822 22.5201 41.5346 21.8827ZM40.5933 32.6637V30.4988C40.5933 30.4389 40.5815 30.3796 40.5585 30.3243C40.5354 30.269 40.5017 30.2188 40.4592 30.1764L39.5273 29.2482L41.0759 27.7057C41.8579 28.3899 42.8795 28.8086 43.9997 28.8086C45.1204 28.8086 46.1424 28.3895 46.9245 27.7048L48.4727 29.247L47.539 30.177C47.4965 30.2193 47.4627 30.2696 47.4397 30.3249C47.4167 30.3802 47.4049 30.4395 47.4049 30.4994V32.6637H40.5933ZM51.269 35.764V50.5368H45.9988L49.6868 46.7117L49.7538 46.6418C49.7548 46.6408 49.755 46.6394 49.756 46.6384C50.0857 46.3033 50.3074 45.8974 50.3961 45.4633C50.4023 45.4333 50.4053 45.4029 50.4053 45.3723V35.3385H50.8386C51.0759 35.3385 51.269 35.5294 51.269 35.764Z" fill="#333333"/>
<path d="M36.5225 50.5367H29.6561C29.4034 50.5367 29.1984 50.7408 29.1984 50.9927C29.1984 51.2445 29.4034 51.4486 29.6561 51.4486H36.5225C36.7752 51.4486 36.9803 51.2445 36.9803 50.9927C36.9803 50.7408 36.7752 50.5367 36.5225 50.5367ZM52.868 58.9604H46.3259C46.0732 58.9604 45.8681 59.1644 45.8681 59.4163V59.4163C45.8681 59.6682 46.0732 59.8722 46.3259 59.8722H52.868C53.1207 59.8722 53.3258 59.6682 53.3258 59.4163C53.3258 59.1644 53.1207 58.9604 52.868 58.9604ZM44.342 59.4163C44.342 59.1644 44.1369 58.9604 43.8842 58.9604H35.1308C34.878 58.9604 34.673 59.1644 34.673 59.4163C34.673 59.6682 34.878 59.8722 35.1308 59.8722H43.8842C44.1369 59.8722 44.342 59.6682 44.342 59.4163ZM52.868 62.0003H35.1308C34.878 62.0003 34.673 62.2044 34.673 62.4562C34.673 62.7081 34.878 62.9122 35.1308 62.9122H52.868C53.1207 62.9122 53.3258 62.7081 53.3258 62.4562C53.3258 62.2044 53.1207 62.0003 52.868 62.0003ZM52.868 55.9204H35.1308C34.878 55.9204 34.673 56.1245 34.673 56.3763C34.673 56.6282 34.878 56.8323 35.1308 56.8323H52.868C53.1207 56.8323 53.3258 56.6282 53.3258 56.3763C53.3258 56.1245 53.1207 55.9204 52.868 55.9204ZM26.8589 45.2093C26.8589 45.4612 27.064 45.6652 27.3167 45.6652C27.5694 45.6652 27.7744 45.4612 27.7744 45.2093V40.2462L29.1957 41.6619C29.2381 41.7043 29.2886 41.7379 29.3441 41.7608C29.3997 41.7838 29.4592 41.7955 29.5193 41.7955C29.5795 41.7955 29.639 41.7838 29.6945 41.7608C29.7501 41.7379 29.8005 41.7043 29.843 41.6619C30.0218 41.4839 30.0218 41.1952 29.843 41.0172L27.6406 38.8233C27.5577 38.7406 27.4432 38.6895 27.3167 38.6895C27.1902 38.6895 27.0757 38.7406 26.9927 38.8233L24.7904 41.0172C24.6115 41.1953 24.6115 41.4839 24.7904 41.6619C24.9692 41.84 25.2589 41.84 25.4377 41.6619L26.8589 40.2462V45.2093ZM63.2084 41.0171L61.0061 38.8233C60.9231 38.7406 60.8086 38.6895 60.6821 38.6895C60.5556 38.6895 60.4411 38.7406 60.3582 38.8233L58.1558 41.0171C57.977 41.1952 57.977 41.4839 58.1558 41.6619C58.3346 41.84 58.6243 41.84 58.8031 41.6619L60.2243 40.2462V45.2093C60.2243 45.4612 60.4294 45.6652 60.6821 45.6652C60.9348 45.6652 61.1398 45.4611 61.1398 45.2093V40.2462L62.5611 41.6619C62.6036 41.7043 62.654 41.7379 62.7095 41.7608C62.7651 41.7838 62.8246 41.7955 62.8848 41.7954C62.9449 41.7955 63.0044 41.7838 63.06 41.7608C63.1155 41.7379 63.166 41.7043 63.2084 41.6619C63.3872 41.4839 63.3872 41.1952 63.2084 41.0171Z" fill="#333333"/>
</svg>
