<svg width="88" height="88" viewBox="0 0 88 88" fill="none" xmlns="http://www.w3.org/2000/svg">
<circle cx="44" cy="44" r="44" fill="#C6FFF1"/>
<path d="M36.234 70.1079L31.7065 66.0028C31.6498 65.9515 31.5802 65.9166 31.5053 65.9017C31.4303 65.8868 31.3527 65.8925 31.2807 65.9182C31.2088 65.9439 31.1451 65.9887 31.0965 66.0477C31.048 66.1067 31.0163 66.1778 31.0049 66.2534L30.8463 67.3136C28.8626 66.623 27.1073 65.3997 25.7727 63.7777C24.4381 62.1558 23.5757 60.1978 23.28 58.1182C23.199 57.5665 23.1606 57.0092 23.1654 56.4515C23.1662 56.3495 23.1301 56.2505 23.0638 56.1729C22.9975 56.0953 22.9054 56.0442 22.8044 56.0291C22.7034 56.014 22.6004 56.0359 22.5143 56.0907C22.4282 56.1455 22.3647 56.2296 22.3356 56.3274C21.4344 59.3871 21.7515 62.6767 23.2206 65.5079C24.6897 68.3391 27.1969 70.4923 30.2174 71.517C30.1959 71.8986 29.8808 72.6012 30.4672 72.7111C30.5341 72.7208 30.6025 72.7149 30.6668 72.694L36.0884 70.823C36.1585 70.7989 36.2211 70.7569 36.2699 70.7011C36.3188 70.6453 36.3522 70.5778 36.3668 70.5051C36.382 70.4331 36.3777 70.3583 36.3543 70.2885C36.331 70.2186 36.2895 70.1563 36.234 70.1079Z" fill="#3FA2F6"/>
<path d="M51.7781 18.7381L56.9285 22.0281C56.993 22.0691 57.0674 22.0919 57.1438 22.0941C57.2202 22.0962 57.2957 22.0776 57.3624 22.0402C57.429 22.0028 57.4843 21.9481 57.5223 21.8818C57.5603 21.8154 57.5797 21.7401 57.5783 21.6637L57.5573 20.5918C59.6285 20.9409 61.5637 21.8534 63.1508 23.2292C64.7379 24.6051 65.9157 26.3913 66.555 28.3921C66.7273 28.9225 66.8583 29.4655 66.9469 30.0161C66.9631 30.1169 67.0152 30.2084 67.0936 30.2738C67.172 30.3393 67.2713 30.3742 67.3734 30.3722C67.4755 30.3702 67.5734 30.3314 67.6491 30.263C67.7249 30.1945 67.7734 30.101 67.7857 29.9997C68.1624 26.8324 67.2995 23.6422 65.3776 21.0966C63.4556 18.551 60.6236 16.8475 57.4742 16.3425C57.4317 15.9626 57.6248 15.2172 57.0283 15.2069C56.9606 15.2086 56.8942 15.2258 56.8343 15.2573L51.802 18.0087C51.7369 18.0442 51.6823 18.0961 51.6435 18.1592C51.6046 18.2224 51.583 18.2946 51.5807 18.3687C51.5778 18.4423 51.5946 18.5153 51.6293 18.5802C51.6639 18.6451 51.7153 18.6996 51.7781 18.7381Z" fill="#3FA2F6"/>
<g clip-path="url(#clip0_1869_29978)">
<path d="M59.432 31.0483L52.2445 24.1733C52.1282 24.0621 51.9735 24 51.8125 24H37.7329C37.2381 24.0028 36.7646 24.2018 36.4163 24.5533C36.068 24.9048 35.8733 25.3802 35.875 25.875V27.4375H37.125V25.875C37.1229 25.7116 37.1858 25.554 37.2997 25.4368C37.4137 25.3196 37.5695 25.2525 37.7329 25.25H51.1875L51.1881 29.7074L53.7155 32.125H58.375V52.75C58.3771 52.9134 58.3142 53.071 58.2003 53.1882C58.0863 53.3054 57.9305 53.3725 57.7671 53.375H57.125V54.625H57.7671C58.2619 54.6222 58.7355 54.4232 59.0838 54.0717C59.4321 53.7202 59.6267 53.2448 59.625 52.75V31.5C59.625 31.4156 59.6079 31.332 59.5747 31.2544C59.5415 31.1768 59.493 31.1067 59.432 31.0483Z" fill="#EF4444"/>
<path d="M48.4945 28.8608C48.3782 28.7496 48.2235 28.6875 48.0625 28.6875H33.9829C33.4881 28.6903 33.0146 28.8893 32.6663 29.2408C32.318 29.5923 32.1233 30.0677 32.125 30.5625V32.125H33.375V30.5625C33.3729 30.3991 33.4358 30.2415 33.5497 30.1243C33.6637 30.0071 33.8195 29.94 33.9829 29.9375H47.4375L47.4381 34.3949L49.9655 36.8125H54.625V57.4375C54.6271 57.6009 54.5642 57.7585 54.4503 57.8757C54.3363 57.9929 54.1805 58.06 54.0171 58.0625H53.375V59.3125H54.0171C54.5119 59.3097 54.9855 59.1107 55.3338 58.7592C55.6821 58.4077 55.8767 57.9323 55.875 57.4375V36.1875C55.875 36.1031 55.8579 36.0195 55.8247 35.9419C55.7915 35.8643 55.743 35.7942 55.682 35.7358L48.4945 28.8608Z" fill="#EF4444"/>
<path d="M44.7445 33.5483C44.6282 33.4371 44.4735 33.375 44.3125 33.375H30.2329C29.7381 33.3778 29.2646 33.5768 28.9163 33.9283C28.568 34.2798 28.3733 34.7552 28.375 35.25V62.125C28.3733 62.6198 28.568 63.0952 28.9163 63.4467C29.2646 63.7982 29.7381 63.9972 30.2329 64H50.2671C50.7619 63.9972 51.2355 63.7982 51.5838 63.4467C51.9321 63.0952 52.1267 62.6198 52.125 62.125V40.875C52.125 40.7906 52.1079 40.707 52.0747 40.6294C52.0415 40.5518 51.993 40.4817 51.932 40.4233L44.7445 33.5483ZM33.375 41.1875H41.5C41.6658 41.1875 41.8247 41.2533 41.942 41.3706C42.0592 41.4878 42.125 41.6467 42.125 41.8125C42.125 41.9783 42.0592 42.1372 41.942 42.2544C41.8247 42.3717 41.6658 42.4375 41.5 42.4375H33.375C33.2093 42.4375 33.0503 42.3717 32.9331 42.2544C32.8159 42.1372 32.75 41.9783 32.75 41.8125C32.75 41.6467 32.8159 41.4878 32.9331 41.3706C33.0503 41.2533 33.2093 41.1875 33.375 41.1875ZM47.125 59.9375H33.375C33.2093 59.9375 33.0503 59.8717 32.9331 59.7544C32.8159 59.6372 32.75 59.4783 32.75 59.3125C32.75 59.1467 32.8159 58.9878 32.9331 58.8706C33.0503 58.7533 33.2093 58.6875 33.375 58.6875H47.125C47.2908 58.6875 47.4497 58.7533 47.567 58.8706C47.6842 58.9878 47.75 59.1467 47.75 59.3125C47.75 59.4783 47.6842 59.6372 47.567 59.7544C47.4497 59.8717 47.2908 59.9375 47.125 59.9375ZM47.125 57.4375H33.375C33.2093 57.4375 33.0503 57.3717 32.9331 57.2544C32.8159 57.1372 32.75 56.9783 32.75 56.8125C32.75 56.6467 32.8159 56.4878 32.9331 56.3706C33.0503 56.2533 33.2093 56.1875 33.375 56.1875H47.125C47.2908 56.1875 47.4497 56.2533 47.567 56.3706C47.6842 56.4878 47.75 56.6467 47.75 56.8125C47.75 56.9783 47.6842 57.1372 47.567 57.2544C47.4497 57.3717 47.2908 57.4375 47.125 57.4375ZM47.125 54.9375H33.375C33.2093 54.9375 33.0503 54.8717 32.9331 54.7544C32.8159 54.6372 32.75 54.4783 32.75 54.3125C32.75 54.1467 32.8159 53.9878 32.9331 53.8706C33.0503 53.7533 33.2093 53.6875 33.375 53.6875H47.125C47.2908 53.6875 47.4497 53.7533 47.567 53.8706C47.6842 53.9878 47.75 54.1467 47.75 54.3125C47.75 54.4783 47.6842 54.6372 47.567 54.7544C47.4497 54.8717 47.2908 54.9375 47.125 54.9375ZM47.125 52.4375H33.375C33.2093 52.4375 33.0503 52.3717 32.9331 52.2544C32.8159 52.1372 32.75 51.9783 32.75 51.8125C32.75 51.6467 32.8159 51.4878 32.9331 51.3706C33.0503 51.2533 33.2093 51.1875 33.375 51.1875H47.125C47.2908 51.1875 47.4497 51.2533 47.567 51.3706C47.6842 51.4878 47.75 51.6467 47.75 51.8125C47.75 51.9783 47.6842 52.1372 47.567 52.2544C47.4497 52.3717 47.2908 52.4375 47.125 52.4375ZM47.125 49.9375H33.375C33.2093 49.9375 33.0503 49.8717 32.9331 49.7544C32.8159 49.6372 32.75 49.4783 32.75 49.3125C32.75 49.1467 32.8159 48.9878 32.9331 48.8706C33.0503 48.7533 33.2093 48.6875 33.375 48.6875H47.125C47.2908 48.6875 47.4497 48.7533 47.567 48.8706C47.6842 48.9878 47.75 49.1467 47.75 49.3125C47.75 49.4783 47.6842 49.6372 47.567 49.7544C47.4497 49.8717 47.2908 49.9375 47.125 49.9375ZM47.125 47.4375H33.375C33.2093 47.4375 33.0503 47.3717 32.9331 47.2544C32.8159 47.1372 32.75 46.9783 32.75 46.8125C32.75 46.6467 32.8159 46.4878 32.9331 46.3706C33.0503 46.2533 33.2093 46.1875 33.375 46.1875H47.125C47.2908 46.1875 47.4497 46.2533 47.567 46.3706C47.6842 46.4878 47.75 46.6467 47.75 46.8125C47.75 46.9783 47.6842 47.1372 47.567 47.2544C47.4497 47.3717 47.2908 47.4375 47.125 47.4375ZM47.125 44.9375H33.375C33.2093 44.9375 33.0503 44.8717 32.9331 44.7544C32.8159 44.6372 32.75 44.4783 32.75 44.3125C32.75 44.1467 32.8159 43.9878 32.9331 43.8706C33.0503 43.7533 33.2093 43.6875 33.375 43.6875H47.125C47.2908 43.6875 47.4497 43.7533 47.567 43.8706C47.6842 43.9878 47.75 44.1467 47.75 44.3125C47.75 44.4783 47.6842 44.6372 47.567 44.7544C47.4497 44.8717 47.2908 44.9375 47.125 44.9375ZM45.5631 40.25C45.3974 40.2498 45.2386 40.1839 45.1214 40.0668C45.0042 39.9496 44.9383 39.7907 44.9381 39.625L44.9377 35.4629L49.9424 40.25H45.5631Z" fill="#EF4444"/>
</g>
<defs>
<clipPath id="clip0_1869_29978">
<rect width="40" height="40" fill="white" transform="translate(24 24)"/>
</clipPath>
</defs>
</svg>
