<svg width="1920" height="898" viewBox="0 0 1920 898" fill="none" xmlns="http://www.w3.org/2000/svg">
<mask id="mask0_1869_29499" style="mask-type:alpha" maskUnits="userSpaceOnUse" x="0" y="0" width="1920" height="898">
<rect width="1920" height="898" fill="#FAFAFA"/>
</mask>
<g mask="url(#mask0_1869_29499)">
<g opacity="0.5">
<g opacity="0.4" filter="url(#filter0_f_1869_29499)">
<ellipse cx="21.0016" cy="444.645" rx="161.4" ry="118.778" fill="#FABB18"/>
</g>
<g opacity="0.4" filter="url(#filter1_f_1869_29499)">
<ellipse cx="1383" cy="387.243" rx="228.6" ry="168.232" fill="#FF602E"/>
</g>
<g opacity="0.2" filter="url(#filter2_f_1869_29499)">
<ellipse cx="273.602" cy="769.186" rx="235.2" ry="173.089" fill="#45C646"/>
</g>
</g>
</g>
<path fill-rule="evenodd" clip-rule="evenodd" d="M1488.07 79.4088C1489.48 73.6452 1489.39 68.0948 1489.56 62.2487C1489.59 61.107 1488.7 60.1578 1487.56 60.1234C1486.42 60.089 1485.47 60.99 1485.44 62.1318C1485.28 67.6753 1485.41 72.9505 1484.06 78.4252C1483.79 79.5325 1484.47 80.6536 1485.57 80.9219C1486.68 81.197 1487.8 80.5161 1488.07 79.4088Z" fill="#12141D"/>
<path fill-rule="evenodd" clip-rule="evenodd" d="M1500.11 90.5783C1509.73 81.7885 1518.79 70.4814 1525.12 59.0643C1525.67 58.067 1525.31 56.8083 1524.32 56.2581C1523.32 55.7079 1522.06 56.0655 1521.51 57.0628C1515.39 68.1017 1506.62 79.0374 1497.33 87.5315C1496.48 88.3018 1496.43 89.6086 1497.19 90.4477C1497.96 91.2867 1499.27 91.3486 1500.11 90.5783Z" fill="#12141D"/>
<path fill-rule="evenodd" clip-rule="evenodd" d="M1502.55 100.179C1511.34 101.631 1520.41 99.1546 1528.4 95.6538C1529.45 95.193 1529.92 93.9757 1529.47 92.9371C1529.01 91.8917 1527.79 91.4171 1526.75 91.871C1519.47 95.0623 1511.23 97.4283 1503.22 96.1078C1502.09 95.9221 1501.03 96.6855 1500.85 97.8066C1500.66 98.9276 1501.42 99.9937 1502.55 100.179Z" fill="#12141D"/>
<g clip-path="url(#clip0_1869_29499)">
<path fill-rule="evenodd" clip-rule="evenodd" d="M208.261 168.797L235.27 162.335L264.815 180.477L275.77 226.268C277.101 231.828 273.641 237.47 268.076 238.801L227.34 248.546C221.78 249.877 216.142 246.412 214.812 240.851L200.572 181.329C199.242 175.768 202.701 170.127 208.261 168.797Z" fill="#E5252A"/>
<path fill-rule="evenodd" clip-rule="evenodd" d="M235.267 162.336L264.813 180.477L243.542 185.566C242.125 185.905 240.695 185.024 240.356 183.606L235.267 162.336ZM194.984 207.875L249.909 194.735C251.13 194.443 252.367 195.202 252.659 196.424L257.48 216.573C257.772 217.795 257.012 219.032 255.791 219.324L200.867 232.464C199.645 232.756 198.409 231.997 198.116 230.775L193.296 210.626C193.004 209.404 193.763 208.167 194.984 207.875Z" fill="#B71D21"/>
<path d="M209.45 208.759L205.307 209.75C204.966 209.832 204.671 210.046 204.487 210.345C204.303 210.644 204.246 211.004 204.328 211.346L207.627 225.137C207.709 225.478 207.923 225.774 208.222 225.957C208.521 226.141 208.881 226.198 209.223 226.116C209.564 226.035 209.859 225.821 210.043 225.522C210.226 225.222 210.284 224.862 210.202 224.521L209.235 220.481L212.091 219.797C215.085 219.081 216.938 216.062 216.222 213.068L216.179 212.89C215.463 209.896 212.444 208.043 209.45 208.759ZM213.647 213.684C214.024 215.258 213.049 216.846 211.475 217.222L208.619 217.905L207.211 212.017L210.066 211.334C211.64 210.957 213.228 211.932 213.604 213.506L213.647 213.684L213.647 213.684ZM223.305 205.444L219.162 206.435C218.821 206.517 218.526 206.731 218.342 207.03C218.159 207.329 218.101 207.689 218.183 208.031L221.482 221.822C221.564 222.164 221.778 222.459 222.077 222.642C222.376 222.826 222.736 222.883 223.078 222.802L227.221 221.811C230.215 221.094 232.068 218.075 231.352 215.081L230.035 209.576C229.318 206.581 226.3 204.728 223.305 205.444ZM228.777 215.697C229.154 217.272 228.179 218.859 226.605 219.235L223.749 219.919L221.066 208.702L223.921 208.019C225.496 207.642 227.083 208.617 227.46 210.191L228.777 215.697ZM235.172 205.328L236.024 208.892L241.993 207.464C242.334 207.382 242.694 207.44 242.993 207.623C243.293 207.807 243.507 208.102 243.588 208.444C243.67 208.785 243.613 209.145 243.429 209.444C243.245 209.743 242.95 209.957 242.609 210.039L236.64 211.467L238.163 217.832C238.245 218.173 238.187 218.533 238.004 218.832C237.82 219.131 237.525 219.345 237.184 219.427C236.842 219.509 236.482 219.452 236.183 219.268C235.884 219.084 235.67 218.789 235.588 218.448L232.289 204.656C232.207 204.315 232.264 203.955 232.448 203.656C232.632 203.356 232.927 203.142 233.268 203.061L241.554 201.079C241.895 200.997 242.255 201.054 242.554 201.238C242.854 201.421 243.068 201.717 243.149 202.058C243.231 202.399 243.174 202.759 242.99 203.059C242.806 203.358 242.511 203.572 242.17 203.654L235.172 205.328Z" fill="white"/>
</g>
<g clip-path="url(#clip1_1869_29499)">
<path d="M238.561 647.631L275.871 639.701L314.457 665.938L328.072 729.99C329.775 738.002 324.661 745.877 316.649 747.58L262.263 759.14C254.25 760.843 246.376 755.729 244.673 747.717L227.138 665.22C225.435 657.208 230.548 649.334 238.561 647.631Z" fill="#0263D1"/>
<path fill-rule="evenodd" clip-rule="evenodd" d="M275.828 639.71L282.774 672.39L314.402 665.667L275.828 639.71Z" fill="#1181FF"/>
<path d="M254.437 727.417L250.513 708.957L257.053 707.567C258.36 707.289 259.62 707.226 260.824 707.347C262.031 707.483 263.168 707.807 264.239 708.334C265.309 708.861 266.235 709.669 267.017 710.76C267.798 711.851 268.363 713.176 268.695 714.739C269.028 716.303 269.051 717.743 268.78 719.058C268.51 720.372 267.993 721.487 267.229 722.404C266.466 723.32 265.558 724.079 264.511 724.694C263.46 725.295 262.284 725.749 260.976 726.027L254.437 727.417ZM258.199 722.422L259.567 722.132C260.303 721.975 260.976 721.738 261.557 721.442C262.15 721.127 262.66 720.72 263.122 720.229C263.583 719.738 263.889 719.108 264.039 718.337C264.208 717.579 264.179 716.705 263.975 715.743C263.77 714.781 263.441 713.971 262.975 713.331C262.528 712.704 261.992 712.252 261.371 711.991C260.746 711.716 260.118 711.567 259.448 711.52C258.797 711.486 258.086 711.543 257.349 711.699L255.981 711.99L258.199 722.422ZM281.901 721.799C279.12 722.39 276.628 721.977 274.429 720.575C272.23 719.173 270.849 717.11 270.274 714.404C269.698 711.698 270.121 709.252 271.56 707.076C272.999 704.901 275.107 703.51 277.888 702.919C280.623 702.338 283.085 702.757 285.284 704.159C287.468 705.565 288.85 707.628 289.425 710.333C290 713.039 289.577 715.486 288.153 717.658C286.715 719.833 284.637 721.218 281.901 721.799ZM277.174 717.007C278.308 717.834 279.589 718.096 281.017 717.792C282.446 717.489 283.494 716.731 284.194 715.514C284.891 714.282 285.067 712.894 284.734 711.33C284.402 709.767 283.676 708.57 282.539 707.728C281.405 706.9 280.139 706.635 278.711 706.939C277.282 707.242 276.219 708.003 275.519 709.22C274.823 710.452 274.631 711.844 274.964 713.407C275.296 714.97 276.037 716.164 277.174 717.007ZM302.405 717.441C299.714 718.013 297.295 717.647 295.17 716.371C293.026 715.082 291.648 712.956 291.018 709.995C290.392 707.048 290.802 704.542 292.251 702.49C293.715 700.434 295.746 699.123 298.392 698.561C300.782 698.052 302.86 698.223 304.661 699.082C306.444 699.928 307.663 701.303 308.304 703.209L303.845 705.147C303.432 704.166 302.791 703.439 301.938 702.976C301.086 702.513 300.177 702.376 299.215 702.58C297.892 702.862 296.893 703.561 296.208 704.696C295.525 705.847 295.356 707.266 295.723 708.994C296.09 710.723 296.823 711.95 297.896 712.712C298.987 713.485 300.184 713.718 301.521 713.434C302.483 713.229 303.253 712.783 303.814 712.098C304.376 711.413 304.643 710.602 304.632 709.662L309.627 709.731C309.587 711.688 308.932 713.336 307.649 714.692C306.382 716.046 304.629 716.968 302.405 717.441Z" fill="white"/>
</g>
<g clip-path="url(#clip2_1869_29499)">
<path fill-rule="evenodd" clip-rule="evenodd" d="M1684.33 162.282L1711.34 168.742L1729.48 198.29L1718.53 244.081C1717.2 249.641 1711.56 253.107 1706 251.776L1665.26 242.033C1659.7 240.704 1656.24 235.063 1657.57 229.502L1671.8 169.978C1673.13 164.418 1678.77 160.953 1684.33 162.282Z" fill="#00733B"/>
<path fill-rule="evenodd" clip-rule="evenodd" d="M1711.34 168.742L1729.48 198.29L1708.21 193.203C1706.79 192.864 1705.92 191.43 1706.26 190.013L1711.34 168.742ZM1654.81 191.124L1709.74 204.26C1710.96 204.552 1711.72 205.789 1711.43 207.011L1706.61 227.16C1706.32 228.382 1705.08 229.141 1703.86 228.849L1648.93 215.713C1647.71 215.421 1646.95 214.184 1647.24 212.963L1652.06 192.813C1652.35 191.592 1653.59 190.832 1654.81 191.124Z" fill="#0AC168"/>
<path d="M1672.24 215.921L1668.37 214.954L1666.85 209.85L1663.09 213.63L1659.2 212.655L1665.72 206.083L1663.37 198.366L1667.26 199.34L1668.47 203.348L1671.41 200.38L1675.3 201.355L1669.6 207.086L1672.24 215.921ZM1673.6 216.263L1677.21 201.835L1680.9 202.759L1678.07 214.051L1684.34 215.622L1683.56 218.758L1673.6 216.263L1673.6 216.263ZM1689.61 220.459C1688.16 220.096 1687 219.311 1686.12 218.135C1685.26 216.995 1684.93 215.739 1685.17 214.411L1688.57 214.275C1688.48 214.993 1688.62 215.676 1688.99 216.264C1689.4 216.859 1689.92 217.237 1690.56 217.397C1691.08 217.528 1691.55 217.521 1691.96 217.376C1692.33 217.224 1692.59 216.948 1692.68 216.571C1692.76 216.251 1692.68 215.954 1692.48 215.656C1692.27 215.387 1691.96 215.126 1691.59 214.879C1691.22 214.632 1690.77 214.363 1690.3 214.123C1689.82 213.847 1689.34 213.542 1688.9 213.186C1688.43 212.852 1688.03 212.474 1687.7 212.053C1687.34 211.654 1687.13 211.138 1687.01 210.521C1686.88 209.933 1686.89 209.258 1687.07 208.533C1687.37 207.342 1688.11 206.479 1689.33 205.95C1690.55 205.392 1691.86 205.32 1693.28 205.676C1694.7 206.032 1695.87 206.693 1696.74 207.623C1697.61 208.582 1698.06 209.649 1698.04 210.817L1694.38 211.382C1694.39 210.736 1694.22 210.169 1693.91 209.69C1693.59 209.24 1693.12 208.906 1692.51 208.753C1692.05 208.637 1691.67 208.666 1691.34 208.767C1691.03 208.876 1690.85 209.108 1690.77 209.427C1690.7 209.718 1690.8 210.023 1691.1 210.313C1691.41 210.575 1691.84 210.836 1692.34 211.054C1692.84 211.272 1693.38 211.563 1693.94 211.919C1694.52 212.311 1695.01 212.681 1695.48 213.139C1695.93 213.56 1696.25 214.163 1696.43 214.889C1696.64 215.651 1696.62 216.478 1696.4 217.378C1696.06 218.714 1695.26 219.686 1694.01 220.237C1692.77 220.788 1691.29 220.881 1689.61 220.459Z" fill="white"/>
</g>
<g clip-path="url(#clip3_1869_29499)">
<path d="M1689.45 688.887L1676.46 749.993C1675.88 752.725 1674.24 755.115 1671.9 756.637C1669.55 758.158 1666.7 758.687 1663.97 758.106L1600.43 744.601C1597.7 744.02 1595.31 742.378 1593.79 740.035C1592.27 737.692 1591.74 734.841 1592.32 732.108L1610.19 648.065C1610.77 645.333 1612.41 642.943 1614.75 641.422C1617.09 639.901 1619.95 639.372 1622.68 639.952L1665.23 648.997L1689.45 688.887Z" fill="#E03303"/>
<path d="M1689.45 688.887L1665.03 683.697C1663.21 683.31 1661.62 682.215 1660.6 680.653C1659.59 679.091 1659.24 677.19 1659.63 675.369L1665.23 648.998L1689.45 688.887Z" fill="#E9714F"/>
<path d="M1617.81 715.847L1616.33 722.809L1611.39 721.759L1615.75 701.247L1623.93 702.986C1625.5 703.32 1626.83 703.903 1627.91 704.737C1629 705.571 1629.76 706.594 1630.19 707.802C1630.62 709.008 1630.7 710.287 1630.42 711.641C1629.99 713.64 1628.93 715.083 1627.24 715.979C1625.56 716.87 1623.47 717.049 1620.97 716.517L1617.81 715.847ZM1618.62 712.03L1621.86 712.718C1622.82 712.922 1623.6 712.843 1624.21 712.466C1624.81 712.097 1625.21 711.472 1625.39 710.601C1625.6 709.641 1625.5 708.821 1625.1 708.134C1624.71 707.455 1624.06 707.016 1623.18 706.813L1619.88 706.113L1618.62 712.03ZM1636.59 719.837L1635.11 726.8L1630.16 725.749L1634.52 705.237L1642.71 706.976C1644.28 707.31 1645.6 707.894 1646.69 708.727C1647.77 709.561 1648.53 710.584 1648.97 711.792C1649.4 712.999 1649.48 714.277 1649.19 715.631C1648.76 717.63 1647.71 719.074 1646.02 719.97C1644.33 720.86 1642.24 721.039 1639.74 720.507L1636.59 719.837ZM1637.4 716.02L1640.64 716.709C1641.6 716.913 1642.38 716.833 1642.98 716.456C1643.59 716.088 1643.98 715.463 1644.17 714.591C1644.37 713.631 1644.27 712.811 1643.88 712.125C1643.48 711.445 1642.84 711.006 1641.95 710.804L1638.66 710.104L1637.4 716.02ZM1668.59 716.467L1662.44 715.16L1658.89 731.855L1653.94 730.802L1657.49 714.107L1651.45 712.824L1652.26 709.008L1669.4 712.651L1668.59 716.467Z" fill="white"/>
</g>
<g clip-path="url(#clip4_1869_29499)">
<path d="M1788.47 423.685L1779.72 473.413C1779.62 473.989 1779.29 474.5 1778.81 474.836C1778.34 475.171 1777.74 475.304 1777.17 475.204L1735.87 467.944C1735.29 467.841 1734.78 467.514 1734.45 467.036C1734.11 466.557 1733.98 465.965 1734.08 465.388L1744.4 406.702C1744.5 406.126 1744.82 405.615 1745.3 405.279C1745.78 404.944 1746.37 404.811 1746.95 404.911L1779.29 410.596C1779.72 410.671 1780.13 410.83 1780.49 411.064C1780.86 411.297 1781.18 411.601 1781.43 411.957L1787.92 421.211C1788.16 421.567 1788.34 421.969 1788.44 422.393C1788.53 422.818 1788.54 423.257 1788.47 423.685Z" fill="#687C87"/>
<path d="M1788.41 422.283L1781.1 420.997C1780.52 420.894 1780.01 420.567 1779.67 420.088C1779.34 419.61 1779.21 419.017 1779.31 418.441L1780.59 411.138C1780.92 411.356 1781.2 411.635 1781.43 411.958L1787.92 421.21C1788.14 421.536 1788.31 421.899 1788.41 422.283Z" fill="#B5C0D4"/>
<path d="M1737.9 443.653L1772.68 449.767C1773.26 449.868 1773.77 450.194 1774.1 450.673C1774.44 451.153 1774.57 451.746 1774.47 452.322L1772.18 465.364C1772.08 465.94 1771.75 466.453 1771.27 466.789C1770.79 467.125 1770.2 467.256 1769.62 467.155L1734.85 461.041L1737.9 443.653Z" fill="#00B993"/>
<path d="M1782.12 427.9L1747.35 421.786C1747.06 421.735 1746.8 421.572 1746.63 421.332C1746.46 421.092 1746.4 420.796 1746.45 420.508C1746.5 420.219 1746.66 419.963 1746.9 419.795C1747.14 419.627 1747.44 419.561 1747.73 419.612L1782.5 425.726C1782.79 425.777 1783.05 425.94 1783.22 426.179C1783.38 426.419 1783.45 426.716 1783.4 427.004C1783.35 427.292 1783.19 427.548 1782.95 427.716C1782.71 427.884 1782.41 427.95 1782.12 427.9ZM1781.17 433.333L1746.39 427.219C1746.1 427.169 1745.85 427.006 1745.68 426.766C1745.51 426.526 1745.44 426.23 1745.49 425.942C1745.54 425.653 1745.71 425.397 1745.95 425.229C1746.19 425.061 1746.48 424.995 1746.77 425.046L1781.55 431.16C1781.84 431.211 1782.09 431.374 1782.26 431.613C1782.43 431.853 1782.5 432.149 1782.44 432.438C1782.39 432.726 1782.23 432.982 1781.99 433.15C1781.75 433.318 1781.46 433.384 1781.17 433.333ZM1780.21 438.767L1745.43 432.653C1745.15 432.603 1744.89 432.44 1744.72 432.2C1744.55 431.96 1744.49 431.664 1744.54 431.375C1744.59 431.087 1744.75 430.831 1744.99 430.663C1745.23 430.495 1745.53 430.429 1745.82 430.48L1780.59 436.594C1780.88 436.644 1781.14 436.808 1781.31 437.047C1781.47 437.287 1781.54 437.583 1781.49 437.872C1781.44 438.16 1781.28 438.416 1781.04 438.584C1780.8 438.752 1780.5 438.818 1780.21 438.767ZM1760.78 440.953L1744.48 438.087C1744.19 438.037 1743.93 437.873 1743.77 437.634C1743.6 437.394 1743.53 437.098 1743.58 436.809C1743.63 436.521 1743.8 436.265 1744.04 436.097C1744.28 435.929 1744.57 435.863 1744.86 435.914L1761.16 438.78C1761.45 438.83 1761.71 438.993 1761.88 439.233C1762.04 439.473 1762.11 439.769 1762.06 440.057C1762.01 440.346 1761.85 440.602 1761.61 440.77C1761.37 440.938 1761.07 441.004 1760.78 440.953Z" fill="#EEEEEE"/>
<path d="M1769.93 452.645L1763.41 451.499C1763.12 451.448 1762.82 451.514 1762.58 451.682C1762.34 451.85 1762.18 452.106 1762.13 452.394C1762.08 452.683 1762.15 452.979 1762.31 453.219C1762.48 453.458 1762.74 453.622 1763.03 453.672L1765.2 454.054L1763.86 461.662C1763.81 461.95 1763.88 462.247 1764.05 462.486C1764.21 462.726 1764.47 462.889 1764.76 462.94C1765.05 462.99 1765.34 462.924 1765.58 462.756C1765.82 462.588 1765.99 462.332 1766.04 462.044L1767.37 454.436L1769.55 454.819C1769.84 454.869 1770.13 454.803 1770.37 454.635C1770.61 454.467 1770.77 454.211 1770.82 453.923C1770.88 453.635 1770.81 453.338 1770.64 453.098C1770.47 452.859 1770.22 452.696 1769.93 452.645ZM1748.19 448.824L1741.67 447.677C1741.38 447.627 1741.09 447.693 1740.85 447.861C1740.61 448.029 1740.45 448.285 1740.39 448.573C1740.34 448.861 1740.41 449.158 1740.58 449.398C1740.75 449.637 1741 449.8 1741.29 449.851L1743.46 450.233L1742.13 457.841C1742.08 458.129 1742.14 458.425 1742.31 458.665C1742.48 458.905 1742.73 459.068 1743.02 459.118C1743.31 459.169 1743.61 459.103 1743.85 458.935C1744.09 458.767 1744.25 458.511 1744.3 458.223L1745.64 450.615L1747.81 450.997C1748.1 451.048 1748.4 450.982 1748.64 450.814C1748.88 450.646 1749.04 450.39 1749.09 450.102C1749.14 449.813 1749.07 449.517 1748.91 449.277C1748.74 449.038 1748.48 448.874 1748.19 448.824ZM1759.68 451.066C1759.47 450.853 1759.2 450.728 1758.91 450.718C1758.61 450.709 1758.33 450.816 1758.12 451.016L1755.16 453.785L1753.33 450.176C1753.2 449.915 1752.97 449.717 1752.69 449.626C1752.41 449.535 1752.11 449.558 1751.85 449.691C1751.59 449.823 1751.39 450.054 1751.3 450.332C1751.21 450.61 1751.23 450.913 1751.37 451.174L1753.49 455.356L1750.07 458.564C1749.85 458.764 1749.73 459.041 1749.72 459.334C1749.71 459.626 1749.82 459.91 1750.02 460.124C1750.22 460.337 1750.49 460.463 1750.79 460.472C1751.08 460.481 1751.36 460.374 1751.58 460.174L1754.53 457.406L1756.36 461.015C1756.49 461.276 1756.72 461.473 1757 461.564C1757.28 461.655 1757.58 461.632 1757.84 461.499C1758.1 461.367 1758.3 461.136 1758.39 460.858C1758.48 460.58 1758.46 460.277 1758.33 460.016L1756.2 455.834L1759.62 452.626C1759.73 452.527 1759.82 452.408 1759.88 452.276C1759.94 452.144 1759.97 452.001 1759.97 451.857C1759.98 451.712 1759.95 451.567 1759.9 451.432C1759.85 451.296 1759.77 451.172 1759.68 451.066Z" fill="white"/>
</g>
<path d="M182.502 423.012H169.326C169.221 423.012 169.121 422.971 169.046 422.896C168.972 422.822 168.93 422.721 168.93 422.616V409.437L168.798 409H143.121C142.946 409 142.778 409.07 142.654 409.193C142.53 409.317 142.461 409.485 142.461 409.66V423.376H147.341L161.412 437.447V458.749H182.283C182.458 458.749 182.626 458.679 182.749 458.555C182.873 458.432 182.943 458.264 182.943 458.089V423.144L182.502 423.012Z" fill="#FFF3DE"/>
<path d="M147.392 423.251L148.522 424.381V409.66C148.522 409.485 148.591 409.317 148.715 409.193C148.839 409.07 149.007 409 149.182 409H143.121C142.946 409 142.778 409.07 142.654 409.193C142.53 409.317 142.461 409.485 142.461 409.66V423.251L147.392 423.251Z" fill="#FFE5C2"/>
<path d="M168.797 409V422.748C168.797 422.853 168.839 422.954 168.913 423.028C168.987 423.103 169.088 423.144 169.193 423.144H182.941L168.797 409Z" fill="#FE9901"/>
<path d="M172.887 422.748V413.091L168.796 409V422.748C168.796 422.853 168.837 422.954 168.912 423.028C168.986 423.103 169.087 423.144 169.192 423.144H173.283C173.178 423.144 173.077 423.103 173.003 423.028C172.929 422.954 172.887 422.853 172.887 422.748ZM177.844 428.398H152.359L161.409 437.447V450.127H177.844C177.949 450.127 178.049 450.085 178.124 450.011C178.198 449.936 178.24 449.836 178.24 449.731V428.794C178.24 428.689 178.198 428.588 178.124 428.514C178.049 428.439 177.949 428.398 177.844 428.398Z" fill="#FB8801"/>
<path d="M161.414 450.127H177.475L169.406 439.245C169.142 438.889 168.61 438.889 168.346 439.245L163.813 445.357L161.414 442.122L161.414 450.127Z" fill="#FED402"/>
<path d="M177.844 427.46H151.422L153.297 429.335H177.302V449.189H161.409V451.064H177.844C178.579 451.064 179.177 450.466 179.177 449.731V428.794C179.177 428.058 178.579 427.46 177.844 427.46Z" fill="white"/>
<path d="M172.636 435.868C173.729 435.868 174.615 434.982 174.615 433.889C174.615 432.796 173.729 431.91 172.636 431.91C171.542 431.91 170.656 432.796 170.656 433.889C170.656 434.982 171.542 435.868 172.636 435.868Z" fill="#FED402"/>
<path d="M156.55 424.082C156.394 424.082 156.241 424.043 156.104 423.969C155.967 423.895 155.851 423.788 155.765 423.657L154.057 421.042V423.144C154.057 423.662 153.637 424.082 153.119 424.082C152.601 424.082 152.182 423.662 152.182 423.144V417.892C152.182 417.69 152.247 417.494 152.367 417.332C152.488 417.17 152.658 417.051 152.852 416.994C153.045 416.936 153.252 416.942 153.442 417.012C153.632 417.082 153.794 417.21 153.904 417.38L155.613 419.995V417.892C155.613 417.375 156.032 416.955 156.55 416.955C157.068 416.955 157.488 417.375 157.488 417.892V423.144C157.488 423.268 157.463 423.389 157.416 423.503C157.369 423.617 157.3 423.72 157.213 423.807C157.126 423.894 157.023 423.963 156.909 424.011C156.795 424.058 156.673 424.082 156.55 424.082ZM147.34 423.377L147.795 423.832C147.891 423.745 147.967 423.639 148.019 423.52C148.071 423.402 148.098 423.274 148.098 423.144V421.644H149.272C150.516 421.644 151.529 420.631 151.529 419.386V419.212C151.529 417.967 150.516 416.955 149.272 416.955H147.16C146.912 416.955 146.673 417.054 146.497 417.23C146.321 417.405 146.223 417.644 146.223 417.892V423.144C146.223 423.225 146.234 423.302 146.253 423.377H147.34ZM148.098 418.83H149.272C149.373 418.83 149.47 418.87 149.542 418.942C149.613 419.014 149.654 419.111 149.654 419.212V419.386C149.654 419.488 149.613 419.585 149.542 419.657C149.47 419.728 149.373 419.768 149.272 419.769H148.098V418.83ZM161.301 424.082H160.509C159.264 424.082 158.252 423.069 158.252 421.825V419.212C158.252 417.967 159.264 416.955 160.509 416.955H162.62C163.138 416.955 163.558 417.375 163.558 417.892C163.558 418.41 163.138 418.83 162.62 418.83H160.509C160.407 418.83 160.31 418.87 160.239 418.942C160.167 419.014 160.127 419.111 160.127 419.212V421.825C160.127 421.926 160.167 422.023 160.239 422.095C160.31 422.167 160.407 422.207 160.509 422.207H161.301C161.402 422.207 161.499 422.167 161.571 422.095C161.642 422.023 161.683 421.926 161.683 421.825V421.55C161.436 421.546 161.2 421.444 161.027 421.267C160.855 421.09 160.759 420.852 160.761 420.605C160.762 420.358 160.862 420.122 161.037 419.947C161.212 419.773 161.449 419.675 161.697 419.675H162.62C162.869 419.675 163.107 419.773 163.283 419.949C163.459 420.125 163.558 420.364 163.558 420.612V421.825C163.558 423.069 162.545 424.082 161.301 424.082Z" fill="#FB8801"/>
<path d="M161.096 437.264H147.92C147.815 437.264 147.714 437.222 147.64 437.148C147.566 437.074 147.524 436.973 147.524 436.868V423.688L147.392 423.251H121.714C121.539 423.251 121.372 423.321 121.248 423.445C121.124 423.568 121.055 423.736 121.055 423.911V472.34C121.055 472.515 121.124 472.683 121.248 472.807C121.372 472.931 121.539 473 121.714 473H160.877C160.963 473 161.049 472.983 161.129 472.95C161.209 472.917 161.282 472.868 161.343 472.807C161.404 472.746 161.453 472.673 161.486 472.593C161.519 472.513 161.536 472.427 161.536 472.34V437.396L161.096 437.264Z" fill="#D8ECFE"/>
<path d="M127.789 472.34V464.378H126.151C126.046 464.378 125.945 464.336 125.871 464.262C125.797 464.188 125.755 464.087 125.755 463.982V443.045C125.755 442.94 125.797 442.839 125.871 442.765C125.945 442.691 126.046 442.649 126.151 442.649H127.789V423.911C127.789 423.736 127.859 423.568 127.983 423.445C128.106 423.321 128.274 423.251 128.449 423.251H121.714C121.539 423.251 121.372 423.321 121.248 423.445C121.124 423.568 121.055 423.736 121.055 423.911V472.34C121.055 472.515 121.124 472.683 121.248 472.807C121.372 472.931 121.539 473 121.714 473H128.449C128.274 473 128.106 472.931 127.983 472.807C127.859 472.683 127.789 472.515 127.789 472.34Z" fill="#C4E2FF"/>
<path d="M147.391 423.251V437C147.391 437.105 147.432 437.206 147.507 437.28C147.581 437.354 147.682 437.396 147.786 437.396H161.535L147.391 423.251Z" fill="#0593FC"/>
<path d="M151.481 437V427.343L147.39 423.251V437C147.39 437.105 147.431 437.206 147.506 437.28C147.58 437.354 147.681 437.396 147.786 437.396H151.877C151.772 437.396 151.671 437.354 151.597 437.28C151.523 437.206 151.481 437.105 151.481 437ZM128.361 438.333H127.57C126.325 438.333 125.312 437.321 125.312 436.076V435.707C125.312 435.459 125.411 435.22 125.587 435.045C125.763 434.869 126.001 434.77 126.25 434.77C126.499 434.77 126.737 434.869 126.913 435.045C127.089 435.22 127.188 435.459 127.188 435.707V436.076C127.188 436.177 127.228 436.275 127.3 436.346C127.371 436.418 127.468 436.458 127.57 436.458H128.361C128.463 436.458 128.56 436.418 128.632 436.346C128.703 436.275 128.744 436.177 128.744 436.076V432.144C128.744 431.895 128.842 431.657 129.018 431.481C129.194 431.305 129.432 431.206 129.681 431.206C129.93 431.206 130.168 431.305 130.344 431.481C130.52 431.657 130.619 431.895 130.619 432.144V436.076C130.619 437.321 129.606 438.333 128.361 438.333ZM132.421 438.333C132.172 438.333 131.934 438.234 131.758 438.059C131.582 437.883 131.483 437.644 131.483 437.396V432.144C131.483 431.895 131.582 431.657 131.758 431.481C131.934 431.305 132.172 431.206 132.421 431.206H134.532C135.777 431.206 136.789 432.219 136.789 433.463V433.638C136.789 434.882 135.777 435.895 134.532 435.895H133.358V437.396C133.358 437.644 133.259 437.883 133.084 438.059C132.908 438.234 132.669 438.333 132.421 438.333ZM133.358 434.02H134.532C134.633 434.02 134.73 433.979 134.802 433.908C134.874 433.836 134.914 433.739 134.914 433.638V433.463C134.914 433.362 134.874 433.265 134.802 433.193C134.73 433.122 134.633 433.081 134.532 433.081H133.358V434.02ZM140.501 438.333H139.71C138.465 438.333 137.452 437.321 137.452 436.076V433.463C137.452 432.219 138.465 431.206 139.71 431.206H141.821C142.07 431.206 142.308 431.305 142.484 431.481C142.66 431.657 142.758 431.895 142.758 432.144C142.758 432.392 142.66 432.631 142.484 432.807C142.308 432.982 142.07 433.081 141.821 433.081H139.71C139.608 433.081 139.511 433.122 139.439 433.193C139.368 433.265 139.328 433.362 139.327 433.463V436.076C139.327 436.177 139.368 436.275 139.439 436.346C139.511 436.418 139.608 436.458 139.71 436.458H140.501C140.603 436.458 140.7 436.418 140.771 436.346C140.843 436.275 140.883 436.177 140.884 436.076V435.801C140.636 435.797 140.401 435.695 140.228 435.519C140.055 435.342 139.959 435.104 139.961 434.857C139.963 434.609 140.062 434.373 140.238 434.199C140.413 434.024 140.65 433.926 140.897 433.926H141.821C142.07 433.926 142.308 434.025 142.484 434.201C142.66 434.376 142.758 434.615 142.758 434.863V436.076C142.758 437.321 141.746 438.333 140.501 438.333Z" fill="#0182FC"/>
<path d="M125.758 463.982V443.045C125.758 442.94 125.8 442.839 125.874 442.765C125.948 442.691 126.049 442.649 126.154 442.649H156.443C156.548 442.649 156.649 442.691 156.723 442.765C156.797 442.839 156.839 442.94 156.839 443.045V463.982C156.839 464.087 156.797 464.188 156.723 464.262C156.649 464.336 156.548 464.378 156.443 464.378H126.154C126.049 464.378 125.948 464.336 125.874 464.262C125.8 464.188 125.758 464.087 125.758 463.982Z" fill="#0593FC"/>
<path d="M131.14 463.982V443.045C131.14 442.94 131.182 442.839 131.256 442.765C131.33 442.691 131.431 442.649 131.536 442.649H126.154C126.049 442.649 125.948 442.691 125.874 442.765C125.8 442.839 125.758 442.94 125.758 443.045V463.982C125.758 464.087 125.8 464.188 125.874 464.262C125.948 464.336 126.049 464.378 126.154 464.378H131.536C131.431 464.378 131.33 464.336 131.256 464.262C131.182 464.188 131.14 464.087 131.14 463.982Z" fill="#0182FC"/>
<path d="M126.15 464.378H156.066L147.996 453.496C147.732 453.14 147.2 453.14 146.936 453.496L142.403 459.609L135.929 450.878C135.666 450.523 135.133 450.523 134.869 450.878L125.754 463.171V463.982C125.754 464.087 125.796 464.188 125.87 464.262C125.944 464.336 126.045 464.378 126.15 464.378Z" fill="#46CC8D"/>
<path d="M131.14 463.982V463.171L138.094 453.793L135.933 450.878C135.669 450.522 135.137 450.522 134.873 450.878L125.758 463.171V463.982C125.758 464.087 125.8 464.188 125.874 464.262C125.948 464.336 126.049 464.378 126.154 464.378H131.536C131.431 464.378 131.33 464.336 131.256 464.262C131.182 464.188 131.14 464.087 131.14 463.982Z" fill="#08B865"/>
<path d="M156.443 465.315H126.154C125.418 465.315 124.82 464.717 124.82 463.982V443.045C124.82 442.31 125.418 441.711 126.154 441.711H156.443C157.178 441.711 157.776 442.31 157.776 443.045V463.982C157.776 464.717 157.178 465.315 156.443 465.315ZM126.695 463.44H155.901V443.586H126.695V463.44Z" fill="white"/>
<path d="M151.229 450.12C152.323 450.12 153.209 449.234 153.209 448.141C153.209 447.047 152.323 446.161 151.229 446.161C150.136 446.161 149.25 447.047 149.25 448.141C149.25 449.234 150.136 450.12 151.229 450.12Z" fill="white"/>
<path d="M131.402 469.186H125.758C125.509 469.186 125.271 469.087 125.095 468.911C124.919 468.736 124.82 468.497 124.82 468.249C124.82 468 124.919 467.761 125.095 467.586C125.271 467.41 125.509 467.311 125.758 467.311H131.402C131.65 467.311 131.889 467.41 132.064 467.586C132.24 467.761 132.339 468 132.339 468.249C132.339 468.497 132.24 468.736 132.064 468.911C131.889 469.087 131.65 469.186 131.402 469.186Z" fill="white"/>
<path d="M725.999 742.63C704.049 757.279 674.988 742.554 675.787 715.726C675.773 714.378 676.027 712.893 676.216 711.611C693.821 713.247 713.696 706.437 719.751 692.493C725.145 679.903 713.201 671.806 702.13 676.301C688.978 681.694 677.563 692.123 672.581 705.516C661.577 703.542 652.146 697.373 649.796 685.2C645.877 664.689 666.228 645.272 685.485 643.859C687.507 643.838 687.609 640.738 685.588 640.759C659.905 639.88 637.16 668.823 646.917 693.451C650.79 702.98 660.148 708.678 671.087 710.855C668.068 725.105 675.293 739.518 686.701 747.89C699.941 757.523 715.815 754.798 728.258 746.043C730.266 744.674 727.941 741.464 725.999 742.63ZM693.75 687.035C698.432 683.617 704.323 679.917 710.387 679.854C716.248 679.726 715.724 687.616 714.882 690.926C713.779 695.048 709.765 697.785 706.214 699.776C698.714 704.301 687.824 706.841 677.711 706.272C680.865 698.557 687.199 692.09 693.75 687.035Z" fill="black"/>
<path d="M739.772 738.781C734.093 736.953 728.08 735.466 722.147 735.123C719.72 735.013 719.755 738.382 722.117 738.695C726.84 739.32 731.44 741.024 735.837 742.663C734.786 745.234 733.669 748.008 732.415 750.515C731.356 752.412 728.957 754.998 729.522 757.418C729.804 758.628 730.818 758.955 731.963 758.875C734.723 758.644 736.094 754.385 737.218 752.284C739.001 748.829 740.313 745.446 741.488 741.795C741.88 740.578 740.989 739.172 739.772 738.781Z" fill="black"/>
<defs>
<filter id="filter0_f_1869_29499" x="-440.398" y="25.8667" width="922.801" height="837.556" filterUnits="userSpaceOnUse" color-interpolation-filters="sRGB">
<feFlood flood-opacity="0" result="BackgroundImageFix"/>
<feBlend mode="normal" in="SourceGraphic" in2="BackgroundImageFix" result="shape"/>
<feGaussianBlur stdDeviation="150" result="effect1_foregroundBlur_1869_29499"/>
</filter>
<filter id="filter1_f_1869_29499" x="854.402" y="-80.9893" width="1057.2" height="936.464" filterUnits="userSpaceOnUse" color-interpolation-filters="sRGB">
<feFlood flood-opacity="0" result="BackgroundImageFix"/>
<feBlend mode="normal" in="SourceGraphic" in2="BackgroundImageFix" result="shape"/>
<feGaussianBlur stdDeviation="150" result="effect1_foregroundBlur_1869_29499"/>
</filter>
<filter id="filter2_f_1869_29499" x="-261.598" y="296.097" width="1070.4" height="946.178" filterUnits="userSpaceOnUse" color-interpolation-filters="sRGB">
<feFlood flood-opacity="0" result="BackgroundImageFix"/>
<feBlend mode="normal" in="SourceGraphic" in2="BackgroundImageFix" result="shape"/>
<feGaussianBlur stdDeviation="150" result="effect1_foregroundBlur_1869_29499"/>
</filter>
<clipPath id="clip0_1869_29499">
<rect width="82" height="82" fill="white" transform="translate(182 175.079) rotate(-13.4544)"/>
</clipPath>
<clipPath id="clip1_1869_29499">
<rect width="114" height="114" fill="white" transform="translate(210 653.702) rotate(-12)"/>
</clipPath>
<clipPath id="clip2_1869_29499">
<rect width="82" height="82" fill="white" transform="translate(1658.07 156.002) rotate(13.45)"/>
</clipPath>
<clipPath id="clip3_1869_29499">
<rect width="114" height="114" fill="white" transform="translate(1598.7 630) rotate(12)"/>
</clipPath>
<clipPath id="clip4_1869_29499">
<rect width="64" height="64" fill="white" transform="translate(1736.08 403) rotate(9.97102)"/>
</clipPath>
</defs>
</svg>
