<svg width="88" height="88" viewBox="0 0 88 88" fill="none" xmlns="http://www.w3.org/2000/svg">
<circle cx="44" cy="44" r="44" fill="#FFE8E8"/>
<g clip-path="url(#clip0_1869_29672)">
<path d="M41.6014 46.3299H41.5844V46.8299C41.5844 47.1203 41.4685 47.4017 41.2548 47.6154C41.0411 47.8291 40.7597 47.9449 40.4694 47.9449H17.8084C17.5096 47.9449 17.2199 47.8237 17.0329 47.6256L17.028 47.6204L17.0229 47.6154C16.8092 47.4017 16.6934 47.1203 16.6934 46.8299L16.6934 17.6749C16.6934 17.3762 16.8146 17.0865 17.0127 16.8994L17.0231 16.8896L17.0329 16.8792C17.2199 16.6812 17.5096 16.5599 17.8084 16.5599H31.7144C32.0102 16.5599 32.307 16.6797 32.5168 16.8895L41.2718 25.6445C41.4835 25.8562 41.6014 26.1368 41.6014 26.4469V46.3299Z" fill="white" stroke="#9B6DFF"/>
<path d="M42.0844 46.83V48.445C42.0844 48.87 41.9144 49.295 41.6084 49.584C41.3024 49.89 40.8944 50.06 40.4694 50.06H17.8084C16.9074 50.06 16.1934 49.329 16.1934 48.445V46.83C16.1934 47.255 16.3634 47.663 16.6694 47.969C16.9754 48.275 17.3834 48.445 17.8084 48.445H40.4694C41.3704 48.445 42.0844 47.714 42.0844 46.83Z" fill="#D0D7E3"/>
<path d="M12.9453 33.876H45.3303V41.968C45.3303 42.869 44.5993 43.583 43.7153 43.583H14.5773C14.1523 43.583 13.7273 43.413 13.4383 43.107C13.1323 42.801 12.9623 42.393 12.9623 41.951V33.876H12.9453Z" fill="#8E5DF9"/>
<path d="M16.1923 33.8759V30.6289L12.9453 33.8759H16.1923ZM42.0833 33.8759L42.1173 30.6289L45.3473 33.8759H42.0833Z" fill="#7F4DEC"/>
<path d="M42.0848 26.4471V26.6681H33.3298C32.4288 26.6681 31.7148 25.9371 31.7148 25.0531V16.0601C32.1398 16.0601 32.5648 16.2301 32.8708 16.5361L41.6428 25.2911C41.9318 25.5971 42.1018 26.0051 42.0848 26.4471Z" fill="#9B6DFF"/>
<path d="M16.086 41.9963V34.5844H17.486V37.6315H20.8008V34.5844H22.2008V41.9963H20.8008V38.9389H17.486V41.9963H16.086ZM25.365 41.9963V35.8918H23.0282V34.5844H29.1019V35.8918H26.7651V41.9963H25.365ZM29.9291 41.9963V34.5844H31.185L33.635 39.5051L36.0851 34.5844H37.341V41.9963H36.0336V37.5698L33.8821 41.9963H33.388L31.2365 37.5698V41.9963H29.9291ZM38.8888 41.9963V34.5844H40.2888V40.689H43.4801V41.9963H38.8888Z" fill="white"/>
<path d="M19.0391 27.5459H39.2553" stroke="#D3D3D3" stroke-width="0.5" stroke-linecap="round"/>
<path d="M19.0391 29.6138H39.2553" stroke="#D3D3D3" stroke-width="0.5" stroke-linecap="round"/>
<path d="M19.0391 31.9117H39.2553" stroke="#D3D3D3" stroke-width="0.5" stroke-linecap="round"/>
</g>
<g clip-path="url(#clip1_1869_29672)">
<path d="M71.6014 68.3298H71.5844V68.8298C71.5844 69.1201 71.4685 69.4016 71.2548 69.6153C71.0411 69.829 70.7597 69.9448 70.4694 69.9448H47.8084C47.5096 69.9448 47.2199 69.8236 47.0329 69.6255L47.028 69.6203L47.0229 69.6153C46.8092 69.4016 46.6934 69.1201 46.6934 68.8298V39.6748C46.6934 39.3761 46.8146 39.0864 47.0127 38.8993L47.0231 38.8895L47.0329 38.8791C47.2199 38.6811 47.5096 38.5598 47.8084 38.5598H61.7144C62.0102 38.5598 62.307 38.6796 62.5168 38.8894L71.2718 47.6444C71.4835 47.8561 71.6014 48.1367 71.6014 48.4468V68.3298Z" fill="white" stroke="#FF6D6D"/>
<path d="M72.0844 68.8298V70.4448C72.0844 70.8698 71.9144 71.2948 71.6084 71.5838C71.3024 71.8898 70.8944 72.0598 70.4694 72.0598H47.8084C46.9074 72.0598 46.1934 71.3288 46.1934 70.4448V68.8298C46.1934 69.2548 46.3634 69.6628 46.6694 69.9688C46.9754 70.2748 47.3834 70.4448 47.8084 70.4448H70.4694C71.3704 70.4448 72.0844 69.7138 72.0844 68.8298Z" fill="#D0D7E3"/>
<path d="M42.9453 55.8759H75.3303V63.9679C75.3303 64.8689 74.5993 65.5829 73.7153 65.5829H44.5773C44.1523 65.5829 43.7273 65.4129 43.4383 65.1069C43.1323 64.8009 42.9623 64.3929 42.9623 63.9509V55.8759H42.9453Z" fill="#EF4444"/>
<path d="M46.1923 55.8758V52.6288L42.9453 55.8758H46.1923ZM72.0833 55.8758L72.1173 52.6288L75.3473 55.8758H72.0833Z" fill="#D50B0B"/>
<path d="M72.0848 48.4469V48.6679H63.3298C62.4288 48.6679 61.7148 47.9369 61.7148 47.0529V38.0599C62.1398 38.0599 62.5648 38.2299 62.8708 38.5359L71.6428 47.2909C71.9318 47.5969 72.1018 48.0049 72.0848 48.4469Z" fill="#FF6D6D"/>
<path d="M50.1403 63.9962V56.5843H53.2698C53.3418 56.5843 53.4379 56.5877 53.558 56.5946C53.6816 56.598 53.7914 56.6083 53.8874 56.6254C54.3301 56.6941 54.6921 56.8399 54.9735 57.063C55.2583 57.286 55.4676 57.5674 55.6015 57.9071C55.7353 58.2434 55.8022 58.6191 55.8022 59.0343C55.8022 59.4495 55.7336 59.827 55.5963 60.1667C55.4625 60.503 55.2532 60.7827 54.9683 61.0057C54.687 61.2287 54.3267 61.3746 53.8874 61.4432C53.7914 61.4569 53.6816 61.4672 53.558 61.4741C53.4345 61.481 53.3384 61.4844 53.2698 61.4844H51.5403V63.9962H50.1403ZM51.5403 60.177H53.208C53.2801 60.177 53.359 60.1736 53.4448 60.1667C53.5306 60.1598 53.6095 60.1461 53.6816 60.1255C53.8703 60.0741 54.0161 59.9883 54.1191 59.8682C54.222 59.7446 54.2924 59.6091 54.3301 59.4615C54.3713 59.3106 54.3919 59.1682 54.3919 59.0343C54.3919 58.9005 54.3713 58.7598 54.3301 58.6123C54.2924 58.4613 54.222 58.3257 54.1191 58.2056C54.0161 58.0821 53.8703 57.9946 53.6816 57.9431C53.6095 57.9225 53.5306 57.9088 53.4448 57.902C53.359 57.8951 53.2801 57.8917 53.208 57.8917H51.5403V60.177ZM56.8357 63.9962V56.5843H59.2342C59.2926 56.5843 59.4127 56.586 59.5945 56.5894C59.7764 56.5929 59.9514 56.6049 60.1196 56.6254C60.7166 56.6975 61.2228 56.9051 61.638 57.2483C62.0532 57.5914 62.3689 58.0272 62.5851 58.5556C62.8012 59.0841 62.9093 59.6623 62.9093 60.2902C62.9093 60.9182 62.8012 61.4964 62.5851 62.0248C62.3689 62.5533 62.0532 62.9891 61.638 63.3322C61.2228 63.6754 60.7166 63.883 60.1196 63.955C59.9514 63.9756 59.7764 63.9876 59.5945 63.9911C59.4127 63.9945 59.2926 63.9962 59.2342 63.9962H56.8357ZM58.2563 62.6785H59.2342C59.3269 62.6785 59.4521 62.6768 59.61 62.6734C59.7678 62.6665 59.9102 62.6511 60.0372 62.6271C60.3598 62.5619 60.6223 62.4109 60.8247 62.1741C61.0306 61.9373 61.1816 61.6525 61.2777 61.3197C61.3772 60.9868 61.4269 60.6437 61.4269 60.2902C61.4269 59.9196 61.3755 59.5679 61.2725 59.2351C61.173 58.9022 61.0203 58.6208 60.8144 58.3909C60.6085 58.161 60.3495 58.0152 60.0372 57.9534C59.9102 57.926 59.7678 57.9105 59.61 57.9071C59.4521 57.9037 59.3269 57.902 59.2342 57.902H58.2563V62.6785ZM64.1442 63.9962V56.5843H68.6738V57.9843H65.5443V59.5902H68.0561V60.9903H65.5443V63.9962H64.1442Z" fill="white"/>
<path d="M49.0391 49.5458H69.2553" stroke="#D3D3D3" stroke-width="0.5" stroke-linecap="round"/>
<path d="M49.0391 51.6136H69.2553" stroke="#D3D3D3" stroke-width="0.5" stroke-linecap="round"/>
<path d="M49.0391 53.9116H69.2553" stroke="#D3D3D3" stroke-width="0.5" stroke-linecap="round"/>
</g>
<path d="M53.9709 32.3565L51.8703 32.7823L55.7655 35.3651L58.3474 31.4691L56.2629 31.8912C56.0909 29.4836 52.866 26.6005 50.6979 25.7132C48.4177 24.7801 46.0915 24.8475 44.7297 26.9377C45.8223 25.9475 47.8334 26.5417 49.491 27.0339C49.9646 27.1746 50.4275 27.3598 50.8262 27.6517C52.3035 28.7334 53.7899 30.5798 53.9709 32.3565Z" fill="#0F67B1"/>
<defs>
<clipPath id="clip0_1869_29672">
<rect width="34" height="34" fill="white" transform="translate(12.1484 16.0596)"/>
</clipPath>
<clipPath id="clip1_1869_29672">
<rect width="34" height="34" fill="white" transform="translate(42.1484 38.0594)"/>
</clipPath>
</defs>
</svg>
