<svg width="88" height="88" viewBox="0 0 88 88" fill="none" xmlns="http://www.w3.org/2000/svg">
<circle cx="44" cy="44" r="44" fill="#FFE8E8"/>
<g clip-path="url(#clip0_1869_29647)">
<path d="M41.4529 46.2698H41.4359V46.7698C41.4359 47.0601 41.3201 47.3415 41.1064 47.5552C40.8927 47.7689 40.6112 47.8848 40.3209 47.8848H17.6599C17.3612 47.8848 17.0715 47.7635 16.8844 47.5654L16.8795 47.5602L16.8745 47.5552C16.6608 47.3415 16.5449 47.0601 16.5449 46.7698L16.5449 17.6148C16.5449 17.316 16.6662 17.0263 16.8642 16.8393L16.8746 16.8295L16.8844 16.8191C17.0715 16.621 17.3612 16.4998 17.6599 16.4998H31.5659C31.8618 16.4998 32.1586 16.6195 32.3684 16.8293L41.1234 25.5843C41.3351 25.796 41.4529 26.0766 41.4529 26.3868V46.2698Z" fill="white" stroke="#FFD165"/>
<path d="M41.9359 46.7703V48.3853C41.9359 48.8103 41.7659 49.2353 41.4599 49.5243C41.1539 49.8303 40.7459 50.0003 40.3209 50.0003H17.6599C16.7589 50.0003 16.0449 49.2693 16.0449 48.3853V46.7703C16.0449 47.1953 16.2149 47.6033 16.5209 47.9093C16.8269 48.2153 17.2349 48.3853 17.6599 48.3853H40.3209C41.2219 48.3853 41.9359 47.6543 41.9359 46.7703Z" fill="#D0D7E3"/>
<path d="M12.7988 33.8167H45.1838V41.9087C45.1838 42.8097 44.4528 43.5236 43.5688 43.5236H14.4308C14.0058 43.5236 13.5808 43.3536 13.2918 43.0476C12.9858 42.7416 12.8158 42.3336 12.8158 41.8917L12.8158 33.8167H12.7988Z" fill="#F6AD00"/>
<path d="M16.0478 33.8171V30.5701L12.8008 33.8171H16.0478ZM41.9388 33.8171L41.9728 30.5701L45.2028 33.8171H41.9388Z" fill="#D99B07"/>
<path d="M41.9364 26.3869V26.6079H33.1814C32.2804 26.6079 31.5664 25.8769 31.5664 24.9929V15.9999C31.9914 15.9999 32.4164 16.1699 32.7224 16.4759L41.4944 25.2309C41.7834 25.5369 41.9534 25.9449 41.9364 26.3869Z" fill="#FFD165"/>
<path d="M17.0384 41.1949V35.4349H18.1264V41.1949H17.0384ZM19.3256 41.1949V35.4349H20.3016L22.2056 39.2589L24.1096 35.4349H25.0856V41.1949H24.0696V37.7549L22.3976 41.1949H22.0136L20.3416 37.7549V41.1949H19.3256ZM25.8084 41.1949L27.5684 35.4349H29.1924L30.9524 41.1949H29.8324L28.2644 36.1149H28.4724L26.9284 41.1949H25.8084ZM26.8644 39.9949V38.9789H29.9044V39.9949H26.8644ZM33.9131 41.3149C33.5505 41.3149 33.2051 41.2509 32.8771 41.1229C32.5491 40.9923 32.2585 40.8003 32.0051 40.5469C31.7545 40.2936 31.5558 39.9803 31.4091 39.6069C31.2651 39.2336 31.1931 38.8029 31.1931 38.3149C31.1931 37.6776 31.3145 37.1363 31.5571 36.6909C31.8025 36.2429 32.1305 35.9016 32.5411 35.6669C32.9545 35.4323 33.4118 35.3149 33.9131 35.3149C34.6545 35.3149 35.2371 35.4869 35.6611 35.8309C36.0851 36.1749 36.3691 36.6616 36.5131 37.2909L35.4011 37.4509C35.2971 37.1149 35.1265 36.8469 34.8891 36.6469C34.6545 36.4443 34.3531 36.3416 33.9851 36.3389C33.6198 36.3336 33.3158 36.4123 33.0731 36.5749C32.8305 36.7376 32.6478 36.9683 32.5251 37.2669C32.4051 37.5656 32.3451 37.9149 32.3451 38.3149C32.3451 38.7149 32.4051 39.0616 32.5251 39.3549C32.6478 39.6483 32.8305 39.8763 33.0731 40.0389C33.3158 40.2016 33.6198 40.2856 33.9851 40.2909C34.2331 40.2963 34.4571 40.2536 34.6571 40.1629C34.8598 40.0723 35.0305 39.9296 35.1691 39.7349C35.3078 39.5403 35.4065 39.2909 35.4651 38.9869H34.5531V38.1469H36.6251C36.6305 38.1816 36.6345 38.2429 36.6371 38.3309C36.6398 38.4189 36.6411 38.4696 36.6411 38.4829C36.6411 39.0349 36.5291 39.5243 36.3051 39.9509C36.0811 40.3776 35.7651 40.7123 35.3571 40.9549C34.9491 41.1949 34.4678 41.3149 33.9131 41.3149ZM37.4428 41.1949V35.4349H41.2028V36.4509H38.5308V37.6829H40.7228V38.6989H38.5308V40.1789H41.2028V41.1949H37.4428Z" fill="white"/>
<path d="M18.8906 27.4866H39.1068" stroke="#D3D3D3" stroke-width="0.5" stroke-linecap="round"/>
<path d="M18.8926 29.5542H39.1088" stroke="#D3D3D3" stroke-width="0.5" stroke-linecap="round"/>
<path d="M18.8906 31.8517H39.1068" stroke="#D3D3D3" stroke-width="0.5" stroke-linecap="round"/>
</g>
<g clip-path="url(#clip1_1869_29647)">
<path d="M70.9529 67.6823H70.9359V68.1823C70.9359 68.4727 70.8201 68.7541 70.6064 68.9678C70.3927 69.1815 70.1113 69.2973 69.8209 69.2973H47.1599C46.8612 69.2973 46.5715 69.1761 46.3844 68.978L46.3795 68.9728L46.3745 68.9678C46.1608 68.7541 46.0449 68.4727 46.0449 68.1823V39.0274C46.0449 38.7286 46.1662 38.4389 46.3642 38.2519L46.3746 38.2421L46.3844 38.2317C46.5715 38.0336 46.8612 37.9124 47.1599 37.9124H61.0659C61.3618 37.9124 61.6586 38.0321 61.8684 38.2419L70.6234 46.9969C70.8351 47.2086 70.9529 47.4892 70.9529 47.7994V67.6823Z" fill="white" stroke="#FF6D6D"/>
<path d="M71.4359 68.1824V69.7974C71.4359 70.2224 71.2659 70.6474 70.9599 70.9364C70.6539 71.2424 70.2459 71.4124 69.8209 71.4124H47.1599C46.2589 71.4124 45.5449 70.6814 45.5449 69.7974V68.1824C45.5449 68.6074 45.7149 69.0154 46.0209 69.3214C46.3269 69.6274 46.7349 69.7974 47.1599 69.7974H69.8209C70.7219 69.7974 71.4359 69.0664 71.4359 68.1824Z" fill="#D0D7E3"/>
<path d="M42.2969 55.2284H74.6819V63.3204C74.6819 64.2214 73.9509 64.9354 73.0669 64.9354H43.9289C43.5039 64.9354 43.0789 64.7654 42.7899 64.4594C42.4839 64.1534 42.3139 63.7454 42.3139 63.3034V55.2284H42.2969Z" fill="#EF4444"/>
<path d="M45.5439 55.2283V51.9813L42.2969 55.2283H45.5439ZM71.4349 55.2283L71.4689 51.9813L74.6989 55.2283H71.4349Z" fill="#D50B0B"/>
<path d="M71.4364 47.7995V48.0205H62.6814C61.7804 48.0205 61.0664 47.2895 61.0664 46.4055V37.4125C61.4914 37.4125 61.9164 37.5825 62.2224 37.8885L70.9944 46.6435C71.2834 46.9495 71.4534 47.3575 71.4364 47.7995Z" fill="#FF6D6D"/>
<path d="M49.4919 63.3488V55.9368H52.6213C52.6934 55.9368 52.7895 55.9402 52.9096 55.9471C53.0331 55.9505 53.1429 55.9608 53.239 55.978C53.6817 56.0466 54.0437 56.1925 54.3251 56.4155C54.6099 56.6385 54.8192 56.9199 54.953 57.2596C55.0868 57.5959 55.1538 57.9717 55.1538 58.3869C55.1538 58.8021 55.0851 59.1795 54.9479 59.5193C54.814 59.8555 54.6047 60.1352 54.3199 60.3582C54.0385 60.5813 53.6782 60.7271 53.239 60.7958C53.1429 60.8095 53.0331 60.8198 52.9096 60.8266C52.7861 60.8335 52.69 60.8369 52.6213 60.8369H50.8919V63.3488H49.4919ZM50.8919 59.5295H52.5596C52.6316 59.5295 52.7106 59.5261 52.7963 59.5193C52.8821 59.5124 52.9611 59.4987 53.0331 59.4781C53.2218 59.4266 53.3677 59.3408 53.4706 59.2207C53.5736 59.0972 53.6439 58.9616 53.6817 58.8141C53.7228 58.6631 53.7434 58.5207 53.7434 58.3869C53.7434 58.253 53.7228 58.1124 53.6817 57.9648C53.6439 57.8138 53.5736 57.6783 53.4706 57.5582C53.3677 57.4346 53.2218 57.3471 53.0331 57.2957C52.9611 57.2751 52.8821 57.2614 52.7963 57.2545C52.7106 57.2476 52.6316 57.2442 52.5596 57.2442H50.8919V59.5295ZM56.1872 63.3488V55.9368H58.5858C58.6441 55.9368 58.7642 55.9385 58.9461 55.942C59.128 55.9454 59.303 55.9574 59.4711 55.978C60.0682 56.05 60.5743 56.2577 60.9895 56.6008C61.4047 56.9439 61.7204 57.3797 61.9366 57.9082C62.1528 58.4366 62.2609 59.0148 62.2609 59.6428C62.2609 60.2707 62.1528 60.8489 61.9366 61.3774C61.7204 61.9058 61.4047 62.3416 60.9895 62.6848C60.5743 63.0279 60.0682 63.2355 59.4711 63.3076C59.303 63.3282 59.128 63.3402 58.9461 63.3436C58.7642 63.347 58.6441 63.3488 58.5858 63.3488H56.1872ZM57.6078 62.0311H58.5858C58.6785 62.0311 58.8037 62.0294 58.9615 62.0259C59.1194 62.0191 59.2618 62.0036 59.3888 61.9796C59.7113 61.9144 59.9738 61.7634 60.1763 61.5267C60.3822 61.2899 60.5332 61.0051 60.6292 60.6722C60.7287 60.3394 60.7785 59.9962 60.7785 59.6428C60.7785 59.2722 60.727 58.9205 60.6241 58.5876C60.5246 58.2548 60.3719 57.9734 60.166 57.7435C59.9601 57.5136 59.701 57.3677 59.3888 57.306C59.2618 57.2785 59.1194 57.2631 58.9615 57.2596C58.8037 57.2562 58.6785 57.2545 58.5858 57.2545H57.6078V62.0311ZM63.4958 63.3488V55.9368H68.0253V57.3368H64.8958V58.9428H67.4077V60.3428H64.8958V63.3488H63.4958Z" fill="white"/>
<path d="M48.3906 48.8983H68.6068" stroke="#D3D3D3" stroke-width="0.5" stroke-linecap="round"/>
<path d="M48.3906 50.9662H68.6068" stroke="#D3D3D3" stroke-width="0.5" stroke-linecap="round"/>
<path d="M48.3906 53.2642H68.6068" stroke="#D3D3D3" stroke-width="0.5" stroke-linecap="round"/>
</g>
<path d="M53.2114 31.6782L51.0575 32.0891L55.0768 34.7064L57.6989 30.8216L55.5616 31.229C55.3669 28.8151 52.0337 25.9018 49.8006 24.9965C47.4522 24.0443 45.0639 24.0945 43.6811 26.1788C44.8044 25.187 46.8978 25.8149 48.6112 26.3228C49.0721 26.4594 49.5225 26.6381 49.9142 26.9166C51.4501 28.0084 53.0108 29.8836 53.2114 31.6782Z" fill="#0F67B1"/>
<defs>
<clipPath id="clip0_1869_29647">
<rect width="34" height="34" fill="white" transform="translate(12 16)"/>
</clipPath>
<clipPath id="clip1_1869_29647">
<rect width="34" height="34" fill="white" transform="translate(41.5 37.412)"/>
</clipPath>
</defs>
</svg>
