<svg width="88" height="88" viewBox="0 0 88 88" fill="none" xmlns="http://www.w3.org/2000/svg">
<circle cx="44" cy="44" r="44" fill="#DCE8F3"/>
<g clip-path="url(#clip0_1869_30145)">
<path d="M52.8747 57.8955H52.8535V58.3955C52.8535 58.7911 52.6956 59.1737 52.406 59.4632C52.1165 59.7527 51.734 59.9107 51.3383 59.9107H23.0621C22.658 59.9107 22.263 59.7473 22.0043 59.4734L21.9994 59.4682L21.9944 59.4632C21.7049 59.1737 21.5469 58.7911 21.5469 58.3955V22.016C21.5469 21.612 21.7102 21.217 21.9841 20.9583L21.9945 20.9485L22.0043 20.9381C22.263 20.6642 22.658 20.5009 23.0621 20.5009H40.4139C40.8151 20.5009 41.2172 20.6627 41.5028 20.9484L52.4272 31.8728C52.7148 32.1603 52.8747 32.5421 52.8747 32.9617V57.8955Z" fill="white" stroke="#FF6D6D"/>
<path d="M53.3535 58.395V60.4102C53.3535 60.9405 53.1414 61.4708 52.7596 61.8314C52.3778 62.2133 51.8687 62.4254 51.3383 62.4254H23.0621C21.9378 62.4254 21.0469 61.5133 21.0469 60.4102V58.395C21.0469 58.9253 21.259 59.4344 21.6408 59.8163C22.0227 60.1981 22.5318 60.4102 23.0621 60.4102H51.3383C52.4626 60.4102 53.3535 59.4981 53.3535 58.395Z" fill="#D0D7E3"/>
<path d="M16.998 42.2319H57.4079V52.329C57.4079 53.4533 56.4957 54.3442 55.3927 54.3442H19.0344C18.5041 54.3442 17.9738 54.1321 17.6132 53.7503C17.2314 53.3684 17.0193 52.8593 17.0193 52.3078V42.2319H16.998Z" fill="#EF4444"/>
<path d="M21.0496 42.231V38.1794L16.998 42.231H21.0496ZM53.3563 42.231L53.3987 38.1794L57.4291 42.231H53.3563Z" fill="#D50B0B"/>
<path d="M53.3556 32.9617V33.2375H42.4312C41.3069 33.2375 40.416 32.3253 40.416 31.2223V20.0009C40.9463 20.0009 41.4766 20.213 41.8585 20.5948L52.8041 31.5192C53.1647 31.9011 53.3769 32.4102 53.3556 32.9617Z" fill="#FF6D6D"/>
<path d="M26.3341 52.8184V44.1784H29.9821C30.0661 44.1784 30.1781 44.1824 30.3181 44.1904C30.4621 44.1944 30.5901 44.2064 30.7021 44.2264C31.2181 44.3064 31.6401 44.4764 31.9681 44.7364C32.3001 44.9964 32.5441 45.3244 32.7001 45.7204C32.8561 46.1124 32.9341 46.5504 32.9341 47.0344C32.9341 47.5184 32.8541 47.9584 32.6941 48.3544C32.5381 48.7464 32.2941 49.0724 31.9621 49.3324C31.6341 49.5924 31.2141 49.7624 30.7021 49.8424C30.5901 49.8584 30.4621 49.8704 30.3181 49.8784C30.1741 49.8864 30.0621 49.8904 29.9821 49.8904H27.9661V52.8184H26.3341ZM27.9661 48.3664H29.9101C29.9941 48.3664 30.0861 48.3624 30.1861 48.3544C30.2861 48.3464 30.3781 48.3304 30.4621 48.3064C30.6821 48.2464 30.8521 48.1464 30.9721 48.0064C31.0921 47.8624 31.1741 47.7044 31.2181 47.5324C31.2661 47.3564 31.2901 47.1904 31.2901 47.0344C31.2901 46.8784 31.2661 46.7144 31.2181 46.5424C31.1741 46.3664 31.0921 46.2084 30.9721 46.0684C30.8521 45.9244 30.6821 45.8224 30.4621 45.7624C30.3781 45.7384 30.2861 45.7224 30.1861 45.7144C30.0861 45.7064 29.9941 45.7024 29.9101 45.7024H27.9661V48.3664ZM34.1388 52.8184V44.1784H36.9348C37.0028 44.1784 37.1428 44.1804 37.3548 44.1844C37.5668 44.1884 37.7708 44.2024 37.9668 44.2264C38.6628 44.3104 39.2528 44.5524 39.7368 44.9524C40.2208 45.3524 40.5888 45.8604 40.8408 46.4764C41.0928 47.0924 41.2188 47.7664 41.2188 48.4984C41.2188 49.2304 41.0928 49.9044 40.8408 50.5204C40.5888 51.1364 40.2208 51.6444 39.7368 52.0444C39.2528 52.4444 38.6628 52.6864 37.9668 52.7704C37.7708 52.7944 37.5668 52.8084 37.3548 52.8124C37.1428 52.8164 37.0028 52.8184 36.9348 52.8184H34.1388ZM35.7948 51.2824H36.9348C37.0428 51.2824 37.1888 51.2804 37.3728 51.2764C37.5568 51.2684 37.7228 51.2504 37.8708 51.2224C38.2468 51.1464 38.5528 50.9704 38.7888 50.6944C39.0288 50.4184 39.2048 50.0864 39.3168 49.6984C39.4328 49.3104 39.4908 48.9104 39.4908 48.4984C39.4908 48.0664 39.4308 47.6564 39.3108 47.2684C39.1948 46.8804 39.0168 46.5524 38.7768 46.2844C38.5368 46.0164 38.2348 45.8464 37.8708 45.7744C37.7228 45.7424 37.5568 45.7244 37.3728 45.7204C37.1888 45.7164 37.0428 45.7144 36.9348 45.7144H35.7948V51.2824ZM42.6583 52.8184V44.1784H47.9383V45.8104H44.2903V47.6824H47.2183V49.3144H44.2903V52.8184H42.6583Z" fill="white"/>
<path d="M24.5996 34.3333H49.8253" stroke="#D3D3D3" stroke-width="0.5" stroke-linecap="round"/>
<path d="M24.5996 36.9132H49.8253" stroke="#D3D3D3" stroke-width="0.5" stroke-linecap="round"/>
<path d="M24.5996 39.7806H49.8253" stroke="#D3D3D3" stroke-width="0.5" stroke-linecap="round"/>
</g>
<path d="M64.2222 48.4247H45.838C45.057 48.4247 44.4238 49.0579 44.4238 49.8389V65.3948C44.4238 66.1758 45.057 66.8089 45.838 66.8089H64.2222C65.0032 66.8089 65.6363 66.1758 65.6363 65.3948V49.8389C65.6363 49.0579 65.0032 48.4247 64.2222 48.4247Z" fill="#FFA828"/>
<path d="M65.6362 49.8389V65.3948H63.5149C59.0182 65.3817 54.7094 63.5896 51.5297 60.4099C48.3501 57.2303 46.558 52.9215 46.5449 48.4247H64.222C64.5971 48.4247 64.9568 48.5737 65.222 48.8389C65.4872 49.1042 65.6362 49.4639 65.6362 49.8389Z" fill="#FEC044"/>
<path d="M63.5149 42.7681V48.4248H60.6866C60.6866 42.7044 61.1179 40.866 59.032 38.766C58.2409 37.974 57.2326 37.4345 56.1347 37.2159C55.0368 36.9973 53.8988 37.1093 52.8646 37.5378C51.8304 37.9663 50.9467 38.692 50.3252 39.6231C49.7037 40.5541 49.3724 41.6487 49.3733 42.7681V48.4248H46.5449V42.7681C46.5449 40.5177 47.4389 38.3595 49.0301 36.7683C50.6214 35.177 52.7796 34.2831 55.0299 34.2831C57.2803 34.2831 59.4385 35.177 61.0297 36.7683C62.621 38.3595 63.5149 40.5177 63.5149 42.7681Z" fill="#5D6DA1"/>
<path d="M47.959 42.7681V48.4248H49.3732V42.7681C49.3744 41.3912 49.8778 40.062 50.789 39.0298C51.7002 37.9975 52.9566 37.333 54.3227 37.1609C53.5269 37.0607 52.7189 37.1308 51.9522 37.3667C51.1856 37.6025 50.4779 37.9988 49.876 38.529C49.2742 39.0593 48.792 39.7115 48.4615 40.4424C48.131 41.1732 47.9597 41.966 47.959 42.7681ZM54.3227 34.3185C56.4423 34.4957 58.418 35.4625 59.8585 37.0274C61.299 38.5923 62.0992 40.6412 62.1007 42.7681V48.4248H63.5148V42.7681C63.514 41.5947 63.2699 40.4343 62.7978 39.3601C62.3257 38.2859 61.6359 37.3213 60.772 36.5272C59.9082 35.7331 58.889 35.1268 57.779 34.7466C56.6689 34.3665 55.492 34.2207 54.3227 34.3185Z" fill="#415BAF"/>
<path d="M56.6295 57.829L57.0679 61.7816C57.0788 61.8807 57.0687 61.9811 57.0381 62.0761C57.0075 62.1711 56.9572 62.2585 56.8904 62.3326C56.8236 62.4068 56.7419 62.4659 56.6506 62.5062C56.5593 62.5465 56.4606 62.567 56.3608 62.5664H53.7021C53.6024 62.567 53.5036 62.5465 53.4123 62.5062C53.321 62.4659 53.2393 62.4068 53.1725 62.3326C53.1057 62.2585 53.0554 62.1711 53.0248 62.0761C52.9942 61.9811 52.9841 61.8807 52.9951 61.7816L53.4335 57.829C52.9351 57.4877 52.559 56.9958 52.3604 56.4254C52.1618 55.855 52.151 55.2359 52.3296 54.6589C52.5083 54.0819 52.8669 53.5772 53.3531 53.2188C53.8393 52.8604 54.4274 52.667 55.0315 52.667C55.6355 52.667 56.2236 52.8604 56.7098 53.2188C57.196 53.5772 57.5547 54.0819 57.7333 54.6589C57.9119 55.2359 57.9011 55.855 57.7025 56.4254C57.5039 56.9958 57.1278 57.4877 56.6295 57.829Z" fill="#747575"/>
<path d="M55.2148 57.8289L55.6531 61.7815C55.6641 61.8807 55.654 61.9811 55.6234 62.0761C55.5928 62.171 55.5425 62.2585 55.4757 62.3326C55.4089 62.4067 55.3272 62.4659 55.2359 62.5062C55.1446 62.5465 55.0458 62.567 54.9461 62.5664H53.7016C53.6018 62.567 53.503 62.5465 53.4118 62.5062C53.3205 62.4659 53.2387 62.4067 53.172 62.3326C53.1052 62.2585 53.0548 62.171 53.0243 62.0761C52.9937 61.9811 52.9835 61.8807 52.9945 61.7815L53.4329 57.8289C52.9855 57.5219 52.6359 57.0926 52.4258 56.5924C52.2156 56.0921 52.1538 55.5419 52.2478 55.0075C52.3417 54.4731 52.5873 53.977 52.9554 53.5783C53.3236 53.1796 53.7986 52.8953 54.3238 52.7592C54.8491 52.8953 55.3241 53.1796 55.6922 53.5783C56.0603 53.977 56.306 54.4731 56.3999 55.0075C56.4938 55.5419 56.432 56.0921 56.2219 56.5924C56.0117 57.0926 55.6621 57.5219 55.2148 57.8289Z" fill="#919191"/>
<defs>
<clipPath id="clip0_1869_30145">
<rect width="42.425" height="42.425" fill="white" transform="translate(16 20)"/>
</clipPath>
</defs>
</svg>
