<svg width="88" height="88" viewBox="0 0 88 88" fill="none" xmlns="http://www.w3.org/2000/svg">
<circle cx="44" cy="44" r="43.5" fill="#C6FFF1" stroke="#AFFFEC"/>
<g clip-path="url(#clip0_1869_29870)">
<path d="M68.168 40.8406H68.154V41.3406C68.154 41.5559 68.0682 41.7654 67.9085 41.9251C67.7488 42.0848 67.5394 42.1706 67.324 42.1706H48.662C48.4383 42.1706 48.2236 42.0794 48.0875 41.9353L48.0826 41.9301L48.0776 41.9251C47.9179 41.7654 47.832 41.5559 47.832 41.3406V17.3306C47.832 17.1069 47.9233 16.8922 48.0673 16.7561L48.0777 16.7463L48.0875 16.7359C48.2236 16.5919 48.4383 16.5006 48.662 16.5006H60.114C60.3349 16.5006 60.5567 16.5904 60.7125 16.7462L67.9225 23.9562C68.0802 24.1139 68.168 24.3225 68.168 24.5546V40.8406Z" fill="white" stroke="#FF6D6D"/>
<path d="M68.654 41.3402V42.6702C68.654 43.0202 68.514 43.3702 68.262 43.6082C68.01 43.8602 67.674 44.0002 67.324 44.0002H48.662C47.92 44.0002 47.332 43.3982 47.332 42.6702V41.3402C47.332 41.6902 47.472 42.0262 47.724 42.2782C47.976 42.5302 48.312 42.6702 48.662 42.6702H67.324C68.066 42.6702 68.654 42.0682 68.654 41.3402Z" fill="#D0D7E3"/>
<path d="M44.6582 30.6727H71.3282V37.3367C71.3282 38.0787 70.7262 38.6667 69.9982 38.6667H46.0022C45.6522 38.6667 45.3022 38.5267 45.0642 38.2747C44.8122 38.0227 44.6722 37.6867 44.6722 37.3227V30.6727H44.6582Z" fill="#EF4444"/>
<path d="M47.3322 30.6722V27.9982L44.6582 30.6722H47.3322ZM68.6542 30.6722L68.6822 27.9982L71.3422 30.6722H68.6542Z" fill="#D50B0B"/>
<path d="M68.6552 24.5546V24.7366H61.4452C60.7032 24.7366 60.1152 24.1346 60.1152 23.4066V16.0006C60.4652 16.0006 60.8152 16.1406 61.0672 16.3926L68.2912 23.6026C68.5292 23.8546 68.6692 24.1906 68.6552 24.5546Z" fill="#FF6D6D"/>
<path d="M50.9975 37.2434V31.4834H53.4295C53.4855 31.4834 53.5602 31.4861 53.6535 31.4914C53.7495 31.4941 53.8348 31.5021 53.9095 31.5154C54.2535 31.5687 54.5348 31.6821 54.7535 31.8554C54.9748 32.0287 55.1375 32.2474 55.2415 32.5114C55.3455 32.7727 55.3975 33.0647 55.3975 33.3874C55.3975 33.7101 55.3442 34.0034 55.2375 34.2674C55.1335 34.5287 54.9708 34.7461 54.7495 34.9194C54.5308 35.0927 54.2508 35.2061 53.9095 35.2594C53.8348 35.2701 53.7495 35.2781 53.6535 35.2834C53.5575 35.2887 53.4828 35.2914 53.4295 35.2914H52.0855V37.2434H50.9975ZM52.0855 34.2754H53.3815C53.4375 34.2754 53.4988 34.2727 53.5655 34.2674C53.6322 34.2621 53.6935 34.2514 53.7495 34.2354C53.8962 34.1954 54.0095 34.1287 54.0895 34.0354C54.1695 33.9394 54.2242 33.8341 54.2535 33.7194C54.2855 33.6021 54.3015 33.4914 54.3015 33.3874C54.3015 33.2834 54.2855 33.1741 54.2535 33.0594C54.2242 32.9421 54.1695 32.8367 54.0895 32.7434C54.0095 32.6474 53.8962 32.5794 53.7495 32.5394C53.6935 32.5234 53.6322 32.5127 53.5655 32.5074C53.4988 32.5021 53.4375 32.4994 53.3815 32.4994H52.0855V34.2754ZM56.2006 37.2434V31.4834H58.0646C58.11 31.4834 58.2033 31.4847 58.3446 31.4874C58.486 31.4901 58.622 31.4994 58.7526 31.5154C59.2166 31.5714 59.61 31.7327 59.9326 31.9994C60.2553 32.2661 60.5006 32.6047 60.6686 33.0154C60.8366 33.4261 60.9206 33.8754 60.9206 34.3634C60.9206 34.8514 60.8366 35.3007 60.6686 35.7114C60.5006 36.1221 60.2553 36.4607 59.9326 36.7274C59.61 36.9941 59.2166 37.1554 58.7526 37.2114C58.622 37.2274 58.486 37.2367 58.3446 37.2394C58.2033 37.2421 58.11 37.2434 58.0646 37.2434H56.2006ZM57.3046 36.2194H58.0646C58.1366 36.2194 58.234 36.2181 58.3566 36.2154C58.4793 36.2101 58.59 36.1981 58.6886 36.1794C58.9393 36.1287 59.1433 36.0114 59.3006 35.8274C59.4606 35.6434 59.578 35.4221 59.6526 35.1634C59.73 34.9047 59.7686 34.6381 59.7686 34.3634C59.7686 34.0754 59.7286 33.8021 59.6486 33.5434C59.5713 33.2847 59.4526 33.0661 59.2926 32.8874C59.1326 32.7087 58.9313 32.5954 58.6886 32.5474C58.59 32.5261 58.4793 32.5141 58.3566 32.5114C58.234 32.5087 58.1366 32.5074 58.0646 32.5074H57.3046V36.2194ZM61.8803 37.2434V31.4834H65.4003V32.5714H62.9683V33.8194H64.9203V34.9074H62.9683V37.2434H61.8803Z" fill="white"/>
<path d="M49.6758 25.4598H66.3244" stroke="#D3D3D3" stroke-width="0.142068" stroke-linecap="round"/>
<path d="M49.6758 27.1625H66.3244" stroke="#D3D3D3" stroke-width="0.142068" stroke-linecap="round"/>
<path d="M49.6758 29.0549H66.3244" stroke="#D3D3D3" stroke-width="0.142068" stroke-linecap="round"/>
</g>
<g clip-path="url(#clip1_1869_29870)">
<path d="M40.168 40.8406H40.154V41.3406C40.154 41.5559 40.0682 41.7654 39.9085 41.9251C39.7488 42.0848 39.5394 42.1706 39.324 42.1706H20.662C20.4383 42.1706 20.2236 42.0794 20.0875 41.9353L20.0826 41.9301L20.0776 41.9251C19.9179 41.7654 19.832 41.5559 19.832 41.3406V17.3306C19.832 17.1069 19.9233 16.8922 20.0673 16.7561L20.0777 16.7463L20.0875 16.7359C20.2236 16.5919 20.4383 16.5006 20.662 16.5006H32.114C32.3349 16.5006 32.5567 16.5904 32.7125 16.7462L39.9225 23.9562C40.0802 24.1139 40.168 24.3225 40.168 24.5546V40.8406Z" fill="white" stroke="#FF6D6D"/>
<path d="M40.654 41.3402V42.6702C40.654 43.0202 40.514 43.3702 40.262 43.6082C40.01 43.8602 39.674 44.0002 39.324 44.0002H20.662C19.92 44.0002 19.332 43.3982 19.332 42.6702V41.3402C19.332 41.6902 19.472 42.0262 19.724 42.2782C19.976 42.5302 20.312 42.6702 20.662 42.6702H39.324C40.066 42.6702 40.654 42.0682 40.654 41.3402Z" fill="#D0D7E3"/>
<path d="M16.6582 30.6727H43.3282V37.3367C43.3282 38.0787 42.7262 38.6667 41.9982 38.6667H18.0022C17.6522 38.6667 17.3022 38.5267 17.0642 38.2747C16.8122 38.0227 16.6722 37.6867 16.6722 37.3227V30.6727H16.6582Z" fill="#EF4444"/>
<path d="M19.3342 30.6719V27.9979L16.6602 30.6719H19.3342ZM40.6562 30.6719L40.6842 27.9979L43.3442 30.6719H40.6562Z" fill="#D50B0B"/>
<path d="M40.6552 24.5546V24.7366H33.4452C32.7032 24.7366 32.1152 24.1346 32.1152 23.4066V16.0006C32.4652 16.0006 32.8152 16.1406 33.0672 16.3926L40.2912 23.6026C40.5292 23.8546 40.6692 24.1906 40.6552 24.5546Z" fill="#FF6D6D"/>
<path d="M23.187 37.2434V31.4834H25.619C25.675 31.4834 25.7496 31.4861 25.843 31.4914C25.939 31.4941 26.0243 31.5021 26.099 31.5154C26.443 31.5687 26.7243 31.6821 26.943 31.8554C27.1643 32.0287 27.327 32.2474 27.431 32.5114C27.535 32.7727 27.587 33.0647 27.587 33.3874C27.587 33.7101 27.5336 34.0034 27.427 34.2674C27.323 34.5287 27.1603 34.7461 26.939 34.9194C26.7203 35.0927 26.4403 35.2061 26.099 35.2594C26.0243 35.2701 25.939 35.2781 25.843 35.2834C25.747 35.2887 25.6723 35.2914 25.619 35.2914H24.275V37.2434H23.187ZM24.275 34.2754H25.571C25.627 34.2754 25.6883 34.2727 25.755 34.2674C25.8216 34.2621 25.883 34.2514 25.939 34.2354C26.0856 34.1954 26.199 34.1287 26.279 34.0354C26.359 33.9394 26.4136 33.8341 26.443 33.7194C26.475 33.6021 26.491 33.4914 26.491 33.3874C26.491 33.2834 26.475 33.1741 26.443 33.0594C26.4136 32.9421 26.359 32.8367 26.279 32.7434C26.199 32.6474 26.0856 32.5794 25.939 32.5394C25.883 32.5234 25.8216 32.5127 25.755 32.5074C25.6883 32.5021 25.627 32.4994 25.571 32.4994H24.275V34.2754ZM28.3901 37.2434V31.4834H30.2541C30.2994 31.4834 30.3927 31.4847 30.5341 31.4874C30.6754 31.4901 30.8114 31.4994 30.9421 31.5154C31.4061 31.5714 31.7994 31.7327 32.1221 31.9994C32.4447 32.2661 32.6901 32.6047 32.8581 33.0154C33.0261 33.4261 33.1101 33.8754 33.1101 34.3634C33.1101 34.8514 33.0261 35.3007 32.8581 35.7114C32.6901 36.1221 32.4447 36.4607 32.1221 36.7274C31.7994 36.9941 31.4061 37.1554 30.9421 37.2114C30.8114 37.2274 30.6754 37.2367 30.5341 37.2394C30.3927 37.2421 30.2994 37.2434 30.2541 37.2434H28.3901ZM29.4941 36.2194H30.2541C30.3261 36.2194 30.4234 36.2181 30.5461 36.2154C30.6687 36.2101 30.7794 36.1981 30.8781 36.1794C31.1287 36.1287 31.3327 36.0114 31.4901 35.8274C31.6501 35.6434 31.7674 35.4221 31.8421 35.1634C31.9194 34.9047 31.9581 34.6381 31.9581 34.3634C31.9581 34.0754 31.9181 33.8021 31.8381 33.5434C31.7607 33.2847 31.6421 33.0661 31.4821 32.8874C31.3221 32.7087 31.1207 32.5954 30.8781 32.5474C30.7794 32.5261 30.6687 32.5141 30.5461 32.5114C30.4234 32.5087 30.3261 32.5074 30.2541 32.5074H29.4941V36.2194ZM34.0698 37.2434V31.4834H37.5898V32.5714H35.1578V33.8194H37.1098V34.9074H35.1578V37.2434H34.0698Z" fill="white"/>
<path d="M21.6758 25.4598H38.3244" stroke="#D3D3D3" stroke-width="0.142068" stroke-linecap="round"/>
<path d="M21.6758 27.1625H38.3244" stroke="#D3D3D3" stroke-width="0.142068" stroke-linecap="round"/>
<path d="M21.6758 29.0549H38.3244" stroke="#D3D3D3" stroke-width="0.142068" stroke-linecap="round"/>
</g>
<path d="M41.6378 67.3029C41.649 67.9179 42.2287 68.406 42.9325 68.3931C43.6363 68.3803 44.1977 67.8712 44.1865 67.2562L41.6378 67.3029ZM44.1865 67.2562L44.0941 62.2069L41.5454 62.2535L41.6378 67.3029L44.1865 67.2562ZM37.4938 50.2048L31.4516 45.8494L29.8239 47.5708L35.866 51.9262L37.4938 50.2048ZM44.0941 62.2069C44.0088 57.5475 41.5978 53.1631 37.4938 50.2048L35.866 51.9262C39.3973 54.4717 41.472 58.2441 41.5454 62.2535L44.0941 62.2069Z" fill="#EF4444"/>
<path d="M49.3396 66.4689L43.307 71.5308C42.9368 71.8414 42.3849 71.7932 42.0743 71.423L37.0123 65.3904" stroke="#EF4444" stroke-width="1.5" stroke-linecap="round"/>
<path d="M55.4808 47.9902C55.9934 47.4777 55.9934 46.6466 55.4808 46.1341C54.9682 45.6216 54.1373 45.6216 53.6248 46.1341L55.4808 47.9902ZM53.6248 46.1341L45.7498 54.0091L47.6058 55.8652L55.4808 47.9902L53.6248 46.1341Z" fill="#EF4444"/>
<defs>
<clipPath id="clip0_1869_29870">
<rect width="28" height="28" fill="white" transform="translate(44 16)"/>
</clipPath>
<clipPath id="clip1_1869_29870">
<rect width="28" height="28" fill="white" transform="translate(16 16)"/>
</clipPath>
</defs>
</svg>
