<svg width="88" height="88" viewBox="0 0 88 88" fill="none" xmlns="http://www.w3.org/2000/svg">
<circle cx="44" cy="44" r="44" fill="#FFECCD"/>
<g clip-path="url(#clip0_1869_30083)">
<path d="M54.9375 69C47.1833 69 40.875 62.6917 40.875 54.9375C40.875 47.1833 47.1833 40.875 54.9375 40.875C62.6917 40.875 69 47.1833 69 54.9375C69 62.6917 62.6917 69 54.9375 69Z" fill="#2196F3"/>
<path d="M54.9368 62.75C54.3843 62.75 53.8544 62.5305 53.4637 62.1398C53.073 61.7491 52.8535 61.2192 52.8535 60.6667V49.2083C52.8535 48.6558 53.073 48.1259 53.4637 47.7352C53.8544 47.3445 54.3843 47.125 54.9368 47.125C55.4894 47.125 56.0193 47.3445 56.41 47.7352C56.8007 48.1259 57.0202 48.6558 57.0202 49.2083V60.6667C57.0202 61.2192 56.8007 61.7491 56.41 62.1398C56.0193 62.5305 55.4894 62.75 54.9368 62.75Z" fill="white"/>
<path d="M60.6667 57.0209H49.2083C48.6558 57.0209 48.1259 56.8014 47.7352 56.4107C47.3445 56.02 47.125 55.4901 47.125 54.9375C47.125 54.385 47.3445 53.8551 47.7352 53.4644C48.1259 53.0737 48.6558 52.8542 49.2083 52.8542H60.6667C61.2192 52.8542 61.7491 53.0737 62.1398 53.4644C62.5305 53.8551 62.75 54.385 62.75 54.9375C62.75 55.4901 62.5305 56.02 62.1398 56.4107C61.7491 56.8014 61.2192 57.0209 60.6667 57.0209Z" fill="white"/>
<path d="M68.9583 26.625V26.7083C68.9583 28.7291 68.1667 30.6666 66.7292 32.1041L62.6875 36.2291L51.75 25.3541L55.75 21.2708C57.1875 19.8125 59.125 18.9791 61.1875 18.9583C63.2292 19.0208 65.1875 19.75 66.6667 21.2083C68.125 22.6458 68.9583 24.5625 68.9583 26.625Z" fill="#F44336"/>
<path d="M29.7283 58.1458L24.3324 52.75C24.2074 52.8958 24.1033 53.0417 24.0408 53.2292L19.0824 66.8958C18.8949 67.4792 19.0199 68.1042 19.4574 68.5417C19.6715 68.7483 19.938 68.8925 20.2281 68.9586C20.5182 69.0247 20.8208 69.0102 21.1033 68.9167L34.7699 63.9583C34.9574 63.8958 35.1033 63.7917 35.2491 63.6667L29.7283 58.1458Z" fill="#FFE082"/>
<path d="M36.7077 54.9375C36.7077 57.1042 37.0827 59.1875 37.791 61.125L35.2493 63.6667L29.7285 58.1458L37.2493 50.5417C36.8952 51.9375 36.7077 53.4167 36.7077 54.9375ZM62.6868 36.2292L61.1243 37.7917C59.1868 37.0834 57.1035 36.7084 54.9368 36.7084C53.3743 36.7084 51.8535 36.9167 50.3952 37.2917L57.0202 30.6042L62.666 36.2084L62.6868 36.2292Z" fill="#FFB300"/>
<path d="M57.0215 30.6042L50.3965 37.2917C47.2166 38.1147 44.3174 39.7796 42.004 42.1114C39.6905 44.4431 38.0485 47.3554 37.2506 50.5417L29.7298 58.1458L24.334 52.75L24.5007 52.5833L50.6048 26.5L51.7506 25.3542L57.0215 30.6042Z" fill="#FFC107"/>
<path d="M54.9375 40.875C51.2089 40.8783 47.634 42.361 44.9975 44.9975C42.361 47.634 40.8783 51.2089 40.875 54.9375C40.8783 58.6661 42.361 62.241 44.9975 64.8775C47.634 67.514 51.2089 68.9967 54.9375 69V62.75C54.385 62.75 53.8551 62.5305 53.4644 62.1398C53.0737 61.7491 52.8542 61.2192 52.8542 60.6667V57.0208H49.2083C48.6558 57.0208 48.1259 56.8013 47.7352 56.4106C47.3445 56.0199 47.125 55.49 47.125 54.9375C47.125 54.385 47.3445 53.8551 47.7352 53.4644C48.1259 53.0737 48.6558 52.8542 49.2083 52.8542H52.8542V49.2083C52.8542 48.6558 53.0737 48.1259 53.4644 47.7352C53.8551 47.3445 54.385 47.125 54.9375 47.125V40.875Z" fill="#1D83D4"/>
<path d="M54.9375 57.0208H52.8542V60.6667C52.8542 61.2192 53.0737 61.7491 53.4644 62.1398C53.8551 62.5305 54.385 62.75 54.9375 62.75V57.0208ZM54.9375 47.125C54.385 47.125 53.8551 47.3445 53.4644 47.7352C53.0737 48.1259 52.8542 48.6558 52.8542 49.2083V52.8542H54.9375V47.125ZM54.9375 52.8542H49.2083C48.6558 52.8542 48.1259 53.0737 47.7352 53.4644C47.3445 53.8551 47.125 54.385 47.125 54.9375C47.125 55.49 47.3445 56.0199 47.7352 56.4106C48.1259 56.8013 48.6558 57.0208 49.2083 57.0208H54.9375V52.8542Z" fill="#DEDEDE"/>
<path d="M62.6881 36.2292L61.1256 37.7917C59.1881 37.0834 57.1048 36.7084 54.9382 36.7084C53.3757 36.7084 51.8548 36.9167 50.3965 37.2917L57.0215 30.6042L62.6673 36.2084L62.6881 36.2292Z" fill="#FFB300"/>
<path d="M66.7296 21.2708L57.2129 30.7875L62.6879 36.2291L66.7296 32.1062C68.1671 30.6687 68.9587 28.7312 68.9587 26.7104V26.625C68.9587 24.5916 68.1504 22.7021 66.7296 21.2708Z" fill="#D43A2F"/>
<path d="M29.7923 58.2083L19.459 68.5416C19.7507 68.8333 20.1465 69 20.5632 69L21.1048 68.9166L34.7715 63.9583C34.959 63.8958 35.1048 63.7916 35.2506 63.6666L29.7923 58.2083Z" fill="#DEC371"/>
<path d="M37.1806 50.8187L29.791 58.2083L35.2494 63.6666L37.791 61.1229C37.0827 59.1854 36.7077 57.1021 36.7077 54.9354C36.7077 53.5166 36.8702 52.1312 37.1806 50.8187Z" fill="#DE9C00"/>
</g>
<defs>
<clipPath id="clip0_1869_30083">
<rect width="50" height="50" fill="white" transform="translate(19 19)"/>
</clipPath>
</defs>
</svg>
