<svg width="88" height="88" viewBox="0 0 88 88" fill="none" xmlns="http://www.w3.org/2000/svg">
<circle cx="44" cy="44" r="44" fill="#FFE8E8"/>
<path d="M56.75 60.9688V55.1562L43.0625 54.2188L44 65.789C50.3494 63.7275 56.75 60.9688 56.75 60.9688Z" fill="#FF9429"/>
<path d="M31.25 65.1875C31.25 66.7408 32.5092 68 34.0625 68C36.4442 68 40.213 67.0185 44 65.789V54.2188L31.25 55.1562V65.1875Z" fill="#FFD608"/>
<path d="M56.75 22.8125C56.75 21.2592 55.4908 20 53.9375 20H41.1875L43.0625 33.5938L56.75 32.6562V22.8125Z" fill="#FF9429"/>
<path d="M41.1875 20H28.4375L31.25 27.0312V32.6562L44 33.5938V22.8125C44 21.2592 42.7408 20 41.1875 20Z" fill="#FFD608"/>
<path d="M28.4375 20C26.8842 20 25.625 21.2592 25.625 22.8125V27.0312H31.25V22.8125C31.25 21.2592 29.9908 20 28.4375 20Z" fill="#FF9429"/>
<path d="M63.7812 32.6562H44L43.0625 43.9062L44 55.1562H63.7812V32.6562Z" fill="#3377FF"/>
<path d="M24.2188 32.6562H44V55.1562H24.2188V32.6562Z" fill="#6699FF"/>
<path d="M60.9688 35.4688H44L43.0625 43.9062L44 52.3438H60.9688V35.4688Z" fill="#295FCC"/>
<path d="M27.0312 35.4688H44V52.3438H27.0312V35.4688Z" fill="#3377FF"/>
<path d="M29.8438 39.6875H36.9688V42.5H29.8438V39.6875ZM29.8438 45.3125H36.9688V48.125H29.8438V45.3125Z" fill="#FFF5F5"/>
<path d="M51.0312 39.6875H58.1562V42.5H51.0312V39.6875ZM51.0312 45.3125H58.1562V48.125H51.0312V45.3125ZM44 38.2812L43.0625 43.9062L44 49.5312H45.4062V41.0938H48.2188V38.2812H44Z" fill="#E6ECF2"/>
<path d="M39.7812 38.2812V41.0938H42.5938V49.5312H44V38.2812H39.7812Z" fill="#FFF5F5"/>
<path d="M56.75 60.9688H49.625L46.8125 68H59.5625C61.1158 68 62.375 66.7408 62.375 65.1875V60.9688H56.75Z" fill="#FFB163"/>
<path d="M49.625 65.1875V60.9688H36.875V65.1875C36.875 66.7408 35.6158 68 34.0625 68H46.8125C48.3658 68 49.625 66.7408 49.625 65.1875Z" fill="#FDE572"/>
</svg>
