<svg width="88" height="88" viewBox="0 0 88 88" fill="none" xmlns="http://www.w3.org/2000/svg">
<circle cx="44" cy="44" r="44" fill="#C6FFF1"/>
<path d="M21.25 33.6562C20.5325 33.6562 19.9375 33.0754 19.9375 32.375V25.5417C19.9375 22.945 22.09 20.8438 24.75 20.8438H31.75C32.4675 20.8438 33.0625 21.4246 33.0625 22.125C33.0625 22.8254 32.4675 23.4062 31.75 23.4062H24.75C23.5425 23.4062 22.5625 24.3629 22.5625 25.5417V32.375C22.5625 33.0754 21.9675 33.6562 21.25 33.6562ZM66.75 33.6562C66.0325 33.6562 65.4375 33.0754 65.4375 32.375V25.5417C65.4375 24.3629 64.4575 23.4062 63.25 23.4062H56.25C55.5325 23.4062 54.9375 22.8254 54.9375 22.125C54.9375 21.4246 55.5325 20.8438 56.25 20.8438H63.25C65.91 20.8438 68.0625 22.945 68.0625 25.5417V32.375C68.0625 33.0754 67.4675 33.6562 66.75 33.6562ZM63.25 67.8229H56.25C55.5325 67.8229 54.9375 67.2421 54.9375 66.5417C54.9375 65.8412 55.5325 65.2604 56.25 65.2604H63.25C64.4575 65.2604 65.4375 64.3037 65.4375 63.125V56.2917C65.4375 55.5912 66.0325 55.0104 66.75 55.0104C67.4675 55.0104 68.0625 55.5912 68.0625 56.2917V63.125C68.0625 65.7217 65.91 67.8229 63.25 67.8229ZM31.75 67.8229H24.75C22.09 67.8229 19.9375 65.7217 19.9375 63.125V56.2917C19.9375 55.5912 20.5325 55.0104 21.25 55.0104C21.9675 55.0104 22.5625 55.5912 22.5625 56.2917V63.125C22.5625 64.3037 23.5425 65.2604 24.75 65.2604H31.75C32.4675 65.2604 33.0625 65.8412 33.0625 66.5417C33.0625 67.2421 32.4675 67.8229 31.75 67.8229Z" fill="#0B4F6C"/>
<path d="M56.25 35.7917V56.2917C56.25 58.1709 54.675 59.7084 52.75 59.7084H35.25C33.325 59.7084 31.75 58.1709 31.75 56.2917V32.375C31.75 30.4959 33.325 28.9584 35.25 28.9584H49.25L56.25 35.7917Z" fill="#EF4444"/>
<path d="M49.25 28.9584V34.0834C49.25 35.023 50.0375 35.7917 51 35.7917H56.25L49.25 28.9584Z" fill="#FFBABA"/>
<path d="M63.25 45.6146H24.75C24.0325 45.6146 23.4375 45.0338 23.4375 44.3334C23.4375 43.633 24.0325 43.0521 24.75 43.0521H63.25C63.9675 43.0521 64.5625 43.633 64.5625 44.3334C64.5625 45.0338 63.9675 45.6146 63.25 45.6146Z" fill="#7DAEF3"/>
</svg>
