<svg width="88" height="88" viewBox="0 0 88 88" fill="none" xmlns="http://www.w3.org/2000/svg">
<circle cx="44" cy="44" r="44" fill="#DDEFFF"/>
<g clip-path="url(#clip0_1869_29820)">
<path d="M41.4529 46.2704H41.4359V46.7704C41.4359 47.0607 41.3201 47.3421 41.1064 47.5558C40.8927 47.7695 40.6112 47.8854 40.3209 47.8854H17.6599C17.3612 47.8854 17.0715 47.7641 16.8844 47.566L16.8795 47.5609L16.8745 47.5558C16.6608 47.3421 16.5449 47.0607 16.5449 46.7704L16.5449 17.6154C16.5449 17.3166 16.6662 17.0269 16.8642 16.8399L16.8746 16.8301L16.8844 16.8197C17.0715 16.6216 17.3612 16.5004 17.6599 16.5004H31.5659C31.8618 16.5004 32.1586 16.6201 32.3684 16.8299L41.1234 25.5849C41.3351 25.7966 41.4529 26.0773 41.4529 26.3874V46.2704Z" fill="white" stroke="#FF6D6D"/>
<path d="M41.9359 46.7704V48.3854C41.9359 48.8104 41.7659 49.2354 41.4599 49.5244C41.1539 49.8304 40.7459 50.0004 40.3209 50.0004H17.6599C16.7589 50.0004 16.0449 49.2694 16.0449 48.3854V46.7704C16.0449 47.1954 16.2149 47.6034 16.5209 47.9094C16.8269 48.2154 17.2349 48.3854 17.6599 48.3854H40.3209C41.2219 48.3854 41.9359 47.6544 41.9359 46.7704Z" fill="#D0D7E3"/>
<path d="M12.7969 33.8164H45.1819V41.9084C45.1819 42.8094 44.4509 43.5234 43.5669 43.5234H14.4289C14.0039 43.5234 13.5789 43.3534 13.2899 43.0474C12.9839 42.7414 12.8139 42.3334 12.8139 41.8914V33.8164H12.7969Z" fill="#EF4444"/>
<path d="M16.0439 33.8163V30.5693L12.7969 33.8163H16.0439ZM41.9349 33.8163L41.9689 30.5693L45.1989 33.8163H41.9349Z" fill="#D50B0B"/>
<path d="M41.9364 26.3875V26.6085H33.1814C32.2804 26.6085 31.5664 25.8775 31.5664 24.9935V16.0005C31.9914 16.0005 32.4164 16.1705 32.7224 16.4765L41.4944 25.2315C41.7834 25.5375 41.9534 25.9455 41.9364 26.3875Z" fill="#FF6D6D"/>
<path d="M19.9919 42.869V35.4571H23.1213C23.1934 35.4571 23.2895 35.4605 23.4096 35.4674C23.5331 35.4708 23.6429 35.4811 23.739 35.4983C24.1817 35.5669 24.5437 35.7127 24.8251 35.9358C25.1099 36.1588 25.3192 36.4402 25.453 36.7799C25.5868 37.1162 25.6538 37.4919 25.6538 37.9071C25.6538 38.3223 25.5851 38.6998 25.4479 39.0395C25.314 39.3758 25.1047 39.6555 24.8199 39.8785C24.5385 40.1015 24.1782 40.2474 23.739 40.316C23.6429 40.3297 23.5331 40.34 23.4096 40.3469C23.2861 40.3538 23.19 40.3572 23.1213 40.3572H21.3919V42.869H19.9919ZM21.3919 39.0498H23.0596C23.1316 39.0498 23.2106 39.0464 23.2963 39.0395C23.3821 39.0327 23.4611 39.0189 23.5331 38.9983C23.7218 38.9469 23.8677 38.8611 23.9706 38.741C24.0736 38.6174 24.1439 38.4819 24.1817 38.3344C24.2228 38.1834 24.2434 38.041 24.2434 37.9071C24.2434 37.7733 24.2228 37.6326 24.1817 37.4851C24.1439 37.3341 24.0736 37.1985 23.9706 37.0784C23.8677 36.9549 23.7218 36.8674 23.5331 36.8159C23.4611 36.7953 23.3821 36.7816 23.2963 36.7748C23.2106 36.7679 23.1316 36.7645 23.0596 36.7645H21.3919V39.0498ZM26.6872 42.869V35.4571H29.0858C29.1441 35.4571 29.2642 35.4588 29.4461 35.4622C29.628 35.4657 29.803 35.4777 29.9711 35.4983C30.5682 35.5703 31.0743 35.7779 31.4895 36.1211C31.9047 36.4642 32.2204 36.9 32.4366 37.4284C32.6528 37.9569 32.7609 38.5351 32.7609 39.163C32.7609 39.791 32.6528 40.3692 32.4366 40.8976C32.2204 41.4261 31.9047 41.8619 31.4895 42.205C31.0743 42.5482 30.5682 42.7558 29.9711 42.8278C29.803 42.8484 29.628 42.8604 29.4461 42.8639C29.2642 42.8673 29.1441 42.869 29.0858 42.869H26.6872ZM28.1078 41.5513H29.0858C29.1785 41.5513 29.3037 41.5496 29.4615 41.5462C29.6194 41.5393 29.7618 41.5239 29.8888 41.4999C30.2113 41.4347 30.4738 41.2837 30.6763 41.0469C30.8822 40.8101 31.0332 40.5253 31.1292 40.1925C31.2287 39.8596 31.2785 39.5165 31.2785 39.163C31.2785 38.7924 31.227 38.4407 31.1241 38.1079C31.0246 37.775 30.8719 37.4936 30.666 37.2637C30.4601 37.0338 30.201 36.888 29.8888 36.8262C29.7618 36.7988 29.6194 36.7833 29.4615 36.7799C29.3037 36.7765 29.1785 36.7748 29.0858 36.7748H28.1078V41.5513ZM33.9958 42.869V35.4571H38.5253V36.8571H35.3958V38.463H37.9077V39.8631H35.3958V42.869H33.9958Z" fill="white"/>
<path d="M18.8906 27.4863H39.1068" stroke="#D3D3D3" stroke-linecap="round"/>
<path d="M18.8906 29.5542H39.1068" stroke="#D3D3D3" stroke-linecap="round"/>
<path d="M18.8906 31.8522H39.1068" stroke="#D3D3D3" stroke-linecap="round"/>
</g>
<g clip-path="url(#clip1_1869_29820)">
<path d="M71.3973 68.7557H71.3804V69.2898C71.3804 69.5709 71.2682 69.8437 71.0608 70.0511C70.8534 70.2585 70.5806 70.3707 70.2994 70.3707H47.6384C47.3483 70.3707 47.0678 70.2528 46.8877 70.0621L46.8825 70.0565L46.8771 70.0511C46.6697 69.8437 46.5575 69.5709 46.5575 69.2898V40.1348C46.5575 39.8447 46.6754 39.5642 46.8662 39.3841L46.8773 39.3736L46.8877 39.3625C47.0678 39.1718 47.3483 39.0539 47.6384 39.0539H61.5444C61.8315 39.0539 62.1195 39.1702 62.3228 39.3734L71.0778 48.1284C71.2831 48.3337 71.3973 48.6057 71.3973 48.9068V68.7557Z" fill="white" stroke="#878DB6" stroke-width="1.06818"/>
<path d="M71.9144 69.2898V70.9048C71.9144 71.3298 71.7444 71.7548 71.4384 72.0438C71.1324 72.3498 70.7244 72.5198 70.2994 72.5198H47.6384C46.7374 72.5198 46.0234 71.7888 46.0234 70.9048V69.2898C46.0234 69.7148 46.1934 70.1228 46.4994 70.4288C46.8054 70.7348 47.2134 70.9048 47.6384 70.9048H70.2994C71.2004 70.9048 71.9144 70.1738 71.9144 69.2898Z" fill="#D0D7E3"/>
<path d="M42.7754 56.3357H75.1604V64.4277C75.1604 65.3287 74.4294 66.0427 73.5454 66.0427H44.4074C43.9824 66.0427 43.5574 65.8727 43.2684 65.5667C42.9624 65.2607 42.7924 64.8527 42.7924 64.4107V56.3357H42.7754Z" fill="#7076A3"/>
<path d="M46.0224 56.3356V53.0886L42.7754 56.3356H46.0224ZM71.9134 56.3356L71.9474 53.0886L75.1774 56.3356H71.9134Z" fill="#5E648A"/>
<path d="M71.9149 48.9068V49.1278H63.1599C62.2589 49.1278 61.5449 48.3968 61.5449 47.5128V38.5198C61.9699 38.5198 62.3949 38.6898 62.7009 38.9958L71.4729 47.7508C71.7619 48.0568 71.9319 48.4648 71.9149 48.9068Z" fill="#878DB6"/>
<path d="M51.6444 64.4561V58.5261H49.3744V57.2561H55.2744V58.5261H53.0044V64.4561H51.6444ZM55.4779 64.4561L57.8979 60.8161L55.5479 57.2561H57.2179L58.7479 59.6561L60.2579 57.2561H61.9379L59.5879 60.8161L61.9979 64.4561H60.3279L58.7479 61.9761L57.1579 64.4561H55.4779ZM64.8671 64.4561V58.5261H62.5971V57.2561H68.4971V58.5261H66.2271V64.4561H64.8671Z" fill="white"/>
<path d="M48.8691 50.0056H69.0854" stroke="#D3D3D3" stroke-width="0.534091" stroke-linecap="round"/>
<path d="M48.8691 52.0735H69.0854" stroke="#D3D3D3" stroke-width="0.534091" stroke-linecap="round"/>
<path d="M48.8691 54.3713H69.0854" stroke="#D3D3D3" stroke-width="0.534091" stroke-linecap="round"/>
</g>
<path d="M53.4885 32.5901L51.3879 33.0159L55.2831 35.5986L57.8649 31.7026L55.7805 32.1247C55.6085 29.7171 52.3836 26.834 50.2155 25.9467C47.9353 25.0136 45.6091 25.081 44.2472 27.1712C45.3398 26.181 47.351 26.7752 49.0085 27.2674C49.4822 27.4081 49.9451 27.5933 50.3437 27.8852C51.8211 28.9669 53.3074 30.8133 53.4885 32.5901Z" fill="#0F67B1"/>
<defs>
<clipPath id="clip0_1869_29820">
<rect width="34" height="34" fill="white" transform="translate(12 16)"/>
</clipPath>
<clipPath id="clip1_1869_29820">
<rect width="34" height="34" fill="white" transform="translate(41.9785 38.5193)"/>
</clipPath>
</defs>
</svg>
