<svg width="88" height="88" viewBox="0 0 88 88" fill="none" xmlns="http://www.w3.org/2000/svg">
<circle cx="44" cy="44" r="44" fill="#DDEFFF"/>
<g clip-path="url(#clip0_1869_29795)">
<path d="M41.4529 46.2704H41.4359V46.7704C41.4359 47.0607 41.3201 47.3421 41.1064 47.5558C40.8927 47.7695 40.6112 47.8854 40.3209 47.8854H17.6599C17.3612 47.8854 17.0715 47.7641 16.8844 47.566L16.8795 47.5609L16.8745 47.5558C16.6608 47.3421 16.5449 47.0607 16.5449 46.7704L16.5449 17.6154C16.5449 17.3166 16.6662 17.0269 16.8642 16.8399L16.8746 16.8301L16.8844 16.8197C17.0715 16.6216 17.3612 16.5004 17.6599 16.5004H31.5659C31.8618 16.5004 32.1586 16.6201 32.3684 16.8299L41.1234 25.5849C41.3351 25.7966 41.4529 26.0773 41.4529 26.3874V46.2704Z" fill="white" stroke="#FF6D6D"/>
<path d="M41.9359 46.7704V48.3854C41.9359 48.8104 41.7659 49.2354 41.4599 49.5244C41.1539 49.8304 40.7459 50.0004 40.3209 50.0004H17.6599C16.7589 50.0004 16.0449 49.2694 16.0449 48.3854V46.7704C16.0449 47.1954 16.2149 47.6034 16.5209 47.9094C16.8269 48.2154 17.2349 48.3854 17.6599 48.3854H40.3209C41.2219 48.3854 41.9359 47.6544 41.9359 46.7704Z" fill="#D0D7E3"/>
<path d="M12.7969 33.8164H45.1819V41.9084C45.1819 42.8094 44.4509 43.5234 43.5669 43.5234H14.4289C14.0039 43.5234 13.5789 43.3534 13.2899 43.0474C12.9839 42.7414 12.8139 42.3334 12.8139 41.8914V33.8164H12.7969Z" fill="#EF4444"/>
<path d="M16.0439 33.8163V30.5693L12.7969 33.8163H16.0439ZM41.9349 33.8163L41.9689 30.5693L45.1989 33.8163H41.9349Z" fill="#D50B0B"/>
<path d="M41.9364 26.3875V26.6085H33.1814C32.2804 26.6085 31.5664 25.8775 31.5664 24.9935V16.0005C31.9914 16.0005 32.4164 16.1705 32.7224 16.4765L41.4944 25.2315C41.7834 25.5375 41.9534 25.9455 41.9364 26.3875Z" fill="#FF6D6D"/>
<path d="M19.9919 42.869V35.4571H23.1213C23.1934 35.4571 23.2895 35.4605 23.4096 35.4674C23.5331 35.4708 23.6429 35.4811 23.739 35.4983C24.1817 35.5669 24.5437 35.7127 24.8251 35.9358C25.1099 36.1588 25.3192 36.4402 25.453 36.7799C25.5868 37.1162 25.6538 37.4919 25.6538 37.9071C25.6538 38.3223 25.5851 38.6998 25.4479 39.0395C25.314 39.3758 25.1047 39.6555 24.8199 39.8785C24.5385 40.1015 24.1782 40.2474 23.739 40.316C23.6429 40.3297 23.5331 40.34 23.4096 40.3469C23.2861 40.3538 23.19 40.3572 23.1213 40.3572H21.3919V42.869H19.9919ZM21.3919 39.0498H23.0596C23.1316 39.0498 23.2106 39.0464 23.2963 39.0395C23.3821 39.0327 23.4611 39.0189 23.5331 38.9983C23.7218 38.9469 23.8677 38.8611 23.9706 38.741C24.0736 38.6174 24.1439 38.4819 24.1817 38.3344C24.2228 38.1834 24.2434 38.041 24.2434 37.9071C24.2434 37.7733 24.2228 37.6326 24.1817 37.4851C24.1439 37.3341 24.0736 37.1985 23.9706 37.0784C23.8677 36.9549 23.7218 36.8674 23.5331 36.8159C23.4611 36.7953 23.3821 36.7816 23.2963 36.7748C23.2106 36.7679 23.1316 36.7645 23.0596 36.7645H21.3919V39.0498ZM26.6872 42.869V35.4571H29.0858C29.1441 35.4571 29.2642 35.4588 29.4461 35.4622C29.628 35.4657 29.803 35.4777 29.9711 35.4983C30.5682 35.5703 31.0743 35.7779 31.4895 36.1211C31.9047 36.4642 32.2204 36.9 32.4366 37.4284C32.6528 37.9569 32.7609 38.5351 32.7609 39.163C32.7609 39.791 32.6528 40.3692 32.4366 40.8976C32.2204 41.4261 31.9047 41.8619 31.4895 42.205C31.0743 42.5482 30.5682 42.7558 29.9711 42.8278C29.803 42.8484 29.628 42.8604 29.4461 42.8639C29.2642 42.8673 29.1441 42.869 29.0858 42.869H26.6872ZM28.1078 41.5513H29.0858C29.1785 41.5513 29.3037 41.5496 29.4615 41.5462C29.6194 41.5393 29.7618 41.5239 29.8888 41.4999C30.2113 41.4347 30.4738 41.2837 30.6763 41.0469C30.8822 40.8101 31.0332 40.5253 31.1292 40.1925C31.2287 39.8596 31.2785 39.5165 31.2785 39.163C31.2785 38.7924 31.227 38.4407 31.1241 38.1079C31.0246 37.775 30.8719 37.4936 30.666 37.2637C30.4601 37.0338 30.201 36.888 29.8888 36.8262C29.7618 36.7988 29.6194 36.7833 29.4615 36.7799C29.3037 36.7765 29.1785 36.7748 29.0858 36.7748H28.1078V41.5513ZM33.9958 42.869V35.4571H38.5253V36.8571H35.3958V38.463H37.9077V39.8631H35.3958V42.869H33.9958Z" fill="white"/>
<path d="M18.8906 27.4863H39.1068" stroke="#D3D3D3" stroke-linecap="round"/>
<path d="M18.8906 29.5542H39.1068" stroke="#D3D3D3" stroke-linecap="round"/>
<path d="M18.8906 31.8522H39.1068" stroke="#D3D3D3" stroke-linecap="round"/>
</g>
<g clip-path="url(#clip1_1869_29795)">
<path d="M71.4529 68.2699H71.4359V68.7699C71.4359 69.0602 71.3201 69.3416 71.1064 69.5553C70.8927 69.769 70.6112 69.8849 70.3209 69.8849H47.6599C47.3612 69.8849 47.0715 69.7636 46.8844 69.5655L46.8795 69.5604L46.8745 69.5553C46.6608 69.3416 46.5449 69.0602 46.5449 68.7699V39.6149C46.5449 39.3162 46.6662 39.0264 46.8642 38.8394L46.8746 38.8296L46.8844 38.8192C47.0715 38.6211 47.3612 38.4999 47.6599 38.4999H61.5659C61.8618 38.4999 62.1586 38.6196 62.3684 38.8294L71.1234 47.5844C71.3351 47.7961 71.4529 48.0768 71.4529 48.3869V68.2699Z" fill="white" stroke="#FF6B42"/>
<path d="M71.934 68.7704V70.3854C71.934 70.8104 71.764 71.2354 71.458 71.5244C71.152 71.8304 70.744 72.0004 70.319 72.0004H47.658C46.757 72.0004 46.043 71.2694 46.043 70.3854V68.7704C46.043 69.1954 46.213 69.6034 46.519 69.9094C46.825 70.2154 47.233 70.3854 47.658 70.3854H70.319C71.22 70.3854 71.934 69.6544 71.934 68.7704Z" fill="#D0D7E3"/>
<path d="M42.7969 55.8167H75.1819V63.9086C75.1819 64.8096 74.4509 65.5236 73.5669 65.5236H44.4289C44.0039 65.5236 43.5789 65.3536 43.2899 65.0476C42.9839 64.7416 42.8139 64.3336 42.8139 63.8916V55.8167H42.7969Z" fill="#FF6B42"/>
<path d="M46.0458 55.8156V52.5686L42.7988 55.8156H46.0458ZM71.9368 55.8156L71.9708 52.5686L75.2008 55.8156H71.9368Z" fill="#FF420D"/>
<path d="M71.9345 48.3877V48.6087H63.1795C62.2785 48.6087 61.5645 47.8777 61.5645 46.9937V38.0007C61.9895 38.0007 62.4145 38.1707 62.7205 38.4767L71.4925 47.2317C71.7815 47.5377 71.9515 47.9457 71.9345 48.3877Z" fill="#FF6B42"/>
<path d="M49.8201 64.0811V56.8811H52.8601C52.9301 56.8811 53.0235 56.8844 53.1401 56.8911C53.2601 56.8944 53.3668 56.9044 53.4601 56.9211C53.8901 56.9877 54.2418 57.1294 54.5151 57.3461C54.7918 57.5627 54.9951 57.8361 55.1251 58.1661C55.2551 58.4927 55.3201 58.8577 55.3201 59.2611C55.3201 59.6644 55.2535 60.0311 55.1201 60.3611C54.9901 60.6877 54.7868 60.9594 54.5101 61.1761C54.2368 61.3927 53.8868 61.5344 53.4601 61.6011C53.3668 61.6144 53.2601 61.6244 53.1401 61.6311C53.0201 61.6377 52.9268 61.6411 52.8601 61.6411H51.1801V64.0811H49.8201ZM51.1801 60.3711H52.8001C52.8701 60.3711 52.9468 60.3677 53.0301 60.3611C53.1135 60.3544 53.1901 60.3411 53.2601 60.3211C53.4435 60.2711 53.5851 60.1877 53.6851 60.0711C53.7851 59.9511 53.8535 59.8194 53.8901 59.6761C53.9301 59.5294 53.9501 59.3911 53.9501 59.2611C53.9501 59.1311 53.9301 58.9944 53.8901 58.8511C53.8535 58.7044 53.7851 58.5727 53.6851 58.4561C53.5851 58.3361 53.4435 58.2511 53.2601 58.2011C53.1901 58.1811 53.1135 58.1677 53.0301 58.1611C52.9468 58.1544 52.8701 58.1511 52.8001 58.1511H51.1801V60.3711ZM56.324 64.0811V56.8811H59.364C59.434 56.8811 59.5274 56.8844 59.644 56.8911C59.764 56.8944 59.8707 56.9044 59.964 56.9211C60.394 56.9877 60.7457 57.1294 61.019 57.3461C61.2957 57.5627 61.499 57.8361 61.629 58.1661C61.759 58.4927 61.824 58.8577 61.824 59.2611C61.824 59.6644 61.7574 60.0311 61.624 60.3611C61.494 60.6877 61.2907 60.9594 61.014 61.1761C60.7407 61.3927 60.3907 61.5344 59.964 61.6011C59.8707 61.6144 59.764 61.6244 59.644 61.6311C59.524 61.6377 59.4307 61.6411 59.364 61.6411H57.684V64.0811H56.324ZM57.684 60.3711H59.304C59.374 60.3711 59.4507 60.3677 59.534 60.3611C59.6174 60.3544 59.694 60.3411 59.764 60.3211C59.9474 60.2711 60.089 60.1877 60.189 60.0711C60.289 59.9511 60.3574 59.8194 60.394 59.6761C60.434 59.5294 60.454 59.3911 60.454 59.2611C60.454 59.1311 60.434 58.9944 60.394 58.8511C60.3574 58.7044 60.289 58.5727 60.189 58.4561C60.089 58.3361 59.9474 58.2511 59.764 58.2011C59.694 58.1811 59.6174 58.1677 59.534 58.1611C59.4507 58.1544 59.374 58.1511 59.304 58.1511H57.684V60.3711ZM64.4979 64.0811V58.1511H62.2279V56.8811H68.1279V58.1511H65.8579V64.0811H64.4979Z" fill="white"/>
<path d="M48.8926 49.4858H69.1088" stroke="#D3D3D3" stroke-width="0.5" stroke-linecap="round"/>
<path d="M48.8906 51.5538H69.1068" stroke="#D3D3D3" stroke-width="0.5" stroke-linecap="round"/>
<path d="M48.8887 53.8524H69.1049" stroke="#D3D3D3" stroke-width="0.5" stroke-linecap="round"/>
</g>
<path d="M53.4885 32.5901L51.3879 33.0159L55.2831 35.5986L57.8649 31.7026L55.7805 32.1247C55.6085 29.7171 52.3836 26.834 50.2155 25.9467C47.9353 25.0136 45.6091 25.081 44.2472 27.1712C45.3398 26.181 47.351 26.7752 49.0085 27.2674C49.4822 27.4081 49.9451 27.5933 50.3437 27.8852C51.8211 28.9669 53.3074 30.8133 53.4885 32.5901Z" fill="#0F67B1"/>
<defs>
<clipPath id="clip0_1869_29795">
<rect width="34" height="34" fill="white" transform="translate(12 16)"/>
</clipPath>
<clipPath id="clip1_1869_29795">
<rect width="34" height="34" fill="white" transform="translate(42 38)"/>
</clipPath>
</defs>
</svg>
