<svg width="88" height="88" viewBox="0 0 88 88" fill="none" xmlns="http://www.w3.org/2000/svg">
<circle cx="44" cy="44" r="44" fill="#DDEFFF"/>
<g clip-path="url(#clip0_1869_29716)">
<path d="M41.4529 46.2704H41.4359V46.7704C41.4359 47.0607 41.3201 47.3421 41.1064 47.5558C40.8927 47.7695 40.6112 47.8854 40.3209 47.8854H17.6599C17.3612 47.8854 17.0715 47.7641 16.8844 47.566L16.8795 47.5609L16.8745 47.5558C16.6608 47.3421 16.5449 47.0607 16.5449 46.7704L16.5449 17.6154C16.5449 17.3166 16.6662 17.0269 16.8642 16.8399L16.8746 16.8301L16.8844 16.8197C17.0715 16.6216 17.3612 16.5004 17.6599 16.5004H31.5659C31.8618 16.5004 32.1586 16.6201 32.3684 16.8299L41.1234 25.5849C41.3351 25.7966 41.4529 26.0773 41.4529 26.3874V46.2704Z" fill="white" stroke="#FF6D6D"/>
<path d="M41.9359 46.7704V48.3854C41.9359 48.8104 41.7659 49.2354 41.4599 49.5244C41.1539 49.8304 40.7459 50.0004 40.3209 50.0004H17.6599C16.7589 50.0004 16.0449 49.2694 16.0449 48.3854V46.7704C16.0449 47.1954 16.2149 47.6034 16.5209 47.9094C16.8269 48.2154 17.2349 48.3854 17.6599 48.3854H40.3209C41.2219 48.3854 41.9359 47.6544 41.9359 46.7704Z" fill="#D0D7E3"/>
<path d="M12.7969 33.8164H45.1819V41.9084C45.1819 42.8094 44.4509 43.5234 43.5669 43.5234H14.4289C14.0039 43.5234 13.5789 43.3534 13.2899 43.0474C12.9839 42.7414 12.8139 42.3334 12.8139 41.8914V33.8164H12.7969Z" fill="#EF4444"/>
<path d="M16.0439 33.8163V30.5693L12.7969 33.8163H16.0439ZM41.9349 33.8163L41.9689 30.5693L45.1989 33.8163H41.9349Z" fill="#D50B0B"/>
<path d="M41.9364 26.3875V26.6085H33.1814C32.2804 26.6085 31.5664 25.8775 31.5664 24.9935V16.0005C31.9914 16.0005 32.4164 16.1705 32.7224 16.4765L41.4944 25.2315C41.7834 25.5375 41.9534 25.9455 41.9364 26.3875Z" fill="#FF6D6D"/>
<path d="M19.9919 42.869V35.4571H23.1213C23.1934 35.4571 23.2895 35.4605 23.4096 35.4674C23.5331 35.4708 23.6429 35.4811 23.739 35.4983C24.1817 35.5669 24.5437 35.7127 24.8251 35.9358C25.1099 36.1588 25.3192 36.4402 25.453 36.7799C25.5868 37.1162 25.6538 37.4919 25.6538 37.9071C25.6538 38.3223 25.5851 38.6998 25.4479 39.0395C25.314 39.3758 25.1047 39.6555 24.8199 39.8785C24.5385 40.1015 24.1782 40.2474 23.739 40.316C23.6429 40.3297 23.5331 40.34 23.4096 40.3469C23.2861 40.3538 23.19 40.3572 23.1213 40.3572H21.3919V42.869H19.9919ZM21.3919 39.0498H23.0596C23.1316 39.0498 23.2106 39.0464 23.2963 39.0395C23.3821 39.0327 23.4611 39.0189 23.5331 38.9983C23.7218 38.9469 23.8677 38.8611 23.9706 38.741C24.0736 38.6174 24.1439 38.4819 24.1817 38.3344C24.2228 38.1834 24.2434 38.041 24.2434 37.9071C24.2434 37.7733 24.2228 37.6326 24.1817 37.4851C24.1439 37.3341 24.0736 37.1985 23.9706 37.0784C23.8677 36.9549 23.7218 36.8674 23.5331 36.8159C23.4611 36.7953 23.3821 36.7816 23.2963 36.7748C23.2106 36.7679 23.1316 36.7645 23.0596 36.7645H21.3919V39.0498ZM26.6872 42.869V35.4571H29.0858C29.1441 35.4571 29.2642 35.4588 29.4461 35.4622C29.628 35.4657 29.803 35.4777 29.9711 35.4983C30.5682 35.5703 31.0743 35.7779 31.4895 36.1211C31.9047 36.4642 32.2204 36.9 32.4366 37.4284C32.6528 37.9569 32.7609 38.5351 32.7609 39.163C32.7609 39.791 32.6528 40.3692 32.4366 40.8976C32.2204 41.4261 31.9047 41.8619 31.4895 42.205C31.0743 42.5482 30.5682 42.7558 29.9711 42.8278C29.803 42.8484 29.628 42.8604 29.4461 42.8639C29.2642 42.8673 29.1441 42.869 29.0858 42.869H26.6872ZM28.1078 41.5513H29.0858C29.1785 41.5513 29.3037 41.5496 29.4615 41.5462C29.6194 41.5393 29.7618 41.5239 29.8888 41.4999C30.2113 41.4347 30.4738 41.2837 30.6763 41.0469C30.8822 40.8101 31.0332 40.5253 31.1292 40.1925C31.2287 39.8596 31.2785 39.5165 31.2785 39.163C31.2785 38.7924 31.227 38.4407 31.1241 38.1079C31.0246 37.775 30.8719 37.4936 30.666 37.2637C30.4601 37.0338 30.201 36.888 29.8888 36.8262C29.7618 36.7988 29.6194 36.7833 29.4615 36.7799C29.3037 36.7765 29.1785 36.7748 29.0858 36.7748H28.1078V41.5513ZM33.9958 42.869V35.4571H38.5253V36.8571H35.3958V38.463H37.9077V39.8631H35.3958V42.869H33.9958Z" fill="white"/>
<path d="M18.8906 27.4863H39.1068" stroke="#D3D3D3" stroke-linecap="round"/>
<path d="M18.8906 29.5542H39.1068" stroke="#D3D3D3" stroke-linecap="round"/>
<path d="M18.8906 31.8522H39.1068" stroke="#D3D3D3" stroke-linecap="round"/>
</g>
<g clip-path="url(#clip1_1869_29716)">
<path d="M70.9725 68.5042H70.9555V69.0042C70.9555 69.2946 70.8396 69.576 70.6259 69.7897C70.4122 70.0034 70.1308 70.1192 69.8405 70.1192H47.1795C46.8807 70.1192 46.591 69.998 46.404 69.7999L46.3991 69.7947L46.394 69.7897C46.1803 69.576 46.0645 69.2946 46.0645 69.0042V39.8493C46.0645 39.5505 46.1857 39.2608 46.3838 39.0738L46.3942 39.064L46.404 39.0536C46.591 38.8555 46.8807 38.7343 47.1795 38.7343H61.0855C61.3813 38.7343 61.6781 38.854 61.8879 39.0638L70.6429 47.8188C70.8546 48.0305 70.9725 48.3111 70.9725 48.6213V68.5042Z" fill="white" stroke="#94ABD3"/>
<path d="M71.4535 69.0038V70.6188C71.4535 71.0438 71.2835 71.4688 70.9775 71.7578C70.6715 72.0638 70.2635 72.2338 69.8385 72.2338H47.1775C46.2765 72.2338 45.5625 71.5028 45.5625 70.6188V69.0038C45.5625 69.4288 45.7325 69.8368 46.0385 70.1428C46.3445 70.4488 46.7525 70.6188 47.1775 70.6188H69.8385C70.7395 70.6188 71.4535 69.8878 71.4535 69.0038Z" fill="#DEE6F4"/>
<path d="M42.3164 56.05H74.7014V64.142C74.7014 65.043 73.9704 65.757 73.0864 65.757H43.9484C43.5234 65.757 43.0984 65.587 42.8094 65.281C42.5034 64.975 42.3334 64.567 42.3334 64.125V56.05H42.3164Z" fill="#003771"/>
<path d="M45.5634 56.0501V52.8031L42.3164 56.0501H45.5634ZM71.4544 56.0501L71.4884 52.8031L74.7184 56.0501H71.4544Z" fill="#00213F"/>
<path d="M71.454 48.6208V48.8418H62.699C61.798 48.8418 61.084 48.1108 61.084 47.2268V38.2338C61.509 38.2338 61.934 38.4038 62.24 38.7098L71.012 47.4648C71.301 47.7708 71.471 48.1788 71.454 48.6208Z" fill="#94ABD3"/>
<path d="M47.9764 63.7847H45.2734V57.5117H48.0444C50.2034 57.5287 51.2914 58.5317 51.3254 60.5207C51.3084 62.6797 50.2034 63.7847 47.9764 63.7847ZM47.3304 58.9737V62.3227H47.7724C48.7584 62.3227 49.2344 61.7617 49.2344 60.6227C49.3024 59.4327 48.8094 58.8887 47.7384 58.9907H47.3304V58.9737ZM55.0994 57.3247C57.1734 57.4097 58.2784 58.5147 58.4144 60.6057C58.3294 62.6967 57.2244 63.7847 55.0994 63.8867C52.9914 63.8187 51.8864 62.7137 51.8184 60.5717C51.9374 58.5317 53.0254 57.4437 55.0994 57.3247ZM55.0994 58.8717C54.3174 58.8887 53.9094 59.4667 53.8754 60.6057C53.9264 61.7957 54.3344 62.3907 55.0994 62.4077C55.9154 62.3907 56.3404 61.7787 56.3574 60.6057C56.3234 59.4497 55.8984 58.8717 55.0994 58.8717ZM65.2314 59.8917H63.2934C63.2084 59.2287 62.8344 58.8887 62.1714 58.8717C61.4234 58.8887 61.0324 59.5007 61.0154 60.7077C61.0154 61.8467 61.4234 62.4077 62.2394 62.4077C62.8514 62.4077 63.2084 62.0507 63.2934 61.3537H65.2654C65.0444 62.9687 64.0414 63.8187 62.2564 63.8867C60.1144 63.8187 59.0094 62.7307 58.9414 60.6397C59.0604 58.5657 60.0974 57.4607 62.0864 57.3247C63.9904 57.3587 65.0274 58.2087 65.2314 59.8917ZM68.9544 61.9997L67.9344 63.7677H65.6224L67.8324 60.4867L65.8264 57.4947H68.1554L69.0394 59.0927L69.9574 57.4947H72.2864L70.1104 60.5037L72.2524 63.7847H69.9234L68.9544 61.9997Z" fill="white"/>
<path d="M48.4082 49.9498H68.6244" stroke="#D3D3D3" stroke-width="0.5" stroke-linecap="round"/>
<path d="M48.4102 52.0177H68.6264" stroke="#D3D3D3" stroke-width="0.5" stroke-linecap="round"/>
<path d="M48.4102 54.3149H68.6264" stroke="#D3D3D3" stroke-width="0.5" stroke-linecap="round"/>
</g>
<path d="M53.4885 32.5901L51.3879 33.0159L55.2831 35.5986L57.8649 31.7026L55.7805 32.1247C55.6085 29.7171 52.3836 26.834 50.2155 25.9467C47.9353 25.0136 45.6091 25.081 44.2472 27.1712C45.3398 26.181 47.351 26.7752 49.0085 27.2674C49.4822 27.4081 49.9451 27.5933 50.3437 27.8852C51.8211 28.9669 53.3074 30.8133 53.4885 32.5901Z" fill="#0F67B1"/>
<defs>
<clipPath id="clip0_1869_29716">
<rect width="34" height="34" fill="white" transform="translate(12 16)"/>
</clipPath>
<clipPath id="clip1_1869_29716">
<rect width="34" height="34" fill="white" transform="translate(41.5176 38.2335)"/>
</clipPath>
</defs>
</svg>
