<svg width="88" height="88" viewBox="0 0 88 88" fill="none" xmlns="http://www.w3.org/2000/svg">
<circle cx="44" cy="44" r="44" fill="#DDEFFF"/>
<g clip-path="url(#clip0_1869_29845)">
<path d="M41.4529 46.2704H41.4359V46.7704C41.4359 47.0607 41.3201 47.3421 41.1064 47.5558C40.8927 47.7695 40.6112 47.8854 40.3209 47.8854H17.6599C17.3612 47.8854 17.0715 47.7641 16.8844 47.566L16.8795 47.5609L16.8745 47.5558C16.6608 47.3421 16.5449 47.0607 16.5449 46.7704L16.5449 17.6154C16.5449 17.3166 16.6662 17.0269 16.8642 16.8399L16.8746 16.8301L16.8844 16.8197C17.0715 16.6216 17.3612 16.5004 17.6599 16.5004H31.5659C31.8618 16.5004 32.1586 16.6201 32.3684 16.8299L41.1234 25.5849C41.3351 25.7966 41.4529 26.0773 41.4529 26.3874V46.2704Z" fill="white" stroke="#FF6D6D"/>
<path d="M41.9359 46.7704V48.3854C41.9359 48.8104 41.7659 49.2354 41.4599 49.5244C41.1539 49.8304 40.7459 50.0004 40.3209 50.0004H17.6599C16.7589 50.0004 16.0449 49.2694 16.0449 48.3854V46.7704C16.0449 47.1954 16.2149 47.6034 16.5209 47.9094C16.8269 48.2154 17.2349 48.3854 17.6599 48.3854H40.3209C41.2219 48.3854 41.9359 47.6544 41.9359 46.7704Z" fill="#D0D7E3"/>
<path d="M12.7969 33.8164H45.1819V41.9084C45.1819 42.8094 44.4509 43.5234 43.5669 43.5234H14.4289C14.0039 43.5234 13.5789 43.3534 13.2899 43.0474C12.9839 42.7414 12.8139 42.3334 12.8139 41.8914V33.8164H12.7969Z" fill="#EF4444"/>
<path d="M16.0439 33.8163V30.5693L12.7969 33.8163H16.0439ZM41.9349 33.8163L41.9689 30.5693L45.1989 33.8163H41.9349Z" fill="#D50B0B"/>
<path d="M41.9364 26.3875V26.6085H33.1814C32.2804 26.6085 31.5664 25.8775 31.5664 24.9935V16.0005C31.9914 16.0005 32.4164 16.1705 32.7224 16.4765L41.4944 25.2315C41.7834 25.5375 41.9534 25.9455 41.9364 26.3875Z" fill="#FF6D6D"/>
<path d="M19.9919 42.869V35.4571H23.1213C23.1934 35.4571 23.2895 35.4605 23.4096 35.4674C23.5331 35.4708 23.6429 35.4811 23.739 35.4983C24.1817 35.5669 24.5437 35.7127 24.8251 35.9358C25.1099 36.1588 25.3192 36.4402 25.453 36.7799C25.5868 37.1162 25.6538 37.4919 25.6538 37.9071C25.6538 38.3223 25.5851 38.6998 25.4479 39.0395C25.314 39.3758 25.1047 39.6555 24.8199 39.8785C24.5385 40.1015 24.1782 40.2474 23.739 40.316C23.6429 40.3297 23.5331 40.34 23.4096 40.3469C23.2861 40.3538 23.19 40.3572 23.1213 40.3572H21.3919V42.869H19.9919ZM21.3919 39.0498H23.0596C23.1316 39.0498 23.2106 39.0464 23.2963 39.0395C23.3821 39.0327 23.4611 39.0189 23.5331 38.9983C23.7218 38.9469 23.8677 38.8611 23.9706 38.741C24.0736 38.6174 24.1439 38.4819 24.1817 38.3344C24.2228 38.1834 24.2434 38.041 24.2434 37.9071C24.2434 37.7733 24.2228 37.6326 24.1817 37.4851C24.1439 37.3341 24.0736 37.1985 23.9706 37.0784C23.8677 36.9549 23.7218 36.8674 23.5331 36.8159C23.4611 36.7953 23.3821 36.7816 23.2963 36.7748C23.2106 36.7679 23.1316 36.7645 23.0596 36.7645H21.3919V39.0498ZM26.6872 42.869V35.4571H29.0858C29.1441 35.4571 29.2642 35.4588 29.4461 35.4622C29.628 35.4657 29.803 35.4777 29.9711 35.4983C30.5682 35.5703 31.0743 35.7779 31.4895 36.1211C31.9047 36.4642 32.2204 36.9 32.4366 37.4284C32.6528 37.9569 32.7609 38.5351 32.7609 39.163C32.7609 39.791 32.6528 40.3692 32.4366 40.8976C32.2204 41.4261 31.9047 41.8619 31.4895 42.205C31.0743 42.5482 30.5682 42.7558 29.9711 42.8278C29.803 42.8484 29.628 42.8604 29.4461 42.8639C29.2642 42.8673 29.1441 42.869 29.0858 42.869H26.6872ZM28.1078 41.5513H29.0858C29.1785 41.5513 29.3037 41.5496 29.4615 41.5462C29.6194 41.5393 29.7618 41.5239 29.8888 41.4999C30.2113 41.4347 30.4738 41.2837 30.6763 41.0469C30.8822 40.8101 31.0332 40.5253 31.1292 40.1925C31.2287 39.8596 31.2785 39.5165 31.2785 39.163C31.2785 38.7924 31.227 38.4407 31.1241 38.1079C31.0246 37.775 30.8719 37.4936 30.666 37.2637C30.4601 37.0338 30.201 36.888 29.8888 36.8262C29.7618 36.7988 29.6194 36.7833 29.4615 36.7799C29.3037 36.7765 29.1785 36.7748 29.0858 36.7748H28.1078V41.5513ZM33.9958 42.869V35.4571H38.5253V36.8571H35.3958V38.463H37.9077V39.8631H35.3958V42.869H33.9958Z" fill="white"/>
<path d="M18.8906 27.4863H39.1068" stroke="#D3D3D3" stroke-linecap="round"/>
<path d="M18.8906 29.5542H39.1068" stroke="#D3D3D3" stroke-linecap="round"/>
<path d="M18.8906 31.8522H39.1068" stroke="#D3D3D3" stroke-linecap="round"/>
</g>
<g clip-path="url(#clip1_1869_29845)">
<path d="M71.4529 68.2698H71.4359V68.7698C71.4359 69.0601 71.3201 69.3415 71.1064 69.5552C70.8927 69.7689 70.6112 69.8848 70.3209 69.8848H47.6599C47.3612 69.8848 47.0715 69.7635 46.8844 69.5654L46.8795 69.5602L46.8745 69.5552C46.6608 69.3415 46.5449 69.0601 46.5449 68.7698L46.5449 39.6148C46.5449 39.316 46.6662 39.0263 46.8642 38.8393L46.8746 38.8295L46.8844 38.8191C47.0715 38.621 47.3612 38.4998 47.6599 38.4998H61.5659C61.8618 38.4998 62.1586 38.6195 62.3684 38.8293L71.1234 47.5843C71.3351 47.796 71.4529 48.0766 71.4529 48.3868V68.2698Z" fill="white" stroke="#FFD165"/>
<path d="M71.9359 68.7703V70.3853C71.9359 70.8103 71.7659 71.2353 71.4599 71.5243C71.1539 71.8303 70.7459 72.0003 70.3209 72.0003H47.6599C46.7589 72.0003 46.0449 71.2693 46.0449 70.3853V68.7703C46.0449 69.1953 46.2149 69.6033 46.5209 69.9093C46.8269 70.2153 47.2349 70.3853 47.6599 70.3853H70.3209C71.2219 70.3853 71.9359 69.6543 71.9359 68.7703Z" fill="#D0D7E3"/>
<path d="M42.7988 55.8167H75.1838V63.9087C75.1838 64.8097 74.4528 65.5236 73.5688 65.5236H44.4308C44.0058 65.5236 43.5808 65.3536 43.2918 65.0476C42.9858 64.7416 42.8158 64.3336 42.8158 63.8917V55.8167H42.7988Z" fill="#F6AD00"/>
<path d="M46.0478 55.8171V52.5701L42.8008 55.8171H46.0478ZM71.9388 55.8171L71.9728 52.5701L75.2028 55.8171H71.9388Z" fill="#D99B07"/>
<path d="M71.9364 48.3869V48.6079H63.1814C62.2804 48.6079 61.5664 47.8769 61.5664 46.9929V37.9999C61.9914 37.9999 62.4164 38.1699 62.7224 38.4759L71.4944 47.2309C71.7834 47.5369 71.9534 47.9449 71.9364 48.3869Z" fill="#FFD165"/>
<path d="M47.0384 63.1949V57.4349H48.1264V63.1949H47.0384ZM49.3256 63.1949V57.4349H50.3016L52.2056 61.2589L54.1096 57.4349H55.0856V63.1949H54.0696V59.7549L52.3976 63.1949H52.0136L50.3416 59.7549V63.1949H49.3256ZM55.8084 63.1949L57.5684 57.4349H59.1924L60.9524 63.1949H59.8324L58.2644 58.1149H58.4724L56.9284 63.1949H55.8084ZM56.8644 61.9949V60.9789H59.9044V61.9949H56.8644ZM63.9131 63.3149C63.5505 63.3149 63.2051 63.2509 62.8771 63.1229C62.5491 62.9923 62.2585 62.8003 62.0051 62.5469C61.7545 62.2936 61.5558 61.9803 61.4091 61.6069C61.2651 61.2336 61.1931 60.8029 61.1931 60.3149C61.1931 59.6776 61.3145 59.1363 61.5571 58.6909C61.8025 58.2429 62.1305 57.9016 62.5411 57.6669C62.9545 57.4323 63.4118 57.3149 63.9131 57.3149C64.6545 57.3149 65.2371 57.4869 65.6611 57.8309C66.0851 58.1749 66.3691 58.6616 66.5131 59.2909L65.4011 59.4509C65.2971 59.1149 65.1265 58.8469 64.8891 58.6469C64.6545 58.4443 64.3531 58.3416 63.9851 58.3389C63.6198 58.3336 63.3158 58.4123 63.0731 58.5749C62.8305 58.7376 62.6478 58.9683 62.5251 59.2669C62.4051 59.5656 62.3451 59.9149 62.3451 60.3149C62.3451 60.7149 62.4051 61.0616 62.5251 61.3549C62.6478 61.6483 62.8305 61.8763 63.0731 62.0389C63.3158 62.2016 63.6198 62.2856 63.9851 62.2909C64.2331 62.2963 64.4571 62.2536 64.6571 62.1629C64.8598 62.0723 65.0305 61.9296 65.1691 61.7349C65.3078 61.5403 65.4065 61.2909 65.4651 60.9869H64.5531V60.1469H66.6251C66.6305 60.1816 66.6345 60.2429 66.6371 60.3309C66.6398 60.4189 66.6411 60.4696 66.6411 60.4829C66.6411 61.0349 66.5291 61.5243 66.3051 61.9509C66.0811 62.3776 65.7651 62.7123 65.3571 62.9549C64.9491 63.1949 64.4678 63.3149 63.9131 63.3149ZM67.4428 63.1949V57.4349H71.2028V58.4509H68.5308V59.6829H70.7228V60.6989H68.5308V62.1789H71.2028V63.1949H67.4428Z" fill="white"/>
<path d="M48.8906 49.4866H69.1068" stroke="#D3D3D3" stroke-width="0.5" stroke-linecap="round"/>
<path d="M48.8926 51.5542H69.1088" stroke="#D3D3D3" stroke-width="0.5" stroke-linecap="round"/>
<path d="M48.8906 53.8517H69.1068" stroke="#D3D3D3" stroke-width="0.5" stroke-linecap="round"/>
</g>
<path d="M53.4885 32.5901L51.3879 33.0159L55.2831 35.5986L57.8649 31.7026L55.7805 32.1247C55.6085 29.7171 52.3836 26.834 50.2155 25.9467C47.9353 25.0136 45.6091 25.081 44.2472 27.1712C45.3398 26.181 47.351 26.7752 49.0085 27.2674C49.4822 27.4081 49.9451 27.5933 50.3437 27.8852C51.8211 28.9669 53.3074 30.8133 53.4885 32.5901Z" fill="#0F67B1"/>
<defs>
<clipPath id="clip0_1869_29845">
<rect width="34" height="34" fill="white" transform="translate(12 16)"/>
</clipPath>
<clipPath id="clip1_1869_29845">
<rect width="34" height="34" fill="white" transform="translate(42 38)"/>
</clipPath>
</defs>
</svg>
