<svg width="88" height="88" viewBox="0 0 88 88" fill="none" xmlns="http://www.w3.org/2000/svg">
<circle cx="44" cy="44" r="44" fill="#DDEFFF"/>
<g clip-path="url(#clip0_1869_29741)">
<path d="M41.4529 46.2704H41.4359V46.7704C41.4359 47.0607 41.3201 47.3421 41.1064 47.5558C40.8927 47.7695 40.6112 47.8854 40.3209 47.8854H17.6599C17.3612 47.8854 17.0715 47.7641 16.8844 47.566L16.8795 47.5609L16.8745 47.5558C16.6608 47.3421 16.5449 47.0607 16.5449 46.7704L16.5449 17.6154C16.5449 17.3166 16.6662 17.0269 16.8642 16.8399L16.8746 16.8301L16.8844 16.8197C17.0715 16.6216 17.3612 16.5004 17.6599 16.5004H31.5659C31.8618 16.5004 32.1586 16.6201 32.3684 16.8299L41.1234 25.5849C41.3351 25.7966 41.4529 26.0773 41.4529 26.3874V46.2704Z" fill="white" stroke="#FF6D6D"/>
<path d="M41.9359 46.7704V48.3854C41.9359 48.8104 41.7659 49.2354 41.4599 49.5244C41.1539 49.8304 40.7459 50.0004 40.3209 50.0004H17.6599C16.7589 50.0004 16.0449 49.2694 16.0449 48.3854V46.7704C16.0449 47.1954 16.2149 47.6034 16.5209 47.9094C16.8269 48.2154 17.2349 48.3854 17.6599 48.3854H40.3209C41.2219 48.3854 41.9359 47.6544 41.9359 46.7704Z" fill="#D0D7E3"/>
<path d="M12.7969 33.8164H45.1819V41.9084C45.1819 42.8094 44.4509 43.5234 43.5669 43.5234H14.4289C14.0039 43.5234 13.5789 43.3534 13.2899 43.0474C12.9839 42.7414 12.8139 42.3334 12.8139 41.8914V33.8164H12.7969Z" fill="#EF4444"/>
<path d="M16.0439 33.8163V30.5693L12.7969 33.8163H16.0439ZM41.9349 33.8163L41.9689 30.5693L45.1989 33.8163H41.9349Z" fill="#D50B0B"/>
<path d="M41.9364 26.3875V26.6085H33.1814C32.2804 26.6085 31.5664 25.8775 31.5664 24.9935V16.0005C31.9914 16.0005 32.4164 16.1705 32.7224 16.4765L41.4944 25.2315C41.7834 25.5375 41.9534 25.9455 41.9364 26.3875Z" fill="#FF6D6D"/>
<path d="M19.9919 42.869V35.4571H23.1213C23.1934 35.4571 23.2895 35.4605 23.4096 35.4674C23.5331 35.4708 23.6429 35.4811 23.739 35.4983C24.1817 35.5669 24.5437 35.7127 24.8251 35.9358C25.1099 36.1588 25.3192 36.4402 25.453 36.7799C25.5868 37.1162 25.6538 37.4919 25.6538 37.9071C25.6538 38.3223 25.5851 38.6998 25.4479 39.0395C25.314 39.3758 25.1047 39.6555 24.8199 39.8785C24.5385 40.1015 24.1782 40.2474 23.739 40.316C23.6429 40.3297 23.5331 40.34 23.4096 40.3469C23.2861 40.3538 23.19 40.3572 23.1213 40.3572H21.3919V42.869H19.9919ZM21.3919 39.0498H23.0596C23.1316 39.0498 23.2106 39.0464 23.2963 39.0395C23.3821 39.0327 23.4611 39.0189 23.5331 38.9983C23.7218 38.9469 23.8677 38.8611 23.9706 38.741C24.0736 38.6174 24.1439 38.4819 24.1817 38.3344C24.2228 38.1834 24.2434 38.041 24.2434 37.9071C24.2434 37.7733 24.2228 37.6326 24.1817 37.4851C24.1439 37.3341 24.0736 37.1985 23.9706 37.0784C23.8677 36.9549 23.7218 36.8674 23.5331 36.8159C23.4611 36.7953 23.3821 36.7816 23.2963 36.7748C23.2106 36.7679 23.1316 36.7645 23.0596 36.7645H21.3919V39.0498ZM26.6872 42.869V35.4571H29.0858C29.1441 35.4571 29.2642 35.4588 29.4461 35.4622C29.628 35.4657 29.803 35.4777 29.9711 35.4983C30.5682 35.5703 31.0743 35.7779 31.4895 36.1211C31.9047 36.4642 32.2204 36.9 32.4366 37.4284C32.6528 37.9569 32.7609 38.5351 32.7609 39.163C32.7609 39.791 32.6528 40.3692 32.4366 40.8976C32.2204 41.4261 31.9047 41.8619 31.4895 42.205C31.0743 42.5482 30.5682 42.7558 29.9711 42.8278C29.803 42.8484 29.628 42.8604 29.4461 42.8639C29.2642 42.8673 29.1441 42.869 29.0858 42.869H26.6872ZM28.1078 41.5513H29.0858C29.1785 41.5513 29.3037 41.5496 29.4615 41.5462C29.6194 41.5393 29.7618 41.5239 29.8888 41.4999C30.2113 41.4347 30.4738 41.2837 30.6763 41.0469C30.8822 40.8101 31.0332 40.5253 31.1292 40.1925C31.2287 39.8596 31.2785 39.5165 31.2785 39.163C31.2785 38.7924 31.227 38.4407 31.1241 38.1079C31.0246 37.775 30.8719 37.4936 30.666 37.2637C30.4601 37.0338 30.201 36.888 29.8888 36.8262C29.7618 36.7988 29.6194 36.7833 29.4615 36.7799C29.3037 36.7765 29.1785 36.7748 29.0858 36.7748H28.1078V41.5513ZM33.9958 42.869V35.4571H38.5253V36.8571H35.3958V38.463H37.9077V39.8631H35.3958V42.869H33.9958Z" fill="white"/>
<path d="M18.8906 27.4863H39.1068" stroke="#D3D3D3" stroke-linecap="round"/>
<path d="M18.8906 29.5542H39.1068" stroke="#D3D3D3" stroke-linecap="round"/>
<path d="M18.8906 31.8522H39.1068" stroke="#D3D3D3" stroke-linecap="round"/>
</g>
<g clip-path="url(#clip1_1869_29741)">
<path d="M71.4529 68.2705H71.4359V68.7705C71.4359 69.0608 71.3201 69.3422 71.1064 69.5559C70.8927 69.7696 70.6112 69.8855 70.3209 69.8855H47.6599C47.3612 69.8855 47.0715 69.7642 46.8844 69.5662L46.8795 69.561L46.8745 69.5559C46.6608 69.3422 46.5449 69.0608 46.5449 68.7705V39.6155C46.5449 39.3168 46.6662 39.0271 46.8642 38.84L46.8746 38.8302L46.8844 38.8198C47.0715 38.6217 47.3612 38.5005 47.6599 38.5005H61.5659C61.8618 38.5005 62.1586 38.6202 62.3684 38.83L71.1234 47.585C71.3351 47.7968 71.4529 48.0774 71.4529 48.3875V68.2705Z" fill="white" stroke="#17DC85"/>
<path d="M71.9359 68.7714V70.3864C71.9359 70.8114 71.7659 71.2364 71.4599 71.5254C71.1539 71.8314 70.7459 72.0014 70.3209 72.0014H47.6599C46.7589 72.0014 46.0449 71.2704 46.0449 70.3864V68.7714C46.0449 69.1964 46.2149 69.6044 46.5209 69.9104C46.8269 70.2164 47.2349 70.3864 47.6599 70.3864H70.3209C71.2219 70.3864 71.9359 69.6554 71.9359 68.7714Z" fill="#D0D7E3"/>
<path d="M42.7969 55.8173H75.1819V63.9093C75.1819 64.8103 74.4509 65.5243 73.5669 65.5243H44.4289C44.0039 65.5243 43.5789 65.3543 43.2899 65.0483C42.9839 64.7423 42.8139 64.3343 42.8139 63.8923V55.8173H42.7969Z" fill="#17DC85"/>
<path d="M46.0458 55.8166V52.5696L42.7988 55.8166H46.0458ZM71.9368 55.8166L71.9708 52.5696L75.2008 55.8166H71.9368Z" fill="#10B76D"/>
<path d="M71.9345 48.3883V48.6093H63.1795C62.2785 48.6093 61.5645 47.8783 61.5645 46.9943V38.0013C61.9895 38.0013 62.4145 38.1713 62.7205 38.4773L71.4925 47.2323C71.7815 47.5383 71.9515 47.9463 71.9345 48.3883Z" fill="#17DC85"/>
<path d="M49.9701 64.1331L52.3901 60.4931L50.0401 56.9331H51.7101L53.2401 59.3331L54.7501 56.9331H56.4301L54.0801 60.4931L56.4901 64.1331H54.8201L53.2401 61.6531L51.6501 64.1331H49.9701ZM57.3889 64.1331V56.9331H58.7489V62.8631H61.8489V64.1331H57.3889ZM65.419 64.2831C64.8857 64.2831 64.404 64.1897 63.974 64.0031C63.5474 63.8131 63.1957 63.5431 62.919 63.1931C62.6457 62.8397 62.4724 62.4197 62.399 61.9331L63.819 61.7231C63.919 62.1364 64.1257 62.4547 64.439 62.6781C64.7524 62.9014 65.109 63.0131 65.509 63.0131C65.7324 63.0131 65.949 62.9781 66.159 62.9081C66.369 62.8381 66.5407 62.7347 66.674 62.5981C66.8107 62.4614 66.879 62.2931 66.879 62.0931C66.879 62.0197 66.8674 61.9497 66.844 61.8831C66.824 61.8131 66.789 61.7481 66.739 61.6881C66.689 61.6281 66.6174 61.5714 66.524 61.5181C66.434 61.4647 66.319 61.4164 66.179 61.3731L64.309 60.8231C64.169 60.7831 64.0057 60.7264 63.819 60.6531C63.6357 60.5797 63.4574 60.4747 63.284 60.3381C63.1107 60.2014 62.9657 60.0214 62.849 59.7981C62.7357 59.5714 62.679 59.2864 62.679 58.9431C62.679 58.4597 62.8007 58.0581 63.044 57.7381C63.2874 57.4181 63.6124 57.1797 64.019 57.0231C64.4257 56.8664 64.8757 56.7897 65.369 56.7931C65.8657 56.7997 66.309 56.8847 66.699 57.0481C67.089 57.2114 67.4157 57.4497 67.679 57.7631C67.9424 58.0731 68.1324 58.4531 68.249 58.9031L66.779 59.1531C66.7257 58.9197 66.6274 58.7231 66.484 58.5631C66.3407 58.4031 66.169 58.2814 65.969 58.1981C65.7724 58.1147 65.5657 58.0697 65.349 58.0631C65.1357 58.0564 64.934 58.0864 64.744 58.1531C64.5574 58.2164 64.404 58.3097 64.284 58.4331C64.1674 58.5564 64.109 58.7031 64.109 58.8731C64.109 59.0297 64.1574 59.1581 64.254 59.2581C64.3507 59.3547 64.4724 59.4331 64.619 59.4931C64.7657 59.5531 64.9157 59.6031 65.069 59.6431L66.319 59.9831C66.5057 60.0331 66.7124 60.0997 66.939 60.1831C67.1657 60.2631 67.3824 60.3764 67.589 60.5231C67.799 60.6664 67.9707 60.8564 68.104 61.0931C68.2407 61.3297 68.309 61.6297 68.309 61.9931C68.309 62.3797 68.2274 62.7181 68.064 63.0081C67.904 63.2947 67.6874 63.5331 67.414 63.7231C67.1407 63.9097 66.8307 64.0497 66.484 64.1431C66.1407 64.2364 65.7857 64.2831 65.419 64.2831Z" fill="white"/>
<path d="M48.8926 49.4868H69.1088" stroke="#D3D3D3" stroke-width="0.5" stroke-linecap="round"/>
<path d="M48.8906 51.5544H69.1068" stroke="#D3D3D3" stroke-width="0.5" stroke-linecap="round"/>
<path d="M48.8887 53.853H69.1049" stroke="#D3D3D3" stroke-width="0.5" stroke-linecap="round"/>
</g>
<path d="M53.4885 32.5901L51.3879 33.0159L55.2831 35.5986L57.8649 31.7026L55.7805 32.1247C55.6085 29.7171 52.3836 26.834 50.2155 25.9467C47.9353 25.0136 45.6091 25.081 44.2472 27.1712C45.3398 26.181 47.351 26.7752 49.0085 27.2674C49.4822 27.4081 49.9451 27.5933 50.3437 27.8852C51.8211 28.9669 53.3074 30.8133 53.4885 32.5901Z" fill="#0F67B1"/>
<defs>
<clipPath id="clip0_1869_29741">
<rect width="34" height="34" fill="white" transform="translate(12 16)"/>
</clipPath>
<clipPath id="clip1_1869_29741">
<rect width="34" height="34" fill="white" transform="translate(42 38)"/>
</clipPath>
</defs>
</svg>
