<svg width="88" height="88" viewBox="0 0 88 88" fill="none" xmlns="http://www.w3.org/2000/svg">
<circle cx="44" cy="44" r="44" fill="#DCE8F3"/>
<g clip-path="url(#clip0_1869_30124)">
<path d="M54.0426 59.0947H54.0207V59.5947C54.0207 60.0069 53.8561 60.4053 53.5547 60.7067C53.2532 61.0082 52.8548 61.1728 52.4426 61.1728H23.2832C22.8626 61.1728 22.451 61.0028 22.1811 60.717L22.1762 60.7118L22.1711 60.7067C21.8697 60.4053 21.7051 60.0069 21.7051 59.5947V22.079C21.7051 21.6584 21.8751 21.2469 22.1609 20.9769L22.1713 20.9671L22.1811 20.9567C22.451 20.6709 22.8626 20.5009 23.2832 20.5009H41.177C41.5947 20.5009 42.0134 20.6694 42.3109 20.967L53.5765 32.2326C53.876 32.5321 54.0426 32.9297 54.0426 33.3665V59.0947Z" fill="white" stroke="#FF6D6D"/>
<path d="M54.5207 59.5941V61.6722C54.5207 62.2191 54.302 62.766 53.9082 63.1379C53.5145 63.5316 52.9895 63.7504 52.4426 63.7504H23.2832C22.1238 63.7504 21.2051 62.8097 21.2051 61.6722V59.5941C21.2051 60.141 21.4238 60.666 21.8176 61.0597C22.2113 61.4535 22.7363 61.6722 23.2832 61.6722H52.4426C53.602 61.6722 54.5207 60.7316 54.5207 59.5941Z" fill="#D0D7E3"/>
<path d="M17.0293 42.9262H58.7012V53.3387C58.7012 54.4981 57.7605 55.4168 56.623 55.4168H19.1293C18.5824 55.4168 18.0355 55.1981 17.6637 54.8043C17.2699 54.4106 17.0512 53.8856 17.0512 53.3168V42.9262H17.0293Z" fill="#EF4444"/>
<path d="M21.2074 42.9253V38.7472L17.0293 42.9253H21.2074ZM54.523 42.9253L54.5668 38.7472L58.723 42.9253H54.523Z" fill="#D50B0B"/>
<path d="M54.5234 33.3665V33.6509H43.2578C42.0984 33.6509 41.1797 32.7103 41.1797 31.5728V20.0009C41.7266 20.0009 42.2734 20.2197 42.6672 20.6134L53.9547 31.879C54.3266 32.2728 54.5453 32.7978 54.5234 33.3665Z" fill="#FF6D6D"/>
<path d="M27.336 53.6929V45.0529H30.984C31.068 45.0529 31.18 45.0569 31.32 45.0649C31.464 45.0689 31.592 45.0809 31.704 45.1009C32.22 45.1809 32.642 45.3509 32.97 45.6109C33.302 45.8709 33.546 46.1989 33.702 46.5949C33.858 46.9869 33.936 47.4249 33.936 47.9089C33.936 48.3929 33.856 48.8329 33.696 49.2289C33.54 49.6209 33.296 49.9469 32.964 50.2069C32.636 50.4669 32.216 50.6369 31.704 50.7169C31.592 50.7329 31.464 50.7449 31.32 50.7529C31.176 50.7609 31.064 50.7649 30.984 50.7649H28.968V53.6929H27.336ZM28.968 49.2409H30.912C30.996 49.2409 31.088 49.2369 31.188 49.2289C31.288 49.2209 31.38 49.2049 31.464 49.1809C31.684 49.1209 31.854 49.0209 31.974 48.8809C32.094 48.7369 32.176 48.5789 32.22 48.4069C32.268 48.2309 32.292 48.0649 32.292 47.9089C32.292 47.7529 32.268 47.5889 32.22 47.4169C32.176 47.2409 32.094 47.0829 31.974 46.9429C31.854 46.7989 31.684 46.6969 31.464 46.6369C31.38 46.6129 31.288 46.5969 31.188 46.5889C31.088 46.5809 30.996 46.5769 30.912 46.5769H28.968V49.2409ZM35.1407 53.6929V45.0529H37.9367C38.0047 45.0529 38.1447 45.0549 38.3567 45.0589C38.5687 45.0629 38.7727 45.0769 38.9687 45.1009C39.6647 45.1849 40.2547 45.4269 40.7387 45.8269C41.2227 46.2269 41.5907 46.7349 41.8427 47.3509C42.0947 47.9669 42.2207 48.6409 42.2207 49.3729C42.2207 50.1049 42.0947 50.7789 41.8427 51.3949C41.5907 52.0109 41.2227 52.5189 40.7387 52.9189C40.2547 53.3189 39.6647 53.5609 38.9687 53.6449C38.7727 53.6689 38.5687 53.6829 38.3567 53.6869C38.1447 53.6909 38.0047 53.6929 37.9367 53.6929H35.1407ZM36.7967 52.1569H37.9367C38.0447 52.1569 38.1907 52.1549 38.3747 52.1509C38.5587 52.1429 38.7247 52.1249 38.8727 52.0969C39.2487 52.0209 39.5547 51.8449 39.7907 51.5689C40.0307 51.2929 40.2067 50.9609 40.3187 50.5729C40.4347 50.1849 40.4927 49.7849 40.4927 49.3729C40.4927 48.9409 40.4327 48.5309 40.3127 48.1429C40.1967 47.7549 40.0187 47.4269 39.7787 47.1589C39.5387 46.8909 39.2367 46.7209 38.8727 46.6489C38.7247 46.6169 38.5587 46.5989 38.3747 46.5949C38.1907 46.5909 38.0447 46.5889 37.9367 46.5889H36.7967V52.1569ZM43.6603 53.6929V45.0529H48.9403V46.6849H45.2923V48.5569H48.2203V50.1889H45.2923V53.6929H43.6603Z" fill="white"/>
<path d="M24.8691 34.7809H50.8827" stroke="#D3D3D3" stroke-width="0.5" stroke-linecap="round"/>
<path d="M24.8691 37.4414H50.8827" stroke="#D3D3D3" stroke-width="0.5" stroke-linecap="round"/>
<path d="M24.8691 40.3983H50.8827" stroke="#D3D3D3" stroke-width="0.5" stroke-linecap="round"/>
</g>
<g clip-path="url(#clip1_1869_30124)">
<path d="M48.8682 51.6504C48.6234 51.6504 48.3887 51.5532 48.2156 51.3801C48.0425 51.207 47.9453 50.9723 47.9453 50.7275V43.3447C47.9471 41.7952 48.5635 40.3096 49.6592 39.2139C50.7549 38.1181 52.2405 37.5018 53.79 37.5H58.7119C60.2615 37.5018 61.7471 38.1181 62.8428 39.2139C63.9385 40.3096 64.5548 41.7952 64.5566 43.3447V44.5752C64.5566 44.82 64.4594 45.0547 64.2863 45.2278C64.1133 45.4008 63.8785 45.498 63.6338 45.498C63.389 45.498 63.1543 45.4008 62.9812 45.2278C62.8082 45.0547 62.7109 44.82 62.7109 44.5752V43.3447C62.7096 42.2845 62.2879 41.2681 61.5382 40.5184C60.7885 39.7687 59.7721 39.347 58.7119 39.3457H53.79C52.7298 39.347 51.7134 39.7687 50.9637 40.5184C50.2141 41.2681 49.7923 42.2845 49.791 43.3447V50.7275C49.791 50.9723 49.6938 51.207 49.5207 51.3801C49.3477 51.5532 49.1129 51.6504 48.8682 51.6504Z" fill="#5D6DA1"/>
<path d="M48.5605 51.3428V43.96C48.5623 42.4104 49.1787 40.9248 50.2744 39.8291C51.3701 38.7334 52.8557 38.117 54.4053 38.1152H59.3271C60.7274 38.1128 62.0817 38.6152 63.1416 39.5303C62.5932 38.8926 61.9134 38.381 61.1489 38.0305C60.3843 37.6801 59.553 37.4991 58.7119 37.5H53.79C52.2405 37.5018 50.7549 38.1182 49.6592 39.2139C48.5635 40.3096 47.9471 41.7952 47.9453 43.3447V50.7275C47.9454 50.9255 48.0091 51.1182 48.1271 51.2772C48.2451 51.4362 48.4111 51.553 48.6005 51.6104C48.5741 51.5237 48.5606 51.4335 48.5605 51.3428ZM63.3262 45.1904V43.96C63.3262 43.3614 63.1917 42.7705 62.9324 42.231C62.6732 41.6915 62.296 41.2172 61.8287 40.8432C62.4003 41.5516 62.7117 42.4345 62.7109 43.3447V44.5752C62.711 44.7732 62.7747 44.9659 62.8927 45.1249C63.0107 45.2838 63.1767 45.4006 63.3662 45.4581C63.3397 45.3713 63.3262 45.2811 63.3262 45.1904Z" fill="#415BAF"/>
<path d="M64.8643 49.9277H47.6377C45.7689 49.9277 44.2539 51.4427 44.2539 53.3115V65.6162C44.2539 67.485 45.7689 69 47.6377 69H64.8643C66.7331 69 68.248 67.485 68.248 65.6162V53.3115C68.248 51.4427 66.7331 49.9277 64.8643 49.9277Z" fill="#FEBE3D"/>
<path d="M45.4844 66.8467V54.542C45.4854 53.6449 45.8422 52.7847 46.4765 52.1504C47.1109 51.516 47.971 51.1592 48.8682 51.1582H66.0947C66.6905 51.1578 67.2757 51.3157 67.7903 51.6159C67.4932 51.1029 67.0666 50.6769 66.553 50.3806C66.0395 50.0843 65.4571 49.9281 64.8643 49.9277H47.6377C46.7406 49.9287 45.8804 50.2855 45.2461 50.9199C44.6117 51.5543 44.2549 52.4144 44.2539 53.3115V65.6162C44.2543 66.2091 44.4105 66.7915 44.7067 67.305C45.003 67.8185 45.429 68.2452 45.9421 68.5423C45.6419 68.0276 45.4839 67.4425 45.4844 66.8467Z" fill="#FFB828"/>
<path d="M60.002 57.8231C60.002 57.1936 59.8265 56.5765 59.495 56.0413C59.1636 55.5061 58.6895 55.0739 58.1259 54.7934C57.5624 54.5129 56.9317 54.3952 56.3049 54.4535C55.6781 54.5118 55.08 54.7437 54.5778 55.1233C54.0756 55.5029 53.6892 56.0151 53.4622 56.6022C53.2351 57.1893 53.1763 57.8282 53.2924 58.4469C53.4085 59.0656 53.6949 59.6396 54.1194 60.1045C54.5439 60.5694 55.0897 60.9066 55.6953 61.0783V63.9754C55.6953 64.2202 55.7925 64.4549 55.9656 64.628C56.1387 64.801 56.3734 64.8983 56.6182 64.8983C56.8629 64.8983 57.0977 64.801 57.2707 64.628C57.4438 64.4549 57.541 64.2202 57.541 63.9754V61.0783C58.2491 60.8766 58.8723 60.4498 59.3163 59.8625C59.7603 59.2752 60.001 58.5593 60.002 57.8231ZM56.6182 59.3612C56.314 59.3612 56.0166 59.2709 55.7637 59.1019C55.5107 58.9329 55.3136 58.6927 55.1972 58.4117C55.0807 58.1306 55.0503 57.8214 55.1096 57.523C55.169 57.2246 55.3155 56.9506 55.5306 56.7355C55.7457 56.5204 56.0197 56.3739 56.3181 56.3145C56.6165 56.2552 56.9257 56.2856 57.2068 56.4021C57.4878 56.5185 57.728 56.7156 57.897 56.9685C58.066 57.2215 58.1563 57.5189 58.1563 57.8231C58.1563 58.231 57.9942 58.6222 57.7058 58.9107C57.4173 59.1991 57.0261 59.3612 56.6182 59.3612Z" fill="#FFB828"/>
<path d="M59.6328 57.6182C59.633 56.9886 59.4575 56.3715 59.1262 55.8363C58.7948 55.301 58.3207 54.8687 57.7572 54.5881C57.1936 54.3076 56.563 54.1897 55.9362 54.248C55.3093 54.3062 54.7111 54.5381 54.2089 54.9176C53.7066 55.2972 53.3202 55.8093 53.0931 56.3965C52.866 56.9836 52.8072 57.6225 52.9233 58.2412C53.0393 58.86 53.3257 59.434 53.7502 59.8989C54.1747 60.3638 54.7205 60.7011 55.3262 60.8728V63.7705C55.3262 64.0153 55.4234 64.25 55.5965 64.4231C55.7695 64.5961 56.0043 64.6934 56.249 64.6934C56.4938 64.6934 56.7285 64.5961 56.9016 64.4231C57.0746 64.25 57.1719 64.0153 57.1719 63.7705V60.8728C57.88 60.6713 58.5032 60.2447 58.9472 59.6575C59.3912 59.0702 59.6319 58.3544 59.6328 57.6182ZM56.249 59.1563C55.9448 59.1563 55.6474 59.0661 55.3945 58.897C55.1416 58.728 54.9444 58.4878 54.828 58.2068C54.7116 57.9257 54.6811 57.6165 54.7405 57.3181C54.7998 57.0197 54.9463 56.7457 55.1614 56.5306C55.3765 56.3155 55.6506 56.169 55.949 56.1096C56.2473 56.0503 56.5566 56.0808 56.8376 56.1972C57.1187 56.3136 57.3589 56.5107 57.5279 56.7637C57.6969 57.0166 57.7871 57.314 57.7871 57.6182C57.7871 58.0261 57.6251 58.4173 57.3366 58.7058C57.0482 58.9942 56.657 59.1563 56.249 59.1563Z" fill="#FAF7F5"/>
<path d="M55.9424 64.3858V61.488C55.73 61.4283 55.5239 61.348 55.3271 61.2481V63.7705C55.3272 63.9685 55.391 64.1612 55.5089 64.3202C55.6269 64.4792 55.7929 64.596 55.9824 64.6534C55.9559 64.5667 55.9424 64.4765 55.9424 64.3858ZM56.8652 59.7715C57.2072 59.772 57.5396 59.6584 57.8098 59.4489C58.0801 59.2393 58.2728 58.9456 58.3575 58.6143C58.4422 58.283 58.414 57.9329 58.2775 57.6193C58.1409 57.3058 57.9038 57.0467 57.6035 56.883C57.7618 57.1745 57.8216 57.5094 57.774 57.8376C57.7264 58.1659 57.574 58.47 57.3395 58.7046C57.1049 58.9391 56.8008 59.0916 56.4725 59.1392C56.1442 59.1867 55.8094 59.1269 55.5179 58.9686C55.6498 59.211 55.8445 59.4135 56.0815 59.5547C56.3186 59.696 56.5893 59.7709 56.8652 59.7715ZM53.4814 58.2334C53.482 57.6017 53.6594 56.9828 53.9935 56.4467C54.3276 55.9106 54.8052 55.4787 55.372 55.2C55.9389 54.9212 56.5725 54.8067 57.201 54.8694C57.8296 54.9321 58.4281 55.1695 58.9287 55.5547C58.637 55.1695 58.2661 54.8513 57.841 54.6214C57.416 54.3916 56.9466 54.2554 56.4646 54.2222C55.9825 54.1889 55.4989 54.2592 55.0463 54.4285C54.5937 54.5977 54.1826 54.8619 53.8406 55.2033C53.4987 55.5448 53.2338 55.9555 53.0638 56.4078C52.8939 56.8601 52.8228 57.3436 52.8553 57.8258C52.8879 58.3079 53.0233 58.7774 53.2525 59.2028C53.4817 59.6282 53.7993 59.9996 54.184 60.292C53.7283 59.7026 53.4811 58.9785 53.4814 58.2334Z" fill="#F5EEEC"/>
</g>
<defs>
<clipPath id="clip0_1869_30124">
<rect width="43.75" height="43.75" fill="white" transform="translate(16 20)"/>
</clipPath>
<clipPath id="clip1_1869_30124">
<rect width="31.5" height="31.5" fill="white" transform="translate(40.5 37.5)"/>
</clipPath>
</defs>
</svg>
