<svg width="88" height="88" viewBox="0 0 88 88" fill="none" xmlns="http://www.w3.org/2000/svg">
<circle cx="44" cy="44" r="44" fill="#FFE8E8"/>
<g clip-path="url(#clip0_1869_29622)">
<path d="M41.4529 46.2699H41.4359V46.7699C41.4359 47.0602 41.3201 47.3416 41.1064 47.5553C40.8927 47.769 40.6112 47.8849 40.3209 47.8849H17.6599C17.3612 47.8849 17.0715 47.7636 16.8844 47.5655L16.8795 47.5604L16.8745 47.5553C16.6608 47.3416 16.5449 47.0602 16.5449 46.7699L16.5449 17.6149C16.5449 17.3162 16.6662 17.0264 16.8642 16.8394L16.8746 16.8296L16.8844 16.8192C17.0715 16.6211 17.3612 16.4999 17.6599 16.4999H31.5659C31.8618 16.4999 32.1586 16.6196 32.3684 16.8294L41.1234 25.5844C41.3351 25.7961 41.4529 26.0768 41.4529 26.3869V46.2699Z" fill="white" stroke="#FF6B42"/>
<path d="M41.934 46.7704V48.3854C41.934 48.8104 41.764 49.2354 41.458 49.5244C41.152 49.8304 40.744 50.0004 40.319 50.0004H17.658C16.757 50.0004 16.043 49.2694 16.043 48.3854V46.7704C16.043 47.1954 16.213 47.6034 16.519 47.9094C16.825 48.2154 17.233 48.3854 17.658 48.3854H40.319C41.22 48.3854 41.934 47.6544 41.934 46.7704Z" fill="#D0D7E3"/>
<path d="M12.7969 33.8167H45.1819V41.9086C45.1819 42.8096 44.4509 43.5236 43.5669 43.5236H14.4289C14.0039 43.5236 13.5789 43.3536 13.2899 43.0476C12.9839 42.7416 12.8139 42.3336 12.8139 41.8916V33.8167H12.7969Z" fill="#FF6B42"/>
<path d="M16.0458 33.8156V30.5686L12.7988 33.8156H16.0458ZM41.9368 33.8156L41.9708 30.5686L45.2008 33.8156H41.9368Z" fill="#FF420D"/>
<path d="M41.9345 26.3877V26.6087H33.1795C32.2785 26.6087 31.5645 25.8777 31.5645 24.9937V16.0007C31.9895 16.0007 32.4145 16.1707 32.7205 16.4767L41.4925 25.2317C41.7815 25.5377 41.9515 25.9457 41.9345 26.3877Z" fill="#FF6B42"/>
<path d="M19.8201 42.0811V34.8811H22.8601C22.9301 34.8811 23.0235 34.8844 23.1401 34.8911C23.2601 34.8944 23.3668 34.9044 23.4601 34.9211C23.8901 34.9877 24.2418 35.1294 24.5151 35.3461C24.7918 35.5627 24.9951 35.8361 25.1251 36.1661C25.2551 36.4927 25.3201 36.8577 25.3201 37.2611C25.3201 37.6644 25.2535 38.0311 25.1201 38.3611C24.9901 38.6877 24.7868 38.9594 24.5101 39.1761C24.2368 39.3927 23.8868 39.5344 23.4601 39.6011C23.3668 39.6144 23.2601 39.6244 23.1401 39.6311C23.0201 39.6377 22.9268 39.6411 22.8601 39.6411H21.1801V42.0811H19.8201ZM21.1801 38.3711H22.8001C22.8701 38.3711 22.9468 38.3677 23.0301 38.3611C23.1135 38.3544 23.1901 38.3411 23.2601 38.3211C23.4435 38.2711 23.5851 38.1877 23.6851 38.0711C23.7851 37.9511 23.8535 37.8194 23.8901 37.6761C23.9301 37.5294 23.9501 37.3911 23.9501 37.2611C23.9501 37.1311 23.9301 36.9944 23.8901 36.8511C23.8535 36.7044 23.7851 36.5727 23.6851 36.4561C23.5851 36.3361 23.4435 36.2511 23.2601 36.2011C23.1901 36.1811 23.1135 36.1677 23.0301 36.1611C22.9468 36.1544 22.8701 36.1511 22.8001 36.1511H21.1801V38.3711ZM26.324 42.0811V34.8811H29.364C29.434 34.8811 29.5274 34.8844 29.644 34.8911C29.764 34.8944 29.8707 34.9044 29.964 34.9211C30.394 34.9877 30.7457 35.1294 31.019 35.3461C31.2957 35.5627 31.499 35.8361 31.629 36.1661C31.759 36.4927 31.824 36.8577 31.824 37.2611C31.824 37.6644 31.7574 38.0311 31.624 38.3611C31.494 38.6877 31.2907 38.9594 31.014 39.1761C30.7407 39.3927 30.3907 39.5344 29.964 39.6011C29.8707 39.6144 29.764 39.6244 29.644 39.6311C29.524 39.6377 29.4307 39.6411 29.364 39.6411H27.684V42.0811H26.324ZM27.684 38.3711H29.304C29.374 38.3711 29.4507 38.3677 29.534 38.3611C29.6174 38.3544 29.694 38.3411 29.764 38.3211C29.9474 38.2711 30.089 38.1877 30.189 38.0711C30.289 37.9511 30.3574 37.8194 30.394 37.6761C30.434 37.5294 30.454 37.3911 30.454 37.2611C30.454 37.1311 30.434 36.9944 30.394 36.8511C30.3574 36.7044 30.289 36.5727 30.189 36.4561C30.089 36.3361 29.9474 36.2511 29.764 36.2011C29.694 36.1811 29.6174 36.1677 29.534 36.1611C29.4507 36.1544 29.374 36.1511 29.304 36.1511H27.684V38.3711ZM34.4979 42.0811V36.1511H32.2279V34.8811H38.1279V36.1511H35.8579V42.0811H34.4979Z" fill="white"/>
<path d="M18.8926 27.4858H39.1088" stroke="#D3D3D3" stroke-width="0.5" stroke-linecap="round"/>
<path d="M18.8906 29.5538H39.1068" stroke="#D3D3D3" stroke-width="0.5" stroke-linecap="round"/>
<path d="M18.8887 31.8524H39.1049" stroke="#D3D3D3" stroke-width="0.5" stroke-linecap="round"/>
</g>
<g clip-path="url(#clip1_1869_29622)">
<path d="M70.9529 67.6823H70.9359V68.1823C70.9359 68.4727 70.8201 68.7541 70.6064 68.9678C70.3927 69.1815 70.1113 69.2973 69.8209 69.2973H47.1599C46.8612 69.2973 46.5715 69.1761 46.3844 68.978L46.3795 68.9728L46.3745 68.9678C46.1608 68.7541 46.0449 68.4727 46.0449 68.1823V39.0274C46.0449 38.7286 46.1662 38.4389 46.3642 38.2519L46.3746 38.2421L46.3844 38.2317C46.5715 38.0336 46.8612 37.9124 47.1599 37.9124H61.0659C61.3618 37.9124 61.6586 38.0321 61.8684 38.2419L70.6234 46.9969C70.8351 47.2086 70.9529 47.4892 70.9529 47.7994V67.6823Z" fill="white" stroke="#FF6D6D"/>
<path d="M71.4359 68.1824V69.7974C71.4359 70.2224 71.2659 70.6474 70.9599 70.9364C70.6539 71.2424 70.2459 71.4124 69.8209 71.4124H47.1599C46.2589 71.4124 45.5449 70.6814 45.5449 69.7974V68.1824C45.5449 68.6074 45.7149 69.0154 46.0209 69.3214C46.3269 69.6274 46.7349 69.7974 47.1599 69.7974H69.8209C70.7219 69.7974 71.4359 69.0664 71.4359 68.1824Z" fill="#D0D7E3"/>
<path d="M42.2969 55.2284H74.6819V63.3204C74.6819 64.2214 73.9509 64.9354 73.0669 64.9354H43.9289C43.5039 64.9354 43.0789 64.7654 42.7899 64.4594C42.4839 64.1534 42.3139 63.7454 42.3139 63.3034V55.2284H42.2969Z" fill="#EF4444"/>
<path d="M45.5439 55.2283V51.9813L42.2969 55.2283H45.5439ZM71.4349 55.2283L71.4689 51.9813L74.6989 55.2283H71.4349Z" fill="#D50B0B"/>
<path d="M71.4364 47.7995V48.0205H62.6814C61.7804 48.0205 61.0664 47.2895 61.0664 46.4055V37.4125C61.4914 37.4125 61.9164 37.5825 62.2224 37.8885L70.9944 46.6435C71.2834 46.9495 71.4534 47.3575 71.4364 47.7995Z" fill="#FF6D6D"/>
<path d="M49.4919 63.3488V55.9368H52.6213C52.6934 55.9368 52.7895 55.9402 52.9096 55.9471C53.0331 55.9505 53.1429 55.9608 53.239 55.978C53.6817 56.0466 54.0437 56.1925 54.3251 56.4155C54.6099 56.6385 54.8192 56.9199 54.953 57.2596C55.0868 57.5959 55.1538 57.9717 55.1538 58.3869C55.1538 58.8021 55.0851 59.1795 54.9479 59.5193C54.814 59.8555 54.6047 60.1352 54.3199 60.3582C54.0385 60.5813 53.6782 60.7271 53.239 60.7958C53.1429 60.8095 53.0331 60.8198 52.9096 60.8266C52.7861 60.8335 52.69 60.8369 52.6213 60.8369H50.8919V63.3488H49.4919ZM50.8919 59.5295H52.5596C52.6316 59.5295 52.7106 59.5261 52.7963 59.5193C52.8821 59.5124 52.9611 59.4987 53.0331 59.4781C53.2218 59.4266 53.3677 59.3408 53.4706 59.2207C53.5736 59.0972 53.6439 58.9616 53.6817 58.8141C53.7228 58.6631 53.7434 58.5207 53.7434 58.3869C53.7434 58.253 53.7228 58.1124 53.6817 57.9648C53.6439 57.8138 53.5736 57.6783 53.4706 57.5582C53.3677 57.4346 53.2218 57.3471 53.0331 57.2957C52.9611 57.2751 52.8821 57.2614 52.7963 57.2545C52.7106 57.2476 52.6316 57.2442 52.5596 57.2442H50.8919V59.5295ZM56.1872 63.3488V55.9368H58.5858C58.6441 55.9368 58.7642 55.9385 58.9461 55.942C59.128 55.9454 59.303 55.9574 59.4711 55.978C60.0682 56.05 60.5743 56.2577 60.9895 56.6008C61.4047 56.9439 61.7204 57.3797 61.9366 57.9082C62.1528 58.4366 62.2609 59.0148 62.2609 59.6428C62.2609 60.2707 62.1528 60.8489 61.9366 61.3774C61.7204 61.9058 61.4047 62.3416 60.9895 62.6848C60.5743 63.0279 60.0682 63.2355 59.4711 63.3076C59.303 63.3282 59.128 63.3402 58.9461 63.3436C58.7642 63.347 58.6441 63.3488 58.5858 63.3488H56.1872ZM57.6078 62.0311H58.5858C58.6785 62.0311 58.8037 62.0294 58.9615 62.0259C59.1194 62.0191 59.2618 62.0036 59.3888 61.9796C59.7113 61.9144 59.9738 61.7634 60.1763 61.5267C60.3822 61.2899 60.5332 61.0051 60.6292 60.6722C60.7287 60.3394 60.7785 59.9962 60.7785 59.6428C60.7785 59.2722 60.727 58.9205 60.6241 58.5876C60.5246 58.2548 60.3719 57.9734 60.166 57.7435C59.9601 57.5136 59.701 57.3677 59.3888 57.306C59.2618 57.2785 59.1194 57.2631 58.9615 57.2596C58.8037 57.2562 58.6785 57.2545 58.5858 57.2545H57.6078V62.0311ZM63.4958 63.3488V55.9368H68.0253V57.3368H64.8958V58.9428H67.4077V60.3428H64.8958V63.3488H63.4958Z" fill="white"/>
<path d="M48.3906 48.8983H68.6068" stroke="#D3D3D3" stroke-width="0.5" stroke-linecap="round"/>
<path d="M48.3906 50.9662H68.6068" stroke="#D3D3D3" stroke-width="0.5" stroke-linecap="round"/>
<path d="M48.3906 53.2642H68.6068" stroke="#D3D3D3" stroke-width="0.5" stroke-linecap="round"/>
</g>
<path d="M53.2114 31.6782L51.0575 32.0891L55.0768 34.7064L57.6989 30.8216L55.5616 31.229C55.3669 28.8151 52.0337 25.9018 49.8006 24.9965C47.4522 24.0443 45.0639 24.0945 43.6811 26.1788C44.8044 25.187 46.8978 25.8149 48.6112 26.3228C49.0721 26.4594 49.5225 26.6381 49.9142 26.9166C51.4501 28.0084 53.0108 29.8836 53.2114 31.6782Z" fill="#0F67B1"/>
<defs>
<clipPath id="clip0_1869_29622">
<rect width="34" height="34" fill="white" transform="translate(12 16)"/>
</clipPath>
<clipPath id="clip1_1869_29622">
<rect width="34" height="34" fill="white" transform="translate(41.5 37.412)"/>
</clipPath>
</defs>
</svg>
