<svg width="88" height="88" viewBox="0 0 88 88" fill="none" xmlns="http://www.w3.org/2000/svg">
<circle cx="44" cy="44" r="44" fill="#FFECCD"/>
<path fill-rule="evenodd" clip-rule="evenodd" d="M28.3438 39.8751H59.7129V48.2944H28.3438V39.8751ZM28.3438 56.6728H59.7129V65.0922H28.3438V56.6728ZM28.3438 23.0762H59.7129V31.4956H28.3438V23.0762Z" fill="#FFAE06"/>
<path fill-rule="evenodd" clip-rule="evenodd" d="M28.3438 39.8751H57.3215V48.2944H28.3438V39.8751ZM28.3438 56.6728H57.3215V65.0922H28.3438V56.6728ZM28.3438 23.0762H57.3215V31.4956H28.3438V23.0762Z" fill="#FFC107"/>
<path fill-rule="evenodd" clip-rule="evenodd" d="M33.2325 43.07C32.9366 43.07 32.6953 42.8299 32.6953 42.5328C32.6953 42.2369 32.9355 41.9956 33.2325 41.9956H54.8244C55.1203 41.9956 55.3617 42.2357 55.3617 42.5328C55.3617 42.8287 55.1215 43.07 54.8244 43.07H33.2325ZM37.0353 46.1717C36.7394 46.1717 36.4981 45.9315 36.4981 45.6344C36.4981 45.3385 36.7382 45.0972 37.0353 45.0972H51.0217C51.3176 45.0972 51.5589 45.3374 51.5589 45.6344C51.5589 45.9304 51.3187 46.1717 51.0217 46.1717H37.0353ZM33.2325 59.8689C32.9366 59.8689 32.6953 59.6287 32.6953 59.3317C32.6953 59.0357 32.9355 58.7944 33.2325 58.7944H54.8244C55.1203 58.7944 55.3617 59.0346 55.3617 59.3317C55.3617 59.6287 55.1215 59.8689 54.8244 59.8689H33.2325ZM37.0353 62.9705C36.7394 62.9705 36.4981 62.7304 36.4981 62.4333C36.4981 62.1374 36.7382 61.8961 37.0353 61.8961H51.0217C51.3176 61.8961 51.5589 62.1362 51.5589 62.4333C51.5589 62.7304 51.3187 62.9705 51.0217 62.9705H37.0353ZM33.2325 26.2712C32.9366 26.2712 32.6953 26.031 32.6953 25.734C32.6953 25.4369 32.9355 25.1967 33.2325 25.1967H54.8244C55.1203 25.1967 55.3617 25.4369 55.3617 25.734C55.3617 26.0299 55.1215 26.2712 54.8244 26.2712H33.2325ZM37.0353 29.374C36.7394 29.374 36.4981 29.1338 36.4981 28.8367C36.4981 28.5396 36.7382 28.2995 37.0353 28.2995H51.0217C51.3176 28.2995 51.5589 28.5396 51.5589 28.8367C51.5589 29.1327 51.3187 29.374 51.0217 29.374H37.0353Z" fill="#3B566A"/>
<path fill-rule="evenodd" clip-rule="evenodd" d="M22.0176 56.6728C22.0176 56.3757 22.2577 56.1356 22.5548 56.1356C22.8507 56.1356 23.092 56.3757 23.092 56.6728V65.0921C23.092 65.3892 22.8519 65.6294 22.5548 65.6294C22.2577 65.6294 22.0176 65.3892 22.0176 65.0921V56.6728Z" fill="#B93C64"/>
<path fill-rule="evenodd" clip-rule="evenodd" d="M20.385 60.0146C20.2926 60.1222 20.1613 60.1889 20.0199 60.2C19.8785 60.2111 19.7384 60.1657 19.6303 60.0738C19.5227 59.9814 19.4561 59.8501 19.445 59.7087C19.4339 59.5673 19.4793 59.4272 19.5712 59.3192L22.1458 56.3268C22.2382 56.2192 22.3695 56.1526 22.5109 56.1415C22.6523 56.1304 22.7924 56.1757 22.9004 56.2676C22.9232 56.287 22.9437 56.3075 22.9619 56.3302L25.5343 59.3192C25.58 59.3726 25.6148 59.4345 25.6366 59.5013C25.6584 59.5682 25.6668 59.6387 25.6613 59.7088C25.6558 59.7789 25.6365 59.8472 25.6045 59.9098C25.5726 59.9725 25.5286 60.0282 25.4751 60.0738C25.4217 60.1196 25.3598 60.1543 25.2929 60.1761C25.2261 60.1979 25.1556 60.2063 25.0855 60.2008C25.0154 60.1953 24.947 60.176 24.8844 60.1441C24.8218 60.1121 24.766 60.0681 24.7204 60.0146L22.5521 57.4946L20.385 60.0146ZM66.0398 48.2933C66.0398 48.5893 65.7996 48.8306 65.5025 48.8306C65.2066 48.8306 64.9653 48.5904 64.9653 48.2933V39.874C64.9653 39.578 65.2055 39.3367 65.5025 39.3367C65.7996 39.3367 66.0398 39.5769 66.0398 39.874V48.2933Z" fill="#B93C64"/>
<path fill-rule="evenodd" clip-rule="evenodd" d="M62.5211 45.6492C62.4754 45.5958 62.4406 45.534 62.4188 45.4671C62.397 45.4002 62.3886 45.3297 62.3941 45.2596C62.3996 45.1895 62.4189 45.1212 62.4509 45.0586C62.4828 44.9959 62.5268 44.9402 62.5803 44.8946C62.6337 44.8489 62.6956 44.8141 62.7625 44.7923C62.8293 44.7705 62.8998 44.7621 62.9699 44.7676C63.04 44.7731 63.1084 44.7924 63.171 44.8243C63.2336 44.8563 63.2894 44.9003 63.335 44.9538L65.5033 47.4738L67.6716 44.9538C67.764 44.8462 67.8952 44.7795 68.0367 44.7685C68.1781 44.7574 68.3181 44.8027 68.4262 44.8946C68.6504 45.087 68.6766 45.425 68.4854 45.6492L65.913 48.6382C65.8948 48.6598 65.8743 48.6814 65.8516 48.7008C65.7982 48.7465 65.7363 48.7813 65.6694 48.8031C65.6026 48.8249 65.5321 48.8333 65.462 48.8278C65.3919 48.8223 65.3235 48.803 65.2609 48.7711C65.1982 48.7391 65.1425 48.6951 65.0969 48.6416L62.5211 45.6492ZM23.0901 31.4956C23.0901 31.7927 22.8499 32.0328 22.5529 32.0328C22.2558 32.0328 22.0156 31.7927 22.0156 31.4956V23.0762C22.0156 22.7792 22.2558 22.539 22.5529 22.539C22.8488 22.539 23.0901 22.7792 23.0901 23.0762V31.4956Z" fill="#B93C64"/>
<path fill-rule="evenodd" clip-rule="evenodd" d="M19.572 28.8504C19.5262 28.797 19.4915 28.7351 19.4697 28.6682C19.4479 28.6014 19.4395 28.5309 19.445 28.4608C19.4505 28.3907 19.4698 28.3224 19.5017 28.2597C19.5337 28.1971 19.5777 28.1414 19.6312 28.0957C19.6846 28.05 19.7465 28.0152 19.8133 27.9934C19.8802 27.9716 19.9507 27.9632 20.0208 27.9687C20.0909 27.9742 20.1592 27.9935 20.2219 28.0255C20.2845 28.0574 20.3402 28.1014 20.3858 28.1549L22.5541 30.6749L24.7224 28.1549C24.8148 28.0473 24.9461 27.9807 25.0875 27.9696C25.2289 27.9585 25.369 28.0039 25.477 28.0957C25.7013 28.2881 25.7274 28.6262 25.5362 28.8504L22.9639 31.8393C22.9457 31.861 22.9252 31.8826 22.9024 31.9019C22.849 31.9477 22.7871 31.9825 22.7203 32.0042C22.6534 32.026 22.5829 32.0344 22.5128 32.0289C22.4427 32.0234 22.3744 32.0042 22.3117 31.9722C22.2491 31.9403 22.1934 31.8963 22.1478 31.8427L19.572 28.8504ZM22.0169 36.8805C22.0169 36.5845 22.257 36.3432 22.5541 36.3432C22.85 36.3432 23.0913 36.5834 23.0913 36.8805V51.2891C23.0913 51.585 22.8512 51.8263 22.5541 51.8263C22.257 51.8263 22.0169 51.5862 22.0169 51.2891V36.8805ZM64.9673 23.0762C64.9673 22.7792 65.2074 22.539 65.5045 22.539C65.8016 22.539 66.0418 22.7792 66.0418 23.0762V31.9486C66.0418 32.2445 65.8016 32.4858 65.5045 32.4858C65.2086 32.4858 64.9673 32.2457 64.9673 31.9486V23.0762ZM64.9673 56.2198C64.9673 55.9239 65.2074 55.6826 65.5045 55.6826C65.8016 55.6826 66.0418 55.9227 66.0418 56.2198V65.0922C66.0418 65.3892 65.8016 65.6294 65.5045 65.6294C65.2086 65.6294 64.9673 65.3892 64.9673 65.0922V56.2198Z" fill="#B93C64"/>
</svg>
