<svg width="88" height="88" viewBox="0 0 88 88" fill="none" xmlns="http://www.w3.org/2000/svg">
<circle cx="44" cy="44" r="44" fill="#C6FFF1"/>
<g clip-path="url(#clip0_1869_29989)">
<path d="M54.9662 61.0427H54.9438V61.5427C54.9438 61.968 54.774 62.379 54.4631 62.6899C54.1522 63.0008 53.7412 63.1707 53.3159 63.1707H23.458C23.0243 63.1707 22.5996 62.9954 22.3208 62.7002L22.3159 62.695L22.3108 62.6899C21.9999 62.379 21.8301 61.968 21.8301 61.5427L21.8301 23.1284C21.8301 22.6947 22.0053 22.27 22.3006 21.9912L22.3109 21.9814L22.3208 21.971C22.5996 21.6757 23.0243 21.5005 23.458 21.5005H41.7804C42.2113 21.5005 42.643 21.6742 42.95 21.9812L54.4855 33.5167C54.7944 33.8256 54.9662 34.2358 54.9662 34.6863V61.0427Z" fill="white" stroke="#FF6D6D"/>
<path d="M55.4438 61.5427V63.6706C55.4438 64.2306 55.2198 64.7906 54.8166 65.1714C54.4135 65.5746 53.8759 65.7985 53.3159 65.7985H23.458C22.2708 65.7985 21.3301 64.8354 21.3301 63.6706V61.5427C21.3301 62.1027 21.5541 62.6403 21.9573 63.0435C22.3604 63.4466 22.898 63.6706 23.458 63.6706H53.3159C54.5031 63.6706 55.4438 62.7075 55.4438 61.5427Z" fill="#D0D7E3"/>
<path d="M17.0508 44.4747H59.721V55.1367C59.721 56.3238 58.7578 57.2646 57.593 57.2646H19.2011C18.6411 57.2646 18.0811 57.0406 17.7004 56.6374C17.2972 56.2342 17.0732 55.6967 17.0732 55.1143V44.4747H17.0508Z" fill="#EF4444"/>
<path d="M21.329 44.4746V40.1964L17.0508 44.4746H21.329ZM55.4427 44.4746L55.4875 40.1964L59.7434 44.4746H55.4427Z" fill="#D50B0B"/>
<path d="M55.4447 34.6864V34.9776H43.9092C42.722 34.9776 41.7812 34.0145 41.7812 32.8497V21.0006C42.3412 21.0006 42.9012 21.2246 43.3044 21.6278L54.8623 33.1633C55.2431 33.5665 55.4671 34.1041 55.4447 34.6864Z" fill="#FF6D6D"/>
<path d="M25.7455 54.6805V45.3205H29.6975C29.7885 45.3205 29.9098 45.3249 30.0615 45.3335C30.2175 45.3379 30.3562 45.3509 30.4775 45.3725C31.0365 45.4592 31.4937 45.6434 31.849 45.925C32.2087 46.2067 32.473 46.562 32.642 46.991C32.811 47.4157 32.8955 47.8902 32.8955 48.4145C32.8955 48.9389 32.8088 49.4155 32.6355 49.8445C32.4665 50.2692 32.2022 50.6224 31.8425 50.904C31.4872 51.1857 31.0322 51.3699 30.4775 51.4565C30.3562 51.4739 30.2175 51.4869 30.0615 51.4955C29.9055 51.5042 29.7842 51.5085 29.6975 51.5085H27.5135V54.6805H25.7455ZM27.5135 49.8575H29.6195C29.7105 49.8575 29.8102 49.8532 29.9185 49.8445C30.0268 49.8359 30.1265 49.8185 30.2175 49.7925C30.4558 49.7275 30.64 49.6192 30.77 49.4675C30.9 49.3115 30.9888 49.1404 31.0365 48.954C31.0885 48.7634 31.1145 48.5835 31.1145 48.4145C31.1145 48.2455 31.0885 48.0679 31.0365 47.8815C30.9888 47.6909 30.9 47.5197 30.77 47.368C30.64 47.212 30.4558 47.1015 30.2175 47.0365C30.1265 47.0105 30.0268 46.9932 29.9185 46.9845C29.8102 46.9759 29.7105 46.9715 29.6195 46.9715H27.5135V49.8575ZM34.2006 54.6805V45.3205H37.2296C37.3032 45.3205 37.4549 45.3227 37.6846 45.327C37.9142 45.3314 38.1352 45.3465 38.3476 45.3725C39.1016 45.4635 39.7407 45.7257 40.2651 46.159C40.7894 46.5924 41.1881 47.1427 41.4611 47.81C41.7341 48.4774 41.8706 49.2075 41.8706 50.0005C41.8706 50.7935 41.7341 51.5237 41.4611 52.191C41.1881 52.8584 40.7894 53.4087 40.2651 53.842C39.7407 54.2754 39.1016 54.5375 38.3476 54.6285C38.1352 54.6545 37.9142 54.6697 37.6846 54.674C37.4549 54.6784 37.3032 54.6805 37.2296 54.6805H34.2006ZM35.9946 53.0165H37.2296C37.3466 53.0165 37.5047 53.0144 37.7041 53.01C37.9034 53.0014 38.0832 52.9819 38.2436 52.9515C38.6509 52.8692 38.9824 52.6785 39.2381 52.3795C39.4981 52.0805 39.6887 51.7209 39.8101 51.3005C39.9357 50.8802 39.9986 50.4469 39.9986 50.0005C39.9986 49.5325 39.9336 49.0884 39.8036 48.668C39.6779 48.2477 39.4851 47.8924 39.2251 47.602C38.9651 47.3117 38.6379 47.1275 38.2436 47.0495C38.0832 47.0149 37.9034 46.9954 37.7041 46.991C37.5047 46.9867 37.3466 46.9845 37.2296 46.9845H35.9946V53.0165ZM43.4301 54.6805V45.3205H49.1501V47.0885H45.1981V49.1165H48.3701V50.8845H45.1981V54.6805H43.4301Z" fill="white"/>
<path d="M25.0781 36.1343H51.7148" stroke="#D3D3D3" stroke-width="0.5" stroke-linecap="round"/>
<path d="M25.0781 38.8589H51.7148" stroke="#D3D3D3" stroke-width="0.5" stroke-linecap="round"/>
<path d="M25.0781 41.8867H51.7148" stroke="#D3D3D3" stroke-width="0.5" stroke-linecap="round"/>
</g>
<g clip-path="url(#clip1_1869_29989)">
<path d="M60.8011 44.5187C54.6255 44.5187 49.6016 49.5426 49.6016 55.7182C49.6016 61.8938 54.6255 66.9177 60.8011 66.9177C66.9767 66.9177 72.0006 61.8938 72.0006 55.7182C72.0006 49.5426 66.9767 44.5187 60.8011 44.5187Z" fill="#E83628"/>
<path opacity="0.2" d="M60.8011 44.752C66.9375 44.752 71.9315 49.7134 71.995 55.8349C71.995 55.7957 72.0006 55.7574 72.0006 55.7182C72.0006 49.5426 66.9767 44.5187 60.8011 44.5187C54.6255 44.5187 49.6016 49.5426 49.6016 55.7182C49.6016 55.7574 49.6072 55.7957 49.6072 55.8349C49.6706 49.7134 54.6656 44.752 60.8011 44.752Z" fill="white"/>
<path opacity="0.1" d="M60.8011 66.6844C54.6647 66.6844 49.6706 61.723 49.6072 55.6016C49.6072 55.6408 49.6016 55.679 49.6016 55.7182C49.6016 61.8938 54.6255 66.9177 60.8011 66.9177C66.9767 66.9177 72.0006 61.8938 72.0006 55.7182C72.0006 55.679 71.995 55.6408 71.995 55.6016C71.9315 61.723 66.9366 66.6844 60.8011 66.6844Z" fill="black"/>
<path d="M54.2676 54.7849H67.3337V56.6515H54.2676V54.7849Z" fill="white"/>
<path d="M67.3337 54.7849V56.6515H54.2676L64.0494 66.4334C65.8101 65.8953 67.4117 64.933 68.7136 63.6312C70.0154 62.3293 70.9777 60.7277 71.5158 58.967L67.3337 54.7849Z" fill="url(#paint0_linear_1869_29989)"/>
<path d="M60.8011 44.5187C54.6255 44.5187 49.6016 49.5426 49.6016 55.7182C49.6016 61.8938 54.6255 66.9177 60.8011 66.9177C66.9767 66.9177 72.0006 61.8938 72.0006 55.7182C72.0006 49.5426 66.9767 44.5187 60.8011 44.5187Z" fill="url(#paint1_linear_1869_29989)"/>
</g>
<defs>
<linearGradient id="paint0_linear_1869_29989" x1="58.5663" y1="53.4839" x2="67.0481" y2="61.9657" gradientUnits="userSpaceOnUse">
<stop stop-opacity="0.1"/>
<stop offset="1" stop-opacity="0"/>
</linearGradient>
<linearGradient id="paint1_linear_1869_29989" x1="50.6515" y1="50.9855" x2="70.9507" y2="60.4509" gradientUnits="userSpaceOnUse">
<stop stop-color="white" stop-opacity="0.2"/>
<stop offset="1" stop-color="white" stop-opacity="0"/>
</linearGradient>
<clipPath id="clip0_1869_29989">
<rect width="44.7981" height="44.7981" fill="white" transform="translate(16 21)"/>
</clipPath>
<clipPath id="clip1_1869_29989">
<rect width="22.399" height="22.399" fill="white" transform="translate(49.6016 44.5187)"/>
</clipPath>
</defs>
</svg>
