<svg width="88" height="88" viewBox="0 0 88 88" fill="none" xmlns="http://www.w3.org/2000/svg">
<circle cx="44" cy="44" r="44" fill="#FFECCD"/>
<path d="M35.296 20C35.2292 19.9993 35.1625 20.002 35.096 20.008C34.6641 20.034 34.2524 20.1995 33.9225 20.4794C33.5926 20.7593 33.3624 21.1387 33.2664 21.5606C33.1704 21.9824 33.2138 22.4241 33.39 22.8192C33.5663 23.2143 33.8659 23.5416 34.244 23.752L36.428 25.016C33.7847 25.9098 31.3863 27.4078 29.4233 29.391C27.4603 31.3741 25.9868 33.7877 25.12 36.44L23.756 34.076C23.5755 33.7523 23.3086 33.4852 22.9851 33.3044C22.6616 33.1236 22.2943 33.0362 21.924 33.052C21.5772 33.0654 21.2399 33.1687 20.9451 33.352C20.6504 33.5352 20.4084 33.792 20.243 34.097C20.0775 34.4021 19.9943 34.745 20.0015 35.0919C20.0087 35.4389 20.1061 35.778 20.284 36.076L24.284 42.996C24.4683 43.3164 24.7378 43.5795 25.0627 43.7561C25.3875 43.9326 25.7548 44.0156 26.124 43.996C26.1467 43.9964 26.1693 43.9964 26.192 43.996C26.7056 43.9855 27.1954 43.7778 27.56 43.416L33.948 39.732C34.1773 39.6016 34.3785 39.4272 34.5401 39.2187C34.7017 39.0103 34.8205 38.7719 34.8896 38.5174C34.9587 38.2628 34.9768 37.9971 34.9428 37.7356C34.9088 37.474 34.8234 37.2217 34.6915 36.9933C34.5596 36.7649 34.3839 36.5648 34.1744 36.4046C33.9648 36.2444 33.7257 36.1272 33.4707 36.0598C33.2157 35.9924 32.9499 35.976 32.6885 36.0118C32.4272 36.0475 32.1755 36.1346 31.948 36.268L28.76 38.112C29.4132 35.8285 30.6426 33.7514 32.3301 32.08C34.0175 30.4087 36.1064 29.1993 38.396 28.568L36.44 31.94C36.3087 32.168 36.2235 32.4196 36.1895 32.6804C36.1554 32.9413 36.173 33.2063 36.2414 33.4604C36.3097 33.7145 36.4274 33.9526 36.5878 34.1611C36.7481 34.3697 36.948 34.5447 37.176 34.676C37.404 34.8073 37.6556 34.8924 37.9165 34.9265C38.1773 34.9606 38.4424 34.943 38.6964 34.8746C38.9505 34.8063 39.1886 34.6886 39.3972 34.5282C39.6057 34.3678 39.7807 34.168 39.912 33.94L43.912 27.012C44.1607 26.574 44.235 26.0583 44.12 25.568C44.1129 25.5331 44.1049 25.4984 44.096 25.464C44.0697 25.3683 44.0362 25.2747 43.996 25.184C43.9809 25.1516 43.9649 25.1195 43.948 25.088C43.934 25.0596 43.9193 25.0316 43.904 25.004C43.6939 24.6347 43.3717 24.3418 42.984 24.168L36.248 20.288C35.96 20.1133 35.6325 20.0143 35.296 20ZM50 20C49.4696 20 48.9609 20.2107 48.5858 20.5858C48.2107 20.9608 48 21.4695 48 22V54C48 54.5304 48.2107 55.0391 48.5858 55.4142C48.9609 55.7893 49.4696 56 50 56H70C70.5304 56 71.0391 55.7893 71.4142 55.4142C71.7893 55.0391 72 54.5304 72 54V22C72 21.4695 71.7893 20.9608 71.4142 20.5858C71.0391 20.2107 70.5304 20 70 20H50ZM52 24H68V52H52V24ZM22 48C21.4696 48 20.9609 48.2107 20.5858 48.5858C20.2107 48.9608 20 49.4695 20 50V70C20 70.5304 20.2107 71.0391 20.5858 71.4142C20.9609 71.7893 21.4696 72 22 72H54C54.5304 72 55.0391 71.7893 55.4142 71.4142C55.7893 71.0391 56 70.5304 56 70V60H52V68H24V52H44V48H22Z" fill="#DF760D"/>
</svg>
