<?xml version="1.0" standalone="no"?>
<!DOCTYPE svg PUBLIC "-//W3C//DTD SVG 20010904//EN"
 "http://www.w3.org/TR/2001/REC-SVG-20010904/DTD/svg10.dtd">
<svg version="1.0" xmlns="http://www.w3.org/2000/svg"
 width="746.000000pt" height="583.000000pt" viewBox="0 0 746.000000 583.000000"
 preserveAspectRatio="xMidYMid meet">

<g transform="translate(0.000000,583.000000) scale(0.100000,-0.100000)"
fill="#000000" stroke="none">
<path d="M2860 4768 l0 -138 230 0 230 0 0 138 0 137 -230 0 -230 0 0 -137z
m420 118 c0 -3 -43 -43 -96 -90 l-96 -86 -82 72 c-44 39 -90 80 -101 90 -19
17 -13 18 178 18 108 0 197 -2 197 -4z m-294 -167 c-22 -14 -58 -35 -78 -48
l-38 -23 0 117 0 116 79 -68 79 -68 -42 -26z m324 45 l0 -115 -59 32 c-114 63
-113 55 -25 132 43 37 79 67 81 67 2 0 3 -52 3 -116z m-245 -54 c17 -19 18
-19 44 0 l27 19 75 -45 74 -44 -194 0 c-107 0 -191 3 -188 6 10 10 131 83 138
84 3 0 14 -9 24 -20z"/>
<path d="M2180 4840 l0 -40 -40 0 c-29 0 -40 -4 -40 -15 0 -11 11 -15 40 -15
l40 0 0 -40 c0 -29 4 -40 15 -40 11 0 15 11 15 40 l0 40 40 0 c29 0 40 4 40
15 0 11 -11 15 -40 15 l-40 0 0 40 c0 29 -4 40 -15 40 -11 0 -15 -11 -15 -40z"/>
<path d="M3590 4625 c0 -8 7 -15 15 -15 8 0 15 7 15 15 0 8 -7 15 -15 15 -8 0
-15 -7 -15 -15z"/>
<path d="M3660 4625 c0 -8 5 -15 10 -15 6 0 10 7 10 15 0 8 -4 15 -10 15 -5 0
-10 -7 -10 -15z"/>
<path d="M3720 4625 c0 -8 5 -15 10 -15 6 0 10 7 10 15 0 8 -4 15 -10 15 -5 0
-10 -7 -10 -15z"/>
<path d="M3780 4625 c0 -8 5 -15 10 -15 6 0 10 7 10 15 0 8 -4 15 -10 15 -5 0
-10 -7 -10 -15z"/>
<path d="M3840 4625 c0 -8 5 -15 10 -15 6 0 10 7 10 15 0 8 -4 15 -10 15 -5 0
-10 -7 -10 -15z"/>
<path d="M3900 4625 c0 -8 5 -15 10 -15 6 0 10 7 10 15 0 8 -4 15 -10 15 -5 0
-10 -7 -10 -15z"/>
<path d="M3960 4625 c0 -8 5 -15 10 -15 6 0 10 7 10 15 0 8 -4 15 -10 15 -5 0
-10 -7 -10 -15z"/>
<path d="M4020 4625 c0 -8 5 -15 10 -15 6 0 10 7 10 15 0 8 -4 15 -10 15 -5 0
-10 -7 -10 -15z"/>
<path d="M4080 4625 c0 -8 5 -15 10 -15 6 0 10 7 10 15 0 8 -4 15 -10 15 -5 0
-10 -7 -10 -15z"/>
<path d="M4140 4625 c0 -8 5 -15 10 -15 6 0 10 7 10 15 0 8 -4 15 -10 15 -5 0
-10 -7 -10 -15z"/>
<path d="M4845 4612 c-64 -21 -131 -86 -140 -136 -7 -33 -9 -35 -39 -28 -100
22 -203 -4 -267 -68 -53 -53 -69 -105 -49 -164 12 -36 83 -109 117 -120 19 -6
20 -11 11 -48 -5 -23 -8 -53 -6 -67 3 -23 7 -20 47 32 39 51 47 57 80 57 104
0 219 72 243 152 8 27 16 37 26 33 7 -3 38 -8 68 -11 53 -7 56 -9 101 -70 26
-35 48 -63 49 -61 1 1 -4 35 -11 75 l-12 73 37 19 c21 11 49 33 63 50 137 162
-86 359 -318 282z m196 -18 c37 -11 67 -29 96 -59 39 -39 43 -47 43 -92 0 -65
-30 -110 -93 -143 -48 -25 -48 -25 -42 -65 l6 -40 -25 30 c-14 17 -25 33 -26
36 0 4 -24 7 -53 8 -70 0 -107 15 -107 41 0 20 -68 96 -104 115 -49 28 32 142
121 169 64 19 118 19 184 0z m-310 -191 c174 -94 101 -292 -114 -310 -56 -5
-65 -9 -94 -42 l-31 -36 8 43 c7 42 7 43 -25 56 -48 20 -103 80 -111 121 -9
50 2 81 44 127 76 81 217 99 323 41z"/>
<path d="M1254 4556 c-99 -46 -164 -161 -150 -268 6 -45 5 -50 -23 -74 -60
-50 -62 -132 -5 -185 l26 -24 457 -3 457 -3 35 24 c66 44 70 139 8 191 -25 22
-41 26 -90 26 l-59 0 0 59 c0 67 -23 111 -79 148 -50 33 -135 32 -186 -3 -30
-20 -40 -23 -46 -12 -5 7 -9 16 -9 20 0 4 -15 24 -32 44 -72 82 -202 108 -304
60z m200 -10 c50 -21 107 -76 129 -125 l19 -43 33 32 c65 63 154 59 219 -10
39 -42 39 -42 34 -111 l-5 -69 68 0 c61 0 72 -3 100 -28 26 -24 32 -36 32 -72
0 -36 -6 -48 -32 -72 l-31 -28 -449 0 -449 0 -30 25 c-17 14 -33 38 -37 54 -9
42 17 96 54 112 26 12 29 17 23 39 -14 48 -6 134 15 175 26 50 77 99 123 119
44 19 140 20 184 2z"/>
<path d="M2380 4340 c0 -6 123 -10 350 -10 227 0 350 4 350 10 0 6 -123 10
-350 10 -227 0 -350 -4 -350 -10z"/>
<path d="M5480 3925 c0 -13 41 -15 305 -15 264 0 305 2 305 15 0 13 -41 15
-305 15 -264 0 -305 -2 -305 -15z"/>
<path d="M2440 3656 l0 -215 -232 -3 c-228 -3 -234 -4 -267 -27 -63 -45 -61
-15 -61 -843 0 -854 -5 -802 80 -845 44 -23 45 -23 545 -23 346 0 504 -3 512
-11 8 -8 7 -25 -2 -62 -8 -29 -23 -96 -35 -150 l-22 -97 -99 0 c-86 0 -102 -3
-119 -20 -24 -24 -25 -43 -4 -64 14 -14 83 -16 614 -16 l599 0 15 22 c20 29
20 34 -4 58 -17 17 -33 20 -119 20 l-100 0 -11 58 c-7 31 -22 102 -34 157
l-23 100 521 5 c498 5 522 6 555 25 18 11 42 36 52 55 18 33 19 72 19 788 0
834 3 797 -64 845 -29 21 -43 22 -232 25 l-200 3 -215 215 -214 214 -727 0
-728 0 0 -214z m1440 -36 l0 -230 230 0 230 0 0 -125 0 -125 -940 0 -940 0 0
355 0 355 710 0 710 0 0 -230z m235 0 l210 -210 -213 0 -212 0 0 210 c0 116 1
210 3 210 1 0 97 -94 212 -210z m-1675 -930 l1 -600 -206 0 -205 0 0 600 0
600 204 0 204 0 2 -600z m2230 0 l0 -600 -155 0 -155 0 0 600 0 600 155 0 155
0 0 -600z m-330 -80 l0 -510 -209 0 -208 0 -6 103 c-6 130 -33 214 -98 312
-164 245 -483 330 -749 199 -104 -52 -214 -161 -263 -264 -46 -96 -59 -153
-60 -263 l-1 -88 -146 3 -145 3 -3 508 -2 507 945 0 945 0 0 -510z m-859 124
c347 -102 515 -478 356 -797 -102 -205 -325 -333 -547 -314 -241 21 -445 192
-505 423 -19 73 -19 212 0 284 50 189 213 355 396 404 74 20 232 20 300 0z
m-661 -833 c19 -35 59 -89 88 -120 28 -30 52 -57 52 -58 0 -2 -213 -3 -472 -3
-439 0 -476 2 -514 19 -54 25 -74 67 -74 160 l0 71 442 -2 443 -3 35 -64z
m1980 -2 c0 -93 -20 -135 -74 -160 -38 -17 -76 -19 -535 -19 l-493 0 58 63
c33 34 74 91 92 125 l33 62 460 0 459 0 0 -71z m-1116 -341 c15 -73 30 -143
33 -155 l5 -23 -372 0 -372 0 5 23 c3 12 18 77 33 145 23 101 31 121 43 116
97 -42 155 -57 237 -61 109 -7 212 13 294 56 30 16 57 30 60 30 3 1 18 -59 34
-131z m265 -212 c6 -7 9 -21 5 -30 -6 -15 -61 -16 -604 -16 -543 0 -598 1
-604 16 -17 44 -16 44 604 44 486 0 590 -2 599 -14z"/>
<path d="M3066 2324 l-88 -155 88 -155 89 -154 185 0 186 0 84 147 c47 81 87
151 89 156 1 4 -37 78 -85 162 l-89 155 -185 0 -185 0 -89 -156z m538 -4 l86
-151 -83 -144 c-45 -80 -85 -144 -89 -142 -4 1 -45 67 -92 147 l-84 145 -171
5 -171 5 82 143 81 142 177 0 177 0 87 -150z m-187 -295 c45 -77 82 -143 82
-147 1 -5 -75 -8 -168 -8 l-169 0 -81 141 c-44 77 -81 142 -81 144 0 6 117 12
230 11 l104 -1 83 -140z"/>
<path d="M5200 3820 l0 -40 -40 0 c-29 0 -40 -4 -40 -15 0 -11 11 -15 40 -15
l40 0 0 -40 c0 -29 4 -40 15 -40 11 0 15 11 15 40 l0 40 40 0 c29 0 40 4 40
15 0 11 -11 15 -40 15 l-40 0 0 40 c0 29 -4 40 -15 40 -11 0 -15 -11 -15 -40z"/>
<path d="M5580 3720 c0 -11 5 -20 10 -20 6 0 10 9 10 20 0 11 -4 20 -10 20 -5
0 -10 -9 -10 -20z"/>
<path d="M5640 3720 c0 -11 5 -20 10 -20 6 0 10 9 10 20 0 11 -4 20 -10 20 -5
0 -10 -9 -10 -20z"/>
<path d="M5700 3720 c0 -11 5 -20 10 -20 6 0 10 9 10 20 0 11 -4 20 -10 20 -5
0 -10 -9 -10 -20z"/>
<path d="M5760 3720 c0 -13 5 -20 13 -17 6 2 12 10 12 17 0 7 -6 15 -12 18 -8
2 -13 -5 -13 -18z"/>
<path d="M5825 3730 c-4 -6 -3 -16 3 -22 6 -6 12 -6 17 2 4 6 3 16 -3 22 -6 6
-12 6 -17 -2z"/>
<path d="M5885 3730 c-4 -6 -3 -16 3 -22 6 -6 12 -6 17 2 4 6 3 16 -3 22 -6 6
-12 6 -17 -2z"/>
<path d="M5945 3730 c-4 -6 -3 -16 3 -22 6 -6 12 -6 17 2 4 6 3 16 -3 22 -6 6
-12 6 -17 -2z"/>
<path d="M6005 3730 c-4 -6 -3 -16 3 -22 6 -6 12 -6 17 2 4 6 3 16 -3 22 -6 6
-12 6 -17 -2z"/>
<path d="M6065 3730 c-8 -13 4 -32 16 -25 12 8 12 35 0 35 -6 0 -13 -4 -16
-10z"/>
<path d="M6125 3730 c-7 -12 2 -30 16 -30 5 0 9 9 9 20 0 21 -15 27 -25 10z"/>
<path d="M6190 3720 c0 -11 5 -20 10 -20 6 0 10 9 10 20 0 11 -4 20 -10 20 -5
0 -10 -9 -10 -20z"/>
<path d="M6250 3720 c0 -11 5 -20 10 -20 6 0 10 9 10 20 0 11 -4 20 -10 20 -5
0 -10 -9 -10 -20z"/>
<path d="M6310 3720 c0 -11 5 -20 10 -20 6 0 10 9 10 20 0 11 -4 20 -10 20 -5
0 -10 -9 -10 -20z"/>
<path d="M6370 3720 c0 -11 5 -20 10 -20 6 0 10 9 10 20 0 11 -4 20 -10 20 -5
0 -10 -9 -10 -20z"/>
<path d="M6430 3720 c0 -11 5 -20 10 -20 6 0 10 9 10 20 0 11 -4 20 -10 20 -5
0 -10 -9 -10 -20z"/>
<path d="M6490 3720 c0 -11 5 -20 10 -20 6 0 10 9 10 20 0 11 -4 20 -10 20 -5
0 -10 -9 -10 -20z"/>
<path d="M6550 3720 c0 -11 5 -20 10 -20 6 0 10 9 10 20 0 11 -4 20 -10 20 -5
0 -10 -9 -10 -20z"/>
<path d="M6610 3720 c0 -11 5 -20 10 -20 6 0 10 9 10 20 0 11 -4 20 -10 20 -5
0 -10 -9 -10 -20z"/>
<path d="M530 3339 c0 -12 -8 -23 -19 -26 -11 -3 -21 -15 -23 -27 -2 -13 -11
-22 -25 -24 l-23 -3 0 -305 0 -304 230 0 230 0 0 25 c0 20 5 25 25 25 20 0 25
5 25 24 0 15 7 26 20 29 19 5 20 14 20 244 l0 239 -63 62 -63 62 -167 0 c-163
0 -167 -1 -167 -21z m385 -51 l60 -63 -3 -232 c-2 -141 -7 -233 -12 -233 -6 0
-10 83 -10 212 l0 212 -62 63 -62 63 -143 0 c-136 0 -143 1 -143 20 0 19 7 20
158 20 l158 0 59 -62z m-387 -5 c-5 -25 -28 -28 -28 -4 0 12 6 21 16 21 9 0
14 -7 12 -17z m350 -46 l62 -63 -2 -204 c-3 -186 -5 -205 -20 -208 -17 -3 -18
11 -18 184 l0 188 -62 63 -62 63 -118 0 c-111 0 -118 1 -118 20 0 19 7 20 138
20 l138 0 62 -63z m-118 -47 l0 -59 63 -3 62 -3 0 -230 0 -230 -215 0 -215 0
-3 293 -2 292 155 0 155 0 0 -60z m178 -457 c-5 -26 -38 -29 -38 -4 0 15 6 21
21 21 14 0 19 -5 17 -17z"/>
<path d="M1230 3335 c0 -13 32 -15 225 -15 193 0 225 2 225 15 0 13 -32 15
-225 15 -193 0 -225 -2 -225 -15z"/>
<path d="M5420 3165 l0 -105 -105 0 -105 0 0 -220 0 -220 105 0 105 0 0 -35 0
-35 220 0 220 0 0 35 0 35 105 0 105 0 0 220 0 220 -105 0 -105 0 0 58 c0 56
-2 59 -48 105 l-48 47 -172 0 -172 0 0 -105z m338 43 l3 -48 45 0 44 0 0 -120
0 -120 -205 0 -205 0 0 170 0 171 158 -3 157 -3 3 -47z m42 -3 l23 -25 -26 0
c-22 0 -27 5 -27 25 0 14 1 25 3 25 2 0 14 -11 27 -25z m-378 -232 l3 -68 218
-3 217 -2 0 70 0 70 100 0 100 0 -2 -202 -3 -203 -97 -3 -98 -3 0 41 0 40
-217 -2 -218 -3 -3 -37 -3 -38 -100 0 -99 0 0 205 0 205 100 0 99 0 3 -67z
m426 -345 l-3 -63 -202 -3 -203 -2 0 65 0 65 205 0 206 0 -3 -62z"/>
<path d="M5260 2941 c0 -27 4 -31 26 -31 22 0 25 4 22 28 -2 19 -9 28 -25 30
-20 3 -23 -1 -23 -27z m30 -1 c0 -5 -4 -10 -10 -10 -5 0 -10 5 -10 10 0 6 5
10 10 10 6 0 10 -4 10 -10z"/>
<path d="M5260 2875 c0 -20 5 -25 25 -25 20 0 25 5 25 25 0 20 -5 25 -25 25
-20 0 -25 -5 -25 -25z m30 -5 c0 -5 -4 -10 -10 -10 -5 0 -10 5 -10 10 0 6 5
10 10 10 6 0 10 -4 10 -10z"/>
<path d="M6300 2825 c0 -13 47 -15 365 -15 318 0 365 2 365 15 0 13 -47 15
-365 15 -318 0 -365 -2 -365 -15z"/>
<path d="M1000 2380 c0 -6 108 -10 305 -10 197 0 305 4 305 10 0 6 -108 10
-305 10 -197 0 -305 -4 -305 -10z"/>
<path d="M6068 2343 c101 -2 263 -2 360 0 97 1 15 2 -183 2 -198 0 -278 -1
-177 -2z"/>
<path d="M540 2185 c0 -13 47 -15 365 -15 318 0 365 2 365 15 0 13 -47 15
-365 15 -318 0 -365 -2 -365 -15z"/>
<path d="M5457 2133 c-4 -3 -7 -24 -7 -45 0 -38 0 -38 -40 -38 -22 0 -40 -4
-40 -10 0 -5 18 -10 39 -10 40 0 40 0 43 -42 4 -59 28 -63 28 -4 l0 46 40 0
c22 0 40 5 40 10 0 6 -18 10 -40 10 l-40 0 0 45 c0 42 -7 54 -23 38z"/>
<path d="M1308 2044 c-5 -4 -8 -18 -8 -31 0 -18 -6 -23 -24 -23 -14 0 -28 -4
-31 -10 -4 -6 7 -10 24 -10 28 0 31 -3 31 -30 0 -16 5 -30 10 -30 6 0 10 14
10 30 0 27 3 30 30 30 17 0 30 5 30 10 0 6 -13 10 -29 10 -26 0 -30 4 -33 31
-2 17 -6 27 -10 23z"/>
<path d="M1378 1621 c-142 -53 -258 -101 -258 -107 0 -6 22 -21 49 -34 53 -25
52 -22 76 -153 4 -20 11 -40 17 -43 5 -3 26 13 46 37 l38 42 54 -57 c42 -45
56 -54 65 -44 14 15 185 428 185 446 0 7 -3 11 -7 11 -5 -1 -124 -45 -265 -98z
m171 -142 c-44 -107 -84 -197 -88 -201 -4 -4 -34 19 -66 52 l-60 60 145 145
c79 79 145 143 147 142 1 -2 -34 -91 -78 -198z m-4 183 c-22 -19 -314 -192
-324 -192 -15 0 -94 40 -89 45 5 6 401 154 413 154 6 1 6 -2 0 -7z m-91 -134
c-77 -79 -149 -160 -159 -180 -11 -21 -22 -38 -26 -38 -10 0 -32 141 -23 150
11 10 337 209 344 210 2 0 -59 -64 -136 -142z"/>
<path d="M5138 1623 c101 -2 263 -2 360 0 97 1 15 2 -183 2 -198 0 -278 -1
-177 -2z"/>
<path d="M4938 1493 c101 -2 263 -2 360 0 97 1 15 2 -183 2 -198 0 -278 -1
-177 -2z"/>
<path d="M3930 945 c0 -8 7 -15 15 -15 8 0 15 7 15 15 0 8 -7 15 -15 15 -8 0
-15 -7 -15 -15z"/>
<path d="M3990 945 c0 -8 7 -15 15 -15 8 0 15 7 15 15 0 8 -7 15 -15 15 -8 0
-15 -7 -15 -15z"/>
<path d="M4057 953 c-12 -11 -8 -23 8 -23 8 0 15 7 15 15 0 16 -12 20 -23 8z"/>
<path d="M4120 945 c0 -8 5 -15 10 -15 6 0 10 7 10 15 0 8 -4 15 -10 15 -5 0
-10 -7 -10 -15z"/>
<path d="M4180 945 c0 -8 5 -15 10 -15 6 0 10 7 10 15 0 8 -4 15 -10 15 -5 0
-10 -7 -10 -15z"/>
<path d="M4240 945 c0 -8 5 -15 10 -15 6 0 10 7 10 15 0 8 -4 15 -10 15 -5 0
-10 -7 -10 -15z"/>
<path d="M4300 945 c0 -8 5 -15 10 -15 6 0 10 7 10 15 0 8 -4 15 -10 15 -5 0
-10 -7 -10 -15z"/>
<path d="M4360 945 c0 -8 5 -15 10 -15 6 0 10 7 10 15 0 8 -4 15 -10 15 -5 0
-10 -7 -10 -15z"/>
<path d="M4420 945 c0 -8 5 -15 10 -15 6 0 10 7 10 15 0 8 -4 15 -10 15 -5 0
-10 -7 -10 -15z"/>
<path d="M4480 945 c0 -8 5 -15 10 -15 6 0 10 7 10 15 0 8 -4 15 -10 15 -5 0
-10 -7 -10 -15z"/>
<path d="M4540 945 c0 -8 5 -15 10 -15 6 0 10 7 10 15 0 8 -4 15 -10 15 -5 0
-10 -7 -10 -15z"/>
<path d="M4600 945 c0 -8 5 -15 10 -15 6 0 10 7 10 15 0 8 -4 15 -10 15 -5 0
-10 -7 -10 -15z"/>
<path d="M4660 945 c0 -8 7 -15 15 -15 8 0 15 7 15 15 0 8 -7 15 -15 15 -8 0
-15 -7 -15 -15z"/>
</g>
</svg>
