<svg width="88" height="88" viewBox="0 0 88 88" fill="none" xmlns="http://www.w3.org/2000/svg">
<circle cx="44" cy="44" r="44" fill="#C6FFF1"/>
<path d="M22.3496 49.6397L25.7998 46.1895L24.0747 48.7771L26.6624 49.6397H22.3496Z" stroke="#C72323"/>
<path d="M48.8449 50.8834L44.2055 48.3289L46.774 50.4987L44.2898 52.1532L48.8449 50.8834Z" stroke="#C72323"/>
<mask id="path-4-inside-1_1869_29897" fill="white">
<path fill-rule="evenodd" clip-rule="evenodd" d="M24.3516 37.3533V45.8954L24.3528 45.8941V48.7489H24.3516V60.138C24.3516 60.5116 24.501 60.8703 24.7701 61.1394C25.0391 61.4084 25.3978 61.5579 25.7715 61.5579H45.6948C45.7491 61.5579 45.8026 61.5548 45.8552 61.549C46.17 61.5126 46.466 61.37 46.6962 61.1397C46.96 60.876 47.1088 60.5261 47.1145 60.1604L47.1147 60.1383H47.1297V48.8613L43.6301 47.0933H26.8556C26.8163 47.0933 26.7845 47.0615 26.7845 47.0222C26.7845 46.983 26.8163 46.9512 26.8556 46.9512H43.3489L39.6313 45.073H26.8556C26.8163 45.073 26.7845 45.0412 26.7845 45.002C26.7845 44.9627 26.8163 44.9309 26.8556 44.9309H39.3501L36.0334 43.2552H26.8556C26.8163 43.2552 26.7845 43.2234 26.7845 43.1842C26.7845 43.145 26.8163 43.1132 26.8556 43.1132H35.7522L24.3516 37.3533Z"/>
</mask>
<path fill-rule="evenodd" clip-rule="evenodd" d="M24.3516 37.3533V45.8954L24.3528 45.8941V48.7489H24.3516V60.138C24.3516 60.5116 24.501 60.8703 24.7701 61.1394C25.0391 61.4084 25.3978 61.5579 25.7715 61.5579H45.6948C45.7491 61.5579 45.8026 61.5548 45.8552 61.549C46.17 61.5126 46.466 61.37 46.6962 61.1397C46.96 60.876 47.1088 60.5261 47.1145 60.1604L47.1147 60.1383H47.1297V48.8613L43.6301 47.0933H26.8556C26.8163 47.0933 26.7845 47.0615 26.7845 47.0222C26.7845 46.983 26.8163 46.9512 26.8556 46.9512H43.3489L39.6313 45.073H26.8556C26.8163 45.073 26.7845 45.0412 26.7845 45.002C26.7845 44.9627 26.8163 44.9309 26.8556 44.9309H39.3501L36.0334 43.2552H26.8556C26.8163 43.2552 26.7845 43.2234 26.7845 43.1842C26.7845 43.145 26.8163 43.1132 26.8556 43.1132H35.7522L24.3516 37.3533Z" fill="white"/>
<path d="M24.3516 45.8954H24.2095V46.2384L24.452 45.9958L24.3516 45.8954ZM24.3516 37.3533L24.4156 37.2265L24.2095 37.1223V37.3533H24.3516ZM24.3528 45.8941H24.4949V45.5511L24.2523 45.7937L24.3528 45.8941ZM24.3528 48.7489V48.8909H24.4949V48.7489H24.3528ZM24.3516 48.7489V48.6068H24.2095V48.7489H24.3516ZM24.7701 61.1394L24.6696 61.2398L24.7701 61.1394ZM45.8552 61.549L45.871 61.6902L45.8715 61.6901L45.8552 61.549ZM47.1145 60.1604L47.2566 60.1626L47.2566 60.1615L47.1145 60.1604ZM47.1147 60.1383V59.9962H46.9738L46.9727 60.1372L47.1147 60.1383ZM47.1297 60.1383V60.2804H47.2717V60.1383H47.1297ZM47.1297 48.8613H47.2717V48.7739L47.1937 48.7345L47.1297 48.8613ZM43.6301 47.0933L43.6942 46.9665L43.6639 46.9512H43.6301V47.0933ZM43.3489 46.9512V47.0933L43.413 46.8244L43.3489 46.9512ZM39.6313 45.073L39.6954 44.9462L39.6652 44.9309H39.6313V45.073ZM39.3501 44.9309V45.073L39.4142 44.8041L39.3501 44.9309ZM36.0334 43.2552L36.0975 43.1284L36.0673 43.1132H36.0334V43.2552ZM35.7522 43.1132V43.2552L35.8163 42.9864L35.7522 43.1132ZM24.4936 45.8954V37.3533H24.2095V45.8954H24.4936ZM24.2523 45.7937L24.2511 45.7949L24.452 45.9958L24.4532 45.9946L24.2523 45.7937ZM24.4949 48.7489V45.8941H24.2107V48.7489H24.4949ZM24.3516 48.8909H24.3528V48.6068H24.3516V48.8909ZM24.4936 60.138V48.7489H24.2095V60.138H24.4936ZM24.8705 61.0389C24.6277 60.7961 24.4936 60.4734 24.4936 60.138H24.2095C24.2095 60.5499 24.3743 60.9446 24.6696 61.2398L24.8705 61.0389ZM25.7715 61.4158C25.4361 61.4158 25.1133 61.2817 24.8705 61.0389L24.6696 61.2398C24.9649 61.5351 25.3595 61.6999 25.7715 61.6999V61.4158ZM45.6948 61.4158H25.7715V61.6999H45.6948V61.4158ZM45.8395 61.4078C45.7921 61.4131 45.7438 61.4158 45.6948 61.4158V61.6999C45.7544 61.6999 45.8132 61.6966 45.871 61.6902L45.8395 61.4078ZM46.5958 61.0392C46.3879 61.2471 46.1215 61.3752 45.8389 61.4078L45.8715 61.6901C46.2185 61.65 46.544 61.4928 46.7967 61.2402L46.5958 61.0392ZM46.9725 60.1581C46.9673 60.4864 46.8338 60.8012 46.5958 61.0392L46.7967 61.2402C47.0861 60.9507 47.2502 60.5657 47.2566 60.1626L46.9725 60.1581ZM46.9727 60.1372L46.9725 60.1592L47.2566 60.1615L47.2568 60.1394L46.9727 60.1372ZM47.1297 59.9962H47.1147V60.2804H47.1297V59.9962ZM46.9876 48.8613V60.1383H47.2717V48.8613H46.9876ZM47.1937 48.7345L43.6942 46.9665L43.566 47.2201L47.0656 48.9881L47.1937 48.7345ZM26.8556 47.2353H43.6301V46.9512H26.8556V47.2353ZM26.6425 47.0222C26.6425 47.1399 26.7379 47.2353 26.8556 47.2353V46.9512C26.8948 46.9512 26.9266 46.983 26.9266 47.0222H26.6425ZM26.8556 46.8091C26.7379 46.8091 26.6425 46.9045 26.6425 47.0222H26.9266C26.9266 47.0615 26.8948 47.0933 26.8556 47.0933V46.8091ZM43.3489 46.8091H26.8556V47.0933H43.3489V46.8091ZM43.413 46.8244L39.6954 44.9462L39.5673 45.1998L43.2848 47.078L43.413 46.8244ZM39.6313 44.9309H26.8556V45.2151H39.6313V44.9309ZM26.8556 44.9309C26.8948 44.9309 26.9266 44.9627 26.9266 45.002H26.6425C26.6425 45.1197 26.7379 45.2151 26.8556 45.2151V44.9309ZM26.9266 45.002C26.9266 45.0412 26.8948 45.073 26.8556 45.073V44.7889C26.7379 44.7889 26.6425 44.8843 26.6425 45.002H26.9266ZM26.8556 45.073H39.3501V44.7889H26.8556V45.073ZM39.4142 44.8041L36.0975 43.1284L35.9694 43.382L39.2861 45.0577L39.4142 44.8041ZM26.8556 43.3973H36.0334V43.1132H26.8556V43.3973ZM26.6425 43.1842C26.6425 43.3019 26.7379 43.3973 26.8556 43.3973V43.1132C26.8948 43.1132 26.9266 43.145 26.9266 43.1842H26.6425ZM26.8556 42.9711C26.7379 42.9711 26.6425 43.0665 26.6425 43.1842H26.9266C26.9266 43.2234 26.8948 43.2552 26.8556 43.2552V42.9711ZM35.7522 42.9711H26.8556V43.2552H35.7522V42.9711ZM35.8163 42.9864L24.4156 37.2265L24.2875 37.4801L35.6882 43.24L35.8163 42.9864Z" fill="#FF6D6D" mask="url(#path-4-inside-1_1869_29897)"/>
<path d="M20.625 50.502H49.9517V57.6924C49.9517 58.493 49.2898 59.1275 48.4893 59.1275H22.1029C21.718 59.1275 21.3332 58.9764 21.0714 58.7045C20.7943 58.4326 20.6404 58.07 20.6404 57.6773V50.502H20.625Z" fill="#EF4444"/>
<path d="M27.1222 58V51.52H29.8582C29.9212 51.52 30.0052 51.523 30.1102 51.529C30.2182 51.532 30.3142 51.541 30.3982 51.556C30.7852 51.616 31.1017 51.7435 31.3477 51.9385C31.5967 52.1335 31.7797 52.3795 31.8967 52.6765C32.0137 52.9705 32.0722 53.299 32.0722 53.662C32.0722 54.025 32.0122 54.355 31.8922 54.652C31.7752 54.946 31.5922 55.1905 31.3432 55.3855C31.0972 55.5805 30.7822 55.708 30.3982 55.768C30.3142 55.78 30.2182 55.789 30.1102 55.795C30.0022 55.801 29.9182 55.804 29.8582 55.804H28.3462V58H27.1222ZM28.3462 54.661H29.8042C29.8672 54.661 29.9362 54.658 30.0112 54.652C30.0862 54.646 30.1552 54.634 30.2182 54.616C30.3832 54.571 30.5107 54.496 30.6007 54.391C30.6907 54.283 30.7522 54.1645 30.7852 54.0355C30.8212 53.9035 30.8392 53.779 30.8392 53.662C30.8392 53.545 30.8212 53.422 30.7852 53.293C30.7522 53.161 30.6907 53.0425 30.6007 52.9375C30.5107 52.8295 30.3832 52.753 30.2182 52.708C30.1552 52.69 30.0862 52.678 30.0112 52.672C29.9362 52.666 29.8672 52.663 29.8042 52.663H28.3462V54.661ZM32.9757 58V51.52H35.0727C35.1237 51.52 35.2287 51.5215 35.3877 51.5245C35.5467 51.5275 35.6997 51.538 35.8467 51.556C36.3687 51.619 36.8112 51.8005 37.1742 52.1005C37.5372 52.4005 37.8132 52.7815 38.0022 53.2435C38.1912 53.7055 38.2857 54.211 38.2857 54.76C38.2857 55.309 38.1912 55.8145 38.0022 56.2765C37.8132 56.7385 37.5372 57.1195 37.1742 57.4195C36.8112 57.7195 36.3687 57.901 35.8467 57.964C35.6997 57.982 35.5467 57.9925 35.3877 57.9955C35.2287 57.9985 35.1237 58 35.0727 58H32.9757ZM34.2177 56.848H35.0727C35.1537 56.848 35.2632 56.8465 35.4012 56.8435C35.5392 56.8375 35.6637 56.824 35.7747 56.803C36.0567 56.746 36.2862 56.614 36.4632 56.407C36.6432 56.2 36.7752 55.951 36.8592 55.66C36.9462 55.369 36.9897 55.069 36.9897 54.76C36.9897 54.436 36.9447 54.1285 36.8547 53.8375C36.7677 53.5465 36.6342 53.3005 36.4542 53.0995C36.2742 52.8985 36.0477 52.771 35.7747 52.717C35.6637 52.693 35.5392 52.6795 35.4012 52.6765C35.2632 52.6735 35.1537 52.672 35.0727 52.672H34.2177V56.848ZM39.3654 58V51.52H43.3254V52.744H40.5894V54.148H42.7854V55.372H40.5894V58H39.3654Z" fill="white"/>
<mask id="path-8-inside-2_1869_29897" fill="white">
<path fill-rule="evenodd" clip-rule="evenodd" d="M26.1289 30.319L29.4048 31.9738H49.4686C49.5079 31.9738 49.5397 32.0056 49.5397 32.0448C49.5397 32.0841 49.5079 32.1159 49.4686 32.1159H29.686L52.3493 43.5639V26.5154C52.3493 26.0681 52.1773 25.6552 51.8676 25.3455L43.007 16.4849C42.6973 16.1752 42.2672 16.0032 41.8371 16.0032H27.7634C27.3333 16.0032 26.9031 16.1752 26.6106 16.4849C26.301 16.7774 26.1289 17.2075 26.1289 17.6376V30.319ZM28.9369 27.6269C28.9369 27.5876 28.9687 27.5558 29.008 27.5558H49.4686C49.5079 27.5558 49.5397 27.5876 49.5397 27.6269C49.5397 27.6661 49.5079 27.6979 49.4686 27.6979H29.008C28.9687 27.6979 28.9369 27.6661 28.9369 27.6269ZM29.008 29.6483C28.9687 29.6483 28.9369 29.6801 28.9369 29.7193C28.9369 29.7585 28.9687 29.7903 29.008 29.7903H49.4686C49.5079 29.7903 49.5397 29.7585 49.5397 29.7193C49.5397 29.6801 49.5079 29.6483 49.4686 29.6483H29.008Z"/>
</mask>
<path fill-rule="evenodd" clip-rule="evenodd" d="M26.1289 30.319L29.4048 31.9738H49.4686C49.5079 31.9738 49.5397 32.0056 49.5397 32.0448C49.5397 32.0841 49.5079 32.1159 49.4686 32.1159H29.686L52.3493 43.5639V26.5154C52.3493 26.0681 52.1773 25.6552 51.8676 25.3455L43.007 16.4849C42.6973 16.1752 42.2672 16.0032 41.8371 16.0032H27.7634C27.3333 16.0032 26.9031 16.1752 26.6106 16.4849C26.301 16.7774 26.1289 17.2075 26.1289 17.6376V30.319ZM28.9369 27.6269C28.9369 27.5876 28.9687 27.5558 29.008 27.5558H49.4686C49.5079 27.5558 49.5397 27.5876 49.5397 27.6269C49.5397 27.6661 49.5079 27.6979 49.4686 27.6979H29.008C28.9687 27.6979 28.9369 27.6661 28.9369 27.6269ZM29.008 29.6483C28.9687 29.6483 28.9369 29.6801 28.9369 29.7193C28.9369 29.7585 28.9687 29.7903 29.008 29.7903H49.4686C49.5079 29.7903 49.5397 29.7585 49.5397 29.7193C49.5397 29.6801 49.5079 29.6483 49.4686 29.6483H29.008Z" fill="white"/>
<path d="M26.1289 30.319H25.9868V30.4064L26.0649 30.4459L26.1289 30.319ZM29.4048 31.9738L29.3407 32.1006L29.371 32.1159H29.4048V31.9738ZM29.686 32.1159V31.9738L29.622 32.2427L29.686 32.1159ZM52.3493 43.5639L52.2853 43.6907L52.4914 43.7949V43.5639H52.3493ZM51.8676 25.3455L51.7671 25.4459L51.8676 25.3455ZM43.007 16.4849L42.9065 16.5854V16.5854L43.007 16.4849ZM26.6106 16.4849L26.7084 16.5884L26.7139 16.5825L26.6106 16.4849ZM26.0649 30.4459L29.3407 32.1006L29.4689 31.847L26.193 30.1922L26.0649 30.4459ZM49.4686 31.8317H29.4048V32.1159H49.4686V31.8317ZM49.6817 32.0448C49.6817 31.9272 49.5863 31.8317 49.4686 31.8317V32.1159C49.4294 32.1159 49.3976 32.0841 49.3976 32.0448H49.6817ZM49.4686 32.258C49.5863 32.258 49.6817 32.1625 49.6817 32.0448H49.3976C49.3976 32.0056 49.4294 31.9738 49.4686 31.9738V32.258ZM29.686 32.258H49.4686V31.9738H29.686V32.258ZM29.622 32.2427L52.2853 43.6907L52.4134 43.4371L29.7501 31.9891L29.622 32.2427ZM52.2073 26.5154V43.5639H52.4914V26.5154H52.2073ZM51.7671 25.4459C52.05 25.7288 52.2073 26.1056 52.2073 26.5154H52.4914C52.4914 26.0306 52.3045 25.5815 51.968 25.245L51.7671 25.4459ZM42.9065 16.5854L51.7671 25.4459L51.968 25.245L43.1075 16.3845L42.9065 16.5854ZM41.8371 16.1452C42.2305 16.1452 42.6242 16.303 42.9065 16.5854L43.1075 16.3845C42.7704 16.0474 42.3039 15.8611 41.8371 15.8611V16.1452ZM27.7634 16.1452H41.8371V15.8611H27.7634V16.1452ZM26.7139 16.5825C26.9775 16.3034 27.3691 16.1452 27.7634 16.1452V15.8611C27.2974 15.8611 26.8288 16.047 26.5074 16.3874L26.7139 16.5825ZM26.271 17.6376C26.271 17.2434 26.4292 16.8517 26.7082 16.5882L26.5131 16.3816C26.1727 16.7031 25.9868 17.1716 25.9868 17.6376H26.271ZM26.271 30.319V17.6376H25.9868V30.319H26.271ZM29.008 27.4138C28.8903 27.4138 28.7949 27.5092 28.7949 27.6269H29.079C29.079 27.6661 29.0472 27.6979 29.008 27.6979V27.4138ZM49.4686 27.4138H29.008V27.6979H49.4686V27.4138ZM49.6817 27.6269C49.6817 27.5092 49.5863 27.4138 49.4686 27.4138V27.6979C49.4294 27.6979 49.3976 27.6661 49.3976 27.6269H49.6817ZM49.4686 27.84C49.5863 27.84 49.6817 27.7446 49.6817 27.6269H49.3976C49.3976 27.5876 49.4294 27.5558 49.4686 27.5558V27.84ZM29.008 27.84H49.4686V27.5558H29.008V27.84ZM28.7949 27.6269C28.7949 27.7446 28.8903 27.84 29.008 27.84V27.5558C29.0472 27.5558 29.079 27.5876 29.079 27.6269H28.7949ZM29.079 29.7193C29.079 29.7585 29.0472 29.7903 29.008 29.7903V29.5062C28.8903 29.5062 28.7949 29.6016 28.7949 29.7193H29.079ZM29.008 29.6483C29.0472 29.6483 29.079 29.6801 29.079 29.7193H28.7949C28.7949 29.837 28.8903 29.9324 29.008 29.9324V29.6483ZM49.4686 29.6483H29.008V29.9324H49.4686V29.6483ZM49.3976 29.7193C49.3976 29.6801 49.4294 29.6483 49.4686 29.6483V29.9324C49.5863 29.9324 49.6817 29.837 49.6817 29.7193H49.3976ZM49.4686 29.7903C49.4294 29.7903 49.3976 29.7585 49.3976 29.7193H49.6817C49.6817 29.6016 49.5863 29.5062 49.4686 29.5062V29.7903ZM29.008 29.7903H49.4686V29.5062H29.008V29.7903Z" fill="#FF6D6D" mask="url(#path-8-inside-2_1869_29897)"/>
<path d="M51.9299 26.5294V26.7534H42.8523C41.9181 26.7534 41.1777 26.0124 41.1777 25.1163V16C41.6184 16 42.2531 16 43.3284 17.0753L51.4716 25.3575C51.7713 25.6677 51.9476 26.0813 51.9299 26.5294Z" fill="#FF6D6D"/>
<path fill-rule="evenodd" clip-rule="evenodd" d="M46.3125 40.4803H52.9696C53.8643 40.4803 54.6042 39.7576 54.6042 38.8457V30.6558H26.8633L46.3125 40.4803Z" fill="#EF4444"/>
<path fill-rule="evenodd" clip-rule="evenodd" d="M40.5301 38H41.0736C41.1246 38 41.2296 37.9985 41.3886 37.9955C41.5476 37.9925 41.7006 37.982 41.8476 37.964C42.3696 37.901 42.8121 37.7195 43.1751 37.4195C43.5381 37.1195 43.8141 36.7385 44.0031 36.2765C44.1921 35.8145 44.2866 35.309 44.2866 34.76C44.2866 34.211 44.1921 33.7055 44.0031 33.2435C43.8141 32.7815 43.5381 32.4005 43.1751 32.1005C42.8121 31.8005 42.3696 31.619 41.8476 31.556C41.7006 31.538 41.5476 31.5275 41.3886 31.5245C41.2296 31.5215 41.1246 31.52 41.0736 31.52H38.9766V37.2051L40.5301 38ZM36.2082 35.7886C36.2775 35.7831 36.3411 35.7763 36.399 35.768C36.783 35.708 37.098 35.5805 37.344 35.3855C37.593 35.1905 37.776 34.946 37.893 34.652C38.013 34.355 38.073 34.025 38.073 33.662C38.073 33.299 38.0145 32.9705 37.8975 32.6765C37.7805 32.3795 37.5975 32.1335 37.3485 31.9385C37.1025 31.7435 36.786 31.616 36.399 31.556C36.315 31.541 36.219 31.532 36.111 31.529C36.006 31.523 35.922 31.52 35.859 31.52H33.123V34.21L36.2082 35.7886ZM35.805 34.661H34.347V32.663H35.805C35.868 32.663 35.937 32.666 36.012 32.672C36.087 32.678 36.156 32.69 36.219 32.708C36.384 32.753 36.5115 32.8295 36.6015 32.9375C36.6915 33.0425 36.753 33.161 36.786 33.293C36.822 33.422 36.84 33.545 36.84 33.662C36.84 33.779 36.822 33.9035 36.786 34.0355C36.753 34.1645 36.6915 34.283 36.6015 34.391C36.5115 34.496 36.384 34.571 36.219 34.616C36.156 34.634 36.087 34.646 36.012 34.652C35.937 34.658 35.868 34.661 35.805 34.661ZM41.0736 36.848H40.2186V32.672H41.0736C41.1546 32.672 41.2641 32.6735 41.4021 32.6765C41.5401 32.6795 41.6646 32.693 41.7756 32.717C42.0486 32.771 42.2751 32.8985 42.4551 33.0995C42.6351 33.3005 42.7686 33.5465 42.8556 33.8375C42.9456 34.1285 42.9906 34.436 42.9906 34.76C42.9906 35.069 42.9471 35.369 42.8601 35.66C42.7761 35.951 42.6441 36.2 42.4641 36.407C42.2871 36.614 42.0576 36.746 41.7756 36.803C41.6646 36.824 41.5401 36.8375 41.4021 36.8435C41.2641 36.8465 41.1546 36.848 41.0736 36.848ZM49.3262 31.52H45.3662V38H46.5902V35.372H48.7862V34.148H46.5902V32.744H49.3262V31.52Z" fill="white"/>
<g clip-path="url(#clip0_1869_29897)">
<path d="M54.1082 42.9051C54.3906 43.1011 54.6293 43.3543 54.8112 43.6505L59.2445 50.8462L62.7278 56.4989L63.0848 57.0785L64.764 59.804L64.7609 59.8061C65.0484 60.308 65.2322 60.8703 65.3016 61.4608C65.371 62.0513 65.3247 62.6582 65.1653 63.2466C65.0059 63.8351 64.7366 64.3934 64.3729 64.8895C64.0092 65.3855 63.5583 65.8095 63.0461 66.137C62.534 66.4644 61.9707 66.6889 61.3887 66.7976C60.8067 66.9062 60.2175 66.8968 59.6551 66.7698C59.0926 66.6429 58.5681 66.401 58.1115 66.0581C57.655 65.7151 57.2756 65.2778 56.9951 64.7715C55.9139 62.7953 56.5539 60.1505 58.4579 58.7193C58.9882 58.3194 59.5884 58.0357 60.2178 57.8876L59.2554 56.326L58.8985 55.7464L55.4162 50.0939L51.0334 42.9801C51.5015 42.6538 52.0445 42.4722 52.5925 42.4589C53.1405 42.4455 53.6684 42.6009 54.1082 42.9051Z" fill="#C8C5CC"/>
<path d="M63.1898 66.0399C64.1752 65.3564 64.8899 64.3246 65.1832 63.1618C65.4766 61.999 65.3258 60.796 64.7625 59.8061L64.7657 59.804L63.0865 57.0785L59.2571 56.326L60.2195 57.8876C59.5901 58.0357 58.9899 58.3194 58.4596 58.7193C56.5556 60.1505 55.9156 62.7952 56.9968 64.7715C57.2816 65.2923 57.6711 65.7405 58.1417 66.0886C58.6122 66.4367 59.1539 66.6775 59.7335 66.7963C60.3132 66.915 60.9186 66.9091 61.5129 66.7791C62.1072 66.649 62.6778 66.3975 63.1898 66.0399Z" fill="#F9B15E"/>
<path d="M62.2418 63.2557C62.7984 62.4531 62.6486 61.3856 61.9071 60.8714C61.1656 60.3572 60.1133 60.591 59.5567 61.3937C59.0001 62.1964 59.1499 63.2639 59.8914 63.7781C60.6329 64.2923 61.6852 64.0584 62.2418 63.2557Z" fill="white"/>
<path d="M58.8209 50.0881L62.3043 55.7408L58.4749 54.9883L54.9927 49.3358L58.8209 50.0881Z" fill="#AEADB3"/>
<path d="M72.8851 52.0581C72.5904 53.2206 71.8745 54.2516 70.8884 54.9339C69.9022 55.6163 68.7227 55.8967 67.5981 55.7162L67.5973 55.72L64.456 55.1027L63.7888 54.9714L57.2731 53.6907L48.9798 52.0611C48.6301 51.9926 48.302 51.8527 48.0142 51.6493C47.7265 51.4459 47.485 51.1831 47.3035 50.876C47.122 50.5689 47.0042 50.2237 46.9569 49.8602C46.9096 49.4967 46.9337 49.1221 47.0278 48.758L55.2265 50.3691L61.741 51.649L62.409 51.7801L64.2089 52.1339C64.1269 51.4926 64.1822 50.831 64.3709 50.1942C65.0438 47.9093 67.2964 46.3828 69.5262 46.7027C70.1138 46.7868 70.6701 46.9946 71.1611 47.3132C71.6521 47.6319 72.0675 48.0547 72.3819 48.556C72.6963 49.0572 72.903 49.6263 72.9896 50.2285C73.0761 50.8306 73.0405 51.4532 72.8851 52.0581Z" fill="#C8C5CC"/>
<path d="M72.8848 52.0581C72.5901 53.2207 71.8743 54.2516 70.8881 54.934C69.9019 55.6163 68.7224 55.8968 67.5979 55.7163L67.597 55.72L64.4558 55.1027L62.4087 51.7801L64.2086 52.134C64.1267 51.4927 64.1819 50.8311 64.3706 50.1943C65.0436 47.9094 67.2961 46.3829 69.526 46.7028C70.1136 46.7869 70.6699 46.9946 71.1609 47.3133C71.6519 47.6319 72.0672 48.0548 72.3816 48.556C72.696 49.0573 72.9028 49.6264 72.9893 50.2285C73.0758 50.8307 73.0403 51.4532 72.8848 52.0581Z" fill="#F9B15E"/>
<path d="M69.5269 46.7027C67.4335 46.4024 65.3202 47.7295 64.5126 49.7836C65.2345 49.1227 66.1269 48.7002 67.0608 48.5772C67.9948 48.4542 68.922 48.637 69.7087 49.0992C70.4954 49.5614 71.1008 50.2791 71.4376 51.1487C71.7744 52.0183 71.8251 52.9949 71.5825 53.9374C71.5307 54.141 71.4657 54.3417 71.3882 54.5381C72.0385 53.9522 72.5265 53.2006 72.7959 52.37C73.0652 51.5394 73.1048 50.6637 72.9101 49.8442C72.7154 49.0248 72.2944 48.2949 71.6958 47.739C71.0971 47.1831 70.3451 46.8238 69.5269 46.7027ZM61.8109 57.8294C59.7193 57.5202 57.6043 58.8562 56.7967 60.9103C57.5186 60.2494 58.411 59.8269 59.3449 59.7039C60.2789 59.5808 61.2061 59.7636 61.9928 60.2258C62.7794 60.688 63.3849 61.4057 63.7217 62.2753C64.0585 63.145 64.1092 64.1215 63.8666 65.0641C63.8148 65.2676 63.7498 65.4683 63.6723 65.6648C64.4036 65.0032 64.9278 64.1351 65.1698 63.1847C65.3259 62.5797 65.3619 61.957 65.2756 61.3546C65.1894 60.7522 64.9827 60.1829 64.6682 59.6815C64.3537 59.1801 63.9381 58.7572 63.4468 58.4388C62.9555 58.1203 62.3988 57.9129 61.8109 57.8294Z" fill="#F9A242"/>
<path d="M69.945 52.1476C70.5016 51.3449 70.3517 50.2774 69.6102 49.7632C68.8687 49.249 67.8164 49.4829 67.2598 50.2855C66.7032 51.0882 66.853 52.1557 67.5945 52.6699C68.336 53.1841 69.3883 52.9503 69.945 52.1476Z" fill="white"/>
<path d="M69.0352 49.5202C68.628 49.4418 68.1963 49.5246 67.8245 49.7524C67.4528 49.9803 67.1677 50.3367 67.0252 50.7521C67.3041 50.5204 67.6404 50.3786 67.9875 50.3466C68.3346 50.3145 68.6753 50.3937 68.9624 50.5731C69.2495 50.7525 69.4686 51.0233 69.5895 51.3479C69.7104 51.6725 69.7271 52.0348 69.6372 52.3846C69.6246 52.4341 69.6097 52.4825 69.5933 52.5302C69.8492 52.3204 70.0469 52.0445 70.1636 51.7344C70.2804 51.4244 70.3113 51.0928 70.253 50.778C70.1946 50.4632 70.0493 50.178 69.8338 49.9555C69.6183 49.7329 69.3415 49.582 69.0352 49.5202ZM61.3559 60.5941C60.9487 60.5157 60.517 60.5985 60.1452 60.8263C59.7734 61.0541 59.4884 61.4106 59.3459 61.8259C59.6248 61.5942 59.9611 61.4525 60.3082 61.4205C60.6553 61.3884 60.996 61.4676 61.2831 61.647C61.5702 61.8264 61.7893 62.0972 61.9102 62.4218C62.0311 62.7464 62.0478 63.1087 61.9578 63.4585C61.9453 63.508 61.9303 63.5564 61.914 63.6041C62.1699 63.3943 62.3676 63.1184 62.4843 62.8083C62.6011 62.4982 62.632 62.1666 62.5737 61.8518C62.5153 61.537 62.37 61.2519 62.1545 61.0293C61.939 60.8068 61.6622 60.6559 61.3559 60.5941Z" fill="#E1E1E3"/>
<path d="M59.9451 52.9027C60.0651 52.7297 60.0322 52.4992 59.8716 52.3879C59.7111 52.2766 59.4837 52.3265 59.3637 52.4995C59.2437 52.6725 59.2766 52.903 59.4372 53.0143C59.5978 53.1257 59.8252 53.0757 59.9451 52.9027Z" fill="white"/>
</g>
<line x1="12.6717" y1="28.0276" x2="50.23" y2="46.9996" stroke="#343333" stroke-linecap="square" stroke-dasharray="2 2"/>
<line x1="19.4004" y1="48.777" x2="19.4004" y2="52.2272" stroke="#E3E3E3"/>
<defs>
<clipPath id="clip0_1869_29897">
<rect width="26.0209" height="24.1514" fill="white" transform="translate(41.3262 56.3588) rotate(-55.2602)"/>
</clipPath>
</defs>
</svg>
