<svg width="88" height="88" viewBox="0 0 88 88" fill="none" xmlns="http://www.w3.org/2000/svg">
<circle cx="44" cy="44" r="44" fill="#FFE8E8"/>
<g clip-path="url(#clip0_1869_29423)">
<path d="M41.4549 46.2707H41.4379V46.7707C41.4379 47.0611 41.322 47.3425 41.1083 47.5562C40.8946 47.7699 40.6132 47.8857 40.3229 47.8857H17.6619C17.3631 47.8857 17.0734 47.7645 16.8864 47.5664L16.8815 47.5612L16.8764 47.5562C16.6627 47.3425 16.5469 47.0611 16.5469 46.7707V17.6157C16.5469 17.317 16.6681 17.0273 16.8662 16.8402L16.8766 16.8304L16.8864 16.82C17.0734 16.622 17.3631 16.5007 17.6619 16.5007H31.5679C31.8637 16.5007 32.1605 16.6205 32.3703 16.8303L41.1253 25.5853C41.337 25.797 41.4549 26.0776 41.4549 26.3877V46.2707Z" fill="white" stroke="#94ABD3"/>
<path d="M41.9359 46.7703V48.3853C41.9359 48.8103 41.7659 49.2353 41.4599 49.5243C41.1539 49.8303 40.7459 50.0003 40.3209 50.0003H17.6599C16.7589 50.0003 16.0449 49.2693 16.0449 48.3853V46.7703C16.0449 47.1953 16.2149 47.6033 16.5209 47.9093C16.8269 48.2153 17.2349 48.3853 17.6599 48.3853H40.3209C41.2219 48.3853 41.9359 47.6543 41.9359 46.7703Z" fill="#DEE6F4"/>
<path d="M12.7988 33.8165H45.1838V41.9085C45.1838 42.8095 44.4528 43.5235 43.5688 43.5235H14.4308C14.0058 43.5235 13.5808 43.3535 13.2918 43.0475C12.9858 42.7415 12.8158 42.3335 12.8158 41.8915V33.8165H12.7988Z" fill="#003771"/>
<path d="M16.0458 33.8166V30.5696L12.7988 33.8166H16.0458ZM41.9368 33.8166L41.9708 30.5696L45.2008 33.8166H41.9368Z" fill="#00213F"/>
<path d="M41.9364 26.3872V26.6082H33.1814C32.2804 26.6082 31.5664 25.8772 31.5664 24.9932V16.0002C31.9914 16.0002 32.4164 16.1702 32.7224 16.4762L41.4944 25.2312C41.7834 25.5372 41.9534 25.9452 41.9364 26.3872Z" fill="#94ABD3"/>
<path d="M18.4589 41.5512H15.7559V35.2782H18.5269C20.6859 35.2952 21.7739 36.2982 21.8079 38.2872C21.7909 40.4462 20.6859 41.5512 18.4589 41.5512ZM17.8129 36.7402V40.0892H18.2549C19.2409 40.0892 19.7169 39.5282 19.7169 38.3892C19.7849 37.1992 19.2919 36.6552 18.2209 36.7572H17.8129V36.7402ZM25.5819 35.0912C27.6559 35.1762 28.7609 36.2812 28.8969 38.3722C28.8119 40.4632 27.7069 41.5512 25.5819 41.6532C23.4739 41.5852 22.3689 40.4802 22.3009 38.3382C22.4199 36.2982 23.5079 35.2102 25.5819 35.0912ZM25.5819 36.6382C24.7999 36.6552 24.3919 37.2332 24.3579 38.3722C24.4089 39.5622 24.8169 40.1572 25.5819 40.1742C26.3979 40.1572 26.8229 39.5452 26.8399 38.3722C26.8059 37.2162 26.3809 36.6382 25.5819 36.6382ZM35.7139 37.6582H33.7759C33.6909 36.9952 33.3169 36.6552 32.6539 36.6382C31.9059 36.6552 31.5149 37.2672 31.4979 38.4742C31.4979 39.6132 31.9059 40.1742 32.7219 40.1742C33.3339 40.1742 33.6909 39.8172 33.7759 39.1202H35.7479C35.5269 40.7352 34.5239 41.5852 32.7389 41.6532C30.5969 41.5852 29.4919 40.4972 29.4239 38.4062C29.5429 36.3322 30.5799 35.2272 32.5689 35.0912C34.4729 35.1252 35.5099 35.9752 35.7139 37.6582ZM39.4369 39.7662L38.4169 41.5342H36.1049L38.3149 38.2532L36.3089 35.2612H38.6379L39.5219 36.8592L40.4399 35.2612H42.7689L40.5929 38.2702L42.7349 41.5512H40.4059L39.4369 39.7662Z" fill="white"/>
<path d="M18.8906 27.7163H39.1068" stroke="#D3D3D3" stroke-width="0.5" stroke-linecap="round"/>
<path d="M18.8926 29.7842H39.1088" stroke="#D3D3D3" stroke-width="0.5" stroke-linecap="round"/>
<path d="M18.8926 32.0815H39.1088" stroke="#D3D3D3" stroke-width="0.5" stroke-linecap="round"/>
</g>
<g clip-path="url(#clip1_1869_29423)">
<path d="M71.6014 68.3298H71.5844V68.8298C71.5844 69.1201 71.4685 69.4016 71.2548 69.6153C71.0411 69.829 70.7597 69.9448 70.4694 69.9448H47.8084C47.5096 69.9448 47.2199 69.8236 47.0329 69.6255L47.028 69.6203L47.0229 69.6153C46.8092 69.4016 46.6934 69.1201 46.6934 68.8298V39.6748C46.6934 39.3761 46.8146 39.0864 47.0127 38.8993L47.0231 38.8895L47.0329 38.8791C47.2199 38.6811 47.5096 38.5598 47.8084 38.5598H61.7144C62.0102 38.5598 62.307 38.6796 62.5168 38.8894L71.2718 47.6444C71.4835 47.8561 71.6014 48.1367 71.6014 48.4468V68.3298Z" fill="white" stroke="#FF6D6D"/>
<path d="M72.0844 68.8298V70.4448C72.0844 70.8698 71.9144 71.2948 71.6084 71.5838C71.3024 71.8898 70.8944 72.0598 70.4694 72.0598H47.8084C46.9074 72.0598 46.1934 71.3288 46.1934 70.4448V68.8298C46.1934 69.2548 46.3634 69.6628 46.6694 69.9688C46.9754 70.2748 47.3834 70.4448 47.8084 70.4448H70.4694C71.3704 70.4448 72.0844 69.7138 72.0844 68.8298Z" fill="#D0D7E3"/>
<path d="M42.9453 55.8759H75.3303V63.9679C75.3303 64.8689 74.5993 65.5829 73.7153 65.5829H44.5773C44.1523 65.5829 43.7273 65.4129 43.4383 65.1069C43.1323 64.8009 42.9623 64.3929 42.9623 63.9509V55.8759H42.9453Z" fill="#EF4444"/>
<path d="M46.1923 55.8758V52.6288L42.9453 55.8758H46.1923ZM72.0833 55.8758L72.1173 52.6288L75.3473 55.8758H72.0833Z" fill="#D50B0B"/>
<path d="M72.0848 48.4469V48.6679H63.3298C62.4288 48.6679 61.7148 47.9369 61.7148 47.0529V38.0599C62.1398 38.0599 62.5648 38.2299 62.8708 38.5359L71.6428 47.2909C71.9318 47.5969 72.1018 48.0049 72.0848 48.4469Z" fill="#FF6D6D"/>
<path d="M50.1403 63.9962V56.5843H53.2698C53.3418 56.5843 53.4379 56.5877 53.558 56.5946C53.6816 56.598 53.7914 56.6083 53.8874 56.6254C54.3301 56.6941 54.6921 56.8399 54.9735 57.063C55.2583 57.286 55.4676 57.5674 55.6015 57.9071C55.7353 58.2434 55.8022 58.6191 55.8022 59.0343C55.8022 59.4495 55.7336 59.827 55.5963 60.1667C55.4625 60.503 55.2532 60.7827 54.9683 61.0057C54.687 61.2287 54.3267 61.3746 53.8874 61.4432C53.7914 61.4569 53.6816 61.4672 53.558 61.4741C53.4345 61.481 53.3384 61.4844 53.2698 61.4844H51.5403V63.9962H50.1403ZM51.5403 60.177H53.208C53.2801 60.177 53.359 60.1736 53.4448 60.1667C53.5306 60.1598 53.6095 60.1461 53.6816 60.1255C53.8703 60.0741 54.0161 59.9883 54.1191 59.8682C54.222 59.7446 54.2924 59.6091 54.3301 59.4615C54.3713 59.3106 54.3919 59.1682 54.3919 59.0343C54.3919 58.9005 54.3713 58.7598 54.3301 58.6123C54.2924 58.4613 54.222 58.3257 54.1191 58.2056C54.0161 58.0821 53.8703 57.9946 53.6816 57.9431C53.6095 57.9225 53.5306 57.9088 53.4448 57.902C53.359 57.8951 53.2801 57.8917 53.208 57.8917H51.5403V60.177ZM56.8357 63.9962V56.5843H59.2342C59.2926 56.5843 59.4127 56.586 59.5945 56.5894C59.7764 56.5929 59.9514 56.6049 60.1196 56.6254C60.7166 56.6975 61.2228 56.9051 61.638 57.2483C62.0532 57.5914 62.3689 58.0272 62.5851 58.5556C62.8012 59.0841 62.9093 59.6623 62.9093 60.2902C62.9093 60.9182 62.8012 61.4964 62.5851 62.0248C62.3689 62.5533 62.0532 62.9891 61.638 63.3322C61.2228 63.6754 60.7166 63.883 60.1196 63.955C59.9514 63.9756 59.7764 63.9876 59.5945 63.9911C59.4127 63.9945 59.2926 63.9962 59.2342 63.9962H56.8357ZM58.2563 62.6785H59.2342C59.3269 62.6785 59.4521 62.6768 59.61 62.6734C59.7678 62.6665 59.9102 62.6511 60.0372 62.6271C60.3598 62.5619 60.6223 62.4109 60.8247 62.1741C61.0306 61.9373 61.1816 61.6525 61.2777 61.3197C61.3772 60.9868 61.4269 60.6437 61.4269 60.2902C61.4269 59.9196 61.3755 59.5679 61.2725 59.2351C61.173 58.9022 61.0203 58.6208 60.8144 58.3909C60.6085 58.161 60.3495 58.0152 60.0372 57.9534C59.9102 57.926 59.7678 57.9105 59.61 57.9071C59.4521 57.9037 59.3269 57.902 59.2342 57.902H58.2563V62.6785ZM64.1442 63.9962V56.5843H68.6738V57.9843H65.5443V59.5902H68.0561V60.9903H65.5443V63.9962H64.1442Z" fill="white"/>
<path d="M49.0391 49.5458H69.2553" stroke="#D3D3D3" stroke-width="0.5" stroke-linecap="round"/>
<path d="M49.0391 51.6136H69.2553" stroke="#D3D3D3" stroke-width="0.5" stroke-linecap="round"/>
<path d="M49.0391 53.9116H69.2553" stroke="#D3D3D3" stroke-width="0.5" stroke-linecap="round"/>
</g>
<path d="M53.9709 32.3565L51.8703 32.7823L55.7655 35.3651L58.3474 31.4691L56.2629 31.8912C56.0909 29.4836 52.866 26.6005 50.6979 25.7132C48.4177 24.7801 46.0915 24.8475 44.7297 26.9377C45.8223 25.9475 47.8334 26.5417 49.491 27.0339C49.9646 27.1746 50.4275 27.3598 50.8262 27.6517C52.3035 28.7334 53.7899 30.5798 53.9709 32.3565Z" fill="#0F67B1"/>
<defs>
<clipPath id="clip0_1869_29423">
<rect width="34" height="34" fill="white" transform="translate(12 16)"/>
</clipPath>
<clipPath id="clip1_1869_29423">
<rect width="34" height="34" fill="white" transform="translate(42.1484 38.0594)"/>
</clipPath>
</defs>
</svg>
