<svg width="89" height="89" viewBox="0 0 89 89" fill="none" xmlns="http://www.w3.org/2000/svg">
<circle cx="44.5" cy="44.5" r="44.5" fill="#13CD9D"/>
<path fill-rule="evenodd" clip-rule="evenodd" d="M66.0984 28.18C66.0987 28.0223 66.0679 27.8661 66.0078 27.7203C65.9477 27.5745 65.8594 27.442 65.748 27.3304L54.468 16.0504C54.3564 15.939 54.2239 15.8507 54.0781 15.7906C53.9323 15.7305 53.7761 15.6997 53.6184 15.7H24.0984C23.7802 15.7 23.475 15.8264 23.2499 16.0514C23.0249 16.2765 22.8984 16.5817 22.8984 16.9V72.0999C22.8984 72.4182 23.0249 72.7234 23.2499 72.9485C23.475 73.1735 23.7802 73.2999 24.0984 73.2999H57.3072C56.3402 72.619 55.4684 71.8118 54.7152 70.8999H25.2984V18.1H51.6984V28.9C51.6984 29.2182 51.8249 29.5234 52.0499 29.7485C52.2749 29.9735 52.5802 30.1 52.8984 30.1H63.6984V49.3528C64.4968 49.2808 65.3 49.2808 66.0984 49.3528V28.18ZM57.6984 39.7C58.0167 39.7 58.3219 39.5735 58.547 39.3485C58.772 39.1234 58.8984 38.8182 58.8984 38.5C58.8984 38.1817 58.772 37.8765 58.547 37.6514C58.3219 37.4264 58.0167 37.3 57.6984 37.3H31.2984C30.9802 37.3 30.675 37.4264 30.4499 37.6514C30.2249 37.8765 30.0984 38.1817 30.0984 38.5C30.0984 38.8182 30.2249 39.1234 30.4499 39.3485C30.675 39.5735 30.9802 39.7 31.2984 39.7H57.6984ZM48.0984 46.9C48.4167 46.9 48.7219 46.7735 48.947 46.5485C49.172 46.3234 49.2984 46.0182 49.2984 45.7C49.2984 45.3817 49.172 45.0765 48.947 44.8514C48.7219 44.6264 48.4167 44.5 48.0984 44.5H31.2984C30.9802 44.5 30.675 44.6264 30.4499 44.8514C30.2249 45.0765 30.0984 45.3817 30.0984 45.7C30.0984 46.0182 30.2249 46.3234 30.4499 46.5485C30.675 46.7735 30.9802 46.9 31.2984 46.9H48.0984ZM52.8984 54.0999C53.2167 54.0999 53.5219 53.9735 53.747 53.7485C53.972 53.5234 54.0984 53.2182 54.0984 52.9C54.0984 52.5817 53.972 52.2765 53.747 52.0514C53.5219 51.8264 53.2167 51.7 52.8984 51.7H31.2984C30.9802 51.7 30.675 51.8264 30.4499 52.0514C30.2249 52.2765 30.0984 52.5817 30.0984 52.9C30.0984 53.2182 30.2249 53.5234 30.4499 53.7485C30.675 53.9735 30.9802 54.0999 31.2984 54.0999H52.8984ZM43.2984 61.2999C43.6167 61.2999 43.9219 61.1735 44.147 60.9485C44.372 60.7234 44.4984 60.4182 44.4984 60.0999C44.4984 59.7817 44.372 59.4765 44.147 59.2514C43.9219 59.0264 43.6167 58.8999 43.2984 58.8999H31.2984C30.9802 58.8999 30.675 59.0264 30.4499 59.2514C30.2249 59.4765 30.0984 59.7817 30.0984 60.0999C30.0984 60.4182 30.2249 60.7234 30.4499 60.9485C30.675 61.1735 30.9802 61.2999 31.2984 61.2999H43.2984Z" fill="white"/>
<path fill-rule="evenodd" clip-rule="evenodd" d="M64.8977 73.2999C67.762 73.2999 70.509 72.1621 72.5344 70.1367C74.5598 68.1113 75.6976 65.3643 75.6976 62.4999C75.6976 59.6356 74.5598 56.8886 72.5344 54.8632C70.509 52.8378 67.762 51.7 64.8977 51.7C62.0333 51.7 59.2863 52.8378 57.2609 54.8632C55.2355 56.8886 54.0977 59.6356 54.0977 62.4999C54.0977 65.3643 55.2355 68.1113 57.2609 70.1367C59.2863 72.1621 62.0333 73.2999 64.8977 73.2999ZM63.2009 66.3903C63.4259 66.6153 63.7311 66.7417 64.0493 66.7417C64.3674 66.7417 64.6726 66.6153 64.8977 66.3903L69.9881 61.2999C70.1027 61.1893 70.1941 61.0568 70.257 60.9104C70.3199 60.764 70.353 60.6066 70.3543 60.4472C70.3557 60.2879 70.3254 60.1299 70.265 59.9824C70.2047 59.8349 70.1156 59.7009 70.0029 59.5883C69.8903 59.4756 69.7563 59.3865 69.6088 59.3262C69.4613 59.2658 69.3033 59.2355 69.144 59.2368C68.9846 59.2382 68.8272 59.2713 68.6808 59.3342C68.5344 59.3971 68.4019 59.4885 68.2913 59.6031L64.0481 63.8463L61.5041 61.2999C61.2777 61.0814 60.9746 60.9604 60.66 60.9631C60.3453 60.9659 60.0444 61.0921 59.8219 61.3146C59.5994 61.5371 59.4732 61.838 59.4704 62.1527C59.4677 62.4673 59.5887 62.7704 59.8073 62.9967L63.2009 66.3903Z" fill="white"/>
</svg>
