<svg width="89" height="89" viewBox="0 0 89 89" fill="none" xmlns="http://www.w3.org/2000/svg">
<circle cx="44.5" cy="44.5" r="44.5" fill="#FF814B"/>
<path d="M75.0781 35.7031H58.6719C58.0917 35.7031 57.5353 35.9336 57.1251 36.3438C56.7148 36.7541 56.4844 37.3105 56.4844 37.8906V71.7969C56.4844 72.377 56.7148 72.9334 57.1251 73.3437C57.5353 73.7539 58.0917 73.9844 58.6719 73.9844H75.0781C75.6583 73.9844 76.2147 73.7539 76.6249 73.3437C77.0352 72.9334 77.2656 72.377 77.2656 71.7969V37.8906C77.2656 37.3105 77.0352 36.7541 76.6249 36.3438C76.2147 35.9336 75.6583 35.7031 75.0781 35.7031ZM69.4781 38.1641C69.6404 38.1641 69.799 38.2122 69.9339 38.3023C70.0688 38.3924 70.1739 38.5206 70.236 38.6705C70.2981 38.8203 70.3143 38.9853 70.2827 39.1444C70.251 39.3035 70.1729 39.4497 70.0582 39.5644C69.9435 39.6791 69.7973 39.7573 69.6382 39.7889C69.479 39.8206 69.3141 39.8043 69.1642 39.7422C69.0143 39.6802 68.8862 39.575 68.7961 39.4401C68.7059 39.3052 68.6578 39.1466 68.6578 38.9844C68.6578 38.7668 68.7442 38.5582 68.8981 38.4043C69.0519 38.2505 69.2606 38.1641 69.4781 38.1641ZM64.0094 38.4375H66.1969C66.3419 38.4375 66.481 38.4951 66.5836 38.5977C66.6861 38.7002 66.7438 38.8393 66.7438 38.9844C66.7438 39.1294 66.6861 39.2685 66.5836 39.3711C66.481 39.4736 66.3419 39.5312 66.1969 39.5312H64.0094C63.8643 39.5312 63.7252 39.4736 63.6227 39.3711C63.5201 39.2685 63.4625 39.1294 63.4625 38.9844C63.4625 38.8393 63.5201 38.7002 63.6227 38.5977C63.7252 38.4951 63.8643 38.4375 64.0094 38.4375ZM66.875 71.7969C66.5505 71.7969 66.2333 71.7007 65.9635 71.5204C65.6937 71.3401 65.4834 71.0839 65.3593 70.7841C65.2351 70.4843 65.2026 70.1544 65.2659 69.8362C65.3292 69.5179 65.4855 69.2256 65.7149 68.9962C65.9443 68.7667 66.2367 68.6105 66.5549 68.5471C66.8732 68.4838 67.2031 68.5163 67.5028 68.6405C67.8026 68.7647 68.0589 68.975 68.2391 69.2448C68.4194 69.5146 68.5156 69.8318 68.5156 70.1562C68.5156 70.5914 68.3428 71.0087 68.0351 71.3163C67.7274 71.624 67.3101 71.7969 66.875 71.7969ZM59.7656 66.3281V42.2656H73.9844V66.3281H59.7656ZM38.9844 16.0156H14.9219C14.3417 16.0156 13.7853 16.2461 13.3751 16.6563C12.9648 17.0666 12.7344 17.623 12.7344 18.2031V55.3906C12.7344 55.9708 12.9648 56.5272 13.3751 56.9374C13.7853 57.3477 14.3417 57.5781 14.9219 57.5781H18.2031V48.8281H16.0156V22.5781H37.8906V24.7656H41.1719V18.2031C41.1719 17.623 40.9414 17.0666 40.5312 16.6563C40.1209 16.2461 39.5645 16.0156 38.9844 16.0156ZM26.9531 20.3906C26.7368 20.3906 26.5253 20.3265 26.3455 20.2063C26.1656 20.0861 26.0254 19.9153 25.9426 19.7154C25.8598 19.5156 25.8382 19.2957 25.8804 19.0835C25.9226 18.8713 26.0268 18.6764 26.1797 18.5235C26.3327 18.3705 26.5276 18.2663 26.7397 18.2241C26.9519 18.1819 27.1718 18.2036 27.3717 18.2864C27.5715 18.3692 27.7424 18.5094 27.8625 18.6892C27.9827 18.8691 28.0469 19.0806 28.0469 19.2969C28.0469 19.587 27.9316 19.8652 27.7265 20.0703C27.5214 20.2754 27.2432 20.3906 26.9531 20.3906Z" fill="white"/>
<path d="M70.7031 26.9531H22.5781C21.998 26.9531 21.4416 27.1836 21.0313 27.5938C20.6211 28.0041 20.3906 28.5605 20.3906 29.1406V66.3281H16.0156C16.0156 67.4884 16.4766 68.6012 17.297 69.4217C18.1175 70.2422 19.2303 70.7031 20.3906 70.7031H54.2969V66.3281H51.5625C51.5625 66.6182 51.4473 66.8964 51.2421 67.1015C51.037 67.3066 50.7588 67.4219 50.4688 67.4219H41.7188C41.4287 67.4219 41.1505 67.3066 40.9454 67.1015C40.7402 66.8964 40.625 66.6182 40.625 66.3281H23.6719V30.2344H69.6094V33.5156H72.8906V29.1406C72.8906 28.5605 72.6602 28.0041 72.2499 27.5938C71.8397 27.1836 71.2833 26.9531 70.7031 26.9531Z" fill="white"/>
</svg>
