<svg width="89" height="89" viewBox="0 0 89 89" fill="none" xmlns="http://www.w3.org/2000/svg">
<circle cx="44.5" cy="44.5" r="44.5" fill="#FD4C5C"/>
<path d="M72 33L63.045 42L62.913 24L72 33ZM30 57L39.09 66L38.958 48L30 57Z" fill="#ECECEC"/>
<path d="M21.75 33C21.75 31.758 22.758 30.75 24 30.75H60.531L55.329 25.599C54.444 24.723 54.438 23.301 55.311 22.416C56.184 21.537 57.615 21.525 58.494 22.401L67.581 31.401C68.007 31.821 68.247 32.394 68.25 32.991C68.253 33.588 68.016 34.164 67.593 34.587L58.638 43.587C58.2 44.028 57.621 44.25 57.045 44.25C56.472 44.25 55.896 44.031 55.458 43.596C54.579 42.72 54.573 41.295 55.452 40.413L60.591 35.25H24C22.758 35.25 21.75 34.242 21.75 33ZM66 54.75H29.412L34.551 49.587C35.43 48.708 35.424 47.283 34.545 46.404C33.663 45.528 32.238 45.531 31.362 46.413L22.407 55.413C21.984 55.836 21.747 56.412 21.75 57.009C21.753 57.606 21.993 58.179 22.419 58.599L31.506 67.599C31.944 68.034 32.517 68.25 33.087 68.25C33.666 68.25 34.248 68.028 34.686 67.584C35.559 66.702 35.553 65.277 34.668 64.401L29.466 59.25H65.997C67.239 59.25 68.247 58.242 68.247 57C68.247 55.758 67.242 54.75 66 54.75Z" fill="white"/>
</svg>
