<svg width="126" height="126" viewBox="0 0 126 126" fill="none" xmlns="http://www.w3.org/2000/svg">
<g clip-path="url(#clip0_1341_30081)">
<path d="M31.4966 31.5H11.8125" stroke="#DF760D" stroke-width="5.00661" stroke-linecap="round" stroke-linejoin="round"/>
<path d="M31.5 11.8125V94.5028H114.19" stroke="#DF760D" stroke-width="5.00661" stroke-linecap="round" stroke-linejoin="round"/>
<path d="M94.5051 74.8142V31.5H51.1875" stroke="#DF760D" stroke-width="5.00661" stroke-linecap="round" stroke-linejoin="round"/>
<path d="M94.5 114.188V94.5" stroke="#DF760D" stroke-width="5.00661" stroke-linecap="round" stroke-linejoin="round"/>
<g clip-path="url(#clip1_1341_30081)">
<path d="M82.0705 81.8877H82.044V82.8413C82.044 83.2185 81.8892 83.5919 81.5903 83.8818C81.2905 84.1725 80.8914 84.3338 80.4751 84.3338H45.0811C44.6487 84.3338 44.2398 84.1625 43.9852 83.9011L43.9757 83.8913L43.9659 83.8818C43.667 83.5919 43.5122 83.2185 43.5122 82.8413V38.6843C43.5122 38.2912 43.6775 37.9085 43.9461 37.6625L43.9662 37.6441L43.9852 37.6246C44.2398 37.3631 44.6487 37.1919 45.0811 37.1919H66.8007C67.2275 37.1919 67.65 37.3602 67.9424 37.6438L68.6063 36.9592L67.9424 37.6438L81.6168 50.9038C81.9118 51.1899 82.0705 51.5617 82.0705 51.97V81.8877Z" fill="white" stroke="#FF6D6D" stroke-width="1.90723"/>
<path d="M82.9975 82.8398V85.2859C82.9975 85.9296 82.732 86.5732 82.2541 87.0109C81.7761 87.4744 81.1389 87.7319 80.4751 87.7319H45.081C43.6738 87.7319 42.5586 86.6247 42.5586 85.2859V82.8398C42.5586 83.4835 42.8241 84.1015 43.3021 84.5649C43.78 85.0284 44.4172 85.2859 45.081 85.2859H80.4751C81.8824 85.2859 82.9975 84.1787 82.9975 82.8398Z" fill="#D0D7E3"/>
<path d="M37.4844 63.2148H88.0663V75.4707C88.0663 76.8353 86.9245 77.9167 85.5438 77.9167H40.0334C39.3696 77.9167 38.7058 77.6592 38.2544 77.1958C37.7764 76.7323 37.5109 76.1144 37.5109 75.4449V63.2148H37.4844Z" fill="#EF4444"/>
<path d="M42.5558 63.2264V58.3086L37.4844 63.2264H42.5558ZM82.9948 63.2264L83.0479 58.3086L88.0928 63.2264H82.9948Z" fill="#D50B0B"/>
<path d="M82.9976 51.97V52.3048H69.3232C67.916 52.3048 66.8008 51.1976 66.8008 49.8587V36.2383C67.4646 36.2383 68.1284 36.4958 68.6063 36.9592L82.3072 50.2192C82.7586 50.6827 83.0242 51.3006 82.9976 51.97Z" fill="#FF6D6D"/>
<path d="M48.6295 76.6016V65.6159H53.2679C53.3747 65.6159 53.5171 65.621 53.6951 65.6312C53.8782 65.6363 54.0409 65.6515 54.1834 65.677C54.8394 65.7787 55.376 65.9948 55.7931 66.3254C56.2152 66.656 56.5254 67.0731 56.7238 67.5766C56.9221 68.075 57.0213 68.6319 57.0213 69.2473C57.0213 69.8627 56.9196 70.4221 56.7162 70.9257C56.5178 71.4241 56.2076 71.8386 55.7854 72.1692C55.3684 72.4998 54.8344 72.7159 54.1834 72.8176C54.0409 72.838 53.8782 72.8532 53.6951 72.8634C53.512 72.8736 53.3696 72.8787 53.2679 72.8787H50.7046V76.6016H48.6295ZM50.7046 70.9409H53.1763C53.2831 70.9409 53.4001 70.9358 53.5273 70.9257C53.6544 70.9155 53.7714 70.8951 53.8782 70.8646C54.1579 70.7883 54.3741 70.6612 54.5267 70.4832C54.6792 70.3001 54.7835 70.0992 54.8394 69.8805C54.9005 69.6567 54.931 69.4456 54.931 69.2473C54.931 69.0489 54.9005 68.8404 54.8394 68.6217C54.7835 68.3979 54.6792 68.1971 54.5267 68.019C54.3741 67.8359 54.1579 67.7063 53.8782 67.63C53.7714 67.5995 53.6544 67.5791 53.5273 67.5689C53.4001 67.5588 53.2831 67.5537 53.1763 67.5537H50.7046V70.9409ZM58.553 76.6016V65.6159H62.1081C62.1946 65.6159 62.3726 65.6185 62.6421 65.6236C62.9117 65.6287 63.1711 65.6465 63.4203 65.677C64.3052 65.7838 65.0554 66.0915 65.6708 66.6001C66.2862 67.1087 66.7541 67.7546 67.0745 68.5378C67.395 69.321 67.5552 70.178 67.5552 71.1087C67.5552 72.0395 67.395 72.8965 67.0745 73.6797C66.7541 74.4629 66.2862 75.1088 65.6708 75.6174C65.0554 76.126 64.3052 76.4337 63.4203 76.5405C63.1711 76.571 62.9117 76.5888 62.6421 76.5939C62.3726 76.599 62.1946 76.6016 62.1081 76.6016H58.553ZM60.6586 74.6486H62.1081C62.2454 74.6486 62.4311 74.646 62.665 74.6409C62.899 74.6308 63.11 74.6079 63.2982 74.5723C63.7763 74.4756 64.1654 74.2519 64.4654 73.9009C64.7706 73.55 64.9944 73.1279 65.1368 72.6345C65.2843 72.1412 65.358 71.6326 65.358 71.1087C65.358 70.5595 65.2817 70.0382 65.1292 69.5448C64.9817 69.0515 64.7553 68.6344 64.4502 68.2937C64.145 67.9529 63.761 67.7368 63.2982 67.6452C63.11 67.6045 62.899 67.5817 62.665 67.5766C62.4311 67.5715 62.2454 67.5689 62.1081 67.5689H60.6586V74.6486ZM69.3855 76.6016V65.6159H76.0989V67.691H71.4606V70.0712H75.1835V72.1463H71.4606V76.6016H69.3855Z" fill="white"/>
<path d="M47.0039 53.6328H78.5795" stroke="#D3D3D3" stroke-width="0.953613" stroke-linecap="round"/>
<path d="M47.0039 56.7695H78.5795" stroke="#D3D3D3" stroke-width="0.953613" stroke-linecap="round"/>
<path d="M47.0039 60.2461H78.5795" stroke="#D3D3D3" stroke-width="0.953613" stroke-linecap="round"/>
</g>
</g>
<defs>
<clipPath id="clip0_1341_30081">
<rect width="126" height="126" fill="white"/>
</clipPath>
<clipPath id="clip1_1341_30081">
<rect width="51.4951" height="51.4951" fill="white" transform="translate(36.2383 36.2383)"/>
</clipPath>
</defs>
</svg>
