<svg width="126" height="126" viewBox="0 0 126 126" fill="none" xmlns="http://www.w3.org/2000/svg">
<path d="M53.4668 80.4707V80.4917L55.2518 81.9617L53.4668 80.4707Z" fill="#3B4652"/>
<path d="M52.0597 86.0973L49.5817 95.9043L49.1827 97.5213C48.9937 98.2983 49.2457 99.1174 49.8547 99.6213C50.1487 99.8733 50.4847 100.041 50.8626 100.104C50.9677 100.125 51.0937 100.146 51.2197 100.146C51.4927 100.146 51.7657 100.083 52.0388 99.9783L68.5447 93.1323C68.4817 93.0902 68.4187 93.0483 68.3767 93.0063L53.4667 80.4902L53.1097 81.8973L52.0597 86.0973Z" fill="#3B4652"/>
<path d="M88.2419 38.5968L75.0539 53.9058L71.4209 58.1058L62.9999 67.8918L59.3669 72.0918L55.7969 76.2288L72.2819 90.1098L88.2419 71.5878L92.4419 66.7158L104.706 52.4778L88.8509 37.8828L88.2419 38.5968Z" fill="#3B4652"/>
<path d="M25.7676 39.8996H81.5855L85.6595 35.1536L88.4946 31.8356L88.5156 31.8566L92.4426 27.2996V20.9996C92.4426 16.3586 88.6835 12.5996 84.0426 12.5996H21.0426C16.4015 12.5996 12.6426 16.3586 12.6426 20.9996V105C12.6426 109.641 16.4015 113.4 21.0426 113.4H84.0426C88.6835 113.4 92.4426 109.641 92.4426 105V73.1425L75.5166 92.7776L74.4875 93.9746C73.4166 95.2346 72.0515 96.2216 70.5396 96.8516L70.1615 97.0196L53.6555 103.866C52.7736 104.202 51.9966 104.349 51.2196 104.349C50.8206 104.349 50.4005 104.286 50.0436 104.223C49.0565 104.055 48.0065 103.572 47.1245 102.816C46.2636 102.102 45.6335 101.157 45.2765 100.107H25.7676C24.6125 100.107 23.6676 99.1615 23.6676 98.0066C23.6676 96.8306 24.6125 95.9066 25.7676 95.9066H45.2555L45.5075 94.8986L47.7125 86.0996H25.7676C24.6125 86.0996 23.6676 85.1546 23.6676 83.9996C23.6676 82.8446 24.6125 81.8996 25.7676 81.8996H48.7625L51.2196 72.0925H25.7676C24.6125 72.0925 23.6676 71.1686 23.6676 69.9925C23.6676 68.8375 24.6125 67.8925 25.7676 67.8925H57.4355L59.8295 65.1415L65.8775 58.1066H25.7676C24.6125 58.1066 23.6676 57.1615 23.6676 56.0066C23.6676 54.8306 24.6125 53.9066 25.7676 53.9066H69.5105L71.8835 51.1556L77.9525 44.0996H25.7676C24.6125 44.0996 23.6676 43.1546 23.6676 41.9996C23.6676 40.8446 24.6125 39.8996 25.7676 39.8996ZM25.7676 25.8925H79.3176C80.4726 25.8925 81.4176 26.8375 81.4176 27.9925C81.4176 29.1476 80.4726 30.0925 79.3176 30.0925H25.7676C24.6125 30.0925 23.6676 29.1476 23.6676 27.9925C23.6676 26.8375 24.6125 25.8925 25.7676 25.8925Z" fill="#2B79C2"/>
<path d="M111.3 35.7603L103.971 29.4392C102.858 28.4733 101.472 27.9902 100.107 27.9902C98.4483 27.9902 96.7894 28.6833 95.6134 30.0483L92.5684 33.5763L108.402 48.1924L111.93 44.0973C114.051 41.6402 113.778 37.8813 111.3 35.7603Z" fill="#3B4652"/>
</svg>
