<svg width="271" height="145" viewBox="0 0 271 145" fill="none" xmlns="http://www.w3.org/2000/svg">
<g clip-path="url(#clip0_475_2483)">
<path d="M128.07 99.9614L128.018 99.9809L128.191 100.45C128.632 101.644 128.578 102.97 128.033 104.153C127.488 105.336 126.515 106.238 125.32 106.679L54.902 132.671C53.6998 133.115 52.3279 133.073 51.2118 132.52L51.2054 132.517L51.199 132.514C50.0156 131.968 49.114 130.996 48.6732 129.801L15.2317 39.2029C14.7879 38.0006 14.8298 36.6288 15.3832 35.5127L15.3896 35.4999L15.3952 35.4868C15.884 34.341 16.8997 33.4178 18.1019 32.974L61.3144 17.0235C62.514 16.5808 63.8919 16.6188 65.0703 17.1618L102.318 34.3255C103.499 34.8696 104.402 35.841 104.864 37.0908L128.07 99.9614Z" fill="white" stroke="#17DC85"/>
<path d="M128.659 100.277L130.511 105.296C130.999 106.616 130.958 108.132 130.339 109.381C129.739 110.683 128.666 111.679 127.345 112.167L56.9266 138.159C54.1268 139.193 51.0695 137.74 50.0556 134.993L48.2031 129.975C48.6906 131.295 49.6869 132.368 50.9887 132.968C52.2906 133.568 53.7535 133.628 55.0741 133.141L125.493 107.148C128.292 106.115 129.673 103.024 128.659 100.277Z" fill="#D0D7E3"/>
<path d="M23.2539 93.4448L123.889 56.2984L133.171 81.4441C134.205 84.244 132.752 87.3012 130.005 88.3151L39.4595 121.737C38.1388 122.225 36.6231 122.184 35.3741 121.564C34.0722 120.965 33.0759 119.892 32.569 118.518L23.3067 93.4253L23.2539 93.4448Z" fill="#17DC85"/>
<path d="M33.3456 89.7206L29.6212 79.6306L23.2556 93.4449L33.3456 89.7206ZM113.801 60.023L110.183 49.894L123.944 56.2791L113.801 60.023Z" fill="#10B76D"/>
<path d="M105.279 36.9374L105.533 37.6241L78.3268 47.6663C75.527 48.6998 72.4698 47.2472 71.4558 44.5002L61.1406 16.5547C62.4613 16.0672 63.977 16.108 65.2788 16.7079L102.58 33.8521C103.829 34.4715 104.825 35.5444 105.279 36.9374Z" fill="#17DC85"/>
<path d="M56.6218 109.111L59.7522 95.9277L49.0964 88.0972L53.9531 86.3045L60.979 91.6418L62.794 83.0411L67.6798 81.2377L64.6671 94.1136L75.5833 102.112L70.7266 103.905L63.4694 98.3888L61.5076 107.308L56.6218 109.111ZM78.1971 101.148L70.4681 80.2085L74.4232 78.7486L80.7889 95.9942L89.8044 92.6665L91.1677 96.3599L78.1971 101.148ZM101.711 92.9637C100.16 93.5362 98.6594 93.7818 97.2085 93.7005C95.7637 93.606 94.4512 93.1983 93.2708 92.4774C92.0966 91.7433 91.1417 90.7079 90.406 89.3713L94.3102 87.2362C95.0447 88.3309 95.9875 89.0349 97.1385 89.348C98.2894 89.6612 99.4466 89.603 100.61 89.1736C101.259 88.9339 101.852 88.5995 102.387 88.1705C102.923 87.7415 103.311 87.2567 103.552 86.7161C103.803 86.172 103.821 85.6091 103.607 85.0274C103.528 84.8142 103.419 84.6231 103.279 84.4543C103.146 84.2722 102.974 84.1207 102.765 83.9999C102.555 83.8791 102.286 83.7912 101.957 83.7363C101.638 83.6778 101.252 83.6607 100.798 83.685L94.7691 84.0928C94.319 84.1268 93.7832 84.1373 93.1616 84.1244C92.5497 84.108 91.9184 83.9941 91.2676 83.7827C90.6168 83.5713 90.0019 83.2035 89.4228 82.6792C88.8499 82.1417 88.3792 81.3737 88.0106 80.3752C87.4918 78.9695 87.4144 77.6708 87.7786 76.479C88.1427 75.2871 88.8321 74.2451 89.8465 73.353C90.861 72.4608 92.0874 71.7548 93.5257 71.2349C94.9773 70.7211 96.3578 70.4924 97.6674 70.5488C98.9769 70.6051 100.183 70.9476 101.285 71.5761C102.384 72.195 103.344 73.0962 104.166 74.2796L100.16 76.5847C99.7541 75.9633 99.257 75.4969 98.6684 75.1855C98.0798 74.874 97.45 74.7045 96.7789 74.6768C96.1175 74.6456 95.4681 74.7366 94.8309 74.9498C94.2033 75.1594 93.649 75.4631 93.168 75.861C92.6931 76.2455 92.3474 76.6816 92.1308 77.1691C91.9239 77.653 91.9117 78.1421 92.0942 78.6365C92.2624 79.0922 92.5407 79.4135 92.9292 79.6005C93.3141 79.7779 93.752 79.8751 94.2429 79.8922C94.7339 79.9092 95.2238 79.8936 95.7127 79.8453L99.7129 79.4923C100.309 79.4373 100.982 79.4093 101.731 79.4084C102.476 79.3977 103.228 79.4947 103.986 79.6994C104.751 79.8908 105.454 80.2591 106.096 80.8042C106.747 81.3458 107.268 82.1449 107.658 83.2016C108.073 84.3261 108.199 85.3977 108.035 86.4164C107.877 87.4218 107.503 88.3475 106.912 89.1935C106.318 90.0298 105.566 90.7697 104.658 91.4133C103.76 92.0533 102.778 92.5701 101.711 92.9637Z" fill="white"/>
<path d="M34.9258 66.7871L97.7472 43.5986" stroke="#D3D3D3" stroke-linecap="round"/>
<path d="M37.3008 73.2124L100.122 50.0239" stroke="#D3D3D3" stroke-linecap="round"/>
<path d="M39.9336 80.3511L102.755 57.1626" stroke="#D3D3D3" stroke-linecap="round"/>
</g>
<g clip-path="url(#clip1_475_2483)">
<path d="M222.839 129.328L222.786 129.308L222.613 129.777C222.172 130.972 221.271 131.945 220.088 132.49C218.904 133.036 217.579 133.089 216.385 132.649L145.962 106.668C144.759 106.225 143.743 105.302 143.254 104.156L143.252 104.149L143.249 104.143C142.703 102.96 142.65 101.634 143.09 100.44L176.516 9.83551C176.96 8.63322 177.883 7.61741 179.028 7.1284L179.041 7.12279L179.054 7.11644C180.17 6.56281 181.542 6.52067 182.744 6.96422L225.96 22.9072C227.159 23.3498 228.182 24.2738 228.725 25.452L245.896 62.6972C246.44 63.8779 246.496 65.2031 246.034 66.453L222.839 129.328Z" fill="white" stroke="#FF6D6D"/>
<path d="M223.082 129.95L221.23 134.969C220.743 136.29 219.728 137.416 218.445 137.963C217.143 138.563 215.681 138.624 214.36 138.136L143.937 112.156C141.137 111.123 139.756 108.033 140.77 105.285L142.621 100.267C142.134 101.587 142.194 103.05 142.795 104.352C143.395 105.654 144.468 106.65 145.788 107.137L216.211 133.117C219.011 134.15 222.068 132.697 223.082 129.95Z" fill="#D0D7E3"/>
<path d="M147.381 56.2871L248.023 93.4159L238.746 118.563C237.713 121.363 234.622 122.744 231.875 121.731L141.324 88.3244C140.003 87.8371 138.877 86.8216 138.33 85.5393C137.73 84.2375 137.669 82.7747 138.176 81.4011L147.434 56.3066L147.381 56.2871Z" fill="#EF4444"/>
<path d="M157.473 60.01L161.196 49.9194L147.383 56.2874L157.473 60.01ZM237.934 89.6936L241.763 79.6419L248.078 93.4357L237.934 89.6936Z" fill="#D50B0B"/>
<path d="M246.451 66.6064L246.198 67.2932L218.99 57.2558C216.19 56.2228 214.809 53.1325 215.823 50.3853L226.133 22.438C227.454 22.9252 228.579 23.9408 229.18 25.2426L246.403 62.5072C246.95 63.7895 247.01 65.2523 246.451 66.6064Z" fill="#FF6D6D"/>
<path d="M159.413 90.5126L167.886 67.5457L177.583 71.1231C177.806 71.2055 178.1 71.326 178.464 71.4845C178.843 71.6364 179.171 71.7938 179.45 71.9568C180.743 72.6755 181.698 73.5412 182.315 74.554C182.942 75.5707 183.269 76.6819 183.295 77.8875C183.326 79.0825 183.104 80.3233 182.629 81.6099C182.154 82.8965 181.51 83.9876 180.696 84.8834C179.897 85.7724 178.929 86.3997 177.792 86.7652C176.665 87.1347 175.382 87.1747 173.942 86.8853C173.629 86.818 173.277 86.7244 172.886 86.6044C172.495 86.4845 172.194 86.3853 171.981 86.3068L166.622 84.3298L163.751 92.113L159.413 90.5126ZM168.117 80.2787L173.284 82.1851C173.508 82.2675 173.756 82.3471 174.03 82.4239C174.303 82.5007 174.564 82.5483 174.81 82.5669C175.454 82.6232 176.004 82.5241 176.46 82.2696C176.921 82.0045 177.293 81.6649 177.579 81.2509C177.879 80.8301 178.106 80.4124 178.259 79.9977C178.412 79.583 178.509 79.1235 178.55 78.6192C178.606 78.1082 178.543 77.6078 178.361 77.118C178.183 76.6175 177.831 76.1797 177.305 75.8044C177.105 75.6583 176.877 75.5255 176.619 75.4062C176.361 75.2869 176.12 75.186 175.897 75.1036L170.729 73.1972L168.117 80.2787ZM180.159 98.1664L188.632 75.1994L196.064 77.9414C196.245 78.0081 196.615 78.1507 197.175 78.3692C197.735 78.5877 198.263 78.825 198.761 79.081C200.528 79.9869 201.859 81.2087 202.754 82.7467C203.648 84.2846 204.128 85.9958 204.194 87.8804C204.26 89.765 203.934 91.6802 203.216 93.626C202.498 95.5718 201.502 97.2399 200.228 98.6302C198.954 100.021 197.478 101.01 195.799 101.599C194.12 102.187 192.314 102.252 190.382 101.793C189.837 101.664 189.281 101.502 188.714 101.304C188.146 101.107 187.772 100.975 187.591 100.908L180.159 98.1664ZM186.067 95.7073L189.098 96.8253C189.385 96.9312 189.775 97.0691 190.268 97.2389C190.765 97.3981 191.224 97.513 191.645 97.5837C192.719 97.7504 193.705 97.5827 194.603 97.0804C195.511 96.5821 196.305 95.8722 196.983 94.9506C197.672 94.033 198.218 93.0266 198.622 91.9314C199.046 90.7831 199.289 89.6344 199.35 88.4853C199.422 87.3402 199.271 86.2937 198.896 85.346C198.52 84.3982 197.884 83.6501 196.987 83.1018C196.625 82.8716 196.202 82.6609 195.716 82.4699C195.231 82.2788 194.845 82.1303 194.558 82.0244L191.528 80.9064L186.067 95.7073ZM202.806 106.521L211.279 83.5542L225.314 88.7322L223.714 93.0704L214.016 89.4929L212.181 94.4691L219.964 97.3404L218.363 101.679L210.58 98.8073L207.144 108.122L202.806 106.521Z" fill="white"/>
<path d="M173.574 43.6025L236.4 66.7801" stroke="#D3D3D3" stroke-linecap="round"/>
<path d="M171.203 50.0278L234.029 73.2054" stroke="#D3D3D3" stroke-linecap="round"/>
<path d="M168.568 57.167L231.394 80.3445" stroke="#D3D3D3" stroke-linecap="round"/>
</g>
<path d="M147.26 26.1448L143.184 32.2456L158.876 29.1248L155.751 13.4331L151.705 19.4862C145.48 14.0524 130.692 14.8267 123.285 17.9007C115.496 21.1335 110.007 26.9081 111.74 35.2702C111.915 31.9573 114.704 29.35 118.076 27.1563C122.999 23.9532 128.689 21.708 134.555 22.0001C139.242 22.2335 144.03 23.4934 147.26 26.1448Z" fill="#0F67B1"/>
<defs>
<clipPath id="clip0_475_2483">
<rect width="112.622" height="112.622" fill="white" transform="translate(0.335938 38.9985) rotate(-20.26)"/>
</clipPath>
<clipPath id="clip1_475_2483">
<rect width="112.622" height="112.622" fill="white" transform="translate(165.324 0.00488281) rotate(20.25)"/>
</clipPath>
</defs>
</svg>
