<svg width="113" height="113" viewBox="0 0 113 113" fill="none" xmlns="http://www.w3.org/2000/svg">
<g clip-path="url(#clip0_883_14967)">
<path d="M98.7203 101.439H98.664V101.939C98.664 103.212 98.155 104.436 97.2337 105.358C96.3124 106.279 95.0875 106.788 93.8144 106.788H18.7519C17.4704 106.788 16.1979 106.274 15.3426 105.368L15.3377 105.363L15.3326 105.358C14.4113 104.436 13.9023 103.212 13.9023 101.939V5.36517C13.9023 4.08367 14.4167 2.81119 15.3224 1.95584L15.3327 1.94603L15.3426 1.93564C16.1979 1.02998 17.4704 0.515625 18.7519 0.515625H64.8143C66.0929 0.515625 67.3725 1.02849 68.2899 1.94589L97.29 30.946C98.2094 31.8654 98.7203 33.0894 98.7203 34.4216V101.439Z" fill="white" stroke="#FF6D6D"/>
<path d="M99.164 101.938V107.287C99.164 108.695 98.6009 110.103 97.5873 111.06C96.5737 112.073 95.2222 112.637 93.8144 112.637H18.7519C15.7674 112.637 13.4023 110.215 13.4023 107.287V101.938C13.4023 103.345 13.9655 104.697 14.9791 105.71C15.9926 106.724 17.3441 107.287 18.7519 107.287H93.8144C96.7989 107.287 99.164 104.866 99.164 101.938Z" fill="#D0D7E3"/>
<path d="M2.64453 59.0312H109.917V85.8353C109.917 88.8198 107.496 91.1848 104.567 91.1848H8.05039C6.64261 91.1848 5.23484 90.6217 4.27755 89.6081C3.26395 88.5945 2.70084 87.2431 2.70084 85.779V59.0312H2.64453Z" fill="#EF4444"/>
<path d="M13.4038 59.0288V48.2734L2.64844 59.0288H13.4038ZM99.1655 59.0288L99.2781 48.2734L109.977 59.0288H99.1655Z" fill="#D50B0B"/>
<path d="M99.1622 34.4216V35.1537H70.162C67.1776 35.1537 64.8125 32.7323 64.8125 29.8041V0.015625C66.2203 0.015625 67.628 0.578735 68.6416 1.59233L97.6981 30.5925C98.6554 31.6061 99.2185 32.9576 99.1622 34.4216Z" fill="#FF6D6D"/>
<path d="M40.3243 81.2812V66.8812H46.4043C46.5443 66.8812 46.7309 66.8879 46.9643 66.9012C47.2043 66.9079 47.4176 66.9279 47.6043 66.9612C48.4643 67.0946 49.1676 67.3779 49.7143 67.8112C50.2676 68.2446 50.6743 68.7912 50.9343 69.4512C51.1943 70.1046 51.3243 70.8346 51.3243 71.6412C51.3243 72.4479 51.1909 73.1812 50.9243 73.8412C50.6643 74.4946 50.2576 75.0379 49.7043 75.4712C49.1576 75.9046 48.4576 76.1879 47.6043 76.3212C47.4176 76.3479 47.2043 76.3679 46.9643 76.3812C46.7243 76.3946 46.5376 76.4012 46.4043 76.4012H43.0443V81.2812H40.3243ZM43.0443 73.8612H46.2843C46.4243 73.8612 46.5776 73.8546 46.7443 73.8412C46.9109 73.8279 47.0643 73.8012 47.2043 73.7612C47.5709 73.6612 47.8543 73.4946 48.0543 73.2612C48.2543 73.0212 48.3909 72.7579 48.4643 72.4712C48.5443 72.1779 48.5843 71.9012 48.5843 71.6412C48.5843 71.3812 48.5443 71.1079 48.4643 70.8212C48.3909 70.5279 48.2543 70.2646 48.0543 70.0312C47.8543 69.7912 47.5709 69.6212 47.2043 69.5213C47.0643 69.4812 46.9109 69.4546 46.7443 69.4412C46.5776 69.4279 46.4243 69.4212 46.2843 69.4212H43.0443V73.8612ZM53.3321 81.2812V66.8812H57.9921C58.1054 66.8812 58.3387 66.8846 58.6921 66.8912C59.0454 66.8979 59.3854 66.9212 59.7121 66.9612C60.8721 67.1012 61.8554 67.5046 62.6621 68.1712C63.4687 68.8379 64.0821 69.6846 64.5021 70.7112C64.9221 71.7379 65.1321 72.8612 65.1321 74.0812C65.1321 75.3012 64.9221 76.4246 64.5021 77.4512C64.0821 78.4779 63.4687 79.3246 62.6621 79.9912C61.8554 80.6579 60.8721 81.0612 59.7121 81.2012C59.3854 81.2412 59.0454 81.2646 58.6921 81.2712C58.3387 81.2779 58.1054 81.2812 57.9921 81.2812H53.3321ZM56.0921 78.7212H57.9921C58.1721 78.7212 58.4154 78.7179 58.7221 78.7113C59.0287 78.6979 59.3054 78.6679 59.5521 78.6212C60.1787 78.4946 60.6887 78.2012 61.0821 77.7412C61.4821 77.2812 61.7754 76.7279 61.9621 76.0812C62.1554 75.4346 62.2521 74.7679 62.2521 74.0812C62.2521 73.3612 62.1521 72.6779 61.9521 72.0312C61.7587 71.3846 61.4621 70.8379 61.0621 70.3912C60.6621 69.9446 60.1587 69.6612 59.5521 69.5412C59.3054 69.4879 59.0287 69.4579 58.7221 69.4512C58.4154 69.4446 58.1721 69.4412 57.9921 69.4412H56.0921V78.7212ZM67.5313 81.2812V66.8812H76.3313V69.6012H70.2513V72.7212H75.1313V75.4412H70.2513V81.2812H67.5313Z" fill="white"/>
<path d="M22.8281 38.0625H89.7925" stroke="#D3D3D3" stroke-linecap="round"/>
<path d="M22.8281 44.9121H89.7925" stroke="#D3D3D3" stroke-linecap="round"/>
<path d="M22.8281 52.5234H89.7925" stroke="#D3D3D3" stroke-linecap="round"/>
</g>
<defs>
<clipPath id="clip0_883_14967">
<rect width="112.622" height="112.622" fill="white" transform="translate(0 0.015625)"/>
</clipPath>
</defs>
</svg>
