<svg width="89" height="90" viewBox="0 0 89 90" fill="none" xmlns="http://www.w3.org/2000/svg">
<circle cx="44.5" cy="45" r="44.5" fill="#FF55DA"/>
<path fill-rule="evenodd" clip-rule="evenodd" d="M68.0984 29.68C68.0987 29.5223 68.0679 29.3661 68.0078 29.2203C67.9477 29.0745 67.8594 28.942 67.748 28.8304L56.468 17.5504C56.3564 17.439 56.2239 17.3507 56.0781 17.2906C55.9323 17.2305 55.7761 17.1997 55.6184 17.2H26.0984C25.7802 17.2 25.475 17.3264 25.2499 17.5514C25.0249 17.7765 24.8984 18.0817 24.8984 18.4V73.6C24.8984 73.9182 25.0249 74.2234 25.2499 74.4485C25.475 74.6735 25.7802 74.8 26.0984 74.8H59.3072C58.3402 74.119 57.4685 73.3119 56.7152 72.4H27.2984V19.6H53.6984V30.4C53.6984 30.7182 53.8249 31.0234 54.0499 31.2485C54.275 31.4735 54.5802 31.6 54.8984 31.6H65.6984V50.8528C66.4968 50.7808 67.3001 50.7808 68.0984 50.8528V29.68ZM59.6984 41.2C60.0167 41.2 60.3219 41.0735 60.547 40.8485C60.772 40.6234 60.8984 40.3182 60.8984 40C60.8984 39.6817 60.772 39.3765 60.547 39.1514C60.3219 38.9264 60.0167 38.8 59.6984 38.8H33.2984C32.9802 38.8 32.675 38.9264 32.4499 39.1514C32.2249 39.3765 32.0984 39.6817 32.0984 40C32.0984 40.3182 32.2249 40.6234 32.4499 40.8485C32.675 41.0735 32.9802 41.2 33.2984 41.2H59.6984ZM50.0984 48.4C50.4167 48.4 50.7219 48.2735 50.947 48.0485C51.172 47.8234 51.2984 47.5182 51.2984 47.2C51.2984 46.8817 51.172 46.5765 50.947 46.3514C50.7219 46.1264 50.4167 46 50.0984 46H33.2984C32.9802 46 32.675 46.1264 32.4499 46.3514C32.2249 46.5765 32.0984 46.8817 32.0984 47.2C32.0984 47.5182 32.2249 47.8234 32.4499 48.0485C32.675 48.2735 32.9802 48.4 33.2984 48.4H50.0984ZM54.8984 55.6C55.2167 55.6 55.5219 55.4735 55.747 55.2485C55.972 55.0234 56.0984 54.7182 56.0984 54.4C56.0984 54.0817 55.972 53.7765 55.747 53.5514C55.5219 53.3264 55.2167 53.2 54.8984 53.2H33.2984C32.9802 53.2 32.675 53.3264 32.4499 53.5514C32.2249 53.7765 32.0984 54.0817 32.0984 54.4C32.0984 54.7182 32.2249 55.0234 32.4499 55.2485C32.675 55.4735 32.9802 55.6 33.2984 55.6H54.8984ZM45.2984 62.8C45.6167 62.8 45.9219 62.6735 46.147 62.4485C46.372 62.2234 46.4984 61.9182 46.4984 61.6C46.4984 61.2817 46.372 60.9765 46.147 60.7514C45.9219 60.5264 45.6167 60.4 45.2984 60.4H33.2984C32.9802 60.4 32.675 60.5264 32.4499 60.7514C32.2249 60.9765 32.0984 61.2817 32.0984 61.6C32.0984 61.9182 32.2249 62.2234 32.4499 62.4485C32.675 62.6735 32.9802 62.8 33.2984 62.8H45.2984Z" fill="white"/>
<g clip-path="url(#clip0_347_1365)">
<path d="M67.2158 53.4716C65.1335 53.4716 63.098 54.089 61.3666 55.2459C59.6352 56.4028 58.2858 58.0471 57.4889 59.9709C56.6921 61.8946 56.4836 64.0115 56.8898 66.0538C57.296 68.0961 58.2988 69.9721 59.7712 71.4445C61.2436 72.9169 63.1195 73.9196 65.1618 74.3259C67.2041 74.7321 69.321 74.5236 71.2448 73.7267C73.1686 72.9299 74.8129 71.5804 75.9698 69.8491C77.1266 68.1177 77.7441 66.0822 77.7441 63.9999C77.7411 61.2085 76.6309 58.5323 74.6571 56.5586C72.6833 54.5848 70.0072 53.4746 67.2158 53.4716ZM67.2158 72.7734C65.4806 72.7734 63.7843 72.2589 62.3415 71.2948C60.8987 70.3308 59.7741 68.9605 59.1101 67.3574C58.446 65.7542 58.2723 63.9901 58.6108 62.2882C58.9493 60.5863 59.7849 59.023 61.0119 57.796C62.239 56.569 63.8023 55.7334 65.5042 55.3949C67.2061 55.0563 68.9702 55.2301 70.5733 55.8941C72.1765 56.5582 73.5467 57.6827 74.5108 59.1255C75.4748 60.5683 75.9894 62.2646 75.9894 63.9999C75.9868 66.326 75.0617 68.5561 73.4168 70.2009C71.772 71.8457 69.5419 72.7709 67.2158 72.7734Z" fill="white"/>
<path d="M72.0519 65.88L68.0907 63.5032V58.7356C68.0907 58.5029 67.9982 58.2798 67.8337 58.1152C67.6691 57.9507 67.446 57.8583 67.2133 57.8583C66.9806 57.8583 66.7574 57.9507 66.5929 58.1152C66.4284 58.2798 66.3359 58.5029 66.3359 58.7356V63.9998C66.3418 64.15 66.3835 64.2965 66.4575 64.4273C66.5316 64.5581 66.6358 64.6693 66.7615 64.7517L71.1482 67.3838C71.247 67.4456 71.3572 67.4871 71.4722 67.5059C71.5872 67.5247 71.7048 67.5204 71.8182 67.4932C71.9315 67.466 72.0383 67.4166 72.1323 67.3477C72.2263 67.2788 72.3057 67.1918 72.3657 67.0919C72.4257 66.992 72.4652 66.8812 72.482 66.7658C72.4987 66.6505 72.4922 66.533 72.463 66.4201C72.4338 66.3073 72.3824 66.2014 72.3118 66.1087C72.2413 66.0159 72.1529 65.9382 72.0519 65.88Z" fill="white"/>
</g>
<defs>
<clipPath id="clip0_347_1365">
<rect width="21.0566" height="21.0566" fill="white" transform="translate(56.6875 53.4716)"/>
</clipPath>
</defs>
</svg>
