<svg width="126" height="154" viewBox="0 0 126 154" fill="none" xmlns="http://www.w3.org/2000/svg">
<path d="M42.6953 144.994L30.7883 134.198C30.6392 134.063 30.4563 133.972 30.2592 133.932C30.062 133.893 29.8579 133.908 29.6687 133.976C29.4794 134.044 29.3119 134.161 29.1842 134.316C29.0565 134.472 28.9732 134.658 28.9432 134.857L28.5261 137.646C23.3093 135.829 18.693 132.612 15.1832 128.347C11.6733 124.081 9.4053 118.932 8.62763 113.463C8.41447 112.012 8.31366 110.546 8.3261 109.08C8.32827 108.811 8.23342 108.551 8.05901 108.347C7.8846 108.143 7.64235 108.008 7.37683 107.969C7.11132 107.929 6.84038 107.986 6.61387 108.131C6.38737 108.275 6.22052 108.496 6.14402 108.753C3.77395 116.8 4.60795 125.451 8.47148 132.897C12.335 140.342 18.9286 146.005 26.8723 148.7C26.8156 149.704 25.9869 151.551 27.529 151.84C27.7052 151.866 27.8849 151.851 28.0541 151.795L42.3124 146.875C42.4967 146.811 42.6613 146.701 42.7897 146.554C42.9181 146.408 43.006 146.23 43.0445 146.039C43.0844 145.849 43.0731 145.653 43.0117 145.469C42.9503 145.286 42.8411 145.122 42.6953 144.994Z" fill="#3FA2F6"/>
<path d="M83.5705 9.89211L97.1155 18.5445C97.2851 18.6524 97.4807 18.7124 97.6817 18.718C97.8826 18.7236 98.0813 18.6747 98.2566 18.5763C98.4319 18.478 98.5773 18.334 98.6773 18.1596C98.7772 17.9853 98.8281 17.787 98.8244 17.5861L98.7692 14.7672C104.216 15.6853 109.306 18.085 113.48 21.7034C117.653 25.3218 120.751 30.0192 122.432 35.2811C122.885 36.6761 123.23 38.104 123.463 39.5521C123.506 39.8171 123.643 40.0578 123.849 40.2299C124.055 40.4019 124.316 40.4938 124.584 40.4885C124.853 40.4833 125.11 40.3813 125.31 40.2013C125.509 40.0213 125.636 39.7755 125.669 39.509C126.659 31.1793 124.39 22.7893 119.336 16.0948C114.281 9.40024 106.833 4.9201 98.5507 3.592C98.4388 2.59299 98.9467 0.632632 97.378 0.605569C97.2 0.6099 97.0254 0.655199 96.8678 0.737951L83.6335 7.97393C83.4623 8.06728 83.3186 8.20377 83.2165 8.36985C83.1144 8.53593 83.0575 8.72583 83.0515 8.92069C83.0438 9.11413 83.0879 9.30612 83.1791 9.47687C83.2703 9.64762 83.4054 9.79095 83.5705 9.89211Z" fill="#3FA2F6"/>
<g clip-path="url(#clip0_1341_30055)">
<path d="M99.4503 48.2142L82.4698 31.972C82.1951 31.7092 81.8295 31.5625 81.4493 31.5625H48.1862C47.0172 31.5692 45.8985 32.0393 45.0756 32.8697C44.2527 33.7002 43.7929 34.8231 43.7969 35.9922V39.6836H46.75V35.9922C46.7451 35.6061 46.8936 35.2338 47.1628 34.957C47.4321 34.6802 47.8001 34.5215 48.1862 34.5156H79.9728L79.974 45.0463L85.9452 50.7578H96.9532V99.4845C96.9581 99.8706 96.8096 100.243 96.5404 100.52C96.2712 100.796 95.9031 100.955 95.517 100.961H94.0001V103.914H95.517C96.6861 103.907 97.8048 103.437 98.6276 102.607C99.4505 101.776 99.9104 100.654 99.9063 99.4845V49.2813C99.9063 49.0818 99.8659 48.8845 99.7875 48.7011C99.7092 48.5177 99.5945 48.3521 99.4503 48.2142Z" fill="#EF4444"/>
<path d="M73.6105 43.0462C73.3357 42.7834 72.9701 42.6367 72.5899 42.6367H39.3268C38.1578 42.6434 37.0391 43.1135 36.2162 43.944C35.3934 44.7744 34.9335 45.8973 34.9375 47.0664V50.7578H37.8907V47.0664C37.8858 46.6803 38.0342 46.308 38.3035 46.0312C38.5727 45.7544 38.9407 45.5957 39.3268 45.5898H71.1134L71.1147 56.1205L77.0858 61.8321H88.0938V110.559C88.0987 110.945 87.9503 111.317 87.681 111.594C87.4118 111.871 87.0438 112.029 86.6577 112.035H85.1407V114.988H86.6577C87.8267 114.982 88.9454 114.512 89.7683 113.681C90.5911 112.851 91.051 111.728 91.047 110.559V60.3555C91.047 60.1561 91.0065 59.9587 90.9282 59.7753C90.8498 59.5919 90.7351 59.4263 90.5909 59.2884L73.6105 43.0462Z" fill="#EF4444"/>
<path d="M64.7511 54.1205C64.4763 53.8576 64.1108 53.7109 63.7305 53.7109H30.4675C29.2984 53.7176 28.1797 54.1877 27.3568 55.0182C26.534 55.8486 26.0741 56.9716 26.0782 58.1406V121.633C26.0741 122.802 26.534 123.925 27.3568 124.755C28.1797 125.586 29.2984 126.056 30.4675 126.063H77.7983C78.9673 126.056 80.086 125.586 80.9089 124.755C81.7318 123.925 82.1916 122.802 82.1876 121.633V71.4297C82.1876 71.2303 82.1472 71.0329 82.0688 70.8495C81.9904 70.6661 81.8757 70.5005 81.7316 70.3627L64.7511 54.1205ZM37.8907 72.168H57.086C57.4776 72.168 57.8532 72.3236 58.1301 72.6005C58.407 72.8774 58.5626 73.2529 58.5626 73.6446C58.5626 74.0362 58.407 74.4117 58.1301 74.6886C57.8532 74.9656 57.4776 75.1211 57.086 75.1211H37.8907C37.4991 75.1211 37.1235 74.9656 36.8466 74.6886C36.5697 74.4117 36.4141 74.0362 36.4141 73.6446C36.4141 73.2529 36.5697 72.8774 36.8466 72.6005C37.1235 72.3236 37.4991 72.168 37.8907 72.168ZM70.3751 116.465H37.8907C37.4991 116.465 37.1235 116.309 36.8466 116.032C36.5697 115.756 36.4141 115.38 36.4141 114.988C36.4141 114.597 36.5697 114.221 36.8466 113.944C37.1235 113.667 37.4991 113.512 37.8907 113.512H70.3751C70.7667 113.512 71.1423 113.667 71.4192 113.944C71.6961 114.221 71.8516 114.597 71.8516 114.988C71.8516 115.38 71.6961 115.756 71.4192 116.032C71.1423 116.309 70.7667 116.465 70.3751 116.465ZM70.3751 110.559H37.8907C37.4991 110.559 37.1235 110.403 36.8466 110.126C36.5697 109.849 36.4141 109.474 36.4141 109.082C36.4141 108.69 36.5697 108.315 36.8466 108.038C37.1235 107.761 37.4991 107.606 37.8907 107.606H70.3751C70.7667 107.606 71.1423 107.761 71.4192 108.038C71.6961 108.315 71.8516 108.69 71.8516 109.082C71.8516 109.474 71.6961 109.849 71.4192 110.126C71.1423 110.403 70.7667 110.559 70.3751 110.559ZM70.3751 104.652H37.8907C37.4991 104.652 37.1235 104.497 36.8466 104.22C36.5697 103.943 36.4141 103.567 36.4141 103.176C36.4141 102.784 36.5697 102.409 36.8466 102.132C37.1235 101.855 37.4991 101.699 37.8907 101.699H70.3751C70.7667 101.699 71.1423 101.855 71.4192 102.132C71.6961 102.409 71.8516 102.784 71.8516 103.176C71.8516 103.567 71.6961 103.943 71.4192 104.22C71.1423 104.497 70.7667 104.652 70.3751 104.652ZM70.3751 98.7461H37.8907C37.4991 98.7461 37.1235 98.5906 36.8466 98.3137C36.5697 98.0368 36.4141 97.6612 36.4141 97.2696C36.4141 96.878 36.5697 96.5024 36.8466 96.2255C37.1235 95.9486 37.4991 95.793 37.8907 95.793H70.3751C70.7667 95.793 71.1423 95.9486 71.4192 96.2255C71.6961 96.5024 71.8516 96.878 71.8516 97.2696C71.8516 97.6612 71.6961 98.0368 71.4192 98.3137C71.1423 98.5906 70.7667 98.7461 70.3751 98.7461ZM70.3751 92.8399H37.8907C37.4991 92.8399 37.1235 92.6843 36.8466 92.4074C36.5697 92.1305 36.4141 91.7549 36.4141 91.3633C36.4141 90.9717 36.5697 90.5961 36.8466 90.3192C37.1235 90.0423 37.4991 89.8868 37.8907 89.8868H70.3751C70.7667 89.8868 71.1423 90.0423 71.4192 90.3192C71.6961 90.5961 71.8516 90.9717 71.8516 91.3633C71.8516 91.7549 71.6961 92.1305 71.4192 92.4074C71.1423 92.6843 70.7667 92.8399 70.3751 92.8399ZM70.3751 86.9336H37.8907C37.4991 86.9336 37.1235 86.7781 36.8466 86.5012C36.5697 86.2242 36.4141 85.8487 36.4141 85.4571C36.4141 85.0655 36.5697 84.6899 36.8466 84.413C37.1235 84.1361 37.4991 83.9805 37.8907 83.9805H70.3751C70.7667 83.9805 71.1423 84.1361 71.4192 84.413C71.6961 84.6899 71.8516 85.0655 71.8516 85.4571C71.8516 85.8487 71.6961 86.2242 71.4192 86.5012C71.1423 86.7781 70.7667 86.9336 70.3751 86.9336ZM70.3751 81.0274H37.8907C37.4991 81.0274 37.1235 80.8718 36.8466 80.5949C36.5697 80.318 36.4141 79.9424 36.4141 79.5508C36.4141 79.1592 36.5697 78.7836 36.8466 78.5067C37.1235 78.2298 37.4991 78.0742 37.8907 78.0742H70.3751C70.7667 78.0742 71.1423 78.2298 71.4192 78.5067C71.6961 78.7836 71.8516 79.1592 71.8516 79.5508C71.8516 79.9424 71.6961 80.318 71.4192 80.5949C71.1423 80.8718 70.7667 81.0274 70.3751 81.0274ZM66.6851 69.9531C66.2937 69.9528 65.9183 69.7971 65.6415 69.5202C65.3647 69.2434 65.209 68.8681 65.2086 68.4766L65.2075 58.6436L77.0312 69.9531H66.6851Z" fill="#EF4444"/>
</g>
<defs>
<clipPath id="clip0_1341_30055">
<rect width="94.5001" height="94.5001" fill="white" transform="translate(15.7422 31.5625)"/>
</clipPath>
</defs>
</svg>
