<svg width="271" height="145" viewBox="0 0 271 145" fill="none" xmlns="http://www.w3.org/2000/svg">
<g clip-path="url(#clip0_1314_25098)">
<path d="M127.717 99.9662L127.664 99.9857L127.837 100.455C128.278 101.649 128.224 102.974 127.679 104.158C127.133 105.341 126.16 106.242 124.966 106.683L54.5442 132.663C53.342 133.106 51.9701 133.064 50.8542 132.511L50.8478 132.508L50.8413 132.505C49.6581 131.959 48.7567 130.986 48.316 129.792L14.8909 39.189C14.4474 37.9867 14.4895 36.6149 15.0432 35.499L15.0495 35.4862L15.0551 35.473C15.5441 34.3273 16.5599 33.4044 17.7622 32.9608L60.9768 17.0181C62.1764 16.5756 63.5543 16.6139 64.7325 17.157L101.977 34.327C103.158 34.8713 104.061 35.8428 104.522 37.0926L127.717 99.9662Z" fill="white" stroke="#9B6DFF"/>
<path d="M128.307 100.282L130.159 105.301C130.646 106.621 130.605 108.137 129.985 109.386C129.385 110.688 128.312 111.684 126.991 112.171L56.5695 138.151C53.7696 139.184 50.7127 137.731 49.6992 134.984L47.8477 129.965C48.3349 131.286 49.331 132.359 50.6327 132.959C51.9345 133.559 53.3973 133.619 54.718 133.132L125.14 107.152C127.94 106.119 129.321 103.029 128.307 100.282Z" fill="#D0D7E3"/>
<path d="M22.9023 93.4326L123.543 56.3045L132.82 81.4513C133.853 84.2513 132.4 87.3082 129.653 88.3217L39.1027 121.727C37.7819 122.215 36.2663 122.173 35.0174 121.554C33.7156 120.954 32.7196 119.881 32.2129 118.507L22.9552 93.4131L22.9023 93.4326Z" fill="#8E5DF9"/>
<path d="M32.9927 89.7097L29.2701 79.6192L22.9022 93.4322L32.9927 89.7097ZM113.452 60.0266L109.835 49.8972L123.595 56.2846L113.452 60.0266Z" fill="#7F4DEC"/>
<path d="M104.939 36.9389L105.192 37.6257L77.9852 47.6629C75.1852 48.6959 72.1283 47.2428 71.1148 44.4957L60.8047 16.5488C62.1254 16.0616 63.6411 16.1026 64.9428 16.7027L102.24 33.8532C103.489 34.4728 104.485 35.5458 104.939 36.9389Z" fill="#9B6DFF"/>
<path d="M44.2617 113.868L36.5364 92.928L40.4918 91.4688L43.6678 100.078L53.0328 96.6227L49.8568 88.0139L53.8122 86.5546L61.5376 107.495L57.5822 108.954L54.3955 100.316L45.0304 103.771L48.2171 112.409L44.2617 113.868ZM70.4773 104.197L64.1146 86.9503L57.5125 89.3859L56.1499 85.6922L73.3094 79.3618L74.6721 83.0554L68.07 85.491L74.4327 102.738L70.4773 104.197ZM83.3717 99.4401L75.6463 78.4996L79.1946 77.1906L91.2453 88.5391L93.0385 72.0833L96.5868 70.7743L104.312 91.7147L100.618 93.0774L96.0047 80.5713L94.5399 95.3199L93.1439 95.8349L82.4516 85.5713L87.0653 98.0774L83.3717 99.4401ZM108.685 90.1015L100.96 69.1611L104.915 67.7018L111.278 84.9486L120.294 81.6224L121.656 85.3161L108.685 90.1015Z" fill="white"/>
<path d="M34.582 66.7749L97.4064 43.5978" stroke="#D3D3D3" stroke-width="0.5" stroke-linecap="round"/>
<path d="M36.9531 73.2012L99.7775 50.024" stroke="#D3D3D3" stroke-width="0.5" stroke-linecap="round"/>
<path d="M39.5859 80.3423L102.41 57.1652" stroke="#D3D3D3" stroke-width="0.5" stroke-linecap="round"/>
</g>
<g clip-path="url(#clip1_1314_25098)">
<path d="M222.839 129.328L222.786 129.308L222.613 129.777C222.172 130.972 221.271 131.945 220.088 132.49C218.904 133.036 217.579 133.089 216.385 132.649L145.962 106.668C144.759 106.225 143.743 105.302 143.254 104.156L143.252 104.149L143.249 104.143C142.703 102.96 142.65 101.634 143.09 100.44L176.516 9.83551C176.96 8.63322 177.883 7.61741 179.028 7.1284L179.041 7.12279L179.054 7.11644C180.17 6.56281 181.542 6.52067 182.744 6.96422L225.96 22.9072C227.159 23.3498 228.182 24.2738 228.725 25.452L245.896 62.6972C246.44 63.8779 246.496 65.2031 246.034 66.453L222.839 129.328Z" fill="white" stroke="#FF6D6D"/>
<path d="M223.082 129.95L221.23 134.969C220.743 136.29 219.728 137.416 218.445 137.963C217.143 138.563 215.681 138.624 214.36 138.136L143.937 112.156C141.137 111.123 139.756 108.033 140.77 105.285L142.621 100.267C142.134 101.587 142.194 103.05 142.795 104.352C143.395 105.654 144.468 106.65 145.788 107.137L216.211 133.117C219.011 134.15 222.068 132.697 223.082 129.95Z" fill="#D0D7E3"/>
<path d="M147.379 56.2871L248.021 93.4159L238.744 118.563C237.711 121.363 234.62 122.744 231.873 121.731L141.322 88.3244C140.001 87.8371 138.875 86.8216 138.328 85.5393C137.728 84.2375 137.667 82.7747 138.174 81.4011L147.432 56.3066L147.379 56.2871Z" fill="#EF4444"/>
<path d="M157.473 60.01L161.196 49.9194L147.383 56.2874L157.473 60.01ZM237.934 89.6936L241.763 79.6419L248.078 93.4357L237.934 89.6936Z" fill="#D50B0B"/>
<path d="M246.451 66.6064L246.198 67.2932L218.99 57.2558C216.19 56.2228 214.809 53.1325 215.823 50.3853L226.133 22.438C227.454 22.9252 228.579 23.9408 229.18 25.2426L246.403 62.5072C246.95 63.7895 247.01 65.2523 246.451 66.6064Z" fill="#FF6D6D"/>
<path d="M159.415 90.5126L167.887 67.5457L177.585 71.1231C177.808 71.2055 178.102 71.326 178.466 71.4845C178.845 71.6364 179.173 71.7938 179.451 71.9568C180.745 72.6755 181.7 73.5412 182.317 74.554C182.944 75.5707 183.271 76.6819 183.297 77.8875C183.328 79.0825 183.106 80.3233 182.631 81.6099C182.156 82.8965 181.512 83.9876 180.698 84.8834C179.899 85.7724 178.931 86.3997 177.794 86.7652C176.667 87.1347 175.384 87.1747 173.944 86.8853C173.631 86.818 173.279 86.7244 172.888 86.6044C172.497 86.4845 172.196 86.3853 171.983 86.3068L166.624 84.3298L163.753 92.113L159.415 90.5126ZM168.119 80.2787L173.286 82.1851C173.509 82.2675 173.758 82.3471 174.032 82.4239C174.305 82.5007 174.566 82.5483 174.812 82.5669C175.456 82.6232 176.006 82.5241 176.462 82.2696C176.922 82.0045 177.295 81.6649 177.581 81.2509C177.881 80.8301 178.108 80.4124 178.261 79.9977C178.414 79.583 178.511 79.1235 178.552 78.6192C178.608 78.1082 178.544 77.6078 178.363 77.118C178.185 76.6175 177.833 76.1797 177.307 75.8044C177.107 75.6583 176.879 75.5255 176.621 75.4062C176.363 75.2869 176.122 75.186 175.899 75.1036L170.731 73.1972L168.119 80.2787ZM180.161 98.1664L188.634 75.1994L196.066 77.9414C196.247 78.0081 196.617 78.1507 197.177 78.3692C197.736 78.5877 198.265 78.825 198.763 79.081C200.53 79.9869 201.861 81.2087 202.756 82.7467C203.65 84.2846 204.13 85.9958 204.196 87.8804C204.261 89.765 203.935 91.6802 203.218 93.626C202.5 95.5718 201.504 97.2399 200.23 98.6302C198.956 100.021 197.48 101.01 195.801 101.599C194.122 102.187 192.316 102.252 190.384 101.793C189.839 101.664 189.283 101.502 188.716 101.304C188.148 101.107 187.774 100.975 187.593 100.908L180.161 98.1664ZM186.069 95.7073L189.1 96.8253C189.387 96.9312 189.777 97.0691 190.27 97.2389C190.767 97.3981 191.226 97.513 191.647 97.5837C192.721 97.7504 193.707 97.5827 194.605 97.0804C195.513 96.5821 196.307 95.8722 196.985 94.9506C197.674 94.033 198.22 93.0266 198.624 91.9314C199.048 90.7831 199.29 89.6344 199.352 88.4853C199.424 87.3402 199.273 86.2937 198.897 85.346C198.522 84.3982 197.886 83.6501 196.989 83.1018C196.627 82.8716 196.204 82.6609 195.718 82.4699C195.233 82.2788 194.847 82.1303 194.56 82.0244L191.53 80.9064L186.069 95.7073ZM202.808 106.521L211.281 83.5542L225.316 88.7322L223.716 93.0704L214.018 89.4929L212.183 94.4691L219.966 97.3404L218.365 101.679L210.582 98.8073L207.146 108.122L202.808 106.521Z" fill="white"/>
<path d="M173.574 43.6025L236.4 66.7801" stroke="#D3D3D3" stroke-linecap="round"/>
<path d="M171.203 50.0278L234.029 73.2054" stroke="#D3D3D3" stroke-linecap="round"/>
<path d="M168.566 57.167L231.392 80.3445" stroke="#D3D3D3" stroke-linecap="round"/>
</g>
<path d="M147.26 26.1448L143.184 32.2456L158.876 29.1248L155.751 13.4331L151.705 19.4862C145.48 14.0524 130.692 14.8267 123.285 17.9007C115.496 21.1335 110.007 26.9081 111.74 35.2702C111.915 31.9573 114.704 29.35 118.076 27.1563C122.999 23.9532 128.689 21.708 134.555 22.0001C139.242 22.2335 144.03 23.4934 147.26 26.1448Z" fill="#0F67B1"/>
<defs>
<clipPath id="clip0_1314_25098">
<rect width="112.62" height="112.62" fill="white" transform="translate(0 38.9795) rotate(-20.25)"/>
</clipPath>
<clipPath id="clip1_1314_25098">
<rect width="112.622" height="112.622" fill="white" transform="translate(165.324 0.00488281) rotate(20.25)"/>
</clipPath>
</defs>
</svg>
