<svg width="271" height="145" viewBox="0 0 271 145" fill="none" xmlns="http://www.w3.org/2000/svg">
<g clip-path="url(#clip0_531_2469)">
<path d="M128.074 99.9614L128.021 99.9809L128.195 100.45C128.635 101.644 128.582 102.97 128.037 104.153C127.492 105.336 126.519 106.238 125.324 106.679L54.9059 132.671C53.7037 133.115 52.3318 133.073 51.2157 132.52L51.2094 132.517L51.2029 132.514C50.0195 131.968 49.1179 130.996 48.6771 129.801L15.2356 39.2029C14.7918 38.0006 14.8337 36.6288 15.3872 35.5127L15.3935 35.4999L15.3991 35.4868C15.8879 34.341 16.9036 33.4178 18.1058 32.974L61.3183 17.0235C62.5179 16.5808 63.8958 16.6188 65.0742 17.1618L102.322 34.3255C103.503 34.8696 104.406 35.841 104.868 37.0908L128.074 99.9614Z" fill="white" stroke="#FFD165"/>
<path d="M128.663 100.277L130.515 105.295C131.003 106.616 130.962 108.131 130.342 109.38C129.743 110.682 128.67 111.679 127.349 112.166L56.9305 138.159C54.1307 139.192 51.0734 137.74 50.0595 134.993L48.207 129.974C48.6945 131.295 49.6908 132.368 50.9927 132.968C52.2945 133.567 53.7574 133.628 55.078 133.14L125.497 107.148C128.296 106.114 129.677 103.024 128.663 100.277Z" fill="#D0D7E3"/>
<path d="M23.2578 93.4443L123.893 56.298L133.175 81.4436C134.209 84.2435 132.756 87.3007 130.009 88.3147L39.4634 121.737C38.1427 122.224 36.627 122.183 35.378 121.564C34.0761 120.964 33.0798 119.891 32.5729 118.518L23.3106 93.4248L23.2578 93.4443Z" fill="#F6AD00"/>
<path d="M33.3495 89.7201L29.6251 79.6301L23.2595 93.4445L33.3495 89.7201ZM113.805 60.0225L110.186 49.8935L123.948 56.2786L113.805 60.0225Z" fill="#D99B07"/>
<path d="M105.283 36.9369L105.537 37.6237L78.3307 47.6659C75.5309 48.6993 72.4737 47.2467 71.4597 44.4997L61.1445 16.5542C62.4652 16.0667 63.9809 16.1075 65.2828 16.7074L102.584 33.8516C103.833 34.471 104.829 35.5439 105.283 36.9369Z" fill="#FFD165"/>
<path d="M40.6514 114.641L33.1717 94.3771L36.9993 92.9643L44.479 113.228L40.6514 114.641ZM48.6977 111.671L41.218 91.407L44.6516 90.1397L56.3155 101.12L58.0481 85.1948L61.4816 83.9274L68.9613 104.191L65.387 105.51L60.92 93.4084L59.505 107.682L58.154 108.18L47.8049 98.2495L52.272 110.351L48.6977 111.671ZM71.5042 103.252L70.2162 80.7033L75.9294 78.5945L89.6007 96.5726L85.6606 98.027L73.5477 82.1918L74.2794 81.9217L75.4443 101.798L71.5042 103.252ZM73.6609 97.6595L72.3416 94.0853L83.0363 90.1377L84.3556 93.7119L73.6609 97.6595ZM100.172 93.1502C98.8963 93.6211 97.5984 93.8444 96.2782 93.82C94.9547 93.7863 93.6828 93.4883 92.4626 92.926C91.2518 92.3603 90.146 91.516 89.1452 90.393C88.1538 89.2666 87.3413 87.8451 86.7076 86.1283C85.88 83.8861 85.6039 81.8242 85.8793 79.9424C86.1606 78.0478 86.8713 76.421 88.0113 75.0622C89.1607 73.6999 90.6172 72.6933 92.3809 72.0422C94.9889 71.0796 97.2621 70.9281 99.2004 71.5877C101.139 72.2473 102.77 73.5906 104.094 75.6176L100.389 77.6244C99.5872 76.5774 98.6388 75.8562 97.5441 75.4608C96.4554 75.0526 95.262 75.0827 93.9639 75.5512C92.6717 76.0068 91.7044 76.6783 91.0619 77.5657C90.4195 78.4531 90.0764 79.5018 90.0327 80.7118C89.9984 81.9183 90.2409 83.2252 90.7603 84.6323C91.2798 86.0395 91.941 87.1812 92.7441 88.0573C93.5565 88.93 94.4952 89.4949 95.5601 89.752C96.6251 90.0092 97.8036 89.9099 99.0958 89.4543C99.9752 89.151 100.708 88.71 101.294 88.1313C101.889 87.5492 102.304 86.8257 102.539 85.9608C102.774 85.0959 102.797 84.0906 102.609 82.945L99.4007 84.1292L98.3099 81.1741L105.599 78.4835C105.663 78.5986 105.757 78.8091 105.88 79.1152C106.004 79.4214 106.074 79.5979 106.092 79.6448C106.809 81.5867 107.05 83.4536 106.816 85.2455C106.582 87.0374 105.905 88.6251 104.785 90.0086C103.661 91.3827 102.124 92.4299 100.172 93.1502ZM112.434 88.1445L104.954 67.8809L118.182 62.9984L119.501 66.5726L110.101 70.0424L111.701 74.3765L119.412 71.5301L120.732 75.1044L113.02 77.9508L114.942 83.1574L124.342 79.6877L125.661 83.262L112.434 88.1445Z" fill="white"/>
<path d="M34.9297 66.7866L97.7511 43.5981" stroke="#D3D3D3" stroke-linecap="round"/>
<path d="M37.3047 73.2119L100.126 50.0234" stroke="#D3D3D3" stroke-linecap="round"/>
<path d="M39.9375 80.3506L102.759 57.1621" stroke="#D3D3D3" stroke-linecap="round"/>
</g>
<g clip-path="url(#clip1_531_2469)">
<path d="M222.839 129.328L222.786 129.308L222.613 129.777C222.172 130.972 221.271 131.945 220.088 132.49C218.904 133.036 217.579 133.089 216.385 132.649L145.962 106.668C144.759 106.225 143.743 105.302 143.254 104.156L143.252 104.149L143.249 104.143C142.703 102.96 142.65 101.634 143.09 100.44L176.516 9.83551C176.96 8.63322 177.883 7.61741 179.028 7.1284L179.041 7.12279L179.054 7.11644C180.17 6.56281 181.542 6.52067 182.744 6.96422L225.96 22.9072C227.159 23.3498 228.182 24.2738 228.725 25.452L245.896 62.6972C246.44 63.8779 246.496 65.2031 246.034 66.453L222.839 129.328Z" fill="white" stroke="#FF6D6D"/>
<path d="M223.082 129.95L221.23 134.969C220.743 136.29 219.728 137.416 218.445 137.963C217.143 138.563 215.681 138.624 214.36 138.136L143.937 112.156C141.137 111.123 139.756 108.033 140.77 105.285L142.621 100.267C142.134 101.587 142.194 103.05 142.795 104.352C143.395 105.654 144.468 106.65 145.788 107.137L216.211 133.117C219.011 134.15 222.068 132.697 223.082 129.95Z" fill="#D0D7E3"/>
<path d="M147.379 56.2871L248.021 93.4159L238.744 118.563C237.711 121.363 234.62 122.744 231.873 121.731L141.322 88.3244C140.001 87.8371 138.875 86.8216 138.328 85.5393C137.728 84.2375 137.667 82.7747 138.174 81.4011L147.432 56.3066L147.379 56.2871Z" fill="#EF4444"/>
<path d="M157.473 60.01L161.196 49.9194L147.383 56.2874L157.473 60.01ZM237.934 89.6936L241.763 79.6419L248.078 93.4357L237.934 89.6936Z" fill="#D50B0B"/>
<path d="M246.451 66.6064L246.198 67.2932L218.99 57.2558C216.19 56.2228 214.809 53.1325 215.823 50.3853L226.133 22.438C227.454 22.9252 228.579 23.9408 229.18 25.2426L246.403 62.5072C246.95 63.7895 247.01 65.2523 246.451 66.6064Z" fill="#FF6D6D"/>
<path d="M159.415 90.5126L167.887 67.5457L177.585 71.1231C177.808 71.2055 178.102 71.326 178.466 71.4845C178.845 71.6364 179.173 71.7938 179.451 71.9568C180.745 72.6755 181.7 73.5412 182.317 74.554C182.944 75.5707 183.271 76.6819 183.297 77.8875C183.328 79.0825 183.106 80.3233 182.631 81.6099C182.156 82.8965 181.512 83.9876 180.698 84.8834C179.899 85.7724 178.931 86.3997 177.794 86.7652C176.667 87.1347 175.384 87.1747 173.944 86.8853C173.631 86.818 173.279 86.7244 172.888 86.6044C172.497 86.4845 172.196 86.3853 171.983 86.3068L166.624 84.3298L163.753 92.113L159.415 90.5126ZM168.119 80.2787L173.286 82.1851C173.509 82.2675 173.758 82.3471 174.032 82.4239C174.305 82.5007 174.566 82.5483 174.812 82.5669C175.456 82.6232 176.006 82.5241 176.462 82.2696C176.922 82.0045 177.295 81.6649 177.581 81.2509C177.881 80.8301 178.108 80.4124 178.261 79.9977C178.414 79.583 178.511 79.1235 178.552 78.6192C178.608 78.1082 178.544 77.6078 178.363 77.118C178.185 76.6175 177.833 76.1797 177.307 75.8044C177.107 75.6583 176.879 75.5255 176.621 75.4062C176.363 75.2869 176.122 75.186 175.899 75.1036L170.731 73.1972L168.119 80.2787ZM180.161 98.1664L188.634 75.1994L196.066 77.9414C196.247 78.0081 196.617 78.1507 197.177 78.3692C197.736 78.5877 198.265 78.825 198.763 79.081C200.53 79.9869 201.861 81.2087 202.756 82.7467C203.65 84.2846 204.13 85.9958 204.196 87.8804C204.261 89.765 203.935 91.6802 203.218 93.626C202.5 95.5718 201.504 97.2399 200.23 98.6302C198.956 100.021 197.48 101.01 195.801 101.599C194.122 102.187 192.316 102.252 190.384 101.793C189.839 101.664 189.283 101.502 188.716 101.304C188.148 101.107 187.774 100.975 187.593 100.908L180.161 98.1664ZM186.069 95.7073L189.1 96.8253C189.387 96.9312 189.777 97.0691 190.27 97.2389C190.767 97.3981 191.226 97.513 191.647 97.5837C192.721 97.7504 193.707 97.5827 194.605 97.0804C195.513 96.5821 196.307 95.8722 196.985 94.9506C197.674 94.033 198.22 93.0266 198.624 91.9314C199.048 90.7831 199.29 89.6344 199.352 88.4853C199.424 87.3402 199.273 86.2937 198.897 85.346C198.522 84.3982 197.886 83.6501 196.989 83.1018C196.627 82.8716 196.204 82.6609 195.718 82.4699C195.233 82.2788 194.847 82.1303 194.56 82.0244L191.53 80.9064L186.069 95.7073ZM202.808 106.521L211.281 83.5542L225.316 88.7322L223.716 93.0704L214.018 89.4929L212.183 94.4691L219.966 97.3404L218.365 101.679L210.582 98.8073L207.146 108.122L202.808 106.521Z" fill="white"/>
<path d="M173.574 43.6025L236.4 66.7801" stroke="#D3D3D3" stroke-linecap="round"/>
<path d="M171.203 50.0278L234.029 73.2054" stroke="#D3D3D3" stroke-linecap="round"/>
<path d="M168.566 57.167L231.392 80.3445" stroke="#D3D3D3" stroke-linecap="round"/>
</g>
<path d="M147.26 26.1443L143.184 32.2451L158.876 29.1243L155.751 13.4326L151.705 19.4857C145.48 14.0519 130.692 14.8262 123.285 17.9002C115.496 21.133 110.007 26.9076 111.74 35.2697C111.915 31.9569 114.704 29.3495 118.076 27.1558C122.999 23.9527 128.689 21.7075 134.555 21.9996C139.242 22.233 144.03 23.493 147.26 26.1443Z" fill="#0F67B1"/>
<defs>
<clipPath id="clip0_531_2469">
<rect width="112.622" height="112.622" fill="white" transform="translate(0.339844 38.998) rotate(-20.26)"/>
</clipPath>
<clipPath id="clip1_531_2469">
<rect width="112.622" height="112.622" fill="white" transform="translate(165.324 0.00488281) rotate(20.25)"/>
</clipPath>
</defs>
</svg>
