<svg width="127" height="130" viewBox="0 0 127 130" fill="none" xmlns="http://www.w3.org/2000/svg">
<g clip-path="url(#clip0_808_22418)">
<path d="M118.959 57.0906H118.927V57.3721C118.927 58.0887 118.641 58.7782 118.122 59.2968C117.603 59.8154 116.914 60.1019 116.197 60.1019H73.9448C73.2235 60.1019 72.5072 59.8123 72.0257 59.3025L72.0258 59.3025L72.0201 59.2968C71.5015 58.7782 71.215 58.0887 71.215 57.3721V3.01124C71.215 2.28989 71.5046 1.57361 72.0144 1.09214L72.0202 1.08662L72.0257 1.08077C72.5072 0.570977 73.2235 0.281448 73.9448 0.281448H99.8732C100.593 0.281448 101.313 0.570139 101.83 1.08654L118.154 17.4106C118.671 17.9281 118.959 18.6171 118.959 19.367V57.0906Z" fill="white" stroke="#FF6D6D" stroke-width="0.562897"/>
<path d="M119.209 57.373V60.3843C119.209 61.1767 118.892 61.9692 118.321 62.508C117.75 63.0786 116.99 63.3955 116.197 63.3955H73.9448C72.2649 63.3955 70.9336 62.0325 70.9336 60.3843V57.373C70.9336 58.1655 71.2506 58.9262 71.8211 59.4968C72.3917 60.0673 73.1524 60.3843 73.9448 60.3843H116.197C117.877 60.3843 119.209 59.0213 119.209 57.373Z" fill="#D0D7E3"/>
<path d="M64.8789 33.2227H125.262V48.3106C125.262 49.9905 123.899 51.3218 122.251 51.3218H67.9218C67.1294 51.3218 66.337 51.0048 65.7981 50.4343C65.2276 49.8637 64.9106 49.103 64.9106 48.2789V33.2227H64.8789Z" fill="#EF4444"/>
<path d="M70.9331 33.2163V27.1621L64.8789 33.2163H70.9331ZM119.208 33.2163L119.271 27.1621L125.294 33.2163H119.208Z" fill="#D50B0B"/>
<path d="M119.21 19.367V19.7791H102.886C101.206 19.7791 99.875 18.4161 99.875 16.7679V0C100.667 0 101.46 0.316973 102.03 0.887524L118.386 17.2116C118.925 17.7822 119.242 18.5429 119.21 19.367Z" fill="#FF6D6D"/>
<path d="M78.3691 48.9863V35.3063H84.1451C84.2781 35.3063 84.4554 35.3127 84.6771 35.3253C84.9051 35.3317 85.1077 35.3507 85.2851 35.3823C86.1021 35.509 86.7702 35.7782 87.2896 36.1898C87.8152 36.6015 88.2016 37.1208 88.4486 37.7478C88.6956 38.3685 88.8191 39.062 88.8191 39.8283C88.8191 40.5947 88.6924 41.2913 88.4391 41.9183C88.1921 42.539 87.8057 43.0552 87.2801 43.4668C86.7607 43.8785 86.0957 44.1477 85.2851 44.2743C85.1077 44.2997 84.9051 44.3187 84.6771 44.3313C84.4491 44.344 84.2717 44.3503 84.1451 44.3503H80.9531V48.9863H78.3691ZM80.9531 41.9373H84.0311C84.1641 41.9373 84.3097 41.931 84.4681 41.9183C84.6264 41.9057 84.7721 41.8803 84.9051 41.8423C85.2534 41.7473 85.5226 41.589 85.7126 41.3673C85.9026 41.1393 86.0324 40.8892 86.1021 40.6168C86.1781 40.3382 86.2161 40.0753 86.2161 39.8283C86.2161 39.5813 86.1781 39.3217 86.1021 39.0493C86.0324 38.7707 85.9026 38.5205 85.7126 38.2988C85.5226 38.0708 85.2534 37.9093 84.9051 37.8143C84.7721 37.7763 84.6264 37.751 84.4681 37.7383C84.3097 37.7257 84.1641 37.7193 84.0311 37.7193H80.9531V41.9373ZM90.7265 48.9863V35.3063H95.1535C95.2612 35.3063 95.4828 35.3095 95.8185 35.3158C96.1542 35.3222 96.4772 35.3443 96.7875 35.3823C97.8895 35.5153 98.8237 35.8985 99.59 36.5318C100.356 37.1652 100.939 37.9695 101.338 38.9448C101.737 39.9202 101.936 40.9873 101.936 42.1463C101.936 43.3053 101.737 44.3725 101.338 45.3478C100.939 46.3232 100.356 47.1275 99.59 47.7608C98.8237 48.3942 97.8895 48.7773 96.7875 48.9103C96.4772 48.9483 96.1542 48.9705 95.8185 48.9768C95.4828 48.9832 95.2612 48.9863 95.1535 48.9863H90.7265ZM93.3485 46.5543H95.1535C95.3245 46.5543 95.5557 46.5512 95.847 46.5448C96.1383 46.5322 96.4012 46.5037 96.6355 46.4593C97.2308 46.339 97.7153 46.0603 98.089 45.6233C98.469 45.1863 98.7477 44.6607 98.925 44.0463C99.1087 43.432 99.2005 42.7987 99.2005 42.1463C99.2005 41.4623 99.1055 40.8132 98.9155 40.1988C98.7318 39.5845 98.45 39.0652 98.07 38.6408C97.69 38.2165 97.2118 37.9473 96.6355 37.8333C96.4012 37.7827 96.1383 37.7542 95.847 37.7478C95.5557 37.7415 95.3245 37.7383 95.1535 37.7383H93.3485V46.5543ZM104.216 48.9863V35.3063H112.576V37.8903H106.8V40.8543H111.436V43.4383H106.8V48.9863H104.216Z" fill="white"/>
<path d="M76.2422 21.4199H113.936" stroke="#D3D3D3" stroke-width="0.562897" stroke-linecap="round"/>
<path d="M76.2422 25.2734H113.936" stroke="#D3D3D3" stroke-width="0.562897" stroke-linecap="round"/>
<path d="M76.2422 29.5605H113.936" stroke="#D3D3D3" stroke-width="0.562897" stroke-linecap="round"/>
</g>
<g clip-path="url(#clip1_808_22418)">
<path d="M55.5643 57.0906H55.5326V57.3721C55.5326 58.0887 55.2461 58.7782 54.7275 59.2968C54.2089 59.8154 53.5194 60.1019 52.8028 60.1019H10.5503C9.82895 60.1019 9.11268 59.8123 8.6312 59.3025L8.63129 59.3025L8.6256 59.2968C8.107 58.7782 7.82051 58.0887 7.82051 57.3721V3.01124C7.82051 2.28989 8.11004 1.57361 8.61984 1.09214L8.62568 1.08662L8.6312 1.08077C9.11268 0.570977 9.82895 0.281448 10.5503 0.281448H36.4787C37.1984 0.281448 37.9187 0.570139 38.4351 1.08654L54.7592 17.4106C55.2767 17.9281 55.5643 18.6171 55.5643 19.367V57.0906Z" fill="white" stroke="#FF6D6D" stroke-width="0.562897"/>
<path d="M55.814 57.373V60.3843C55.814 61.1767 55.4971 61.9692 54.9265 62.508C54.356 63.0786 53.5952 63.3955 52.8028 63.3955H10.5503C8.87035 63.3955 7.53906 62.0325 7.53906 60.3843V57.373C7.53906 58.1655 7.85604 58.9262 8.42659 59.4968C8.99714 60.0673 9.75787 60.3843 10.5503 60.3843H52.8028C54.4827 60.3843 55.814 59.0213 55.814 57.373Z" fill="#D0D7E3"/>
<path d="M1.48438 33.2227H61.8677V48.3106C61.8677 49.9905 60.5047 51.3218 58.8564 51.3218H4.52731C3.73488 51.3218 2.94245 51.0048 2.4036 50.4343C1.83305 49.8637 1.51607 49.103 1.51607 48.2789V33.2227H1.48438Z" fill="#EF4444"/>
<path d="M7.53856 33.2163V27.1621L1.48438 33.2163H7.53856ZM55.8135 33.2163L55.8769 27.1621L61.8994 33.2163H55.8135Z" fill="#D50B0B"/>
<path d="M55.8158 19.367V19.7791H39.4917C37.8118 19.7791 36.4805 18.4161 36.4805 16.7679V0C37.2729 0 38.0653 0.316973 38.6359 0.887524L54.9917 17.2116C55.5305 17.7822 55.8475 18.5429 55.8158 19.367Z" fill="#FF6D6D"/>
<path d="M15.3691 48.9863V35.3063H21.1451C21.2781 35.3063 21.4554 35.3127 21.6771 35.3253C21.9051 35.3317 22.1077 35.3507 22.2851 35.3823C23.1021 35.509 23.7702 35.7782 24.2896 36.1898C24.8152 36.6015 25.2016 37.1208 25.4486 37.7478C25.6956 38.3685 25.8191 39.062 25.8191 39.8283C25.8191 40.5947 25.6924 41.2913 25.4391 41.9183C25.1921 42.539 24.8057 43.0552 24.2801 43.4668C23.7607 43.8785 23.0957 44.1477 22.2851 44.2743C22.1077 44.2997 21.9051 44.3187 21.6771 44.3313C21.4491 44.344 21.2717 44.3503 21.1451 44.3503H17.9531V48.9863H15.3691ZM17.9531 41.9373H21.0311C21.1641 41.9373 21.3097 41.931 21.4681 41.9183C21.6264 41.9057 21.7721 41.8803 21.9051 41.8423C22.2534 41.7473 22.5226 41.589 22.7126 41.3673C22.9026 41.1393 23.0324 40.8892 23.1021 40.6168C23.1781 40.3382 23.2161 40.0753 23.2161 39.8283C23.2161 39.5813 23.1781 39.3217 23.1021 39.0493C23.0324 38.7707 22.9026 38.5205 22.7126 38.2988C22.5226 38.0708 22.2534 37.9093 21.9051 37.8143C21.7721 37.7763 21.6264 37.751 21.4681 37.7383C21.3097 37.7257 21.1641 37.7193 21.0311 37.7193H17.9531V41.9373ZM27.7265 48.9863V35.3063H32.1535C32.2612 35.3063 32.4828 35.3095 32.8185 35.3158C33.1542 35.3222 33.4772 35.3443 33.7875 35.3823C34.8895 35.5153 35.8237 35.8985 36.59 36.5318C37.3563 37.1652 37.939 37.9695 38.338 38.9448C38.737 39.9202 38.9365 40.9873 38.9365 42.1463C38.9365 43.3053 38.737 44.3725 38.338 45.3478C37.939 46.3232 37.3563 47.1275 36.59 47.7608C35.8237 48.3942 34.8895 48.7773 33.7875 48.9103C33.4772 48.9483 33.1542 48.9705 32.8185 48.9768C32.4828 48.9832 32.2612 48.9863 32.1535 48.9863H27.7265ZM30.3485 46.5543H32.1535C32.3245 46.5543 32.5557 46.5512 32.847 46.5448C33.1383 46.5322 33.4012 46.5037 33.6355 46.4593C34.2308 46.339 34.7153 46.0603 35.089 45.6233C35.469 45.1863 35.7477 44.6607 35.925 44.0463C36.1087 43.432 36.2005 42.7987 36.2005 42.1463C36.2005 41.4623 36.1055 40.8132 35.9155 40.1988C35.7318 39.5845 35.45 39.0652 35.07 38.6408C34.69 38.2165 34.2118 37.9473 33.6355 37.8333C33.4012 37.7827 33.1383 37.7542 32.847 37.7478C32.5557 37.7415 32.3245 37.7383 32.1535 37.7383H30.3485V46.5543ZM41.2157 48.9863V35.3063H49.5757V37.8903H43.7997V40.8543H48.4357V43.4383H43.7997V48.9863H41.2157Z" fill="white"/>
<path d="M12.8477 21.4199H50.5417" stroke="#D3D3D3" stroke-width="0.562897" stroke-linecap="round"/>
<path d="M12.8477 25.2734H50.5417" stroke="#D3D3D3" stroke-width="0.562897" stroke-linecap="round"/>
<path d="M12.8477 29.5605H50.5417" stroke="#D3D3D3" stroke-width="0.562897" stroke-linecap="round"/>
</g>
<path d="M58.0482 116.154C58.0736 117.547 59.3861 118.652 60.9795 118.623C62.573 118.594 63.8441 117.441 63.8187 116.049L58.0482 116.154ZM63.8187 116.049L63.6095 104.617L57.839 104.722L58.0482 116.154L63.8187 116.049ZM48.6658 77.4426L34.9858 67.5817L31.3005 71.479L44.9804 81.34L48.6658 77.4426ZM63.6095 104.617C63.4164 94.0671 57.9576 84.1406 48.6658 77.4426L44.9804 81.34C52.9756 87.1034 57.6729 95.6445 57.839 104.722L63.6095 104.617Z" fill="#EF4444"/>
<path d="M75.4885 114.264L61.8301 125.725C60.992 126.428 59.7424 126.319 59.0391 125.48L47.5784 111.822" stroke="#EF4444" stroke-width="5.94324" stroke-linecap="round"/>
<path d="M89.3913 72.4261C90.5518 71.2657 90.5518 69.3841 89.3913 68.2238C88.2308 67.0632 86.3496 67.0632 85.1891 68.2238L89.3913 72.4261ZM85.1891 68.2238L67.3593 86.0534L71.5616 90.2559L89.3913 72.4261L85.1891 68.2238Z" fill="#EF4444"/>
<defs>
<clipPath id="clip0_808_22418">
<rect width="63.3946" height="63.3946" fill="white" transform="translate(63.3945)"/>
</clipPath>
<clipPath id="clip1_808_22418">
<rect width="63.3946" height="63.3946" fill="white"/>
</clipPath>
</defs>
</svg>
