<svg width="130" height="134" viewBox="0 0 130 134" fill="none" xmlns="http://www.w3.org/2000/svg">
<path d="M71.9349 113.886C71.5182 113.886 71.2405 113.747 70.9627 113.47L64.0182 106.525C63.4627 105.97 63.4627 105.136 64.0182 104.581C64.5738 104.025 65.4071 104.025 65.9627 104.581L72.9071 111.525C73.4627 112.081 73.4627 112.914 72.9071 113.47C72.6293 113.747 72.3516 113.886 71.9349 113.886Z" fill="#EF4444"/>
<path d="M58.049 113.886C57.6324 113.886 57.3546 113.747 57.0768 113.47C56.5213 112.914 56.5213 112.081 57.0768 111.525L64.0213 104.581C64.5768 104.025 65.4102 104.025 65.9657 104.581C66.5213 105.136 66.5213 105.97 65.9657 106.525L59.0213 113.47C58.7435 113.747 58.4657 113.886 58.049 113.886Z" fill="#EF4444"/>
<path d="M64.9905 129.164C64.1571 129.164 63.6016 128.609 63.6016 127.775V105.553C63.6016 104.72 64.1571 104.164 64.9905 104.164C65.8238 104.164 66.3793 104.72 66.3793 105.553V127.775C66.3793 128.609 65.8238 129.164 64.9905 129.164Z" fill="#EF4444"/>
<path d="M71.9349 19.4457C71.5182 19.4457 71.2405 19.5846 70.9627 19.8624L64.0182 26.8069C63.4627 27.3624 63.4627 28.1957 64.0182 28.7513C64.5738 29.3069 65.4071 29.3069 65.9627 28.7513L72.9071 21.8069C73.4627 21.2513 73.4627 20.418 72.9071 19.8624C72.6293 19.5846 72.3516 19.4457 71.9349 19.4457Z" fill="#EF4444"/>
<path d="M58.049 19.4457C57.6324 19.4457 57.3546 19.5846 57.0768 19.8624C56.5213 20.418 56.5213 21.2513 57.0768 21.8069L64.0213 28.7513C64.5768 29.3069 65.4102 29.3069 65.9657 28.7513C66.5213 28.1957 66.5213 27.3624 65.9657 26.8069L59.0213 19.8624C58.7435 19.5846 58.4657 19.4457 58.049 19.4457Z" fill="#EF4444"/>
<path d="M64.9905 4.16797C64.1571 4.16797 63.6016 4.72352 63.6016 5.55686V27.7791C63.6016 28.6124 64.1571 29.168 64.9905 29.168C65.8238 29.168 66.3793 28.6124 66.3793 27.7791V5.55686C66.3793 4.72352 65.8238 4.16797 64.9905 4.16797Z" fill="#EF4444"/>
<path d="M110.554 59.7214C110.554 60.138 110.415 60.4158 110.138 60.6936L103.193 67.638C102.638 68.1936 101.804 68.1936 101.249 67.638C100.693 67.0825 100.693 66.2491 101.249 65.6936L108.193 58.7491C108.749 58.1936 109.582 58.1936 110.138 58.7491C110.415 59.0269 110.554 59.3047 110.554 59.7214Z" fill="#EF4444"/>
<path d="M110.554 73.6092C110.554 74.0258 110.415 74.3036 110.138 74.5814C109.582 75.1369 108.749 75.1369 108.193 74.5814L101.249 67.6369C100.693 67.0814 100.693 66.248 101.249 65.6925C101.804 65.1369 102.638 65.1369 103.193 65.6925L110.138 72.6369C110.415 72.9147 110.554 73.1925 110.554 73.6092Z" fill="#EF4444"/>
<path d="M125.832 66.6658C125.832 67.4991 125.276 68.0547 124.443 68.0547H102.221C101.388 68.0547 100.832 67.4991 100.832 66.6658C100.832 65.8325 101.388 65.2769 102.221 65.2769H124.443C125.276 65.2769 125.832 65.8325 125.832 66.6658Z" fill="#EF4444"/>
<path d="M19.4457 59.7214C19.4457 60.138 19.5846 60.4158 19.8624 60.6936L26.8069 67.638C27.3624 68.1936 28.1957 68.1936 28.7513 67.638C29.3069 67.0825 29.3069 66.2491 28.7513 65.6936L21.8069 58.7491C21.2513 58.1936 20.418 58.1936 19.8624 58.7491C19.5846 59.0269 19.4457 59.3047 19.4457 59.7214Z" fill="#EF4444"/>
<path d="M19.4457 73.6092C19.4457 74.0258 19.5846 74.3036 19.8624 74.5814C20.418 75.1369 21.2513 75.1369 21.8069 74.5814L28.7513 67.6369C29.3069 67.0814 29.3069 66.248 28.7513 65.6925C28.1957 65.1369 27.3624 65.1369 26.8069 65.6925L19.8624 72.6369C19.5846 72.9147 19.4457 73.1925 19.4457 73.6092Z" fill="#EF4444"/>
<path d="M4.16797 66.6658C4.16797 67.4991 4.72352 68.0547 5.55686 68.0547H27.7791C28.6124 68.0547 29.168 67.4991 29.168 66.6658C29.168 65.8325 28.6124 65.2769 27.7791 65.2769H5.55686C4.72352 65.2769 4.16797 65.8325 4.16797 66.6658Z" fill="#EF4444"/>
<g clip-path="url(#clip0_1976_29406)">
<path d="M89.3859 92.6517H89.3526V93.6673C89.3526 94.2271 89.1293 94.77 88.7167 95.1825C88.3042 95.595 87.7613 95.8183 87.2016 95.8183H42.7682C42.1914 95.8183 41.6329 95.584 41.2733 95.2033L41.2633 95.1927L41.2531 95.1825C40.8405 94.77 40.6172 94.2271 40.6172 93.6673L40.6172 36.5007C40.6172 35.9238 40.8515 35.3653 41.2322 35.0057L41.2533 34.9858L41.2733 34.9647C41.6329 34.5839 42.1914 34.3496 42.7682 34.3496H70.0349C70.6059 34.3496 71.1788 34.5809 71.5834 34.9855L88.7501 52.1521C89.1586 52.5606 89.3859 53.1019 89.3859 53.7006V92.6517Z" fill="white" stroke="#FF6D6D" stroke-width="2.03125"/>
<path d="M90.3682 93.668V96.8346C90.3682 97.668 90.0349 98.5013 89.4349 99.068C88.8349 99.668 88.0349 100.001 87.2016 100.001H42.7682C41.0016 100.001 39.6016 98.568 39.6016 96.8346V93.668C39.6016 94.5013 39.9349 95.3013 40.5349 95.9013C41.1349 96.5013 41.9349 96.8346 42.7682 96.8346H87.2016C88.9682 96.8346 90.3682 95.4013 90.3682 93.668Z" fill="#D0D7E3"/>
<path d="M33.2305 68.2695H96.7305V84.1362C96.7305 85.9029 95.2971 87.3029 93.5638 87.3029H36.4305C35.5971 87.3029 34.7638 86.9695 34.1971 86.3695C33.5971 85.7695 33.2638 84.9695 33.2638 84.1029V68.2695H33.2305Z" fill="#EF4444"/>
<path d="M39.5971 68.269V61.9023L33.2305 68.269H39.5971ZM90.3638 68.269L90.4305 61.9023L96.7638 68.269H90.3638Z" fill="#D50B0B"/>
<path d="M90.3646 53.7007V54.134H73.1979C71.4313 54.134 70.0312 52.7007 70.0312 50.9673V33.334C70.8646 33.334 71.6979 33.6673 72.2979 34.2673L89.4979 51.434C90.0646 52.034 90.3979 52.834 90.3646 53.7007Z" fill="#FF6D6D"/>
<path d="M48.2169 87.0312V73.8687H53.7744C53.9024 73.8687 54.073 73.8748 54.2863 73.887C54.5057 73.8931 54.7007 73.9114 54.8713 73.9419C55.6574 74.0637 56.3003 74.3227 56.8 74.7188C57.3058 75.1149 57.6775 75.6146 57.9151 76.2179C58.1528 76.8151 58.2716 77.4823 58.2716 78.2197C58.2716 78.957 58.1498 79.6273 57.906 80.2306C57.6683 80.8278 57.2966 81.3245 56.7909 81.7205C56.2912 82.1166 55.6513 82.3756 54.8713 82.4975C54.7007 82.5219 54.5057 82.5402 54.2863 82.5523C54.0669 82.5645 53.8963 82.5706 53.7744 82.5706H50.7032V87.0312H48.2169ZM50.7032 80.2489H53.6648C53.7927 80.2489 53.9329 80.2428 54.0852 80.2306C54.2376 80.2184 54.3777 80.1941 54.5057 80.1575C54.8408 80.0661 55.0998 79.9137 55.2826 79.7005C55.4655 79.4811 55.5904 79.2404 55.6574 78.9784C55.7305 78.7102 55.7671 78.4573 55.7671 78.2197C55.7671 77.982 55.7305 77.7322 55.6574 77.4702C55.5904 77.202 55.4655 76.9613 55.2826 76.748C55.0998 76.5287 54.8408 76.3733 54.5057 76.2819C54.3777 76.2453 54.2376 76.2209 54.0852 76.2087C53.9329 76.1966 53.7927 76.1905 53.6648 76.1905H50.7032V80.2489ZM60.1069 87.0312V73.8687H64.3664C64.47 73.8687 64.6833 73.8718 65.0063 73.8779C65.3292 73.884 65.64 73.9053 65.9386 73.9419C66.9989 74.0698 67.8978 74.4385 68.6351 75.0479C69.3724 75.6573 69.9331 76.4312 70.317 77.3696C70.7009 78.308 70.8928 79.3348 70.8928 80.45C70.8928 81.5652 70.7009 82.592 70.317 83.5304C69.9331 84.4688 69.3724 85.2427 68.6351 85.8521C67.8978 86.4615 66.9989 86.8302 65.9386 86.9581C65.64 86.9947 65.3292 87.016 65.0063 87.0221C64.6833 87.0282 64.47 87.0312 64.3664 87.0312H60.1069ZM62.6297 84.6912H64.3664C64.531 84.6912 64.7534 84.6882 65.0337 84.6821C65.314 84.6699 65.5669 84.6425 65.7924 84.5998C66.3652 84.4841 66.8314 84.2159 67.1909 83.7955C67.5565 83.375 67.8246 82.8692 67.9953 82.2781C68.172 81.687 68.2603 81.0777 68.2603 80.45C68.2603 79.7919 68.1689 79.1673 67.9861 78.5762C67.8094 77.9851 67.5382 77.4854 67.1726 77.0771C66.807 76.6688 66.3469 76.4098 65.7924 76.3002C65.5669 76.2514 65.314 76.224 65.0337 76.2179C64.7534 76.2118 64.531 76.2087 64.3664 76.2087H62.6297V84.6912ZM73.0859 87.0312V73.8687H81.1296V76.355H75.5721V79.2069H80.0327V81.6931H75.5721V87.0312H73.0859Z" fill="white"/>
<path d="M45.1797 55.8555H84.8193" stroke="#D3D3D3" stroke-width="2.03125" stroke-linecap="round"/>
<path d="M45.1797 59.9102H84.8193" stroke="#D3D3D3" stroke-width="2.03125" stroke-linecap="round"/>
<path d="M45.1797 64.416H84.8193" stroke="#D3D3D3" stroke-width="2.03125" stroke-linecap="round"/>
</g>
<defs>
<clipPath id="clip0_1976_29406">
<rect width="66.6667" height="66.6667" fill="white" transform="translate(31.668 33.334)"/>
</clipPath>
</defs>
</svg>
