<svg width="271" height="145" viewBox="0 0 271 145" fill="none" xmlns="http://www.w3.org/2000/svg">
<g clip-path="url(#clip0_475_2446)">
<path d="M128.067 99.9698L128.014 99.9893L128.187 100.458C128.628 101.653 128.574 102.978 128.029 104.161C127.483 105.345 126.51 106.246 125.316 106.687L54.8926 132.667C53.6903 133.111 52.3185 133.069 51.2025 132.515L51.1961 132.512L51.1896 132.509C50.0064 131.963 49.105 130.99 48.6643 129.796L15.2386 39.1915C14.7951 37.9892 14.8372 36.6174 15.3909 35.5014L15.3972 35.4886L15.4028 35.4755C15.8918 34.3298 16.9076 33.4068 18.1099 32.9632L61.3253 17.0203C62.5249 16.5777 63.9028 16.616 65.0811 17.1591L102.326 34.3294C103.507 34.8737 104.41 35.8453 104.871 37.0951L128.067 99.9698Z" fill="white" stroke="#FF6D6D"/>
<path d="M128.656 100.286L130.508 105.305C130.995 106.626 130.954 108.141 130.334 109.39C129.734 110.692 128.661 111.688 127.34 112.176L56.9173 138.156C54.1173 139.189 51.0604 137.736 50.0469 134.989L48.1953 129.97C48.6826 131.29 49.6786 132.364 50.9804 132.964C52.2822 133.564 53.745 133.624 55.0658 133.137L125.489 107.157C128.289 106.124 129.67 103.033 128.656 100.286Z" fill="#D0D7E3"/>
<path d="M23.252 93.4365L123.894 56.3077L133.171 81.455C134.204 84.255 132.751 87.312 130.004 88.3255L39.4526 121.732C38.1318 122.219 36.6162 122.178 35.3672 121.558C34.0654 120.958 33.0694 119.885 32.5626 118.512L23.3048 93.417L23.252 93.4365Z" fill="#EF4444"/>
<path d="M33.3445 89.7127L29.6219 79.6221L23.2539 93.4353L33.3445 89.7127ZM113.805 60.0292L110.188 49.8996L123.949 56.287L113.805 60.0292Z" fill="#D50B0B"/>
<path d="M105.287 36.9422L105.541 37.629L78.3331 47.6664C75.5331 48.6994 72.4761 47.2463 71.4627 44.4991L61.1523 16.5518C62.4731 16.0645 63.9888 16.1056 65.2905 16.7057L102.589 33.8564C103.837 34.4761 104.834 35.5491 105.287 36.9422Z" fill="#FF6D6D"/>
<path d="M54.6299 111.647L46.1569 88.6796L55.8541 85.1022C56.0774 85.0198 56.379 84.9206 56.759 84.8046C57.1457 84.674 57.4977 84.5804 57.8151 84.5237C59.2652 84.2303 60.5536 84.2684 61.6805 84.6379C62.818 85.0034 63.7883 85.636 64.5913 86.5357C65.3904 87.4247 66.0273 88.5125 66.5019 89.7991C66.9765 91.0857 67.1954 92.3337 67.1584 93.5433C67.1281 94.7383 66.7992 95.8442 66.1717 96.8609C65.5548 97.8737 64.605 98.7374 63.3225 99.4522C63.0404 99.6046 62.712 99.762 62.337 99.9245C61.9621 100.087 61.6683 100.207 61.4556 100.286L56.0967 102.263L58.9681 110.046L54.6299 111.647ZM54.6022 98.2118L59.7697 96.3054C59.993 96.223 60.2336 96.1221 60.4916 96.0028C60.7496 95.8835 60.9785 95.7507 61.1782 95.6045C61.7042 95.2293 62.058 94.7968 62.2397 94.3069C62.4175 93.8065 62.4805 93.3061 62.4288 92.8057C62.3838 92.2908 62.2848 91.826 62.1318 91.4113C61.9788 90.9966 61.7542 90.5842 61.4579 90.1741C61.1684 89.7494 60.7954 89.4098 60.3392 89.1553C59.879 88.8902 59.327 88.7858 58.6834 88.8421C58.4366 88.8606 58.1763 88.9083 57.9027 88.9851C57.629 89.0619 57.3805 89.1415 57.1572 89.2239L51.9897 91.1303L54.6022 98.2118ZM75.3764 103.993L66.9034 81.0259L74.3358 78.2839C74.5165 78.2172 74.8906 78.0853 75.4581 77.888C76.0256 77.6907 76.5816 77.5279 77.1261 77.3995C79.0586 76.9402 80.8643 77.0049 82.5431 77.5935C84.2219 78.1822 85.6983 79.1717 86.9723 80.562C88.2463 81.9523 89.2422 83.6204 89.96 85.5662C90.6779 87.512 91.0039 89.4272 90.9381 91.3118C90.8723 93.1964 90.3923 94.9076 89.498 96.4456C88.6037 97.9835 87.2727 99.2054 85.5049 100.111C85.0074 100.367 84.4789 100.604 83.9193 100.823C83.3597 101.042 82.9895 101.184 82.8087 101.251L75.3764 103.993ZM78.2721 98.2858L81.3024 97.1678C81.5895 97.0619 81.9756 96.9134 82.4608 96.7224C82.9421 96.5206 83.3657 96.31 83.7317 96.0904C84.6566 95.5197 85.2974 94.7518 85.6541 93.7867C86.0214 92.8176 86.1637 91.7625 86.0809 90.6213C86.0088 89.4761 85.7707 88.356 85.3666 87.2608C84.943 86.1125 84.3814 85.0814 83.6819 84.1677C82.9931 83.2501 82.1983 82.5528 81.2975 82.0757C80.3967 81.5987 79.4272 81.4429 78.389 81.6085C77.9642 81.6686 77.5053 81.7835 77.0123 81.9533C76.5192 82.1232 76.1292 82.261 75.8421 82.3669L72.8117 83.4849L78.2721 98.2858ZM98.0231 95.638L89.5501 72.6711L103.585 67.4931L105.186 71.8313L95.4888 75.4088L97.3246 80.385L105.108 77.5136L106.708 81.8518L98.925 84.7232L102.361 94.0375L98.0231 95.638Z" fill="white"/>
<path d="M34.9316 66.7798L97.7571 43.6023" stroke="#D3D3D3" stroke-linecap="round"/>
<path d="M37.3008 73.2051L100.126 50.0276" stroke="#D3D3D3" stroke-linecap="round"/>
<path d="M39.9336 80.3457L102.759 57.1682" stroke="#D3D3D3" stroke-linecap="round"/>
</g>
<g clip-path="url(#clip1_475_2446)">
<path d="M222.831 129.332L222.778 129.312L222.605 129.781C222.164 130.976 221.263 131.949 220.079 132.494C218.896 133.039 217.571 133.092 216.376 132.652L145.957 106.66C144.755 106.216 143.739 105.293 143.251 104.147L143.248 104.141L143.245 104.134C142.699 102.951 142.646 101.626 143.087 100.431L176.527 9.83236C176.971 8.63014 177.894 7.61448 179.04 7.12565L179.053 7.12004L179.066 7.11369C180.182 6.56023 181.553 6.51831 182.756 6.96205L225.968 22.9118C227.168 23.3546 228.191 24.2788 228.734 25.4571L245.898 62.7049C246.442 63.8857 246.498 65.211 246.036 66.4607L222.831 129.332Z" fill="white" stroke="#17DC85"/>
<path d="M223.073 129.955L221.221 134.973C220.734 136.294 219.718 137.42 218.435 137.967C217.134 138.567 215.671 138.627 214.35 138.139L143.931 112.148C141.131 111.114 139.751 108.024 140.765 105.277L142.617 100.258C142.13 101.579 142.19 103.042 142.79 104.344C143.39 105.646 144.463 106.642 145.783 107.129L216.202 133.121C219.002 134.154 222.059 132.702 223.073 129.955Z" fill="#D0D7E3"/>
<path d="M147.383 56.2798L248.019 93.4244L238.738 118.57C237.704 121.37 234.614 122.75 231.867 121.737L141.321 88.3161C140 87.8286 138.874 86.8129 138.327 85.5305C137.727 84.2287 137.667 82.7658 138.174 81.3923L147.436 56.2993L147.383 56.2798Z" fill="#17DC85"/>
<path d="M157.475 60.0037L161.199 49.9137L147.385 56.2795L157.475 60.0037ZM237.931 89.6999L241.761 79.6489L248.074 93.4436L237.931 89.6999Z" fill="#10B76D"/>
<path d="M246.452 66.6145L246.198 67.3013L218.992 57.2595C216.192 56.2261 214.812 53.1356 215.826 50.3886L226.141 22.4429C227.461 22.9303 228.587 23.9461 229.187 25.2479L246.404 62.5153C246.951 63.7976 247.012 65.2605 246.452 66.6145Z" fill="#17DC85"/>
<path d="M160.574 88.8704L171.52 80.8821L168.507 68.0063L173.363 69.7989L175.237 78.421L182.204 73.0621L187.09 74.8654L176.435 82.6962L179.536 95.8691L174.679 94.0765L172.746 85.1681L165.46 90.6737L160.574 88.8704ZM182.15 96.8338L189.878 75.8946L193.834 77.3544L187.468 94.6002L196.484 97.9278L195.121 101.621L182.15 96.8338ZM205.342 105.89C203.791 105.317 202.491 104.529 201.441 103.524C200.404 102.514 199.671 101.351 199.242 100.036C198.826 98.7153 198.773 97.3078 199.082 95.8137L203.437 96.7272C203.284 98.0367 203.544 99.1843 204.215 100.17C204.887 101.156 205.804 101.864 206.967 102.293C207.617 102.533 208.285 102.663 208.97 102.685C209.656 102.707 210.266 102.591 210.801 102.337C211.345 102.086 211.724 101.67 211.939 101.088C212.018 100.875 212.059 100.659 212.063 100.44C212.08 100.215 212.048 99.988 211.967 99.7598C211.886 99.5317 211.738 99.2899 211.524 99.0347C211.319 98.7829 211.037 98.5189 210.676 98.2426L205.828 94.6358C205.464 94.3692 205.05 94.0291 204.586 93.6154C204.131 93.2054 203.725 92.7086 203.368 92.1251C203.011 91.5416 202.782 90.8624 202.682 90.0877C202.596 89.3068 202.737 88.4172 203.106 87.4187C203.625 86.013 204.41 84.9755 205.461 84.3061C206.512 83.6366 207.713 83.2924 209.064 83.2733C210.415 83.2542 211.806 83.5142 213.237 84.0535C214.674 84.606 215.872 85.3291 216.831 86.2227C217.79 87.1164 218.484 88.1602 218.914 89.3541C219.347 90.5383 219.491 91.8474 219.348 93.2813L214.804 92.4304C214.9 91.6946 214.825 91.0171 214.58 90.3979C214.334 89.7787 213.966 89.2406 213.474 88.7836C212.991 88.3301 212.438 87.9774 211.815 87.7255C211.202 87.4771 210.583 87.3479 209.959 87.3378C209.348 87.3216 208.802 87.4285 208.321 87.6583C207.849 87.8918 207.522 88.2557 207.34 88.7501C207.172 89.2057 207.174 89.6308 207.348 90.0254C207.526 90.4103 207.795 90.7687 208.157 91.1006C208.52 91.4326 208.902 91.739 209.305 92.0199L212.575 94.3505C213.065 94.6963 213.594 95.112 214.164 95.5976C214.737 96.0736 215.246 96.6358 215.689 97.2842C216.146 97.9264 216.441 98.6633 216.575 99.4947C216.719 100.33 216.595 101.275 216.205 102.332C215.79 103.457 215.19 104.353 214.403 105.021C213.63 105.683 212.744 106.143 211.745 106.403C210.75 106.652 209.698 106.726 208.59 106.626C207.491 106.529 206.409 106.283 205.342 105.89Z" fill="white"/>
<path d="M173.578 43.5991L236.4 66.7865" stroke="#D3D3D3" stroke-linecap="round"/>
<path d="M171.207 50.0239L234.029 73.2113" stroke="#D3D3D3" stroke-linecap="round"/>
<path d="M168.57 57.1631L231.392 80.3505" stroke="#D3D3D3" stroke-linecap="round"/>
</g>
<path d="M147.26 26.1443L143.184 32.2451L158.876 29.1243L155.751 13.4326L151.705 19.4857C145.48 14.0519 130.692 14.8262 123.285 17.9002C115.496 21.133 110.007 26.9076 111.74 35.2697C111.915 31.9569 114.704 29.3495 118.076 27.1558C122.999 23.9527 128.689 21.7075 134.555 21.9996C139.242 22.233 144.03 23.493 147.26 26.1443Z" fill="#0F67B1"/>
<defs>
<clipPath id="clip0_475_2446">
<rect width="112.622" height="112.622" fill="white" transform="translate(0.34375 38.9854) rotate(-20.25)"/>
</clipPath>
<clipPath id="clip1_475_2446">
<rect width="112.622" height="112.622" fill="white" transform="translate(165.336) rotate(20.259)"/>
</clipPath>
</defs>
</svg>
