<svg width="126" height="126" viewBox="0 0 126 126" fill="none" xmlns="http://www.w3.org/2000/svg">
<path d="M96.4688 107.543V92.2852L60.5391 89.8242L63 120.196C79.6672 114.785 96.4688 107.543 96.4688 107.543Z" fill="#FF9429"/>
<path d="M29.5312 118.617C29.5312 122.695 32.8365 126 36.9141 126C43.1661 126 53.059 123.424 63 120.196V89.8242L29.5312 92.2852V118.617Z" fill="#FFD608"/>
<path d="M96.4688 7.38281C96.4688 3.30528 93.1635 0 89.0859 0H55.6172L60.5391 35.6836L96.4688 33.2227V7.38281Z" fill="#FF9429"/>
<path d="M55.6172 0H22.1484L29.5312 18.457V33.2227L63 35.6836V7.38281C63 3.30528 59.6947 0 55.6172 0Z" fill="#FFD608"/>
<path d="M22.1484 0C18.0709 0 14.7656 3.30528 14.7656 7.38281V18.457H29.5312V7.38281C29.5312 3.30528 26.226 0 22.1484 0Z" fill="#FF9429"/>
<path d="M114.926 33.2227H63L60.5391 62.7539L63 92.2852H114.926V33.2227Z" fill="#3377FF"/>
<path d="M11.0742 33.2227H63V92.2852H11.0742V33.2227Z" fill="#6699FF"/>
<path d="M107.543 40.6055H63L60.5391 62.7539L63 84.9023H107.543V40.6055Z" fill="#295FCC"/>
<path d="M18.457 40.6055H63V84.9023H18.457V40.6055Z" fill="#3377FF"/>
<path d="M25.8398 51.6797H44.543V59.0625H25.8398V51.6797ZM25.8398 66.4453H44.543V73.8281H25.8398V66.4453Z" fill="#FFF5F5"/>
<path d="M81.457 51.6797H100.16V59.0625H81.457V51.6797ZM81.457 66.4453H100.16V73.8281H81.457V66.4453ZM63 47.9883L60.5391 62.7539L63 77.5195H66.6914V55.3711H74.0742V47.9883H63Z" fill="#E6ECF2"/>
<path d="M51.9258 47.9883V55.3711H59.3086V77.5195H63V47.9883H51.9258Z" fill="#FFF5F5"/>
<path d="M96.4688 107.543H77.7656L70.3828 126H103.852C107.929 126 111.234 122.695 111.234 118.617V107.543H96.4688Z" fill="#FFB163"/>
<path d="M77.7656 118.617V107.543H44.2969V118.617C44.2969 122.695 40.9916 126 36.9141 126H70.3828C74.4603 126 77.7656 122.695 77.7656 118.617Z" fill="#FDE572"/>
</svg>
