<svg width="271" height="145" viewBox="0 0 271 145" fill="none" xmlns="http://www.w3.org/2000/svg">
<g clip-path="url(#clip0_1382_31819)">
<path d="M128.067 99.9712L128.014 99.9907L128.187 100.46C128.628 101.654 128.574 102.98 128.029 104.163C127.483 105.346 126.51 106.247 125.316 106.688L54.8926 132.669C53.6903 133.112 52.3185 133.07 51.2025 132.516L51.1961 132.513L51.1896 132.51C50.0064 131.965 49.105 130.992 48.6643 129.797L15.2386 39.193C14.7951 37.9907 14.8372 36.6189 15.3909 35.5029L15.3972 35.4901L15.4028 35.477C15.8918 34.3312 16.9076 33.4082 18.1099 32.9647L61.3253 17.0217C62.5249 16.5792 63.9028 16.6174 65.0811 17.1606L102.326 34.3309C103.507 34.8752 104.41 35.8467 104.871 37.0966L128.067 99.9712Z" fill="white" stroke="#FF6D6D"/>
<path d="M128.656 100.287L130.508 105.306C130.995 106.626 130.954 108.142 130.334 109.391C129.734 110.693 128.661 111.689 127.34 112.176L56.9173 138.156C54.1173 139.189 51.0604 137.736 50.0469 134.989L48.1953 129.97C48.6826 131.291 49.6786 132.364 50.9804 132.964C52.2822 133.564 53.745 133.625 55.0658 133.138L125.489 107.157C128.289 106.124 129.67 103.034 128.656 100.287Z" fill="#D0D7E3"/>
<path d="M23.25 93.436L123.892 56.3072L133.169 81.4545C134.202 84.2545 132.749 87.3115 130.002 88.325L39.4506 121.731C38.1299 122.218 36.6142 122.177 35.3653 121.558C34.0635 120.958 33.0674 119.885 32.5607 118.511L23.3028 93.4165L23.25 93.436Z" fill="#EF4444"/>
<path d="M33.3445 89.7137L29.6219 79.6231L23.2539 93.4363L33.3445 89.7137ZM113.805 60.0301L110.188 49.9005L123.949 56.288L113.805 60.0301Z" fill="#D50B0B"/>
<path d="M105.287 36.9431L105.541 37.6299L78.3331 47.6674C75.5331 48.7004 72.4761 47.2472 71.4627 44.5001L61.1523 16.5527C62.4731 16.0655 63.9888 16.1065 65.2905 16.7067L102.589 33.8574C103.837 34.477 104.834 35.5501 105.287 36.9431Z" fill="#FF6D6D"/>
<path d="M66.3064 101.272L61.3223 87.7623L67.0265 85.6579C67.1579 85.6094 67.3353 85.5511 67.5588 85.4828C67.7863 85.406 67.9934 85.3509 68.18 85.3176C69.033 85.145 69.7909 85.1674 70.4538 85.3848C71.1229 85.5998 71.6937 85.9719 72.166 86.5011C72.6361 87.0241 73.0107 87.664 73.2899 88.4208C73.5691 89.1776 73.6979 89.9117 73.6761 90.6233C73.6583 91.3262 73.4648 91.9767 73.0957 92.5748C72.7328 93.1705 72.1741 93.6786 71.4197 94.0991C71.2538 94.1887 71.0606 94.2813 70.84 94.3769C70.6195 94.4725 70.4466 94.5433 70.3215 94.5895L67.1692 95.7524L68.8583 100.331L66.3064 101.272ZM66.2901 93.3694L69.3298 92.248C69.4612 92.1995 69.6027 92.1402 69.7545 92.07C69.9062 91.9998 70.0408 91.9217 70.1583 91.8358C70.4677 91.615 70.6759 91.3606 70.7827 91.0725C70.8873 90.7781 70.9244 90.4837 70.894 90.1894C70.8675 89.8865 70.8093 89.6131 70.7193 89.3691C70.6293 89.1252 70.4972 88.8826 70.3229 88.6414C70.1526 88.3915 69.9332 88.1918 69.6648 88.0421C69.3941 87.8862 69.0694 87.8247 68.6908 87.8578C68.5456 87.8688 68.3925 87.8968 68.2316 87.942C68.0706 87.9872 67.9244 88.034 67.7931 88.0824L64.7533 89.2039L66.2901 93.3694ZM78.5102 96.77L73.5261 83.2601L77.8981 81.6472C78.0044 81.6079 78.2245 81.5303 78.5583 81.4143C78.8921 81.2982 79.2191 81.2024 79.5395 81.1269C80.6762 80.8567 81.7384 80.8948 82.7259 81.2411C83.7135 81.5873 84.582 82.1694 85.3313 82.9872C86.0807 83.805 86.6666 84.7863 87.0888 85.9309C87.5111 87.0754 87.7029 88.202 87.6642 89.3106C87.6255 90.4192 87.3431 91.4258 86.817 92.3305C86.291 93.2351 85.508 93.9539 84.4682 94.4867C84.1755 94.6373 83.8646 94.7769 83.5354 94.9054C83.2063 95.034 82.9885 95.1179 82.8822 95.1571L78.5102 96.77ZM80.2136 93.413L81.9961 92.7553C82.165 92.693 82.3921 92.6057 82.6775 92.4933C82.9606 92.3746 83.2098 92.2507 83.4251 92.1216C83.9692 91.7858 84.3461 91.3341 84.5559 90.7664C84.772 90.1964 84.8557 89.5757 84.807 88.9044C84.7645 88.2308 84.6245 87.5719 84.3868 86.9277C84.1376 86.2522 83.8073 85.6457 83.3958 85.1082C82.9906 84.5684 82.5231 84.1582 81.9932 83.8776C81.4633 83.597 80.893 83.5054 80.2823 83.6028C80.0325 83.6381 79.7625 83.7058 79.4725 83.8056C79.1825 83.9055 78.953 83.9866 78.7842 84.0489L77.0016 84.7065L80.2136 93.413ZM91.8318 91.8554L86.8477 78.3455L95.1038 75.2996L96.0452 77.8515L90.341 79.9559L91.4209 82.8831L95.9993 81.194L96.9407 83.7459L92.3623 85.4349L94.3837 90.914L91.8318 91.8554Z" fill="white"/>
<path d="M34.9297 66.7808L97.7551 43.6032" stroke="#D3D3D3" stroke-linecap="round"/>
<path d="M37.3008 73.2061L100.126 50.0285" stroke="#D3D3D3" stroke-linecap="round"/>
<path d="M39.9336 80.3452L102.759 57.1677" stroke="#D3D3D3" stroke-linecap="round"/>
</g>
<g clip-path="url(#clip1_1382_31819)">
<path d="M222.835 129.332L222.782 129.312L222.609 129.781C222.168 130.976 221.266 131.949 220.083 132.494C218.9 133.039 217.574 133.092 216.38 132.652L145.961 106.66C144.759 106.216 143.743 105.293 143.254 104.147L143.252 104.141L143.249 104.134C142.703 102.951 142.65 101.626 143.091 100.431L176.531 9.83236C176.975 8.63014 177.898 7.61448 179.043 7.12565L179.057 7.12004L179.069 7.11369C180.185 6.56023 181.557 6.51831 182.76 6.96205L225.972 22.9118C227.172 23.3546 228.195 24.2788 228.738 25.4571L245.902 62.7049C246.446 63.8857 246.502 65.211 246.04 66.4607L222.835 129.332Z" fill="white" stroke="#94ACB9"/>
<path d="M223.077 129.955L221.225 134.973C220.737 136.294 219.722 137.42 218.439 137.967C217.137 138.567 215.675 138.627 214.354 138.139L143.935 112.148C141.135 111.114 139.755 108.024 140.769 105.277L142.621 100.258C142.134 101.579 142.194 103.042 142.794 104.344C143.394 105.646 144.467 106.642 145.787 107.129L216.206 133.121C219.006 134.154 222.063 132.702 223.077 129.955Z" fill="#D0D7E3"/>
<path d="M147.387 56.2793L248.023 93.4239L238.742 118.57C237.708 121.37 234.618 122.75 231.871 121.736L141.325 88.3156C140.004 87.8281 138.878 86.8124 138.331 85.53C137.731 84.2282 137.671 82.7653 138.178 81.3918L147.44 56.2988L147.387 56.2793Z" fill="#687C87"/>
<path d="M157.479 60.0037L161.203 49.9137L147.389 56.2795L157.479 60.0037ZM237.935 89.6999L241.765 79.6489L248.078 93.4436L237.935 89.6999Z" fill="#51636E"/>
<path d="M246.456 66.6145L246.202 67.3013L218.996 57.2595C216.196 56.2261 214.816 53.1356 215.83 50.3886L226.145 22.4429C227.465 22.9303 228.591 23.9461 229.191 25.2479L246.408 62.5153C246.955 63.7976 247.015 65.2605 246.456 66.6145Z" fill="#94ACB9"/>
<path d="M177.772 91.2143L181.878 80.088L177.619 78.5159L178.499 76.1331L189.569 80.219L188.689 82.6019L184.43 81.0298L180.324 92.1561L177.772 91.2143ZM184.965 93.8691L192.026 88.7154L190.082 80.4084L193.215 81.5649L194.424 87.1276L198.919 83.6702L202.071 84.8337L195.197 89.8858L197.198 98.3844L194.064 97.2279L192.817 91.4805L188.117 95.0325L184.965 93.8691ZM202.581 100.371L206.688 89.245L202.429 87.673L203.308 85.2901L214.378 89.3761L213.499 91.7589L209.24 90.1869L205.133 101.313L202.581 100.371Z" fill="white"/>
<path d="M173.582 43.5991L236.404 66.7865" stroke="#D3D3D3" stroke-linecap="round"/>
<path d="M171.211 50.0239L234.033 73.2113" stroke="#D3D3D3" stroke-linecap="round"/>
<path d="M168.574 57.1626L231.396 80.35" stroke="#D3D3D3" stroke-linecap="round"/>
</g>
<path d="M147.26 26.1443L143.184 32.2451L158.876 29.1243L155.751 13.4326L151.705 19.4857C145.48 14.0519 130.692 14.8262 123.285 17.9002C115.496 21.133 110.007 26.9076 111.74 35.2697C111.915 31.9569 114.704 29.3495 118.076 27.1558C122.999 23.9527 128.689 21.7075 134.555 21.9996C139.242 22.233 144.03 23.493 147.26 26.1443Z" fill="#0F67B1"/>
<defs>
<clipPath id="clip0_1382_31819">
<rect width="112.622" height="112.622" fill="white" transform="translate(0.34375 38.9858) rotate(-20.25)"/>
</clipPath>
<clipPath id="clip1_1382_31819">
<rect width="112.622" height="112.622" fill="white" transform="translate(165.34) rotate(20.259)"/>
</clipPath>
</defs>
</svg>
