<svg width="271" height="145" viewBox="0 0 271 145" fill="none" xmlns="http://www.w3.org/2000/svg">
<g clip-path="url(#clip0_505_2121)">
<path d="M128.067 99.9698L128.014 99.9893L128.187 100.458C128.628 101.653 128.574 102.978 128.029 104.161C127.483 105.345 126.51 106.246 125.316 106.687L54.8926 132.667C53.6903 133.111 52.3185 133.069 51.2025 132.515L51.1961 132.512L51.1896 132.509C50.0064 131.963 49.105 130.99 48.6643 129.796L15.2386 39.1915C14.7951 37.9892 14.8372 36.6174 15.3909 35.5014L15.3972 35.4886L15.4028 35.4755C15.8918 34.3298 16.9076 33.4068 18.1099 32.9632L61.3253 17.0203C62.5249 16.5777 63.9028 16.616 65.0811 17.1591L102.326 34.3294C103.507 34.8737 104.41 35.8453 104.871 37.0951L128.067 99.9698Z" fill="white" stroke="#FF6D6D"/>
<path d="M128.656 100.286L130.508 105.305C130.995 106.626 130.954 108.141 130.334 109.39C129.734 110.692 128.661 111.688 127.34 112.176L56.9173 138.156C54.1173 139.189 51.0604 137.736 50.0469 134.989L48.1953 129.97C48.6826 131.29 49.6786 132.364 50.9804 132.964C52.2822 133.564 53.745 133.624 55.0658 133.137L125.489 107.157C128.289 106.124 129.67 103.033 128.656 100.286Z" fill="#D0D7E3"/>
<path d="M23.25 93.4365L123.892 56.3077L133.169 81.455C134.202 84.255 132.749 87.312 130.002 88.3255L39.4506 121.732C38.1299 122.219 36.6142 122.178 35.3653 121.558C34.0635 120.958 33.0674 119.885 32.5607 118.512L23.3028 93.417L23.25 93.4365Z" fill="#EF4444"/>
<path d="M33.3445 89.7127L29.6219 79.6221L23.2539 93.4353L33.3445 89.7127ZM113.805 60.0292L110.188 49.8996L123.949 56.287L113.805 60.0292Z" fill="#D50B0B"/>
<path d="M105.287 36.9422L105.541 37.629L78.3331 47.6664C75.5331 48.6994 72.4761 47.2463 71.4627 44.4991L61.1523 16.5518C62.4731 16.0645 63.9888 16.1056 65.2905 16.7057L102.589 33.8564C103.837 34.4761 104.834 35.5491 105.287 36.9422Z" fill="#FF6D6D"/>
<path d="M54.6279 111.647L46.155 88.6796L55.8521 85.1022C56.0754 85.0198 56.3771 84.9206 56.7571 84.8046C57.1438 84.674 57.4958 84.5804 57.8131 84.5237C59.2632 84.2303 60.5517 84.2684 61.6785 84.6379C62.816 85.0034 63.7863 85.636 64.5893 86.5357C65.3884 87.4247 66.0253 88.5125 66.4999 89.7991C66.9746 91.0857 67.1934 92.3337 67.1564 93.5433C67.1262 94.7383 66.7973 95.8442 66.1697 96.8609C65.5528 97.8737 64.6031 98.7374 63.3205 99.4522C63.0385 99.6046 62.71 99.762 62.3351 99.9245C61.9601 100.087 61.6663 100.207 61.4537 100.286L56.0947 102.263L58.9661 110.046L54.6279 111.647ZM54.6002 98.2118L59.7678 96.3054C59.9911 96.223 60.2317 96.1221 60.4897 96.0028C60.7476 95.8835 60.9765 95.7507 61.1763 95.6045C61.7022 95.2293 62.056 94.7968 62.2377 94.3069C62.4155 93.8065 62.4785 93.3061 62.4268 92.8057C62.3818 92.2908 62.2828 91.826 62.1298 91.4113C61.9769 90.9966 61.7522 90.5842 61.456 90.1741C61.1664 89.7494 60.7935 89.4098 60.3372 89.1553C59.877 88.8902 59.3251 88.7858 58.6814 88.8421C58.4346 88.8606 58.1744 88.9083 57.9007 88.9851C57.627 89.0619 57.3786 89.1415 57.1553 89.2239L51.9877 91.1303L54.6002 98.2118ZM75.3744 103.993L66.9015 81.0259L74.3338 78.2839C74.5146 78.2172 74.8887 78.0853 75.4562 77.888C76.0236 77.6907 76.5796 77.5279 77.1242 77.3995C79.0567 76.9402 80.8623 77.0049 82.5412 77.5935C84.22 78.1822 85.6964 79.1717 86.9704 80.562C88.2443 81.9523 89.2402 83.6204 89.9581 85.5662C90.6759 87.512 91.0019 89.4272 90.9362 91.3118C90.8704 93.1964 90.3903 94.9076 89.496 96.4456C88.6017 97.9835 87.2707 99.2054 85.503 100.111C85.0055 100.367 84.4769 100.604 83.9173 100.823C83.3577 101.042 82.9875 101.184 82.8068 101.251L75.3744 103.993ZM78.2701 98.2858L81.3005 97.1678C81.5876 97.0619 81.9737 96.9134 82.4589 96.7224C82.9401 96.5206 83.3638 96.31 83.7297 96.0904C84.6547 95.5197 85.2955 94.7518 85.6522 93.7867C86.0195 92.8176 86.1617 91.7625 86.0789 90.6213C86.0068 89.4761 85.7687 88.356 85.3647 87.2608C84.941 86.1125 84.3795 85.0814 83.68 84.1677C82.9911 83.2501 82.1963 82.5528 81.2955 82.0757C80.3947 81.5987 79.4252 81.4429 78.387 81.6085C77.9623 81.6686 77.5033 81.7835 77.0103 81.9533C76.5173 82.1232 76.1272 82.261 75.8401 82.3669L72.8098 83.4849L78.2701 98.2858ZM98.0211 95.638L89.5482 72.6711L103.584 67.4931L105.184 71.8313L95.4868 75.4088L97.3226 80.385L105.106 77.5136L106.706 81.8518L98.9231 84.7232L102.359 94.0375L98.0211 95.638Z" fill="white"/>
<path d="M34.9297 66.7798L97.7551 43.6023" stroke="#D3D3D3" stroke-linecap="round"/>
<path d="M37.3008 73.2051L100.126 50.0276" stroke="#D3D3D3" stroke-linecap="round"/>
<path d="M39.9336 80.3457L102.759 57.1682" stroke="#D3D3D3" stroke-linecap="round"/>
</g>
<g clip-path="url(#clip1_505_2121)">
<path d="M222.831 129.332L222.778 129.312L222.605 129.781C222.164 130.976 221.263 131.949 220.079 132.494C218.896 133.039 217.571 133.092 216.376 132.652L145.957 106.66C144.755 106.216 143.739 105.293 143.251 104.147L143.248 104.141L143.245 104.134C142.699 102.951 142.646 101.626 143.087 100.431L176.527 9.83236C176.971 8.63014 177.894 7.61448 179.04 7.12565L179.053 7.12004L179.066 7.11369C180.182 6.56023 181.553 6.51831 182.756 6.96205L225.968 22.9118C227.168 23.3546 228.191 24.2788 228.734 25.4571L245.898 62.7049C246.442 63.8857 246.498 65.211 246.036 66.4607L222.831 129.332Z" fill="white" stroke="#FFD165"/>
<path d="M223.073 129.955L221.221 134.973C220.734 136.294 219.718 137.42 218.435 137.967C217.134 138.567 215.671 138.627 214.35 138.139L143.931 112.148C141.131 111.114 139.751 108.024 140.765 105.277L142.617 100.258C142.13 101.579 142.19 103.042 142.79 104.344C143.39 105.646 144.463 106.642 145.783 107.129L216.202 133.121C219.002 134.154 222.059 132.702 223.073 129.955Z" fill="#D0D7E3"/>
<path d="M147.383 56.2793L248.019 93.4239L238.738 118.57C237.704 121.37 234.614 122.75 231.867 121.736L141.321 88.3156C140 87.8281 138.874 86.8124 138.327 85.53C137.727 84.2282 137.667 82.7653 138.174 81.3918L147.436 56.2988L147.383 56.2793Z" fill="#F6AD00"/>
<path d="M157.475 60.0037L161.199 49.9137L147.385 56.2795L157.475 60.0037ZM237.931 89.6999L241.761 79.6489L248.074 93.4436L237.931 89.6999Z" fill="#D99B07"/>
<path d="M246.452 66.6145L246.198 67.3013L218.992 57.2595C216.192 56.2261 214.812 53.1356 215.826 50.3886L226.141 22.4429C227.461 22.9303 228.587 23.9461 229.187 25.2479L246.404 62.5153C246.951 63.7976 247.012 65.2605 246.452 66.6145Z" fill="#FFD165"/>
<path d="M147.595 84.3417L155.075 64.078L158.902 65.4907L151.423 85.7545L147.595 84.3417ZM155.642 87.3116L163.121 67.0479L166.555 68.3152L168.288 84.2404L179.951 73.2598L183.385 74.5272L175.906 94.7909L172.331 93.4717L176.798 81.3697L166.449 91.3006L165.098 90.802L163.683 76.5289L159.216 88.6309L155.642 87.3116ZM178.448 95.7295L192.119 77.7511L197.833 79.8598L196.545 102.409L192.605 100.955L193.685 81.0471L194.417 81.3172L182.389 97.1838L178.448 95.7295ZM183.722 92.8791L185.041 89.3048L195.736 93.2522L194.416 96.8265L183.722 92.8791ZM206.805 106.676C205.529 106.205 204.397 105.531 203.41 104.655C202.425 103.769 201.652 102.716 201.09 101.496C200.537 100.279 200.245 98.9192 200.214 97.4153C200.192 95.915 200.498 94.3064 201.131 92.5896C201.959 90.3474 203.089 88.6006 204.521 87.349C205.966 86.0915 207.563 85.3166 209.312 85.0242C211.071 84.7354 212.832 84.9165 214.596 85.5674C217.204 86.5301 219.03 87.8917 220.075 89.6525C221.12 91.4133 221.488 93.4941 221.177 95.8951L217.057 95.0141C217.128 93.697 216.875 92.5325 216.3 91.5208C215.738 90.5031 214.811 89.7506 213.52 89.2634C212.241 88.7702 211.07 88.6522 210.005 88.9094C208.94 89.1666 207.998 89.7409 207.178 90.6323C206.368 91.5272 205.704 92.6782 205.184 94.0854C204.665 95.4926 204.426 96.7901 204.467 97.9779C204.518 99.1691 204.864 100.208 205.507 101.096C206.149 101.983 207.11 102.673 208.388 103.167C209.253 103.507 210.097 103.648 210.918 103.589C211.749 103.533 212.535 103.253 213.275 102.748C214.016 102.243 214.687 101.494 215.288 100.501L212.079 99.3166L213.17 96.3615L220.459 99.052C220.433 99.1808 220.368 99.4018 220.263 99.7149C220.158 100.028 220.097 100.208 220.079 100.255C219.363 102.197 218.333 103.773 216.991 104.983C215.649 106.193 214.103 106.96 212.352 107.284C210.605 107.599 208.756 107.396 206.805 106.676ZM219.378 110.837L226.858 90.5729L240.085 95.4552L238.766 99.0295L229.366 95.5599L227.766 99.8941L235.478 102.74L234.158 106.315L226.447 103.468L224.525 108.675L233.925 112.145L232.606 115.719L219.378 110.837Z" fill="white"/>
<path d="M173.578 43.5991L236.4 66.7865" stroke="#D3D3D3" stroke-linecap="round"/>
<path d="M171.207 50.0239L234.029 73.2113" stroke="#D3D3D3" stroke-linecap="round"/>
<path d="M168.57 57.1626L231.392 80.35" stroke="#D3D3D3" stroke-linecap="round"/>
</g>
<path d="M147.26 26.1448L143.184 32.2456L158.876 29.1248L155.751 13.4331L151.705 19.4862C145.48 14.0524 130.692 14.8267 123.285 17.9007C115.496 21.1335 110.007 26.9081 111.74 35.2702C111.915 31.9573 114.704 29.35 118.076 27.1563C122.999 23.9532 128.689 21.708 134.555 22.0001C139.242 22.2335 144.03 23.4934 147.26 26.1448Z" fill="#0F67B1"/>
<defs>
<clipPath id="clip0_505_2121">
<rect width="112.622" height="112.622" fill="white" transform="translate(0.34375 38.9854) rotate(-20.25)"/>
</clipPath>
<clipPath id="clip1_505_2121">
<rect width="112.622" height="112.622" fill="white" transform="translate(165.336) rotate(20.259)"/>
</clipPath>
</defs>
</svg>
