<svg width="271" height="145" viewBox="0 0 271 145" fill="none" xmlns="http://www.w3.org/2000/svg">
<g clip-path="url(#clip0_475_2520)">
<path d="M128.067 99.9698L128.014 99.9893L128.187 100.458C128.628 101.653 128.574 102.978 128.029 104.161C127.483 105.345 126.51 106.246 125.316 106.687L54.8926 132.667C53.6903 133.111 52.3185 133.069 51.2025 132.515L51.1961 132.512L51.1896 132.509C50.0064 131.963 49.105 130.99 48.6643 129.796L15.2386 39.1915C14.7951 37.9892 14.8372 36.6174 15.3909 35.5014L15.3972 35.4886L15.4028 35.4755C15.8918 34.3298 16.9076 33.4068 18.1099 32.9632L61.3253 17.0203C62.5249 16.5777 63.9028 16.616 65.0811 17.1591L102.326 34.3294C103.507 34.8737 104.41 35.8453 104.871 37.0951L128.067 99.9698Z" fill="white" stroke="#FF6D6D"/>
<path d="M128.656 100.286L130.508 105.305C130.995 106.626 130.954 108.141 130.334 109.39C129.734 110.692 128.661 111.688 127.34 112.176L56.9173 138.156C54.1173 139.189 51.0604 137.736 50.0469 134.989L48.1953 129.97C48.6826 131.29 49.6786 132.364 50.9804 132.964C52.2822 133.564 53.745 133.624 55.0658 133.137L125.489 107.157C128.289 106.124 129.67 103.033 128.656 100.286Z" fill="#D0D7E3"/>
<path d="M23.25 93.4365L123.892 56.3077L133.169 81.455C134.202 84.255 132.749 87.312 130.002 88.3255L39.4506 121.732C38.1299 122.219 36.6142 122.178 35.3653 121.558C34.0635 120.958 33.0674 119.885 32.5607 118.512L23.3028 93.417L23.25 93.4365Z" fill="#EF4444"/>
<path d="M33.3445 89.7127L29.6219 79.6221L23.2539 93.4353L33.3445 89.7127ZM113.805 60.0292L110.188 49.8996L123.949 56.287L113.805 60.0292Z" fill="#D50B0B"/>
<path d="M105.287 36.9422L105.541 37.629L78.3331 47.6664C75.5331 48.6994 72.4761 47.2463 71.4627 44.4991L61.1523 16.5518C62.4731 16.0645 63.9888 16.1056 65.2905 16.7057L102.589 33.8564C103.837 34.4761 104.834 35.5491 105.287 36.9422Z" fill="#FF6D6D"/>
<path d="M54.6279 111.647L46.155 88.6796L55.8521 85.1022C56.0754 85.0198 56.3771 84.9206 56.7571 84.8046C57.1438 84.674 57.4958 84.5804 57.8131 84.5237C59.2632 84.2303 60.5517 84.2684 61.6785 84.6379C62.816 85.0034 63.7863 85.636 64.5893 86.5357C65.3884 87.4247 66.0253 88.5125 66.4999 89.7991C66.9746 91.0857 67.1934 92.3337 67.1564 93.5433C67.1262 94.7383 66.7973 95.8442 66.1697 96.8609C65.5528 97.8737 64.6031 98.7374 63.3205 99.4522C63.0385 99.6046 62.71 99.762 62.3351 99.9245C61.9601 100.087 61.6663 100.207 61.4537 100.286L56.0947 102.263L58.9661 110.046L54.6279 111.647ZM54.6002 98.2118L59.7678 96.3054C59.9911 96.223 60.2317 96.1221 60.4897 96.0028C60.7476 95.8835 60.9765 95.7507 61.1763 95.6045C61.7022 95.2293 62.056 94.7968 62.2377 94.3069C62.4155 93.8065 62.4785 93.3061 62.4268 92.8057C62.3818 92.2908 62.2828 91.826 62.1298 91.4113C61.9769 90.9966 61.7522 90.5842 61.456 90.1741C61.1664 89.7494 60.7935 89.4098 60.3372 89.1553C59.877 88.8902 59.3251 88.7858 58.6814 88.8421C58.4346 88.8606 58.1744 88.9083 57.9007 88.9851C57.627 89.0619 57.3786 89.1415 57.1553 89.2239L51.9877 91.1303L54.6002 98.2118ZM75.3744 103.993L66.9015 81.0259L74.3338 78.2839C74.5146 78.2172 74.8887 78.0853 75.4562 77.888C76.0236 77.6907 76.5796 77.5279 77.1242 77.3995C79.0567 76.9402 80.8623 77.0049 82.5412 77.5935C84.22 78.1822 85.6964 79.1717 86.9704 80.562C88.2443 81.9523 89.2402 83.6204 89.9581 85.5662C90.6759 87.512 91.0019 89.4272 90.9362 91.3118C90.8704 93.1964 90.3903 94.9076 89.496 96.4456C88.6017 97.9835 87.2707 99.2054 85.503 100.111C85.0055 100.367 84.4769 100.604 83.9173 100.823C83.3577 101.042 82.9875 101.184 82.8068 101.251L75.3744 103.993ZM78.2701 98.2858L81.3005 97.1678C81.5876 97.0619 81.9737 96.9134 82.4589 96.7224C82.9401 96.5206 83.3638 96.31 83.7297 96.0904C84.6547 95.5197 85.2955 94.7518 85.6522 93.7867C86.0195 92.8176 86.1617 91.7625 86.0789 90.6213C86.0068 89.4761 85.7687 88.356 85.3647 87.2608C84.941 86.1125 84.3795 85.0814 83.68 84.1677C82.9911 83.2501 82.1963 82.5528 81.2955 82.0757C80.3947 81.5987 79.4252 81.4429 78.387 81.6085C77.9623 81.6686 77.5033 81.7835 77.0103 81.9533C76.5173 82.1232 76.1272 82.261 75.8401 82.3669L72.8098 83.4849L78.2701 98.2858ZM98.0211 95.638L89.5482 72.6711L103.584 67.4931L105.184 71.8313L95.4868 75.4088L97.3226 80.385L105.106 77.5136L106.706 81.8518L98.9231 84.7232L102.359 94.0375L98.0211 95.638Z" fill="white"/>
<path d="M34.9297 66.7798L97.7551 43.6023" stroke="#D3D3D3" stroke-linecap="round"/>
<path d="M37.3008 73.2051L100.126 50.0276" stroke="#D3D3D3" stroke-linecap="round"/>
<path d="M39.9336 80.3457L102.759 57.1682" stroke="#D3D3D3" stroke-linecap="round"/>
</g>
<g clip-path="url(#clip1_475_2520)">
<path d="M222.831 129.332L222.778 129.312L222.605 129.781C222.164 130.976 221.263 131.949 220.079 132.494C218.896 133.039 217.571 133.092 216.376 132.652L145.957 106.66C144.755 106.216 143.739 105.293 143.251 104.147L143.248 104.141L143.245 104.134C142.699 102.951 142.646 101.626 143.087 100.431L176.527 9.83236C176.971 8.63014 177.894 7.61448 179.04 7.12565L179.053 7.12004L179.066 7.11369C180.182 6.56023 181.553 6.51831 182.756 6.96205L225.968 22.9118C227.168 23.3546 228.191 24.2788 228.734 25.4571L245.898 62.7049C246.442 63.8857 246.498 65.211 246.036 66.4607L222.831 129.332Z" fill="white" stroke="#FF6B42"/>
<path d="M223.073 129.955L221.221 134.973C220.734 136.294 219.718 137.42 218.435 137.967C217.134 138.567 215.671 138.627 214.35 138.139L143.931 112.148C141.131 111.114 139.751 108.024 140.765 105.277L142.617 100.258C142.13 101.579 142.19 103.042 142.79 104.344C143.39 105.646 144.463 106.642 145.783 107.129L216.202 133.121C219.002 134.154 222.059 132.702 223.073 129.955Z" fill="#D0D7E3"/>
<path d="M147.383 56.2798L248.019 93.4244L238.738 118.57C237.704 121.37 234.614 122.75 231.867 121.737L141.321 88.3161C140 87.8286 138.874 86.8129 138.327 85.5305C137.727 84.2287 137.667 82.7658 138.174 81.3923L147.436 56.2993L147.383 56.2798Z" fill="#FF6B42"/>
<path d="M157.475 60.0037L161.199 49.9137L147.385 56.2795L157.475 60.0037ZM237.931 89.6999L241.761 79.6489L248.074 93.4436L237.931 89.6999Z" fill="#FF420D"/>
<path d="M246.452 66.6145L246.198 67.3013L218.992 57.2595C216.192 56.2261 214.812 53.1356 215.826 50.3886L226.141 22.4429C227.461 22.9303 228.587 23.9461 229.187 25.2479L246.404 62.5153C246.951 63.7976 247.012 65.2605 246.452 66.6145Z" fill="#FF6B42"/>
<path d="M162.451 90.1946L170.18 69.2554L179.021 72.5186C179.225 72.5937 179.492 72.7036 179.825 72.8482C180.17 72.9867 180.469 73.1303 180.723 73.279C181.902 73.9344 182.773 74.7239 183.335 75.6474C183.907 76.5745 184.205 77.5877 184.229 78.687C184.256 79.7765 184.053 80.9078 183.621 82.0808C183.188 83.2538 182.6 84.2485 181.858 85.0651C181.129 85.8756 180.246 86.4474 179.209 86.7806C178.182 87.1173 177.012 87.1536 175.699 86.8895C175.414 86.8281 175.093 86.7426 174.737 86.6332C174.38 86.5238 174.105 86.4333 173.912 86.3617L169.026 84.5584L166.407 91.6545L162.451 90.1946ZM170.389 80.8649L175.1 82.6039C175.304 82.679 175.53 82.7516 175.78 82.8217C176.029 82.8918 176.267 82.9353 176.492 82.9523C177.079 83.0036 177.58 82.9133 177.996 82.6814C178.416 82.4398 178.756 82.1302 179.016 81.7527C179.29 81.3691 179.497 80.9883 179.636 80.6102C179.776 80.2321 179.864 79.8132 179.902 79.3534C179.953 78.8875 179.895 78.4313 179.73 77.9846C179.568 77.5283 179.247 77.129 178.767 76.7868C178.585 76.6535 178.377 76.5324 178.141 76.4236C177.906 76.3148 177.687 76.2228 177.483 76.1476L172.772 74.4087L170.389 80.8649ZM181.366 97.176L189.095 76.2368L197.936 79.5C198.139 79.5752 198.407 79.685 198.739 79.8297C199.085 79.9682 199.384 80.1117 199.638 80.2604C200.817 80.9158 201.687 81.7053 202.25 82.6288C202.822 83.5559 203.12 84.5691 203.144 85.6684C203.171 86.7579 202.968 87.8892 202.535 89.0622C202.102 90.2352 201.515 91.23 200.773 92.0466C200.044 92.857 199.161 93.4288 198.124 93.762C197.097 94.0987 195.927 94.135 194.614 93.8709C194.328 93.8095 194.008 93.7241 193.651 93.6146C193.295 93.5052 193.02 93.4147 192.826 93.3432L187.941 91.5398L185.321 98.6359L181.366 97.176ZM189.304 87.8464L194.015 89.5853C194.219 89.6604 194.445 89.7331 194.695 89.8031C194.944 89.8732 195.182 89.9167 195.407 89.9337C195.993 89.9851 196.495 89.8948 196.911 89.6628C197.331 89.4212 197.671 89.1116 197.931 88.7341C198.205 88.3505 198.412 87.9697 198.551 87.5916C198.691 87.2135 198.779 86.7946 198.817 86.3348C198.867 85.8689 198.81 85.4127 198.644 84.966C198.482 84.5097 198.162 84.1104 197.682 83.7682C197.5 83.6349 197.291 83.5139 197.056 83.405C196.821 83.2962 196.602 83.2042 196.398 83.1291L191.687 81.3901L189.304 87.8464ZM205.138 105.95L211.503 88.7043L204.901 86.2676L206.265 82.5742L223.423 88.9074L222.06 92.6008L215.458 90.1641L209.093 107.41L205.138 105.95Z" fill="white"/>
<path d="M173.578 43.5991L236.4 66.7865" stroke="#D3D3D3" stroke-linecap="round"/>
<path d="M171.207 50.0239L234.029 73.2113" stroke="#D3D3D3" stroke-linecap="round"/>
<path d="M168.57 57.1631L231.392 80.3505" stroke="#D3D3D3" stroke-linecap="round"/>
</g>
<path d="M147.26 26.1443L143.184 32.2451L158.876 29.1243L155.751 13.4326L151.705 19.4857C145.48 14.0519 130.692 14.8262 123.285 17.9002C115.496 21.133 110.007 26.9076 111.74 35.2697C111.915 31.9569 114.704 29.3495 118.076 27.1558C122.999 23.9527 128.689 21.7075 134.555 21.9996C139.242 22.233 144.03 23.493 147.26 26.1443Z" fill="#0F67B1"/>
<defs>
<clipPath id="clip0_475_2520">
<rect width="112.622" height="112.622" fill="white" transform="translate(0.34375 38.9854) rotate(-20.25)"/>
</clipPath>
<clipPath id="clip1_475_2520">
<rect width="112.622" height="112.622" fill="white" transform="translate(165.336) rotate(20.259)"/>
</clipPath>
</defs>
</svg>
