<svg width="271" height="145" viewBox="0 0 271 145" fill="none" xmlns="http://www.w3.org/2000/svg">
<g clip-path="url(#clip0_475_2409)">
<path d="M128.067 99.9703L128.014 99.9897L128.187 100.459C128.628 101.653 128.574 102.979 128.029 104.162C127.483 105.345 126.51 106.247 125.316 106.687L54.8926 132.668C53.6903 133.111 52.3185 133.069 51.2025 132.515L51.1961 132.512L51.1896 132.509C50.0064 131.964 49.105 130.991 48.6643 129.796L15.2386 39.192C14.7951 37.9897 14.8372 36.6179 15.3909 35.5019L15.3972 35.4891L15.4028 35.476C15.8918 34.3303 16.9076 33.4073 18.1099 32.9637L61.3253 17.0207C62.5249 16.5782 63.9028 16.6165 65.0811 17.1596L102.326 34.3299C103.507 34.8742 104.41 35.8458 104.871 37.0956L128.067 99.9703Z" fill="white" stroke="#FF6D6D"/>
<path d="M128.656 100.286L130.508 105.305C130.995 106.626 130.954 108.141 130.334 109.39C129.734 110.692 128.661 111.688 127.34 112.176L56.9173 138.156C54.1173 139.189 51.0604 137.736 50.0469 134.989L48.1953 129.97C48.6826 131.29 49.6786 132.364 50.9804 132.964C52.2822 133.564 53.745 133.624 55.0658 133.137L125.489 107.157C128.289 106.124 129.67 103.033 128.656 100.286Z" fill="#D0D7E3"/>
<path d="M23.25 93.437L123.892 56.3082L133.169 81.4555C134.202 84.2555 132.749 87.3125 130.002 88.326L39.4506 121.732C38.1299 122.219 36.6142 122.178 35.3653 121.559C34.0635 120.959 33.0674 119.886 32.5607 118.512L23.3028 93.4175L23.25 93.437Z" fill="#EF4444"/>
<path d="M33.3445 89.7127L29.6219 79.6221L23.2539 93.4353L33.3445 89.7127ZM113.805 60.0292L110.188 49.8996L123.949 56.287L113.805 60.0292Z" fill="#D50B0B"/>
<path d="M105.287 36.9426L105.541 37.6294L78.3331 47.6669C75.5331 48.6999 72.4761 47.2468 71.4627 44.4996L61.1523 16.5522C62.4731 16.065 63.9888 16.106 65.2905 16.7062L102.589 33.8569C103.837 34.4765 104.834 35.5496 105.287 36.9426Z" fill="#FF6D6D"/>
<path d="M54.6279 111.647L46.155 88.6799L55.8521 85.1024C56.0754 85.02 56.3771 84.9208 56.7571 84.8048C57.1438 84.6742 57.4958 84.5806 57.8131 84.5239C59.2632 84.2306 60.5517 84.2686 61.6785 84.6381C62.816 85.0037 63.7863 85.6363 64.5893 86.5359C65.3884 87.425 66.0253 88.5128 66.4999 89.7993C66.9746 91.0859 67.1934 92.334 67.1564 93.5435C67.1262 94.7385 66.7973 95.8444 66.1697 96.8611C65.5528 97.8739 64.6031 98.7377 63.3205 99.4524C63.0385 99.6048 62.71 99.7622 62.3351 99.9247C61.9601 100.087 61.6663 100.208 61.4537 100.286L56.0947 102.263L58.9661 110.046L54.6279 111.647ZM54.6002 98.212L59.7678 96.3056C59.9911 96.2232 60.2317 96.1224 60.4897 96.003C60.7476 95.8837 60.9765 95.751 61.1763 95.6048C61.7022 95.2295 62.056 94.797 62.2377 94.3072C62.4155 93.8067 62.4785 93.3063 62.4268 92.806C62.3818 92.291 62.2828 91.8262 62.1298 91.4116C61.9769 90.9969 61.7522 90.5845 61.456 90.1743C61.1664 89.7496 60.7935 89.41 60.3372 89.1556C59.877 88.8905 59.3251 88.7861 58.6814 88.8423C58.4346 88.8609 58.1744 88.9086 57.9007 88.9854C57.627 89.0622 57.3786 89.1418 57.1553 89.2241L51.9877 91.1306L54.6002 98.212ZM75.3744 103.993L66.9015 81.0261L74.3338 78.2842C74.5146 78.2175 74.8887 78.0855 75.4562 77.8882C76.0236 77.691 76.5796 77.5281 77.1242 77.3997C79.0567 76.9405 80.8623 77.0052 82.5412 77.5938C84.22 78.1824 85.6964 79.1719 86.9704 80.5622C88.2443 81.9526 89.2402 83.6206 89.9581 85.5665C90.6759 87.5123 91.0019 89.4275 90.9362 91.312C90.8704 93.1966 90.3903 94.9079 89.496 96.4458C88.6017 97.9837 87.2707 99.2056 85.503 100.111C85.0055 100.367 84.4769 100.605 83.9173 100.823C83.3577 101.042 82.9875 101.184 82.8068 101.251L75.3744 103.993ZM78.2701 98.286L81.3005 97.1681C81.5876 97.0622 81.9737 96.9137 82.4589 96.7226C82.9401 96.5209 83.3638 96.3103 83.7297 96.0907C84.6547 95.5199 85.2955 94.752 85.6522 93.7869C86.0195 92.8179 86.1617 91.7628 86.0789 90.6215C86.0068 89.4764 85.7687 88.3562 85.3647 87.261C84.941 86.1127 84.3795 85.0817 83.68 84.168C82.9911 83.2503 82.1963 82.553 81.2955 82.076C80.3947 81.5989 79.4252 81.4432 78.387 81.6088C77.9623 81.6688 77.5033 81.7838 77.0103 81.9536C76.5173 82.1234 76.1272 82.2613 75.8401 82.3672L72.8098 83.4851L78.2701 98.286ZM98.0211 95.6382L89.5482 72.6713L103.584 67.4934L105.184 71.8316L95.4868 75.409L97.3226 80.3852L105.106 77.5138L106.706 81.852L98.9231 84.7234L102.359 94.0378L98.0211 95.6382Z" fill="white"/>
<path d="M34.9297 66.7803L97.7551 43.6027" stroke="#D3D3D3" stroke-linecap="round"/>
<path d="M37.3008 73.2053L100.126 50.0278" stroke="#D3D3D3" stroke-linecap="round"/>
<path d="M39.9336 80.3457L102.759 57.1682" stroke="#D3D3D3" stroke-linecap="round"/>
</g>
<g clip-path="url(#clip1_475_2409)">
<path d="M222.485 129.686L222.432 129.667L222.259 130.136C221.818 131.33 220.917 132.303 219.733 132.848C218.55 133.393 217.225 133.447 216.03 133.006L145.612 107.013C144.41 106.569 143.394 105.646 142.905 104.5L142.902 104.494L142.899 104.487C142.354 103.304 142.301 101.979 142.742 100.784L176.183 10.1859C176.627 8.98364 177.55 7.968 178.696 7.47918L178.709 7.47358L178.722 7.46723C179.838 6.91379 181.21 6.87189 182.412 7.31565L225.624 23.2662C226.824 23.7089 227.847 24.6332 228.39 25.8115L245.553 63.0596C246.098 64.2404 246.153 65.5657 245.692 66.8155L222.485 129.686Z" fill="white" stroke="#94ABD3"/>
<path d="M222.725 130.308L220.873 135.327C220.385 136.648 219.369 137.773 218.087 138.32C216.785 138.92 215.322 138.981 214.002 138.493L143.583 112.5C140.783 111.467 139.403 108.376 140.417 105.629L142.27 100.611C141.782 101.932 141.842 103.394 142.442 104.696C143.042 105.998 144.115 106.994 145.436 107.482L215.854 133.475C218.654 134.508 221.711 133.055 222.725 130.308Z" fill="#D0D7E3"/>
<path d="M147.039 56.6323L247.675 93.7787L238.393 118.924C237.359 121.724 234.269 123.104 231.522 122.091L140.976 88.6685C139.656 88.181 138.53 87.1653 137.983 85.8829C137.383 84.581 137.323 83.1182 137.83 81.7447L147.092 56.6518L147.039 56.6323Z" fill="#003771"/>
<path d="M157.131 60.3568L160.856 50.2669L147.041 56.6325L157.131 60.3568ZM237.587 90.0544L241.417 80.0035L247.73 93.7983L237.587 90.0544Z" fill="#00213F"/>
<path d="M246.107 66.9689L245.854 67.6556L218.648 57.6134C215.848 56.5799 214.468 53.4894 215.482 50.7424L225.797 22.7969C227.118 23.2844 228.243 24.3001 228.843 25.602L246.06 62.8696C246.607 64.152 246.667 65.6149 246.107 66.9689Z" fill="#94ABD3"/>
<path d="M155.759 87.1618L147.36 84.0613L154.555 64.5682L163.166 67.7466C169.855 70.2758 172.086 74.6406 169.91 80.8603C167.381 87.5499 162.68 89.7162 155.759 87.1618ZM159.27 71.4707L155.429 81.8777L156.802 82.3846C159.866 83.5156 161.989 82.3183 163.295 78.7789C164.872 75.159 163.964 72.903 160.519 71.9915L159.251 71.5235L159.27 71.4707ZM185.304 75.2577C191.651 77.9008 193.817 82.602 191.841 89.2557C189.179 95.656 184.497 97.7694 177.777 95.649C171.304 93.0197 169.138 88.3185 171.384 81.5843C174.093 75.3816 178.722 73.2486 185.304 75.2577ZM183.529 80.065C181.08 79.2208 179.149 80.549 177.737 84.0494C176.53 87.8058 177.116 90.1227 179.473 91.053C182.028 91.9362 184.051 90.5219 185.449 86.8963C186.67 83.2651 186.012 80.9815 183.529 80.065ZM213.844 94.8563L207.822 92.6333C208.318 90.4756 207.546 88.99 205.505 88.1767C203.161 87.3716 201.244 88.8249 199.807 92.5561C198.501 96.0955 199.125 98.3068 201.661 99.2428C203.562 99.9447 205.081 99.2449 206.145 97.1765L212.273 99.4384C209.734 104.203 205.642 105.694 200.017 103.858C193.439 101.19 191.253 96.5416 193.44 89.9659C196.189 83.6575 200.679 81.4132 207.016 83.272C212.893 85.5616 215.141 89.3924 213.844 94.8563ZM222.995 105.677L217.798 110.001L210.613 107.349L221.244 99.6886L218.442 88.0901L225.68 90.7615L226.594 96.7413L231.279 92.8285L238.517 95.4999L228.304 102.354L231.196 115.007L223.959 112.335L222.995 105.677Z" fill="white"/>
<path d="M172.969 44.666L235.79 67.8545" stroke="#D3D3D3" stroke-linecap="round"/>
<path d="M170.598 51.0911L233.419 74.2796" stroke="#D3D3D3" stroke-linecap="round"/>
<path d="M167.965 58.2295L230.786 81.418" stroke="#D3D3D3" stroke-linecap="round"/>
</g>
<path d="M147.26 26.1443L143.184 32.2451L158.876 29.1243L155.751 13.4326L151.705 19.4857C145.48 14.0519 130.692 14.8262 123.285 17.9002C115.496 21.133 110.007 26.9076 111.74 35.2697C111.915 31.9569 114.704 29.3495 118.076 27.1558C122.999 23.9527 128.689 21.7075 134.555 21.9996C139.242 22.233 144.03 23.493 147.26 26.1443Z" fill="#0F67B1"/>
<defs>
<clipPath id="clip0_475_2409">
<rect width="112.622" height="112.622" fill="white" transform="translate(0.34375 38.9856) rotate(-20.25)"/>
</clipPath>
<clipPath id="clip1_475_2409">
<rect width="112.622" height="112.622" fill="white" transform="translate(164.992 0.353027) rotate(20.26)"/>
</clipPath>
</defs>
</svg>
