<svg width="271" height="145" viewBox="0 0 271 145" fill="none" xmlns="http://www.w3.org/2000/svg">
<g clip-path="url(#clip0_488_2504)">
<path d="M128.07 99.9614L128.018 99.9809L128.191 100.45C128.632 101.644 128.578 102.97 128.033 104.153C127.488 105.336 126.515 106.238 125.32 106.679L54.902 132.671C53.6998 133.115 52.3279 133.073 51.2118 132.52L51.2054 132.517L51.199 132.514C50.0156 131.968 49.114 130.996 48.6732 129.801L15.2317 39.2029C14.7879 38.0006 14.8298 36.6288 15.3832 35.5127L15.3896 35.4999L15.3952 35.4868C15.884 34.341 16.8997 33.4178 18.1019 32.974L61.3144 17.0235C62.514 16.5808 63.8919 16.6188 65.0703 17.1618L102.318 34.3255C103.499 34.8696 104.402 35.841 104.864 37.0908L128.07 99.9614Z" fill="white" stroke="#FF6B42"/>
<path d="M128.659 100.277L130.511 105.296C130.999 106.616 130.958 108.132 130.339 109.381C129.739 110.683 128.666 111.679 127.345 112.167L56.9266 138.159C54.1268 139.193 51.0695 137.74 50.0556 134.993L48.2031 129.975C48.6906 131.295 49.6869 132.368 50.9887 132.968C52.2906 133.568 53.7535 133.628 55.0741 133.141L125.493 107.148C128.292 106.115 129.673 103.024 128.659 100.277Z" fill="#D0D7E3"/>
<path d="M23.2539 93.4448L123.889 56.2984L133.171 81.4441C134.205 84.244 132.752 87.3012 130.005 88.3151L39.4595 121.737C38.1388 122.225 36.6231 122.184 35.3741 121.564C34.0722 120.965 33.0759 119.892 32.569 118.518L23.3067 93.4253L23.2539 93.4448Z" fill="#FF6B42"/>
<path d="M33.3456 89.7206L29.6212 79.6306L23.2556 93.4449L33.3456 89.7206ZM113.801 60.023L110.183 49.894L123.944 56.2791L113.801 60.023Z" fill="#FF420D"/>
<path d="M105.279 36.9374L105.533 37.6241L78.3268 47.6663C75.527 48.6998 72.4698 47.2472 71.4558 44.5002L61.1406 16.5547C62.4613 16.0672 63.977 16.108 65.2788 16.7079L102.58 33.8521C103.829 34.4715 104.825 35.5444 105.279 36.9374Z" fill="#FF6B42"/>
<path d="M57.5007 109.788L49.7717 88.8485L58.6127 85.5852C58.8162 85.51 59.0912 85.4195 59.4377 85.3137C59.7902 85.1946 60.1112 85.1091 60.4005 85.0574C61.7226 84.7897 62.8974 84.8242 63.9249 85.1609C64.9621 85.494 65.8468 86.0707 66.5791 86.8908C67.3079 87.7013 67.8887 88.693 68.3217 89.866C68.7547 91.039 68.9544 92.1769 68.9209 93.2797C68.8935 94.3693 68.5938 95.3776 68.0217 96.3047C67.4594 97.2282 66.5936 98.0159 65.4244 98.6678C65.1672 98.8068 64.8678 98.9504 64.5259 99.0986C64.1841 99.2468 63.9163 99.3567 63.7224 99.4282L58.8366 101.232L61.4559 108.328L57.5007 109.788ZM57.4733 97.5383L62.1846 95.7992C62.3881 95.7241 62.6075 95.6321 62.8427 95.5232C63.0779 95.4144 63.2866 95.2933 63.4687 95.16C63.9482 94.8178 64.2707 94.4234 64.4363 93.9767C64.5983 93.5204 64.6557 93.0641 64.6085 92.6079C64.5673 92.1385 64.477 91.7147 64.3375 91.3366C64.1979 90.9586 63.993 90.5826 63.7228 90.2087C63.4588 89.8215 63.1187 89.5119 62.7026 89.28C62.283 89.0384 61.7798 88.9432 61.1929 88.9946C60.9679 89.0116 60.7306 89.0551 60.4811 89.1252C60.2316 89.1953 60.005 89.2679 59.8015 89.343L55.0902 91.082L57.4733 97.5383ZM76.4154 102.806L68.6864 81.8668L77.5273 78.6034C77.7309 78.5283 78.0059 78.4378 78.3524 78.3319C78.7049 78.2128 79.0259 78.1274 79.3152 78.0757C80.6373 77.808 81.8121 77.8425 82.8396 78.1792C83.8768 78.5123 84.7615 79.0889 85.4938 79.9091C86.2226 80.7195 86.8034 81.7112 87.2364 82.8842C87.6694 84.0572 87.8691 85.1951 87.8356 86.2979C87.8082 87.3875 87.5085 88.3958 86.9364 89.3229C86.3741 90.2465 85.5083 91.0342 84.3391 91.6861C84.0819 91.825 83.7825 91.9686 83.4406 92.1168C83.0988 92.265 82.8309 92.3749 82.6371 92.4465L77.7513 94.2499L80.3706 101.346L76.4154 102.806ZM76.388 90.5565L81.0993 88.8175C81.3028 88.7423 81.5222 88.6503 81.7574 88.5415C81.9926 88.4327 82.2013 88.3116 82.3834 88.1783C82.8629 87.8361 83.1854 87.4416 83.351 86.995C83.513 86.5387 83.5704 86.0824 83.5232 85.6262C83.482 85.1567 83.3917 84.7329 83.2522 84.3549C83.1126 83.9768 82.9077 83.6008 82.6375 83.2269C82.3735 82.8397 82.0334 82.5302 81.6173 82.2982C81.1977 82.0566 80.6945 81.9615 80.1076 82.0129C79.8826 82.0299 79.6453 82.0734 79.3958 82.1434C79.1463 82.2135 78.9197 82.2861 78.7162 82.3613L74.0049 84.1003L76.388 90.5565ZM100.187 94.0314L93.8211 76.7858L87.2195 79.2225L85.8562 75.5291L103.015 69.1956L104.378 72.8891L97.7763 75.3258L104.142 92.5715L100.187 94.0314Z" fill="white"/>
<path d="M34.9258 66.7871L97.7472 43.5986" stroke="#D3D3D3" stroke-linecap="round"/>
<path d="M37.3008 73.2124L100.122 50.0239" stroke="#D3D3D3" stroke-linecap="round"/>
<path d="M39.9336 80.3511L102.755 57.1626" stroke="#D3D3D3" stroke-linecap="round"/>
</g>
<g clip-path="url(#clip1_488_2504)">
<path d="M222.839 129.328L222.786 129.308L222.613 129.777C222.172 130.972 221.271 131.945 220.088 132.49C218.904 133.036 217.579 133.089 216.385 132.649L145.962 106.668C144.759 106.225 143.743 105.302 143.254 104.156L143.252 104.149L143.249 104.143C142.703 102.96 142.65 101.634 143.09 100.44L176.516 9.83551C176.96 8.63322 177.883 7.61741 179.028 7.1284L179.041 7.12279L179.054 7.11644C180.17 6.56281 181.542 6.52067 182.744 6.96422L225.96 22.9072C227.159 23.3498 228.182 24.2738 228.725 25.452L245.896 62.6972C246.44 63.8779 246.496 65.2031 246.034 66.453L222.839 129.328Z" fill="white" stroke="#FF6D6D"/>
<path d="M223.082 129.95L221.23 134.969C220.743 136.29 219.728 137.416 218.445 137.963C217.143 138.563 215.681 138.624 214.36 138.136L143.937 112.156C141.137 111.123 139.756 108.033 140.77 105.285L142.621 100.267C142.134 101.587 142.194 103.05 142.795 104.352C143.395 105.654 144.468 106.65 145.788 107.137L216.211 133.117C219.011 134.15 222.068 132.697 223.082 129.95Z" fill="#D0D7E3"/>
<path d="M147.379 56.2871L248.021 93.4159L238.744 118.563C237.711 121.363 234.62 122.744 231.873 121.731L141.322 88.3244C140.001 87.8371 138.875 86.8216 138.328 85.5393C137.728 84.2375 137.667 82.7747 138.174 81.4011L147.432 56.3066L147.379 56.2871Z" fill="#EF4444"/>
<path d="M157.473 60.01L161.196 49.9194L147.383 56.2874L157.473 60.01ZM237.934 89.6936L241.763 79.6419L248.078 93.4357L237.934 89.6936Z" fill="#D50B0B"/>
<path d="M246.451 66.6064L246.198 67.2932L218.99 57.2558C216.19 56.2228 214.809 53.1325 215.823 50.3853L226.133 22.438C227.454 22.9252 228.579 23.9408 229.18 25.2426L246.403 62.5072C246.95 63.7895 247.01 65.2523 246.451 66.6064Z" fill="#FF6D6D"/>
<path d="M159.415 90.5126L167.887 67.5457L177.585 71.1231C177.808 71.2055 178.102 71.326 178.466 71.4845C178.845 71.6364 179.173 71.7938 179.451 71.9568C180.745 72.6755 181.7 73.5412 182.317 74.554C182.944 75.5707 183.271 76.6819 183.297 77.8875C183.328 79.0825 183.106 80.3233 182.631 81.6099C182.156 82.8965 181.512 83.9876 180.698 84.8834C179.899 85.7724 178.931 86.3997 177.794 86.7652C176.667 87.1347 175.384 87.1747 173.944 86.8853C173.631 86.818 173.279 86.7244 172.888 86.6044C172.497 86.4845 172.196 86.3853 171.983 86.3068L166.624 84.3298L163.753 92.113L159.415 90.5126ZM168.119 80.2787L173.286 82.1851C173.509 82.2675 173.758 82.3471 174.032 82.4239C174.305 82.5007 174.566 82.5483 174.812 82.5669C175.456 82.6232 176.006 82.5241 176.462 82.2696C176.922 82.0045 177.295 81.6649 177.581 81.2509C177.881 80.8301 178.108 80.4124 178.261 79.9977C178.414 79.583 178.511 79.1235 178.552 78.6192C178.608 78.1082 178.544 77.6078 178.363 77.118C178.185 76.6175 177.833 76.1797 177.307 75.8044C177.107 75.6583 176.879 75.5255 176.621 75.4062C176.363 75.2869 176.122 75.186 175.899 75.1036L170.731 73.1972L168.119 80.2787ZM180.161 98.1664L188.634 75.1994L196.066 77.9414C196.247 78.0081 196.617 78.1507 197.177 78.3692C197.736 78.5877 198.265 78.825 198.763 79.081C200.53 79.9869 201.861 81.2087 202.756 82.7467C203.65 84.2846 204.13 85.9958 204.196 87.8804C204.261 89.765 203.935 91.6802 203.218 93.626C202.5 95.5718 201.504 97.2399 200.23 98.6302C198.956 100.021 197.48 101.01 195.801 101.599C194.122 102.187 192.316 102.252 190.384 101.793C189.839 101.664 189.283 101.502 188.716 101.304C188.148 101.107 187.774 100.975 187.593 100.908L180.161 98.1664ZM186.069 95.7073L189.1 96.8253C189.387 96.9312 189.777 97.0691 190.27 97.2389C190.767 97.3981 191.226 97.513 191.647 97.5837C192.721 97.7504 193.707 97.5827 194.605 97.0804C195.513 96.5821 196.307 95.8722 196.985 94.9506C197.674 94.033 198.22 93.0266 198.624 91.9314C199.048 90.7831 199.29 89.6344 199.352 88.4853C199.424 87.3402 199.273 86.2937 198.897 85.346C198.522 84.3982 197.886 83.6501 196.989 83.1018C196.627 82.8716 196.204 82.6609 195.718 82.4699C195.233 82.2788 194.847 82.1303 194.56 82.0244L191.53 80.9064L186.069 95.7073ZM202.808 106.521L211.281 83.5542L225.316 88.7322L223.716 93.0704L214.018 89.4929L212.183 94.4691L219.966 97.3404L218.365 101.679L210.582 98.8073L207.146 108.122L202.808 106.521Z" fill="white"/>
<path d="M173.574 43.6025L236.4 66.7801" stroke="#D3D3D3" stroke-linecap="round"/>
<path d="M171.203 50.0278L234.029 73.2054" stroke="#D3D3D3" stroke-linecap="round"/>
<path d="M168.566 57.167L231.392 80.3445" stroke="#D3D3D3" stroke-linecap="round"/>
</g>
<path d="M147.26 26.1448L143.184 32.2456L158.876 29.1248L155.751 13.4331L151.705 19.4862C145.48 14.0524 130.692 14.8267 123.285 17.9007C115.496 21.1335 110.007 26.9081 111.74 35.2702C111.915 31.9573 114.704 29.35 118.076 27.1563C122.999 23.9532 128.689 21.708 134.555 22.0001C139.242 22.2335 144.03 23.4934 147.26 26.1448Z" fill="#0F67B1"/>
<defs>
<clipPath id="clip0_488_2504">
<rect width="112.622" height="112.622" fill="white" transform="translate(0.335938 38.9985) rotate(-20.26)"/>
</clipPath>
<clipPath id="clip1_488_2504">
<rect width="112.622" height="112.622" fill="white" transform="translate(165.324 0.00488281) rotate(20.25)"/>
</clipPath>
</defs>
</svg>
