<svg width="89" height="89" viewBox="0 0 89 89" fill="none" xmlns="http://www.w3.org/2000/svg">
<circle cx="44.5" cy="44.5" r="44.5" fill="#379DF3"/>
<path d="M81.9547 42.3368L80.4491 41.1127L78.9424 42.3368L79.5455 40.3471L77.8886 39.2766H79.846L80.4491 37.4405L81.0523 39.2766H83.0096L81.3527 40.3471L81.9547 42.3368ZM77.488 58.2488L72.8267 54.6324L67.9936 58.2197L69.9168 52.5693L65.0859 48.9774L70.9365 49.103L72.7846 43.2945L74.4757 49.0227L80.4502 49.0251L75.6444 52.4402L77.488 58.2488Z" fill="white"/>
<path d="M64.9806 50.1397C64.6437 50.3654 63.8881 50.8774 62.8331 51.6791C61.4903 52.6996 59.9426 54.0121 59.2097 55.0011C57.9465 56.7093 56.6287 59.7136 55.5977 62.4166C56.9508 60.2314 58.5451 57.9147 60.0905 56.5382C61.4755 55.3025 63.7663 54.1529 65.7419 53.2651C66.592 52.8834 67.3135 52.5902 67.9383 52.34L64.9794 50.1409L64.9806 50.1397Z" fill="white"/>
<path d="M68.6021 53.3175C67.9648 53.57 67.1284 53.9109 66.1998 54.3298C64.2652 55.1978 62.0085 56.3719 60.8386 57.4145C59.3023 58.7852 57.445 61.53 56.0203 63.9061C55.7585 64.3412 55.606 64.6356 55.375 65.0371C57.057 63.4755 59.1065 61.6592 60.718 60.5654C62.8062 59.1482 66.7403 57.4238 67.2843 57.1876L68.6021 53.3175Z" fill="white"/>
<path d="M75.342 68.6872L73.3345 67.0558L71.3259 68.6872L72.1293 66.0342L69.9205 64.6065H72.5311L73.3345 62.1583L74.1379 64.6065H76.7485L74.5397 66.0354L75.342 68.6872ZM61.1168 46.1266L59.1105 44.4964L57.1008 46.1254L57.9042 43.4724L55.6953 42.0447H58.3048L59.1093 39.5977L59.9128 42.0459H62.5234L60.3145 43.4748L61.1168 46.1266ZM85.3678 59.7904L83.8611 58.5664L82.3544 59.7904L82.9575 57.8007L81.3006 56.7302H83.258L83.8611 54.8941L84.4643 56.7302H86.4216L84.7647 57.8007L85.3678 59.7904Z" fill="white"/>
<path d="M51.6631 34.4714V34.7493H43.6699C42.822 34.7493 42.0087 34.4049 41.4091 33.7918C40.8095 33.1787 40.4727 32.3472 40.4727 31.4802V23.3074H40.7444C41.1663 23.3071 41.5841 23.3921 41.9737 23.5576C42.3633 23.7232 42.717 23.9659 43.0145 24.2718L50.7199 32.1503C51.0191 32.4545 51.2565 32.8161 51.4184 33.2145C51.5803 33.6129 51.6634 34.04 51.6631 34.4714Z" fill="#C8C8C8"/>
<path d="M51.568 31.2841L43.8626 23.4056C43.4544 22.9851 42.9687 22.6515 42.4336 22.4242C41.8985 22.197 41.3246 22.0805 40.7452 22.0816H22.8884C21.7225 22.0816 20.6043 22.5552 19.7798 23.3982C18.9554 24.2411 18.4922 25.3845 18.4922 26.5766V62.5367C18.4922 63.7289 18.9554 64.8722 19.7798 65.7152C20.6043 66.5582 21.7225 67.0317 22.8884 67.0317H48.4666C49.6326 67.0317 50.7508 66.5582 51.5752 65.7152C52.3997 64.8722 52.8629 63.7289 52.8629 62.5367V34.4715C52.864 33.8791 52.7501 33.2923 52.5278 32.7452C52.3055 32.198 51.9793 31.7014 51.568 31.2841ZM49.8734 33.0168C50.0087 33.1682 50.1217 33.3389 50.2091 33.5235H43.6707C43.1407 33.5235 42.6325 33.3082 42.2577 32.925C41.883 32.5419 41.6724 32.0222 41.6724 31.4803V24.795C41.8529 24.8843 42.0199 24.9999 42.168 25.1382L49.8734 33.0168ZM48.4666 64.5799H22.8884C22.3585 64.5799 21.8502 64.3646 21.4754 63.9815C21.1007 63.5983 20.8901 63.0786 20.8901 62.5367V26.5766C20.8901 26.0347 21.1007 25.515 21.4754 25.1319C21.8502 24.7487 22.3585 24.5334 22.8884 24.5334H39.2745V31.4803C39.2745 32.6724 39.7376 33.8158 40.5621 34.6587C41.3866 35.5017 42.5048 35.9753 43.6707 35.9753H50.4649V62.5367C50.4649 63.0786 50.2544 63.5983 49.8796 63.9815C49.5049 64.3646 48.9966 64.5799 48.4666 64.5799Z" fill="white"/>
<path d="M26.0857 35.9753H34.0789C34.3969 35.9753 34.7018 35.8461 34.9267 35.6162C35.1515 35.3863 35.2779 35.0745 35.2779 34.7493C35.2779 34.4242 35.1515 34.1124 34.9267 33.8825C34.7018 33.6526 34.3969 33.5234 34.0789 33.5234H26.0857C25.7677 33.5234 25.4627 33.6526 25.2379 33.8825C25.013 34.1124 24.8867 34.4242 24.8867 34.7493C24.8867 35.0745 25.013 35.3863 25.2379 35.6162C25.4627 35.8461 25.7677 35.9753 26.0857 35.9753ZM45.2693 40.0616H26.0857C25.7677 40.0616 25.4627 40.1908 25.2379 40.4207C25.013 40.6506 24.8867 40.9624 24.8867 41.2875C24.8867 41.6127 25.013 41.9245 25.2379 42.1544C25.4627 42.3843 25.7677 42.5135 26.0857 42.5135H45.2693C45.5873 42.5135 45.8923 42.3843 46.1171 42.1544C46.342 41.9245 46.4683 41.6127 46.4683 41.2875C46.4683 40.9624 46.342 40.6506 46.1171 40.4207C45.8923 40.1908 45.5873 40.0616 45.2693 40.0616ZM45.2693 46.5998H26.0857C25.7677 46.5998 25.4627 46.729 25.2379 46.9589C25.013 47.1888 24.8867 47.5006 24.8867 47.8257C24.8867 48.1509 25.013 48.4627 25.2379 48.6926C25.4627 48.9225 25.7677 49.0517 26.0857 49.0517H45.2693C45.5873 49.0517 45.8923 48.9225 46.1171 48.6926C46.342 48.4627 46.4683 48.1509 46.4683 47.8257C46.4683 47.5006 46.342 47.1888 46.1171 46.9589C45.8923 46.729 45.5873 46.5998 45.2693 46.5998ZM45.2693 53.138H26.0857C25.7677 53.138 25.4627 53.2672 25.2379 53.4971C25.013 53.727 24.8867 54.0388 24.8867 54.3639C24.8867 54.6891 25.013 55.0009 25.2379 55.2308C25.4627 55.4607 25.7677 55.5899 26.0857 55.5899H45.2693C45.5873 55.5899 45.8923 55.4607 46.1171 55.2308C46.342 55.0009 46.4683 54.6891 46.4683 54.3639C46.4683 54.0388 46.342 53.727 46.1171 53.4971C45.8923 53.2672 45.5873 53.138 45.2693 53.138Z" fill="white"/>
</svg>
