<svg width="126" height="126" viewBox="0 0 126 126" fill="none" xmlns="http://www.w3.org/2000/svg">
<path fill-rule="evenodd" clip-rule="evenodd" d="M27.7812 53.7349H98.3617V72.6785H27.7812V53.7349ZM27.7812 91.5298H98.3617V110.473H27.7812V91.5298ZM27.7812 15.9375H98.3617V34.881H27.7812V15.9375Z" fill="#FFAE06"/>
<path fill-rule="evenodd" clip-rule="evenodd" d="M27.7812 53.7349H92.9811V72.6785H27.7812V53.7349ZM27.7812 91.5298H92.9811V110.473H27.7812V91.5298ZM27.7812 15.9375H92.9811V34.881H27.7812V15.9375Z" fill="#FFC107"/>
<path fill-rule="evenodd" clip-rule="evenodd" d="M38.7869 60.9181C38.1211 60.9181 37.5781 60.3778 37.5781 59.7093C37.5781 59.0435 38.1185 58.5006 38.7869 58.5006H87.3686C88.0345 58.5006 88.5774 59.0409 88.5774 59.7093C88.5774 60.3752 88.037 60.9181 87.3686 60.9181H38.7869ZM47.3431 67.8968C46.6773 67.8968 46.1343 67.3564 46.1343 66.688C46.1343 66.0221 46.6747 65.4792 47.3431 65.4792H78.8124C79.4782 65.4792 80.0212 66.0196 80.0212 66.688C80.0212 67.3538 79.4808 67.8968 78.8124 67.8968H47.3431ZM38.7869 98.7156C38.1211 98.7156 37.5781 98.1752 37.5781 97.5068C37.5781 96.8409 38.1185 96.298 38.7869 96.298H87.3686C88.0345 96.298 88.5774 96.8384 88.5774 97.5068C88.5774 98.1752 88.037 98.7156 87.3686 98.7156H38.7869ZM47.3431 105.694C46.6773 105.694 46.1343 105.154 46.1343 104.485C46.1343 103.82 46.6747 103.277 47.3431 103.277H78.8124C79.4782 103.277 80.0212 103.817 80.0212 104.485C80.0212 105.154 79.4808 105.694 78.8124 105.694H47.3431ZM38.7869 23.1207C38.1211 23.1207 37.5781 22.5803 37.5781 21.9119C37.5781 21.2435 38.1185 20.7031 38.7869 20.7031H87.3686C88.0345 20.7031 88.5774 21.2435 88.5774 21.9119C88.5774 22.5778 88.037 23.1207 87.3686 23.1207H38.7869ZM47.3431 30.1019C46.6773 30.1019 46.1343 29.5615 46.1343 28.8931C46.1343 28.2247 46.6747 27.6843 47.3431 27.6843H78.8124C79.4782 27.6843 80.0212 28.2247 80.0212 28.8931C80.0212 29.559 79.4808 30.1019 78.8124 30.1019H47.3431Z" fill="#3B566A"/>
<path fill-rule="evenodd" clip-rule="evenodd" d="M13.5391 91.5291C13.5391 90.8607 14.0794 90.3203 14.7478 90.3203C15.4137 90.3203 15.9566 90.8607 15.9566 91.5291V110.473C15.9566 111.141 15.4163 111.681 14.7478 111.681C14.0794 111.681 13.5391 111.141 13.5391 110.473V91.5291Z" fill="#B93C64"/>
<path fill-rule="evenodd" clip-rule="evenodd" d="M9.87647 99.037C9.66853 99.2791 9.37317 99.429 9.05499 99.454C8.7368 99.4789 8.42168 99.3769 8.17854 99.1701C7.93641 98.9622 7.78647 98.6668 7.76151 98.3487C7.73656 98.0305 7.83861 97.7153 8.04537 97.4722L13.8383 90.7394C14.0462 90.4973 14.3416 90.3473 14.6598 90.3224C14.978 90.2974 15.2931 90.3995 15.5362 90.6062C15.5874 90.6498 15.6335 90.6959 15.6745 90.7471L21.4623 97.4722C21.5653 97.5923 21.6435 97.7316 21.6925 97.882C21.7416 98.0325 21.7604 98.1911 21.7481 98.3488C21.7357 98.5065 21.6923 98.6603 21.6204 98.8012C21.5486 98.9421 21.4496 99.0675 21.3291 99.1701C21.209 99.2731 21.0697 99.3513 20.9193 99.4003C20.7689 99.4494 20.6103 99.4683 20.4525 99.4559C20.2948 99.4435 20.1411 99.4001 20.0001 99.3283C19.8592 99.2564 19.7338 99.1574 19.6312 99.037L14.7526 93.367L9.87647 99.037ZM112.6 72.664C112.6 73.3299 112.059 73.8728 111.391 73.8728C110.725 73.8728 110.182 73.3324 110.182 72.664V53.7205C110.182 53.0546 110.723 52.5117 111.391 52.5117C112.059 52.5117 112.6 53.0521 112.6 53.7205V72.664Z" fill="#B93C64"/>
<path fill-rule="evenodd" clip-rule="evenodd" d="M104.676 66.7207C104.574 66.6006 104.495 66.4613 104.446 66.3109C104.397 66.1604 104.378 66.0018 104.391 65.8441C104.403 65.6864 104.446 65.5326 104.518 65.3917C104.59 65.2508 104.689 65.1254 104.81 65.0228C104.93 64.9198 105.069 64.8416 105.22 64.7926C105.37 64.7435 105.529 64.7247 105.686 64.737C105.844 64.7494 105.998 64.7928 106.139 64.8647C106.28 64.9365 106.405 65.0355 106.508 65.1559L111.386 70.8259L116.265 65.1559C116.473 64.9138 116.768 64.7639 117.086 64.7389C117.405 64.714 117.72 64.816 117.963 65.0228C118.467 65.4556 118.526 66.2162 118.096 66.7207L112.308 73.4458C112.267 73.4945 112.221 73.5431 112.17 73.5867C112.05 73.6896 111.911 73.7679 111.76 73.8169C111.61 73.8659 111.451 73.8848 111.293 73.8724C111.136 73.8601 110.982 73.8167 110.841 73.7448C110.7 73.6729 110.575 73.5739 110.472 73.4535L104.676 66.7207ZM15.9566 34.875C15.9566 35.5434 15.4163 36.0838 14.7478 36.0838C14.0794 36.0838 13.5391 35.5434 13.5391 34.875V15.9314C13.5391 15.263 14.0794 14.7227 14.7478 14.7227C15.4137 14.7227 15.9566 15.263 15.9566 15.9314V34.875Z" fill="#B93C64"/>
<path fill-rule="evenodd" clip-rule="evenodd" d="M8.04725 28.9233C7.9443 28.8031 7.86607 28.6639 7.81703 28.5134C7.768 28.363 7.74912 28.2044 7.76149 28.0467C7.77387 27.8889 7.81724 27.7352 7.88912 27.5943C7.96101 27.4533 8.06 27.328 8.18042 27.2253C8.30056 27.1224 8.43983 27.0442 8.59025 26.9951C8.74067 26.9461 8.89929 26.9272 9.05702 26.9396C9.21475 26.952 9.36849 26.9953 9.50943 27.0672C9.65036 27.1391 9.77573 27.2381 9.87835 27.3585L14.757 33.0285L19.6357 27.3585C19.8436 27.1164 20.139 26.9664 20.4571 26.9415C20.7753 26.9165 21.0905 27.0186 21.3336 27.2253C21.8381 27.6581 21.897 28.4188 21.4668 28.9233L15.679 35.6484C15.638 35.697 15.5919 35.7457 15.5407 35.7892C15.4205 35.8922 15.2813 35.9704 15.1308 36.0195C14.9804 36.0685 14.8218 36.0874 14.6641 36.075C14.5063 36.0626 14.3526 36.0193 14.2117 35.9474C14.0707 35.8755 13.9454 35.7765 13.8427 35.6561L8.04725 28.9233ZM13.5482 46.9909C13.5482 46.3251 14.0886 45.7822 14.757 45.7822C15.4229 45.7822 15.9658 46.3225 15.9658 46.9909V79.4103C15.9658 80.0762 15.4254 80.6191 14.757 80.6191C14.0886 80.6191 13.5482 80.0788 13.5482 79.4103V46.9909ZM110.187 15.9314C110.187 15.263 110.727 14.7227 111.395 14.7227C112.064 14.7227 112.604 15.263 112.604 15.9314V35.8942C112.604 36.5601 112.064 37.103 111.395 37.103C110.73 37.103 110.187 36.5627 110.187 35.8942V15.9314ZM110.187 90.5045C110.187 89.8386 110.727 89.2957 111.395 89.2957C112.064 89.2957 112.604 89.8361 112.604 90.5045V110.467C112.604 111.136 112.064 111.676 111.395 111.676C110.73 111.676 110.187 111.136 110.187 110.467V90.5045Z" fill="#B93C64"/>
</svg>
