<svg width="126" height="103" viewBox="0 0 126 103" fill="none" xmlns="http://www.w3.org/2000/svg">
<g clip-path="url(#clip0_1341_30028)">
<path d="M88.0134 90.4288H87.9632V90.9288C87.9632 92.0501 87.5149 93.1292 86.703 93.9411C85.891 94.7531 84.8119 95.2013 83.6907 95.2013H16.7256C15.5959 95.2013 14.4753 94.7477 13.7233 93.9513L13.7183 93.9462L13.7133 93.9411C12.9013 93.1292 12.4531 92.0501 12.4531 90.9288L12.4531 4.77343C12.4531 3.6438 12.9067 2.52318 13.7031 1.7711L13.7134 1.76129L13.7233 1.75091C14.4753 0.954585 15.5959 0.500977 16.7256 0.500977L57.819 0.500977C58.9457 0.500977 60.0734 0.953096 60.8815 1.76115L86.7532 27.6329C87.5632 28.4429 88.0134 29.5211 88.0134 30.6954V90.4288Z" fill="white" stroke="#FF6D6D"/>
<path d="M88.4631 90.9287V95.7012C88.4631 96.9571 87.9608 98.213 87.0565 99.067C86.1523 99.9713 84.9466 100.474 83.6907 100.474H16.7256C14.0631 100.474 11.9531 98.3135 11.9531 95.7012V90.9287C11.9531 92.1846 12.4555 93.3903 13.3597 94.2946C14.264 95.1988 15.4697 95.7012 16.7256 95.7012H83.6907C86.3532 95.7012 88.4631 93.541 88.4631 90.9287Z" fill="#D0D7E3"/>
<path d="M2.35547 52.6494L98.0558 52.6494V76.5619C98.0558 79.2245 95.8956 81.3344 93.2833 81.3344H7.17816C5.92225 81.3344 4.66634 80.832 3.81232 79.9278C2.90807 79.0235 2.40571 77.8178 2.40571 76.5117L2.40571 52.6494H2.35547Z" fill="#EF4444"/>
<path d="M11.9506 52.6489V43.0537L2.35547 52.6489H11.9506ZM88.4607 52.6489L88.5611 43.0537L98.106 52.6489H88.4607Z" fill="#D50B0B"/>
<path d="M88.4645 30.6954V31.3485L62.5928 31.3485C59.9302 31.3485 57.8203 29.1883 57.8203 26.576V0.000976562C59.0762 0.000976563 60.3321 0.50334 61.2364 1.4076L87.1584 27.2793C88.0124 28.1836 88.5147 29.3893 88.4645 30.6954Z" fill="#FF6D6D"/>
<path d="M24.917 77V56.84H33.429C33.625 56.84 33.8864 56.8493 34.213 56.868C34.549 56.8773 34.8477 56.9053 35.109 56.952C36.313 57.1387 37.2977 57.5353 38.063 58.142C38.8377 58.7487 39.407 59.514 39.771 60.438C40.135 61.3527 40.317 62.3747 40.317 63.504C40.317 64.6333 40.1304 65.66 39.757 66.584C39.393 67.4987 38.8237 68.2593 38.049 68.866C37.2837 69.4727 36.3037 69.8693 35.109 70.056C34.8477 70.0933 34.549 70.1213 34.213 70.14C33.877 70.1587 33.6157 70.168 33.429 70.168H28.725V77H24.917ZM28.725 66.612H33.261C33.457 66.612 33.6717 66.6027 33.905 66.584C34.1384 66.5653 34.353 66.528 34.549 66.472C35.0624 66.332 35.459 66.0987 35.739 65.772C36.019 65.436 36.2104 65.0673 36.313 64.666C36.425 64.2553 36.481 63.868 36.481 63.504C36.481 63.14 36.425 62.7573 36.313 62.356C36.2104 61.9453 36.019 61.5767 35.739 61.25C35.459 60.914 35.0624 60.676 34.549 60.536C34.353 60.48 34.1384 60.4427 33.905 60.424C33.6717 60.4053 33.457 60.396 33.261 60.396H28.725V66.612ZM43.128 77V56.84H49.652C49.8106 56.84 50.1373 56.8447 50.632 56.854C51.1266 56.8633 51.6026 56.896 52.06 56.952C53.684 57.148 55.0606 57.7127 56.19 58.646C57.3193 59.5793 58.178 60.7647 58.766 62.202C59.354 63.6393 59.648 65.212 59.648 66.92C59.648 68.628 59.354 70.2007 58.766 71.638C58.178 73.0753 57.3193 74.2607 56.19 75.194C55.0606 76.1273 53.684 76.692 52.06 76.888C51.6026 76.944 51.1266 76.9767 50.632 76.986C50.1373 76.9953 49.8106 77 49.652 77H43.128ZM46.992 73.416H49.652C49.904 73.416 50.2446 73.4113 50.674 73.402C51.1033 73.3833 51.4906 73.3413 51.836 73.276C52.7133 73.0987 53.4273 72.688 53.978 72.044C54.538 71.4 54.9486 70.6253 55.21 69.72C55.4806 68.8147 55.616 67.8813 55.616 66.92C55.616 65.912 55.476 64.9553 55.196 64.05C54.9253 63.1447 54.51 62.3793 53.95 61.754C53.39 61.1287 52.6853 60.732 51.836 60.564C51.4906 60.4893 51.1033 60.4473 50.674 60.438C50.2446 60.4287 49.904 60.424 49.652 60.424H46.992V73.416ZM63.0069 77V56.84H75.3269V60.648H66.8149V65.016H73.6469V68.824H66.8149V77H63.0069Z" fill="white"/>
<path d="M20.3633 33.9434H80.1039" stroke="#D3D3D3" stroke-width="0.5" stroke-linecap="round"/>
<path d="M20.3633 40.0537H80.1039" stroke="#D3D3D3" stroke-width="0.5" stroke-linecap="round"/>
<path d="M20.3633 46.8447H80.1039" stroke="#D3D3D3" stroke-width="0.5" stroke-linecap="round"/>
</g>
<g clip-path="url(#clip1_1341_30028)">
<path d="M100.462 52.7451C86.6114 52.7451 75.3438 64.0127 75.3438 77.8633C75.3438 91.7139 86.6114 102.981 100.462 102.981C114.313 102.981 125.58 91.7139 125.58 77.8633C125.58 64.0127 114.313 52.7451 100.462 52.7451Z" fill="#E83628"/>
<path opacity="0.2" d="M100.462 53.2684C114.225 53.2684 125.425 64.3958 125.568 78.125C125.568 78.037 125.58 77.9512 125.58 77.8633C125.58 64.0127 114.313 52.7451 100.462 52.7451C86.6114 52.7451 75.3438 64.0127 75.3438 77.8633C75.3438 77.9512 75.3563 78.037 75.3563 78.125C75.4986 64.3958 86.7014 53.2684 100.462 53.2684Z" fill="white"/>
<path opacity="0.1" d="M100.462 102.458C86.6993 102.458 75.4986 91.3307 75.3563 77.6016C75.3563 77.6895 75.3438 77.7753 75.3438 77.8632C75.3438 91.7138 86.6114 102.981 100.462 102.981C114.313 102.981 125.58 91.7138 125.58 77.8632C125.58 77.7753 125.568 77.6895 125.568 77.6016C125.425 91.3307 114.223 102.458 100.462 102.458Z" fill="black"/>
<path d="M85.8086 75.7705H115.113V79.9569H85.8086V75.7705Z" fill="white"/>
<path d="M115.113 75.7705V79.9569H85.8086L107.747 101.896C111.696 100.689 115.288 98.5306 118.208 95.6108C121.128 92.691 123.286 89.0989 124.493 85.1501L115.113 75.7705Z" fill="url(#paint0_linear_1341_30028)"/>
<path d="M100.462 52.7451C86.6114 52.7451 75.3438 64.0127 75.3438 77.8633C75.3438 91.7139 86.6114 102.981 100.462 102.981C114.313 102.981 125.58 91.7139 125.58 77.8633C125.58 64.0127 114.313 52.7451 100.462 52.7451Z" fill="url(#paint1_linear_1341_30028)"/>
</g>
<defs>
<linearGradient id="paint0_linear_1341_30028" x1="95.4498" y1="72.8526" x2="114.473" y2="91.8755" gradientUnits="userSpaceOnUse">
<stop stop-opacity="0.1"/>
<stop offset="1" stop-opacity="0"/>
</linearGradient>
<linearGradient id="paint1_linear_1341_30028" x1="77.6986" y1="67.2488" x2="123.225" y2="88.4778" gradientUnits="userSpaceOnUse">
<stop stop-color="white" stop-opacity="0.2"/>
<stop offset="1" stop-color="white" stop-opacity="0"/>
</linearGradient>
<clipPath id="clip0_1341_30028">
<rect width="100.473" height="100.473" fill="white"/>
</clipPath>
<clipPath id="clip1_1341_30028">
<rect width="50.2364" height="50.2364" fill="white" transform="translate(75.3438 52.7451)"/>
</clipPath>
</defs>
</svg>
