<svg width="126" height="126" viewBox="0 0 126 126" fill="none" xmlns="http://www.w3.org/2000/svg">
<path d="M45.864 15.7502C45.7326 15.7489 45.6012 15.7541 45.4703 15.766C44.62 15.8173 43.8093 16.1429 43.1599 16.6941C42.5104 17.2452 42.0572 17.992 41.8682 18.8226C41.6792 19.6532 41.7646 20.5226 42.1116 21.3005C42.4586 22.0784 43.0486 22.7228 43.7929 23.1369L48.0926 25.6254C42.8886 27.3852 38.1667 30.3344 34.3021 34.2387C30.4374 38.143 27.5366 42.8947 25.83 48.1164L23.1446 43.4623C22.7892 42.8251 22.2638 42.2992 21.6269 41.9432C20.9901 41.5872 20.2668 41.4152 19.5379 41.4463C18.8551 41.4727 18.191 41.6762 17.6108 42.0369C17.0305 42.3976 16.5541 42.9032 16.2284 43.5038C15.9027 44.1044 15.7388 44.7794 15.753 45.4625C15.7671 46.1456 15.9588 46.8132 16.3091 47.3998L24.1841 61.0236C24.547 61.6545 25.0776 62.1724 25.7171 62.52C26.3566 62.8675 27.0798 63.031 27.8066 62.9923C27.8512 62.9931 27.8959 62.9931 27.9405 62.9923C28.9516 62.9717 29.9159 62.5628 30.6338 61.8504L43.2101 54.5976C43.6615 54.3409 44.0577 53.9975 44.3759 53.5871C44.694 53.1767 44.9279 52.7074 45.0639 52.2063C45.2 51.7052 45.2356 51.1821 45.1686 50.6671C45.1017 50.1522 44.9336 49.6555 44.6739 49.2058C44.4143 48.7561 44.0683 48.3622 43.6558 48.0468C43.2433 47.7314 42.7725 47.5007 42.2704 47.3679C41.7684 47.2352 41.2451 47.2031 40.7306 47.2734C40.2161 47.3438 39.7206 47.5152 39.2726 47.7778L32.9963 51.4082C34.2823 46.9126 36.7026 42.8232 40.0248 39.5327C43.347 36.2423 47.4594 33.8613 51.9671 32.6184L48.1163 39.2571C47.8577 39.7059 47.6901 40.2012 47.623 40.7148C47.5559 41.2284 47.5906 41.7502 47.7252 42.2504C47.8597 42.7506 48.0915 43.2194 48.4072 43.63C48.7229 44.0406 49.1164 44.385 49.5653 44.6436C50.0141 44.9021 50.5094 45.0697 51.023 45.1368C51.5366 45.2039 52.0584 45.1692 52.5586 45.0346C53.0588 44.9001 53.5276 44.6683 53.9382 44.3526C54.3488 44.0369 54.6932 43.6434 54.9518 43.1946L62.8268 29.5551C63.3163 28.6928 63.4626 27.6776 63.2362 26.7122C63.2223 26.6435 63.2066 26.5753 63.189 26.5074C63.1371 26.3191 63.0713 26.1348 62.9921 25.9562C62.9623 25.8924 62.9308 25.8293 62.8976 25.7672C62.8701 25.7114 62.8412 25.6563 62.811 25.6018C62.3974 24.8747 61.763 24.2983 60.9997 23.9559L47.7382 16.3172C47.1712 15.9734 46.5265 15.7784 45.864 15.7502ZM74.8125 15.7502C73.7682 15.7502 72.7667 16.165 72.0283 16.9035C71.2898 17.6419 70.875 18.6434 70.875 19.6877V82.6877C70.875 83.732 71.2898 84.7335 72.0283 85.4719C72.7667 86.2103 73.7682 86.6252 74.8125 86.6252H114.188C115.232 86.6252 116.233 86.2103 116.972 85.4719C117.71 84.7335 118.125 83.732 118.125 82.6877V19.6877C118.125 18.6434 117.71 17.6419 116.972 16.9035C116.233 16.165 115.232 15.7502 114.188 15.7502H74.8125ZM78.75 23.6252H110.25V78.7502H78.75V23.6252ZM19.6875 70.8752C18.6432 70.8752 17.6417 71.29 16.9033 72.0285C16.1648 72.7669 15.75 73.7684 15.75 74.8127V114.188C15.75 115.232 16.1648 116.233 16.9033 116.972C17.6417 117.71 18.6432 118.125 19.6875 118.125H82.6875C83.7318 118.125 84.7333 117.71 85.4717 116.972C86.2102 116.233 86.625 115.232 86.625 114.188V94.5002H78.75V110.25H23.625V78.7502H63V70.8752H19.6875Z" fill="#DF760D"/>
</svg>
