<svg width="89" height="90" viewBox="0 0 89 90" fill="none" xmlns="http://www.w3.org/2000/svg">
<circle cx="44.5" cy="45" r="44.5" fill="#AD5BFF"/>
<path d="M27.9738 35.3945L27.9734 35.3945C26.9468 35.2004 25.8109 35.6071 25.1463 36.4145L25.1463 36.4146C24.2838 37.4633 24.4275 38.7856 25.1019 39.7176C25.7768 40.6502 26.9984 41.2144 28.3099 40.7416L28.31 40.7416C29.6161 40.2698 30.1979 39.0567 30.1231 37.9086C30.0483 36.7608 29.3148 35.6514 27.9738 35.3945ZM26.429 38.4977L26.4289 38.4976C26.2548 38.0662 26.3655 37.6968 26.6085 37.4494C26.8565 37.1968 27.2483 37.0664 27.639 37.1425L27.6396 37.1427C28.0882 37.2283 28.3342 37.6135 28.3497 38.0443C28.3652 38.4759 28.1461 38.9086 27.706 39.0685C27.4798 39.1492 27.2071 39.1255 26.9625 39.0163C26.7178 38.9071 26.5187 38.7203 26.429 38.4977ZM24.7782 47.3392L24.7782 47.3392C25.3265 48.6992 26.9479 49.4137 28.3102 48.918C29.6116 48.4477 30.1948 47.2345 30.1221 46.0865C30.0493 44.9383 29.3182 43.8282 27.9739 43.572C26.9384 43.3718 25.9145 43.7484 25.2617 44.4571C24.6054 45.1696 24.3257 46.2165 24.7782 47.3392ZM27.7047 47.2451L27.7046 47.2452C27.2631 47.4055 26.8191 47.2116 26.5551 46.8681C26.2912 46.5248 26.2344 46.0702 26.5203 45.7217C26.7665 45.4231 27.2187 45.2429 27.6402 45.3193C28.0863 45.4047 28.3332 45.7895 28.3497 46.2202C28.3662 46.6516 28.148 47.0846 27.7047 47.2451ZM24.7782 55.8836L24.7782 55.8836C25.2078 56.9492 26.2974 57.6197 27.4062 57.6197C29.3088 57.6197 30.5541 55.6665 30.0167 53.9902L30.0167 53.9901C29.7302 53.0982 29.1689 52.5396 28.5045 52.2684C27.8441 51.9989 27.0935 52.0178 26.4281 52.2558C25.7627 52.4937 25.1715 52.9546 24.8356 53.5834C24.4976 54.2161 24.4248 55.0066 24.7782 55.8836ZM26.5203 54.2662L26.5204 54.266C26.7479 53.989 27.1311 53.822 27.4911 53.8437C27.8394 53.8648 28.1707 54.0618 28.3219 54.5335C28.3954 54.7629 28.362 55.0344 28.2439 55.2749C28.1259 55.5152 27.9317 55.7074 27.7059 55.7895C27.2614 55.9489 26.8171 55.754 26.5537 55.4106C26.2902 55.0673 26.2345 54.6133 26.5203 54.2662ZM59.9344 65.0767L56.8576 62.0004C56.6555 61.7983 56.4188 61.7165 56.1894 61.7309C55.9637 61.745 55.7565 61.8512 55.6034 62.0044C55.4503 62.1576 55.3441 62.3648 55.33 62.5905C55.3157 62.8199 55.3974 63.0565 55.5994 63.2586L55.601 63.2601C57.0718 64.6882 57.9529 65.5965 58.5149 66.1758C58.6786 66.3445 58.8151 66.4853 58.9313 66.6029C59.1854 66.86 59.3523 67.0174 59.4947 67.1075C59.6519 67.207 59.7787 67.2246 59.9344 67.2246H59.936C60.0049 67.2246 60.0792 67.2246 60.1578 67.2053C60.2401 67.1851 60.3181 67.1466 60.4077 67.0833C60.5793 66.962 60.8209 66.729 61.2523 66.293C61.4261 66.1173 61.6322 65.9069 61.8791 65.6551C62.8688 64.6453 64.5128 62.968 67.3482 60.1792L67.3491 60.1783C67.5512 59.9762 67.633 59.7395 67.6187 59.5101C67.6045 59.2844 67.4983 59.0772 67.3451 58.9241C67.192 58.771 66.9847 58.6649 66.7591 58.6507C66.5296 58.6364 66.293 58.7181 66.0909 58.9202L59.9344 65.0767ZM32.4138 39.1458H47.0234C47.3091 39.1458 47.5342 39.0363 47.6863 38.8639C47.8359 38.6944 47.9074 38.4727 47.9074 38.2562C47.9075 38.0396 47.836 37.8179 47.6865 37.6483C47.5344 37.4759 47.3092 37.3664 47.0234 37.3664H32.4138C32.128 37.3664 31.9029 37.4759 31.7508 37.6483C31.6013 37.8179 31.5298 38.0395 31.5297 38.2561C31.5297 38.4727 31.6011 38.6943 31.7507 38.8639C31.9027 39.0363 32.1279 39.1458 32.4138 39.1458ZM31.8623 47.7818H45.3291C45.6149 47.7818 45.84 47.6722 45.9921 47.4998C46.1416 47.3303 46.2131 47.1086 46.2132 46.8921C46.2132 46.6755 46.1418 46.4538 45.9922 46.2843C45.8402 46.1118 45.615 46.0023 45.3291 46.0023H31.8623C31.5766 46.0023 31.3515 46.1119 31.1994 46.2842C31.0498 46.4538 30.9783 46.6754 30.9783 46.892C30.9783 47.1086 31.0497 47.3302 31.1992 47.4998C31.3513 47.6722 31.5765 47.7818 31.8623 47.7818ZM40.5031 54.3628H32.3218C32.0361 54.3628 31.8109 54.4723 31.6588 54.6447C31.5093 54.8142 31.4378 55.0359 31.4377 55.2525C31.4377 55.469 31.5091 55.6907 31.6587 55.8603C31.8107 56.0327 32.0359 56.1422 32.3218 56.1422H40.5031C40.7888 56.1422 41.014 56.0327 41.166 55.8603C41.3156 55.6907 41.3871 55.4691 41.3871 55.2525C41.3872 55.0359 41.3158 54.8143 41.1662 54.6447C41.0141 54.4723 40.7889 54.3628 40.5031 54.3628Z" fill="white" stroke="white" stroke-width="0.3"/>
<path d="M71.7092 53.9997L71.6945 53.8005L71.9062 54.1231L71.9092 54.1277L71.9122 54.1323L71.9152 54.1368L71.9182 54.1414L71.9212 54.146L71.9242 54.1506L71.9272 54.1552L71.9302 54.1598L71.9333 54.1643L71.9363 54.1689L71.9393 54.1735L71.9423 54.1781L71.9453 54.1827L71.9483 54.1873L71.9513 54.1918L71.9543 54.1964L71.9573 54.201L71.9603 54.2056L71.9633 54.2102L71.9663 54.2148L71.9693 54.2193L71.9724 54.2239L71.9754 54.2285L71.9784 54.2331L71.9814 54.2377L71.9844 54.2423L71.9874 54.2468L71.9904 54.2514L71.9934 54.256L71.9964 54.2606L71.9994 54.2652L72.0024 54.2698L72.0054 54.2743L72.0084 54.2789L72.0115 54.2835L72.0145 54.2881L72.0175 54.2927L72.0205 54.2973L72.0235 54.3018L72.0265 54.3064L72.0295 54.311L72.0325 54.3156L72.0355 54.3202L72.0385 54.3248L72.0415 54.3293L72.0445 54.3339L72.0475 54.3385L72.0506 54.3431L72.0536 54.3477L72.0566 54.3523L72.0596 54.3568L72.0626 54.3614L72.0656 54.366L72.0686 54.3706L72.0716 54.3752L72.0746 54.3798L72.0776 54.3843L72.0806 54.3889L72.0836 54.3935L72.0866 54.3981L72.0896 54.4027L72.0927 54.4073L72.0957 54.4118L72.0987 54.4164L72.1017 54.421L72.1047 54.4256L72.1077 54.4302L72.1107 54.4348L72.1137 54.4393L72.1167 54.4439L72.1197 54.4485L72.1227 54.4531L72.1257 54.4577L72.1287 54.4623L72.1318 54.4668L72.1348 54.4714L72.1378 54.476L72.1408 54.4806L72.1438 54.4852L72.1468 54.4898L72.1498 54.4943L72.1528 54.4989L72.1558 54.5035L72.1588 54.5081L72.1618 54.5127L72.1648 54.5173L72.1679 54.5218L72.1709 54.5264L72.1739 54.531L72.1769 54.5356L72.1799 54.5402L72.1829 54.5448L72.1859 54.5493L72.1889 54.5539L72.1919 54.5585L72.1949 54.5631L72.1979 54.5677L72.2009 54.5723L72.2039 54.5768L72.207 54.5814L72.21 54.586L72.213 54.5906L72.216 54.5952L72.219 54.5998L72.222 54.6043L72.225 54.6089L72.228 54.6135L72.231 54.6181L72.234 54.6227L72.237 54.6273L72.24 54.6318L72.243 54.6364L72.2461 54.641L72.2491 54.6456L72.2521 54.6502L72.2551 54.6548L72.2581 54.6593L72.2611 54.6639L72.2641 54.6685L72.2671 54.6731L72.2701 54.6777L72.2731 54.6823L72.2761 54.6868L72.2791 54.6914L72.2821 54.696L72.2852 54.7006L72.2882 54.7052L72.2912 54.7098L72.2942 54.7143L72.2972 54.7189L72.3002 54.7235L72.3032 54.7281L72.3062 54.7327L72.3092 54.7373L72.3122 54.7418L72.3152 54.7464L72.3182 54.751L72.3212 54.7556L72.3243 54.7602L72.3273 54.7648L72.3303 54.7693L72.3333 54.7739L72.3363 54.7785L72.3393 54.7831L72.3423 54.7877L72.3453 54.7923L72.3483 54.7968L72.3513 54.8014L72.3543 54.806L72.3573 54.8106L72.3603 54.8152L72.3634 54.8198L72.3664 54.8243L72.3694 54.8289L72.3724 54.8335L72.3754 54.8381L72.3784 54.8427L72.3814 54.8473L72.3844 54.8518L72.3874 54.8564L72.3904 54.861L72.3934 54.8656L72.3964 54.8702L72.3994 54.8748L72.4025 54.8793L72.4055 54.8839L72.4085 54.8885L72.4115 54.8931L72.4145 54.8977L72.4175 54.9023L72.4205 54.9068L72.4235 54.9114L72.4265 54.916L72.4295 54.9206L72.4325 54.9252L72.4355 54.9298L72.4385 54.9343L72.4416 54.9389L72.4446 54.9435L72.4476 54.9481L72.4506 54.9527L72.4536 54.9573L72.4566 54.9618L72.4596 54.9664L72.4626 54.971L72.4656 54.9756L72.4686 54.9802L72.4716 54.9848L72.4746 54.9893L72.4776 54.9939L72.4807 54.9985L72.4837 55.0031L72.4867 55.0077L72.4897 55.0123L72.4927 55.0168L72.4957 55.0214L72.4987 55.026L72.5017 55.0306L72.5047 55.0352L72.5077 55.0398L72.5107 55.0443L72.5137 55.0489L72.5167 55.0535L72.5198 55.0581L72.5228 55.0627L72.5258 55.0673L72.5288 55.0718L72.5318 55.0764L72.5348 55.081L72.5378 55.0856L72.5408 55.0902L72.5438 55.0948L72.5468 55.0993L72.5498 55.1039L72.5528 55.1085L72.5558 55.1131L72.5589 55.1177L72.5619 55.1223L72.5649 55.1268L72.5679 55.1314L72.5709 55.136L72.5739 55.1406L72.5769 55.1452L72.5799 55.1498L72.5829 55.1543L72.5859 55.1589L72.5889 55.1635L72.5919 55.1681L72.5949 55.1727L72.598 55.1773L72.601 55.1818L72.604 55.1864L72.607 55.191L72.61 55.1956L72.613 55.2002L72.616 55.2048L72.619 55.2093L72.622 55.2139L72.625 55.2185L72.628 55.2231L72.631 55.2277L72.634 55.2323L72.6371 55.2368L72.6401 55.2414L72.6431 55.246L72.6461 55.2506L72.6491 55.2552L72.6521 55.2598L72.6551 55.2643L72.6581 55.2689L72.6611 55.2735L72.6641 55.2781L72.6671 55.2827L72.6701 55.2873L72.6731 55.2918L72.6762 55.2964L72.6792 55.301L72.6822 55.3056L72.6852 55.3102L72.6882 55.3148L72.6912 55.3193L72.6942 55.3239L72.6972 55.3285L72.7002 55.3331L72.7032 55.3377L72.7062 55.3423L72.7092 55.3468L72.7122 55.3514L72.7153 55.356L72.7183 55.3606L72.7213 55.3652L72.7243 55.3698L72.7273 55.3743L72.7303 55.3789L72.7333 55.3835L72.7363 55.3881L72.7393 55.3927L72.7423 55.3973L72.7453 55.4018L72.7483 55.4064L72.7514 55.411L72.7544 55.4156L72.7574 55.4202L72.7604 55.4248L72.7634 55.4293L72.7664 55.4339L72.7694 55.4385L72.7724 55.4431L72.7754 55.4477L72.7784 55.4523L72.7814 55.4568L72.7844 55.4614L72.7874 55.466L72.7905 55.4706L72.7935 55.4752L72.7965 55.4798L72.7995 55.4843L72.8025 55.4889L72.8055 55.4935L72.8085 55.4981L72.8115 55.5027L72.8145 55.5073L72.8175 55.5118L72.8205 55.5164L72.8235 55.521L72.8265 55.5256L72.8295 55.5302L72.8326 55.5348L72.8356 55.5393L72.8386 55.5439L72.8416 55.5485L72.8446 55.5531L72.8476 55.5577L72.8506 55.5623L72.8536 55.5668L72.8566 55.5714L72.8596 55.576L72.8626 55.5806L72.8656 55.5852L72.8686 55.5898L72.8717 55.5943L72.8747 55.5989L72.8777 55.6035L72.8807 55.6081L72.8837 55.6127L72.8867 55.6173L72.8897 55.6218L72.8927 55.6264L72.8957 55.631L72.8987 55.6356L72.9017 55.6402L72.9047 55.6448L72.9077 55.6493L72.9108 55.6539L72.9138 55.6585L72.9168 55.6631L72.9198 55.6677L72.9228 55.6723L72.9258 55.6768L72.9288 55.6814L72.9318 55.686L72.9348 55.6906L72.9378 55.6952L72.9408 55.6998L72.9438 55.7043L72.9468 55.7089L72.9499 55.7135L72.9529 55.7181L72.9559 55.7227L72.9589 55.7273L72.9619 55.7318L72.9649 55.7364L72.9679 55.741L72.9709 55.7456L72.9739 55.7502L72.9769 55.7548L72.9799 55.7593L72.9829 55.7639L72.986 55.7685L72.989 55.7731L72.992 55.7777L72.995 55.7823L72.998 55.7868L73.001 55.7914L73.004 55.796L73.007 55.8006L73.01 55.8052L73.013 55.8098L73.016 55.8144L73.019 55.8189L73.022 55.8235L73.0251 55.8281L73.0281 55.8327L73.0311 55.8373L73.0341 55.8419L73.0371 55.8464L73.0401 55.851L73.0431 55.8556L73.0461 55.8602L73.0491 55.8648L73.0521 55.8694L73.0551 55.8739L73.0581 55.8785L73.0611 55.8831L73.0642 55.8877L73.0672 55.8923L73.0702 55.8969L73.0732 55.9014L73.0762 55.906L73.0792 55.9106L73.0822 55.9152L73.0852 55.9198L73.0882 55.9244L73.0912 55.9289L73.0942 55.9335L73.0972 55.9381L73.1002 55.9427L73.1033 55.9473L73.1063 55.9519L73.1093 55.9564L73.1123 55.961L73.1153 55.9656L73.1183 55.9702L73.1213 55.9748L73.1243 55.9794L73.1273 55.9839L73.1303 55.9885L73.1333 55.9931L73.1363 55.9977L73.1393 56.0023L73.1424 56.0069L73.1454 56.0114L73.1484 56.016L73.1514 56.0206L73.1544 56.0252L73.1574 56.0298L73.1604 56.0344L73.1634 56.0389L73.1664 56.0435L73.1694 56.0481L73.1724 56.0527L73.1754 56.0573L73.1784 56.0619L73.1815 56.0664L73.1845 56.071L73.1875 56.0756L73.1905 56.0802L73.1935 56.0848L73.1965 56.0894L73.1995 56.0939L73.2025 56.0985L73.2055 56.1031L73.2085 56.1077L73.2115 56.1123L73.2145 56.1169L73.2175 56.1214L73.2206 56.126L73.2236 56.1306L73.2266 56.1352L73.2296 56.1398L73.2326 56.1444L73.2356 56.1489L73.2386 56.1535L73.2416 56.1581L73.2446 56.1627L73.2476 56.1673L73.2506 56.1719L73.2536 56.1764L73.2566 56.181L73.2597 56.1856L73.2627 56.1902L73.2657 56.1948L73.2687 56.1994L73.2717 56.2039L73.2747 56.2085L73.2777 56.2131L73.2807 56.2177L73.2837 56.2223L73.2867 56.2269L73.2897 56.2314L73.2927 56.236L73.2957 56.2406L73.2988 56.2452L73.3018 56.2498L73.3048 56.2544L73.3078 56.2589L73.3108 56.2635L73.3138 56.2681L73.3168 56.2727L73.3198 56.2773L73.3228 56.2819L73.3258 56.2864L73.3288 56.291L73.3318 56.2956L73.3348 56.3002L73.3379 56.3048L73.3409 56.3094L73.3439 56.3139L73.3469 56.3185L73.3499 56.3231L73.3529 56.3277L73.3559 56.3323L73.3589 56.3369L73.3619 56.3414L73.3649 56.346L73.3679 56.3506L73.3709 56.3552L73.3739 56.3598L73.377 56.3644L73.38 56.3689L73.383 56.3735L73.386 56.3781L73.389 56.3827L73.392 56.3873L73.395 56.3919L73.398 56.3964L73.401 56.401L73.404 56.4056L73.407 56.4102L73.41 56.4148L73.413 56.4194L73.4161 56.4239L73.4191 56.4285L73.4221 56.4331L73.4251 56.4377L73.4281 56.4423L73.4311 56.4469L73.4341 56.4514L73.4371 56.456L73.4401 56.4606L73.4431 56.4652L73.4461 56.4698L73.4629 56.4953L73.4625 56.5259C73.4076 60.8906 72.844 65.4653 71.0316 69.4514C70.1232 71.4493 68.7788 73.3665 67.344 74.8944C65.911 76.4204 64.379 77.5674 63.0918 78.013L63.0779 78.0178L63.0633 78.0185C62.8132 78.0291 62.4007 78.0429 61.9901 78.0215C61.7848 78.0109 61.5783 77.9913 61.3917 77.9578C61.2065 77.9245 61.0346 77.8763 60.9024 77.805C60.9024 77.805 60.9023 77.8049 60.9022 77.8049L60.9497 77.7169C57.7588 76.0069 55.0679 73.4638 53.1434 70.4154L71.7092 53.9997ZM71.7092 53.9997C71.5842 53.9243 71.4361 53.8828 71.271 53.8946M71.7092 53.9997L71.271 53.8946M20.1351 28.8587C20.0544 28.9681 20.0145 29.0887 19.9942 29.2062C19.9108 29.3266 19.8459 29.4699 19.8393 29.6374L19.8392 29.6375C19.448 39.549 19.4365 51.683 19.8034 66.7305L19.7985 66.7351L19.7953 66.773C19.7012 67.8785 20.1047 69.1408 21.0021 69.8237C21.0161 69.8343 21.0299 69.8448 21.0436 69.8553C21.2156 69.9865 21.3672 70.102 21.5463 70.1986C21.7416 70.304 21.9668 70.3856 22.2882 70.4484C22.9256 70.5732 23.9541 70.6264 25.9044 70.6413C27.6931 70.6551 30.2656 70.6365 34.0373 70.6093C38.4893 70.5771 44.612 70.5329 53.0884 70.5156L29.196 19.6042L29.2575 19.6831L29.1959 19.6043C25.6398 22.3797 22.6759 25.4067 20.1351 28.8587ZM20.1351 28.8587L20.2156 28.9181L20.1351 28.8588C20.1351 28.8588 20.1351 28.8587 20.1351 28.8587ZM71.271 53.8946C67.648 53.9527 64.3258 53.1459 61.6902 51.5682C61.5489 51.4835 61.4226 51.4378 61.283 51.4402C61.1469 51.4426 61.0102 51.4907 60.8488 51.5665C60.7398 51.6176 60.6125 51.685 60.4605 51.7655C60.388 51.8038 60.3099 51.8452 60.2255 51.8892C59.9999 52.0067 59.7245 52.1456 59.3796 52.3034C59.3839 52.2816 59.388 52.2592 59.3918 52.2356C59.4071 52.139 59.4183 52.017 59.4254 51.8067C59.4398 51.387 59.4388 50.6035 59.4207 48.9442C59.4031 47.3237 59.369 44.8654 59.3168 41.0905C59.262 37.1316 59.1872 31.7248 59.0902 24.3176C59.0777 23.3652 59.0614 22.4361 58.829 21.6404C58.5947 20.8379 58.1397 20.1669 57.2537 19.7345L57.2099 19.8244L57.2537 19.7345C56.9923 19.607 56.7295 19.5484 56.4559 19.5277C56.3617 19.5025 56.196 19.4818 55.9759 19.4636C55.744 19.4445 55.4426 19.4276 55.0815 19.4127C54.3593 19.3829 53.395 19.3609 52.2637 19.3453C50.0009 19.3142 47.067 19.3087 44.0585 19.3175C38.0547 19.3353 31.7511 19.4105 29.8857 19.4543L71.271 53.8946ZM50.4343 54.247L50.4343 54.2469C50.5364 53.8364 50.9306 53.5614 51.3525 53.6161C53.0618 53.8247 54.7574 53.7211 56.4288 53.3266C56.653 39.5925 56.5775 29.4282 56.1914 21.396M50.4343 54.247L56.2912 21.3908M50.4343 54.247C49.3717 58.5351 49.7163 63.098 51.372 67.1812L50.4343 54.247ZM56.1914 21.396C56.1913 21.3959 56.1913 21.3957 56.1913 21.3956L56.2912 21.3908M56.1914 21.396C56.1914 21.396 56.1914 21.3961 56.1914 21.3961L56.2912 21.3908M56.1914 21.396C56.1828 21.2379 56.0694 21.1285 55.9248 21.1257M56.2912 21.3908C56.2801 21.1837 56.127 21.0296 55.9267 21.0257M55.9248 21.1257L55.9267 21.0257M55.9248 21.1257C55.9248 21.1257 55.9248 21.1257 55.9247 21.1257L55.9267 21.0257M55.9248 21.1257C46.4004 20.9521 38.1106 20.9505 30.6203 21.1168C30.5788 24.0772 30.6055 25.9255 30.6229 27.1242C30.6282 27.4909 30.6326 27.7969 30.634 28.0553C30.6368 28.6087 30.6256 28.9519 30.5752 29.2061C30.5241 29.4641 30.433 29.629 30.2877 29.8257M55.9267 21.0257L30.2877 29.8257M30.2877 29.8257C30.2892 29.8223 30.2907 29.8189 30.2923 29.8154L30.2009 29.7748L30.2811 29.8345C30.2833 29.8315 30.2855 29.8286 30.2877 29.8257ZM66.6072 16.798L66.6066 16.7984C64.4182 18.4357 63.1333 19.4326 62.3502 20.0402C62.1441 20.2001 61.9727 20.333 61.8288 20.4436C61.4859 20.707 61.2923 20.8485 61.1547 20.9226C61.0835 20.9609 61.0238 20.9832 60.9634 20.9951C60.9044 21.0067 60.849 21.0073 60.7917 21.0073C59.9931 21.0073 59.6416 19.9877 60.2828 19.4995L60.2828 19.4994L65.5901 15.462L66.6072 16.798ZM66.6072 16.798C66.8242 16.6334 66.9296 16.4227 66.9449 16.2081M66.6072 16.798L66.9449 16.2081M66.9449 16.2081C66.9601 15.9962 66.887 15.7882 66.7619 15.6242M66.9449 16.2081L66.7619 15.6242M66.7619 15.6242C66.6369 15.4602 66.4557 15.3347 66.2474 15.2931M66.7619 15.6242L66.2474 15.2931M66.2474 15.2931C66.0368 15.251 65.8061 15.2965 65.5904 15.4618L66.2474 15.2931ZM21.4873 66.8925C21.1704 54.0082 21.1313 43.2628 21.3696 34.2242L44.5779 67.3742L44.4901 67.3756C36.9622 67.4946 29.1819 67.6176 21.7451 67.2962L21.7502 67.1963C21.7501 67.1963 21.7501 67.1963 21.75 67.1963C21.6214 67.1896 21.4932 67.057 21.4873 66.8925ZM53.1569 67.1265L53.1569 67.1265C51.5231 63.449 51.0853 59.2979 51.9037 55.3583C55.0968 55.6082 58.2389 54.8964 61.2525 53.2545C63.8848 54.7214 67.0587 55.5156 70.5026 55.5736C70.9961 64.0177 68.7764 72.0902 61.3106 76.1127C57.7189 74.0791 54.8335 70.9033 53.1569 67.1265ZM58.9065 18.0396L58.9065 18.0395L60.3388 15.1875L60.3388 15.1874C60.4606 14.9444 60.4625 14.709 60.3823 14.5097C60.303 14.3126 60.1465 14.1577 59.9624 14.0651C59.7784 13.9724 59.5608 13.9391 59.3554 13.993C59.1475 14.0477 58.9599 14.1899 58.8376 14.4331L58.8376 14.4331L57.4054 17.2851L57.4053 17.2852C57.2835 17.5282 57.2817 17.7633 57.3623 17.9623C57.4418 18.1589 57.5986 18.3131 57.7828 18.4053C57.9669 18.4974 58.1844 18.5306 58.3896 18.4769C58.5972 18.4227 58.7847 18.2814 58.9065 18.0396ZM61.9198 22.6768L61.9197 22.6768C61.6495 22.6396 61.4258 22.7136 61.2629 22.854C61.1019 22.9927 61.0062 23.191 60.9784 23.3952C60.9506 23.5993 60.9898 23.8161 61.1073 23.993C61.2261 24.172 61.4211 24.3038 61.6902 24.3409L61.6902 24.3409C63.255 24.5557 64.1762 24.6831 64.722 24.7586C64.8918 24.7821 65.0253 24.8006 65.1304 24.8151C65.3513 24.8455 65.4485 24.8586 65.4955 24.8641C65.5186 24.8668 65.5333 24.8681 65.5461 24.8682C65.5523 24.8683 65.5574 24.8681 65.5604 24.8679L65.561 24.8679L65.5686 24.8677C66.6048 24.8677 66.7157 23.3385 65.682 23.1959L61.9198 22.6768ZM22.2954 28.8306C24.2339 26.3534 26.4292 24.0987 28.9411 22.0003C28.9268 24.9017 28.9381 26.5888 28.9446 27.5693C28.9458 27.7525 28.9469 27.911 28.9476 28.0482C28.9498 28.4962 28.9481 28.7095 28.9368 28.8118C28.936 28.8189 28.9352 28.8252 28.9345 28.8306H22.2954ZM28.9745 28.8301C28.9746 28.8301 28.9741 28.8302 28.9731 28.8303L28.9745 28.8301Z" fill="white" stroke="white" stroke-width="0.2"/>
</svg>
