<svg width="130" height="111" viewBox="0 0 130 111" fill="none" xmlns="http://www.w3.org/2000/svg">
<path d="M21.0156 68.6313L28.0239 61.623L24.5198 66.8793L29.776 68.6313H21.0156Z" stroke="#C72323" stroke-width="3.51435"/>
<path d="M74.8458 71.1585L65.4222 65.9696L70.6394 70.3771L65.5932 73.7377L74.8458 71.1585Z" stroke="#C72323" stroke-width="3.51435"/>
<mask id="path-3-inside-1_815_23733" fill="white">
<path fill-rule="evenodd" clip-rule="evenodd" d="M25.0977 43.6836V61.0247L25.0995 61.0228V66.8215H25.0977V89.9564C25.0977 90.6206 25.3301 91.2614 25.7543 91.7774C25.8149 91.8511 25.8794 91.9222 25.9477 91.9905C26.4942 92.537 27.2228 92.8406 27.9818 92.8406H68.4514C68.4682 92.8406 68.4849 92.8405 68.5016 92.8402C69.2425 92.8271 69.9511 92.525 70.4855 91.9905C71.0244 91.4517 71.3271 90.7357 71.3354 89.9881L71.3356 89.9611L71.3356 89.9564H71.366V67.0595L64.4463 63.5635H30.1836C30.0457 63.5635 29.934 63.4517 29.934 63.3138C29.934 63.176 30.0457 63.0642 30.1836 63.0642H63.4581L56.3241 59.46H30.1836C30.0457 59.46 29.934 59.3482 29.934 59.2103C29.934 59.0725 30.0457 58.9607 30.1836 58.9607H55.3359L49.0177 55.7686H30.1836C30.0457 55.7686 29.934 55.6568 29.934 55.5189C29.934 55.3811 30.0457 55.2693 30.1836 55.2693H48.0294L25.0977 43.6836Z"/>
</mask>
<path fill-rule="evenodd" clip-rule="evenodd" d="M25.0977 43.6836V61.0247L25.0995 61.0228V66.8215H25.0977V89.9564C25.0977 90.6206 25.3301 91.2614 25.7543 91.7774C25.8149 91.8511 25.8794 91.9222 25.9477 91.9905C26.4942 92.537 27.2228 92.8406 27.9818 92.8406H68.4514C68.4682 92.8406 68.4849 92.8405 68.5016 92.8402C69.2425 92.8271 69.9511 92.525 70.4855 91.9905C71.0244 91.4517 71.3271 90.7357 71.3354 89.9881L71.3356 89.9611L71.3356 89.9564H71.366V67.0595L64.4463 63.5635H30.1836C30.0457 63.5635 29.934 63.4517 29.934 63.3138C29.934 63.176 30.0457 63.0642 30.1836 63.0642H63.4581L56.3241 59.46H30.1836C30.0457 59.46 29.934 59.3482 29.934 59.2103C29.934 59.0725 30.0457 58.9607 30.1836 58.9607H55.3359L49.0177 55.7686H30.1836C30.0457 55.7686 29.934 55.6568 29.934 55.5189C29.934 55.3811 30.0457 55.2693 30.1836 55.2693H48.0294L25.0977 43.6836Z" fill="white"/>
<path d="M25.0977 61.0247H24.5984V62.2298L25.4507 61.3778L25.0977 61.0247ZM25.0977 43.6836L25.3228 43.238L24.5984 42.872V43.6836H25.0977ZM25.0995 61.0228H25.5988V59.8177L24.7465 60.6697L25.0995 61.0228ZM25.0995 66.8215V67.3208H25.5988V66.8215H25.0995ZM25.0977 66.8215V66.3223H24.5984V66.8215H25.0977ZM25.7543 91.7774L25.3686 92.0945L25.3687 92.0945L25.7543 91.7774ZM25.9477 91.9905L25.5947 92.3436L25.5947 92.3436L25.9477 91.9905ZM27.9818 92.8406L27.9818 93.3399H27.9818V92.8406ZM68.5016 92.8402L68.5104 93.3394H68.5104L68.5016 92.8402ZM70.4855 91.9905L70.1325 91.6375L70.4855 91.9905ZM71.3354 89.9881L71.8347 89.9936L71.8347 89.9912L71.3354 89.9881ZM71.3356 89.9611L71.8349 89.9643L71.8349 89.9615L71.3356 89.9611ZM71.3356 89.9564V89.4572H70.8367L70.8363 89.956L71.3356 89.9564ZM71.366 89.9564V90.4557H71.8652V89.9564H71.366ZM71.366 67.0595H71.8652V66.7523L71.5911 66.6138L71.366 67.0595ZM64.4463 63.5635L64.6714 63.1179L64.5653 63.0642H64.4463V63.5635ZM63.4581 63.0642V63.5635L63.6832 62.6186L63.4581 63.0642ZM56.3241 59.46L56.5493 59.0143L56.4431 58.9607H56.3241V59.46ZM55.3359 58.9607V59.46L55.561 58.5151L55.3359 58.9607ZM49.0177 55.7686L49.2428 55.3229L49.1366 55.2693H49.0177V55.7686ZM48.0294 55.2693V55.7686L48.2546 54.8237L48.0294 55.2693ZM25.5969 61.0247V43.6836H24.5984V61.0247H25.5969ZM24.7465 60.6697L24.7447 60.6716L25.4507 61.3778L25.4525 61.3759L24.7465 60.6697ZM25.5988 66.8215V61.0228H24.6002V66.8215H25.5988ZM25.0977 67.3208H25.0995V66.3223H25.0977V67.3208ZM25.5969 89.9564V66.8215H24.5984V89.9564H25.5969ZM26.14 91.4603C25.7881 91.0323 25.5969 90.5031 25.5969 89.9564H24.5984C24.5984 90.738 24.8721 91.4906 25.3686 92.0945L26.14 91.4603ZM26.3008 91.6375C26.2439 91.5806 26.1903 91.5215 26.14 91.4603L25.3687 92.0945C25.4395 92.1807 25.5149 92.2638 25.5947 92.3436L26.3008 91.6375ZM27.9818 92.3413C27.3573 92.3413 26.7551 92.0918 26.3008 91.6375L25.5947 92.3436C26.2333 92.9822 27.0884 93.3399 27.9818 93.3399L27.9818 92.3413ZM68.4514 92.3413H27.9818V93.3399H68.4514V92.3413ZM68.4928 92.341C68.479 92.3412 68.4652 92.3413 68.4514 92.3413V93.3399C68.4711 93.3399 68.4908 93.3397 68.5104 93.3394L68.4928 92.341ZM70.1325 91.6375C69.6882 92.0818 69.1024 92.3302 68.4928 92.341L68.5104 93.3394C69.3825 93.324 70.214 92.9681 70.8386 92.3436L70.1325 91.6375ZM70.8362 89.9825C70.8293 90.5976 70.5805 91.1895 70.1325 91.6375L70.8386 92.3436C71.4683 91.7138 71.8249 90.8737 71.8347 89.9936L70.8362 89.9825ZM70.8363 89.9579L70.8362 89.9849L71.8347 89.9912L71.8349 89.9643L70.8363 89.9579ZM70.8363 89.956L70.8363 89.9607L71.8349 89.9615L71.8349 89.9569L70.8363 89.956ZM71.366 89.4572H71.3356V90.4557H71.366V89.4572ZM70.8667 67.0595V89.9564H71.8652V67.0595H70.8667ZM71.5911 66.6138L64.6714 63.1179L64.2211 64.0091L71.1408 67.5051L71.5911 66.6138ZM30.1836 64.0628H64.4463V63.0642H30.1836V64.0628ZM29.4347 63.3138C29.4347 63.7275 29.77 64.0628 30.1836 64.0628V63.0642C30.3215 63.0642 30.4332 63.176 30.4332 63.3138H29.4347ZM30.1836 62.5649C29.77 62.5649 29.4347 62.9002 29.4347 63.3138H30.4332C30.4332 63.4517 30.3215 63.5635 30.1836 63.5635V62.5649ZM63.4581 62.5649H30.1836V63.5635H63.4581V62.5649ZM63.6832 62.6186L56.5493 59.0143L56.099 59.9056L63.2329 63.5098L63.6832 62.6186ZM56.3241 58.9607H30.1836V59.9592H56.3241V58.9607ZM30.1836 58.9607C30.3215 58.9607 30.4332 59.0725 30.4332 59.2103H29.4347C29.4347 59.6239 29.77 59.9592 30.1836 59.9592V58.9607ZM30.4332 59.2103C30.4332 59.3482 30.3215 59.46 30.1836 59.46V58.4614C29.77 58.4614 29.4347 58.7967 29.4347 59.2103H30.4332ZM30.1836 59.46H55.3359V58.4614H30.1836V59.46ZM55.561 58.5151L49.2428 55.3229L48.7925 56.2142L55.1108 59.4063L55.561 58.5151ZM30.1836 56.2678H49.0177V55.2693H30.1836V56.2678ZM29.4347 55.5189C29.4347 55.9325 29.77 56.2678 30.1836 56.2678V55.2693C30.3215 55.2693 30.4332 55.3811 30.4332 55.5189H29.4347ZM30.1836 54.77C29.77 54.77 29.4347 55.1053 29.4347 55.5189H30.4332C30.4332 55.6568 30.3215 55.7686 30.1836 55.7686V54.77ZM48.0294 54.77H30.1836V55.7686H48.0294V54.77ZM48.2546 54.8237L25.3228 43.238L24.8725 44.1292L47.8043 55.7149L48.2546 54.8237Z" fill="#FF6D6D" mask="url(#path-3-inside-1_815_23733)"/>
<path d="M17.5195 70.3867H77.0898V84.9924C77.0898 86.6187 75.7452 87.9074 74.1191 87.9074H20.5215C19.7397 87.9074 18.958 87.6006 18.4264 87.0482C17.8635 86.4959 17.5508 85.7595 17.5508 84.9617V70.3867H17.5195Z" fill="#EF4444"/>
<path d="M40.6429 81.4512V74.8723H43.4207C43.4846 74.8723 43.5699 74.8754 43.6765 74.8814C43.7862 74.8845 43.8836 74.8936 43.9689 74.9089C44.3618 74.9698 44.6831 75.0992 44.9329 75.2972C45.1857 75.4952 45.3715 75.7449 45.4903 76.0465C45.6091 76.3449 45.6685 76.6784 45.6685 77.047C45.6685 77.4155 45.6075 77.7506 45.4857 78.0521C45.3669 78.3506 45.1811 78.5988 44.9283 78.7968C44.6786 78.9948 44.3588 79.1242 43.9689 79.1851C43.8836 79.1973 43.7862 79.2064 43.6765 79.2125C43.5669 79.2186 43.4816 79.2217 43.4207 79.2217H41.8856V81.4512H40.6429ZM41.8856 78.0612H43.3659C43.4298 78.0612 43.4999 78.0582 43.576 78.0521C43.6522 78.046 43.7222 78.0338 43.7862 78.0155C43.9537 77.9699 44.0831 77.8937 44.1745 77.7871C44.2659 77.6775 44.3283 77.5572 44.3618 77.4262C44.3984 77.2922 44.4166 77.1658 44.4166 77.047C44.4166 76.9282 44.3984 76.8033 44.3618 76.6724C44.3283 76.5383 44.2659 76.418 44.1745 76.3114C44.0831 76.2018 43.9537 76.1241 43.7862 76.0784C43.7222 76.0602 43.6522 76.048 43.576 76.0419C43.4999 76.0358 43.4298 76.0327 43.3659 76.0327H41.8856V78.0612ZM46.5858 81.4512V74.8723H48.7148C48.7665 74.8723 48.8731 74.8738 49.0346 74.8769C49.196 74.8799 49.3513 74.8906 49.5006 74.9089C50.0305 74.9728 50.4798 75.1571 50.8483 75.4617C51.2169 75.7662 51.4971 76.1531 51.6889 76.6221C51.8808 77.0912 51.9768 77.6044 51.9768 78.1617C51.9768 78.7191 51.8808 79.2323 51.6889 79.7014C51.4971 80.1704 51.2169 80.5572 50.8483 80.8618C50.4798 81.1664 50.0305 81.3507 49.5006 81.4146C49.3513 81.4329 49.196 81.4436 49.0346 81.4466C48.8731 81.4496 48.7665 81.4512 48.7148 81.4512H46.5858ZM47.8467 80.2816H48.7148C48.797 80.2816 48.9082 80.2801 49.0483 80.277C49.1884 80.2709 49.3148 80.2572 49.4275 80.2359C49.7138 80.178 49.9468 80.044 50.1265 79.8339C50.3092 79.6237 50.4432 79.3709 50.5285 79.0755C50.6168 78.78 50.661 78.4755 50.661 78.1617C50.661 77.8328 50.6153 77.5206 50.5239 77.2252C50.4356 76.9297 50.3001 76.68 50.1173 76.4759C49.9346 76.2718 49.7046 76.1424 49.4275 76.0876C49.3148 76.0632 49.1884 76.0495 49.0483 76.0465C48.9082 76.0434 48.797 76.0419 48.7148 76.0419H47.8467V80.2816ZM53.0729 81.4512V74.8723H57.0933V76.115H54.3156V77.5404H56.5451V78.7831H54.3156V81.4512H53.0729Z" fill="white"/>
<mask id="path-7-inside-2_815_23733" fill="white">
<path fill-rule="evenodd" clip-rule="evenodd" d="M28.6953 29.4002L35.1187 32.6449H76.1078C76.2457 32.6449 76.3574 32.7567 76.3574 32.8945C76.3574 33.0324 76.2457 33.1442 76.1078 33.1442H36.1071L81.9558 56.3041V21.6656C81.9558 20.757 81.6064 19.9182 80.9773 19.2892L62.9792 1.29104C62.3501 0.661979 61.4764 0.3125 60.6027 0.3125H32.0154C31.1417 0.3125 30.268 0.661979 29.6739 1.29104C29.0448 1.88515 28.6953 2.75885 28.6953 3.63255V29.4002ZM34.2972 23.9199C34.2972 23.7821 34.409 23.6703 34.5469 23.6703H76.1078C76.2457 23.6703 76.3574 23.7821 76.3574 23.9199C76.3574 24.0578 76.2457 24.1696 76.1078 24.1696H34.5469C34.409 24.1696 34.2972 24.0578 34.2972 23.9199ZM34.5469 27.9222C34.409 27.9222 34.2972 28.034 34.2972 28.1719C34.2972 28.3097 34.409 28.4215 34.5469 28.4215H76.1078C76.2457 28.4215 76.3574 28.3097 76.3574 28.1719C76.3574 28.034 76.2457 27.9222 76.1078 27.9222H34.5469Z"/>
</mask>
<path fill-rule="evenodd" clip-rule="evenodd" d="M28.6953 29.4002L35.1187 32.6449H76.1078C76.2457 32.6449 76.3574 32.7567 76.3574 32.8945C76.3574 33.0324 76.2457 33.1442 76.1078 33.1442H36.1071L81.9558 56.3041V21.6656C81.9558 20.757 81.6064 19.9182 80.9773 19.2892L62.9792 1.29104C62.3501 0.661979 61.4764 0.3125 60.6027 0.3125H32.0154C31.1417 0.3125 30.268 0.661979 29.6739 1.29104C29.0448 1.88515 28.6953 2.75885 28.6953 3.63255V29.4002ZM34.2972 23.9199C34.2972 23.7821 34.409 23.6703 34.5469 23.6703H76.1078C76.2457 23.6703 76.3574 23.7821 76.3574 23.9199C76.3574 24.0578 76.2457 24.1696 76.1078 24.1696H34.5469C34.409 24.1696 34.2972 24.0578 34.2972 23.9199ZM34.5469 27.9222C34.409 27.9222 34.2972 28.034 34.2972 28.1719C34.2972 28.3097 34.409 28.4215 34.5469 28.4215H76.1078C76.2457 28.4215 76.3574 28.3097 76.3574 28.1719C76.3574 28.034 76.2457 27.9222 76.1078 27.9222H34.5469Z" fill="white"/>
<path d="M28.6953 29.4002H28.196V29.7074L28.4702 29.8459L28.6953 29.4002ZM35.1187 32.6449L34.8935 33.0905L34.9997 33.1442H35.1187V32.6449ZM36.1071 33.1442V32.6449L35.8819 33.5898L36.1071 33.1442ZM81.9558 56.3041L81.7307 56.7497L82.4551 57.1156V56.3041H81.9558ZM80.9773 19.2892L80.6243 19.6422L80.9773 19.2892ZM62.9792 1.29104L62.6261 1.64408V1.64408L62.9792 1.29104ZM29.6739 1.29104L30.0167 1.65402L30.027 1.64423L30.0368 1.63386L29.6739 1.29104ZM28.4702 29.8459L34.8935 33.0905L35.3438 32.1992L28.9204 28.9546L28.4702 29.8459ZM76.1078 32.1456H35.1187V33.1442H76.1078V32.1456ZM76.8567 32.8945C76.8567 32.4809 76.5214 32.1456 76.1078 32.1456V33.1442C75.9699 33.1442 75.8582 33.0324 75.8582 32.8945H76.8567ZM76.1078 33.6434C76.5214 33.6434 76.8567 33.3081 76.8567 32.8945H75.8582C75.8582 32.7567 75.9699 32.6449 76.1078 32.6449V33.6434ZM36.1071 33.6434H76.1078V32.6449H36.1071V33.6434ZM35.8819 33.5898L81.7307 56.7497L82.181 55.8584L36.3322 32.6985L35.8819 33.5898ZM81.4566 21.6656V56.3041H82.4551V21.6656H81.4566ZM80.6243 19.6422C81.1592 20.1772 81.4566 20.8887 81.4566 21.6656H82.4551C82.4551 20.6253 82.0536 19.6593 81.3304 18.9361L80.6243 19.6422ZM62.6261 1.64408L80.6243 19.6422L81.3304 18.9361L63.3322 0.937998L62.6261 1.64408ZM60.6027 0.811778C61.3475 0.811778 62.0931 1.11108 62.6261 1.64408L63.3322 0.937998C62.6071 0.212872 61.6053 -0.186778 60.6027 -0.186778V0.811778ZM32.0154 0.811778H60.6027V-0.186778H32.0154V0.811778ZM30.0368 1.63386C30.5292 1.11257 31.2678 0.811778 32.0154 0.811778V-0.186778C31.0156 -0.186778 30.0068 0.211386 29.3109 0.948224L30.0368 1.63386ZM29.1946 3.63255C29.1946 2.88494 29.4954 2.14635 30.0167 1.65402L29.331 0.928059C28.5942 1.62396 28.196 2.63276 28.196 3.63255H29.1946ZM29.1946 29.4002V3.63255H28.196V29.4002H29.1946ZM34.5469 23.171C34.1333 23.171 33.798 23.5063 33.798 23.9199H34.7965C34.7965 24.0578 34.6848 24.1696 34.5469 24.1696V23.171ZM76.1078 23.171H34.5469V24.1696H76.1078V23.171ZM76.8567 23.9199C76.8567 23.5063 76.5214 23.171 76.1078 23.171V24.1696C75.9699 24.1696 75.8582 24.0578 75.8582 23.9199H76.8567ZM76.1078 24.6688C76.5214 24.6688 76.8567 24.3335 76.8567 23.9199H75.8582C75.8582 23.7821 75.9699 23.6703 76.1078 23.6703V24.6688ZM34.5469 24.6688H76.1078V23.6703H34.5469V24.6688ZM33.798 23.9199C33.798 24.3335 34.1333 24.6688 34.5469 24.6688V23.6703C34.6848 23.6703 34.7965 23.7821 34.7965 23.9199H33.798ZM34.7965 28.1719C34.7965 28.3097 34.6848 28.4215 34.5469 28.4215V27.423C34.1333 27.423 33.798 27.7583 33.798 28.1719H34.7965ZM34.5469 27.9222C34.6848 27.9222 34.7965 28.034 34.7965 28.1719H33.798C33.798 28.5855 34.1333 28.9208 34.5469 28.9208V27.9222ZM76.1078 27.9222H34.5469V28.9208H76.1078V27.9222ZM75.8582 28.1719C75.8582 28.034 75.9699 27.9222 76.1078 27.9222V28.9208C76.5214 28.9208 76.8567 28.5855 76.8567 28.1719H75.8582ZM76.1078 28.4215C75.9699 28.4215 75.8582 28.3097 75.8582 28.1719H76.8567C76.8567 27.7583 76.5214 27.423 76.1078 27.423V28.4215ZM34.5469 28.4215H76.1078V27.423H34.5469V28.4215Z" fill="#FF6D6D" mask="url(#path-7-inside-2_815_23733)"/>
<path d="M81.1101 21.6887V22.1438H62.6709C60.7733 22.1438 59.2695 20.6386 59.2695 18.8183V0.300781C60.1646 0.300781 61.4538 0.300781 63.6381 2.48508L80.1792 19.3084C80.7878 19.9385 81.1459 20.7786 81.1101 21.6887Z" fill="#FF6D6D"/>
<path fill-rule="evenodd" clip-rule="evenodd" d="M69.7077 50.0304H83.2309C85.0483 50.0304 86.5512 48.5625 86.5512 46.7102V30.0742H30.2012L69.7077 50.0304Z" fill="#EF4444"/>
<path d="M60.4916 42.5078V35.9289H63.2694C63.3333 35.9289 63.4186 35.932 63.5252 35.9381C63.6349 35.9411 63.7323 35.9503 63.8176 35.9655C64.2105 36.0264 64.5319 36.1559 64.7816 36.3538C65.0344 36.5518 65.2202 36.8016 65.339 37.1031C65.4578 37.4016 65.5172 37.7351 65.5172 38.1036C65.5172 38.4722 65.4562 38.8072 65.3344 39.1087C65.2156 39.4072 65.0298 39.6554 64.777 39.8534C64.5273 40.0514 64.2075 40.1808 63.8176 40.2418C63.7323 40.2539 63.6349 40.2631 63.5252 40.2692C63.4156 40.2753 63.3303 40.2783 63.2694 40.2783H61.7343V42.5078H60.4916ZM61.7343 39.1179H63.2146C63.2785 39.1179 63.3486 39.1148 63.4247 39.1087C63.5009 39.1026 63.5709 39.0905 63.6349 39.0722C63.8024 39.0265 63.9318 38.9504 64.0232 38.8437C64.1146 38.7341 64.177 38.6138 64.2105 38.4828C64.2471 38.3488 64.2653 38.2224 64.2653 38.1036C64.2653 37.9848 64.2471 37.86 64.2105 37.729C64.177 37.595 64.1146 37.4747 64.0232 37.3681C63.9318 37.2584 63.8024 37.1808 63.6349 37.1351C63.5709 37.1168 63.5009 37.1046 63.4247 37.0985C63.3486 37.0924 63.2785 37.0894 63.2146 37.0894H61.7343V39.1179ZM66.4345 42.5078V35.9289H68.5635C68.6152 35.9289 68.7218 35.9305 68.8833 35.9335C69.0447 35.9366 69.2 35.9472 69.3493 35.9655C69.8792 36.0295 70.3285 36.2137 70.697 36.5183C71.0656 36.8229 71.3458 37.2097 71.5377 37.6787C71.7295 38.1478 71.8255 38.661 71.8255 39.2184C71.8255 39.7758 71.7295 40.289 71.5377 40.758C71.3458 41.2271 71.0656 41.6139 70.697 41.9185C70.3285 42.223 69.8792 42.4073 69.3493 42.4713C69.2 42.4895 69.0447 42.5002 68.8833 42.5032C68.7218 42.5063 68.6152 42.5078 68.5635 42.5078H66.4345ZM67.6954 41.3382H68.5635C68.6457 41.3382 68.7569 41.3367 68.897 41.3337C69.0371 41.3276 69.1635 41.3139 69.2762 41.2925C69.5625 41.2347 69.7955 41.1007 69.9752 40.8905C70.1579 40.6803 70.2919 40.4276 70.3772 40.1321C70.4655 39.8367 70.5097 39.5321 70.5097 39.2184C70.5097 38.8894 70.464 38.5772 70.3726 38.2818C70.2843 37.9864 70.1488 37.7366 69.966 37.5325C69.7833 37.3285 69.5533 37.199 69.2762 37.1442C69.1635 37.1198 69.0371 37.1061 68.897 37.1031C68.7569 37.1 68.6457 37.0985 68.5635 37.0985H67.6954V41.3382ZM72.9216 42.5078V35.9289H76.942V37.1716H74.1643V38.597H76.3938V39.8397H74.1643V42.5078H72.9216Z" fill="white"/>
<g clip-path="url(#clip0_815_23733)">
<path d="M85.5279 54.9519C86.1013 55.35 86.5862 55.8642 86.9557 56.4659L95.9609 71.0823L103.037 82.5643L103.762 83.7417L107.173 89.2779L107.166 89.2822C107.75 90.3016 108.123 91.4438 108.264 92.6433C108.405 93.8427 108.311 95.0755 107.988 96.2708C107.664 97.4661 107.117 98.6002 106.378 99.6078C105.639 100.615 104.723 101.477 103.683 102.142C102.643 102.807 101.499 103.263 100.316 103.484C99.1342 103.704 97.9374 103.685 96.795 103.427C95.6525 103.17 94.5869 102.678 93.6596 101.982C92.7323 101.285 91.9616 100.397 91.3919 99.3682C89.1956 95.354 90.4957 89.9818 94.3633 87.0747C95.4404 86.2623 96.6596 85.6861 97.9379 85.3853L95.9832 82.2132L95.2582 81.0358L88.1847 69.5541L79.282 55.1042C80.2329 54.4413 81.3359 54.0725 82.449 54.0454C83.5621 54.0182 84.6344 54.3339 85.5279 54.9519Z" fill="#C8C5CC"/>
<path d="M103.977 101.944C105.979 100.556 107.43 98.4601 108.026 96.0982C108.622 93.7363 108.316 91.2927 107.172 89.2819L107.178 89.2776L103.767 83.7414L95.9889 82.2129L97.9436 85.385C96.6653 85.6858 95.4461 86.262 94.3689 87.0744C90.5014 89.9815 89.2013 95.3537 91.3976 99.3679C91.976 100.426 92.7673 101.336 93.7231 102.043C94.6789 102.751 95.7791 103.24 96.9565 103.481C98.1339 103.722 99.3638 103.71 100.571 103.446C101.778 103.182 102.937 102.671 103.977 101.944Z" fill="#F9B15E"/>
<path d="M102.048 96.2872C103.179 94.6568 102.875 92.4884 101.368 91.4439C99.8622 90.3994 97.7247 90.8745 96.5941 92.5049C95.4634 94.1353 95.7679 96.3037 97.274 97.3482C98.7802 98.3926 100.918 97.9176 102.048 96.2872Z" fill="white"/>
<path d="M95.1018 69.5423L102.178 81.0244L94.3991 79.4958L87.3257 68.0141L95.1018 69.5423Z" fill="#AEADB3"/>
<path d="M123.669 73.5429C123.071 75.9042 121.617 77.9984 119.614 79.3844C117.61 80.7705 115.214 81.3402 112.93 80.9735L112.929 80.9811L106.548 79.7272L105.192 79.4606L91.9573 76.8591L75.1116 73.549C74.4013 73.4099 73.7347 73.1256 73.1502 72.7125C72.5658 72.2993 72.0751 71.7655 71.7065 71.1417C71.3379 70.518 71.0986 69.8167 71.0025 69.0783C70.9064 68.3399 70.9553 67.579 71.1464 66.8395L87.8002 70.112L101.033 72.7119L102.39 72.9782L106.046 73.6969C105.879 72.3943 105.992 71.0504 106.375 69.7569C107.742 65.1157 112.317 62.0149 116.847 62.6647C118.04 62.8356 119.17 63.2575 120.168 63.9048C121.165 64.5521 122.009 65.411 122.647 66.4292C123.286 67.4473 123.706 68.6033 123.882 69.8264C124.057 71.0495 123.985 72.3141 123.669 73.5429Z" fill="#C8C5CC"/>
<path d="M123.668 73.5443C123.069 75.9056 121.615 77.9998 119.612 79.3859C117.609 80.7719 115.213 81.3416 112.929 80.975L112.927 80.9825L106.546 79.7286L102.388 72.9796L106.044 73.6983C105.878 72.3957 105.99 71.0518 106.373 69.7583C107.74 65.1171 112.316 62.0163 116.845 62.6661C118.039 62.837 119.169 63.2589 120.166 63.9062C121.164 64.5535 122.007 65.4124 122.646 66.4306C123.284 67.4487 123.704 68.6047 123.88 69.8278C124.056 71.0509 123.984 72.3155 123.668 73.5443Z" fill="#F9B15E"/>
<path d="M116.846 62.6655C112.594 62.0555 108.301 64.7512 106.66 68.9237C108.127 67.5812 109.94 66.7231 111.837 66.4732C113.734 66.2233 115.617 66.5945 117.215 67.5334C118.813 68.4722 120.043 69.9301 120.727 71.6965C121.411 73.4629 121.514 75.4466 121.021 77.3611C120.916 77.7746 120.784 78.1822 120.627 78.5813C121.948 77.3912 122.939 75.8644 123.486 74.1772C124.033 72.49 124.113 70.7114 123.718 69.0468C123.323 67.3822 122.467 65.8997 121.251 64.7705C120.035 63.6413 118.508 62.9115 116.846 62.6655ZM101.173 85.2667C96.9241 84.6388 92.6279 87.3524 90.9874 91.5249C92.4538 90.1823 94.2665 89.3242 96.1635 89.0743C98.0606 88.8244 99.9441 89.1957 101.542 90.1345C103.14 91.0733 104.37 92.5312 105.054 94.2976C105.738 96.064 105.841 98.0477 105.348 99.9622C105.243 100.376 105.111 100.783 104.954 101.182C106.439 99.8386 107.504 98.0752 107.995 96.1448C108.312 94.9159 108.386 93.651 108.21 92.4274C108.035 91.2038 107.615 90.0473 106.977 89.0289C106.338 88.0104 105.494 87.1514 104.496 86.5045C103.498 85.8576 102.367 85.4364 101.173 85.2667Z" fill="#F9A242"/>
<path d="M117.697 73.7247C118.827 72.0943 118.523 69.9259 117.017 68.8814C115.511 67.8369 113.373 68.312 112.243 69.9424C111.112 71.5728 111.416 73.7412 112.922 74.7857C114.429 75.8301 116.566 75.3551 117.697 73.7247Z" fill="white"/>
<path d="M115.848 68.3895C115.021 68.2301 114.144 68.3983 113.389 68.8611C112.633 69.3239 112.054 70.048 111.765 70.8916C112.331 70.421 113.015 70.1331 113.72 70.068C114.425 70.0029 115.117 70.1637 115.7 70.5281C116.283 70.8926 116.728 71.4426 116.974 72.1019C117.219 72.7612 117.253 73.4972 117.071 74.2077C117.045 74.3083 117.015 74.4067 116.982 74.5035C117.501 74.0773 117.903 73.5169 118.14 72.8871C118.377 72.2572 118.44 71.5837 118.321 70.9442C118.203 70.3048 117.908 69.7256 117.47 69.2735C117.032 68.8214 116.47 68.5149 115.848 68.3895ZM100.249 90.8834C99.4221 90.7241 98.5451 90.8923 97.7899 91.3551C97.0348 91.8179 96.4558 92.5419 96.1663 93.3856C96.7328 92.9149 97.4159 92.6271 98.121 92.5619C98.8261 92.4968 99.5182 92.6576 100.101 93.0221C100.684 93.3865 101.13 93.9365 101.375 94.5959C101.621 95.2552 101.655 95.9912 101.472 96.7017C101.446 96.8023 101.416 96.9006 101.383 96.9975C101.903 96.5713 102.304 96.0109 102.541 95.381C102.778 94.7512 102.841 94.0776 102.723 93.4382C102.604 92.7988 102.309 92.2195 101.871 91.7675C101.434 91.3154 100.871 91.0089 100.249 90.8834Z" fill="#E1E1E3"/>
<path d="M97.3879 75.2589C97.6316 74.9076 97.5647 74.4394 97.2386 74.2132C96.9124 73.987 96.4505 74.0886 96.2068 74.4399C95.9632 74.7913 96.03 75.2595 96.3562 75.4857C96.6823 75.7118 97.1442 75.6103 97.3879 75.2589Z" fill="white"/>
</g>
<line x1="2.3607" y1="24.4035" x2="77.3277" y2="62.2721" stroke="#343333" stroke-width="3.51435" stroke-linecap="square" stroke-dasharray="7.03 7.03"/>
<line x1="15.7806" y1="66.8789" x2="15.7806" y2="73.8872" stroke="#D4FBF1" stroke-width="3.51435"/>
<defs>
<clipPath id="clip0_815_23733">
<rect width="52.8554" height="49.0579" fill="white" transform="translate(59.5664 82.2793) rotate(-55.2602)"/>
</clipPath>
</defs>
</svg>
